<svg id="icn-chatbot" xmlns="http://www.w3.org/2000/svg" xmlns:xlink="http://www.w3.org/1999/xlink" width="31.713" height="32" viewBox="0 0 31.713 32">
  <defs>
    <clipPath id="clip-path">
      <rect id="Rectangle_4417" data-name="Rectangle 4417" width="31.713" height="32" fill="#a5d30c"/>
    </clipPath>
  </defs>
  <g id="Group_12706" data-name="Group 12706" clip-path="url(#clip-path)">
    <path id="Path_5371" data-name="Path 5371" d="M31.7,13.933a13.1,13.1,0,0,0-4.7-9.9A16.9,16.9,0,0,0,15.849,0C7.11,0,0,6.264,0,13.964,0,21.506,6.821,27.67,15.313,27.921v2.915a1.165,1.165,0,0,0,1.785.986,53.433,53.433,0,0,0,10.335-7.951c3.042-3.258,4.438-6.508,4.267-9.937M8.545,16.878a2.261,2.261,0,1,1,2.261-2.261,2.261,2.261,0,0,1-2.261,2.261m7.311,0a2.261,2.261,0,1,1,2.262-2.261,2.261,2.261,0,0,1-2.262,2.261m7.312,0a2.261,2.261,0,1,1,2.261-2.261,2.261,2.261,0,0,1-2.261,2.261" transform="translate(0 0)" fill="#a5d30c"/>
  </g>
</svg>
