<svg id="icn-call" xmlns="http://www.w3.org/2000/svg" width="24" height="32.196" viewBox="0 0 24 32.196">
  <path id="Path_196" data-name="Path 196" d="M1548.264,298.686a27.2,27.2,0,0,0,2.568,4.447c12.038,17.593,18.29,5.045,18.29,5.045-.447-4.173-8.37-8.272-9.173-6.136-.288.764-.343.994-.548,1.638a1.467,1.467,0,0,1-1.923.676c-1.231-.562-2.957-2.858-4.46-5.449s-2.618-5.24-2.489-6.587c.088-.92.758-1.254,1.546-1.328.66.144.886.212,1.693.345,2.251.373,2.593-8.817-.728-11.012C1553.04,280.324,1539.047,279.465,1548.264,298.686Z" transform="translate(-1545.122 -280.318)" fill="#fff"/>
</svg>
