<svg xmlns="http://www.w3.org/2000/svg" width="56" height="56" viewBox="0 0 56 56">
  <g id="_24h" data-name="24h" transform="translate(-0.211)">
    <path id="Trazado_1353" data-name="Trazado 1353" d="M64.21,77.569c0-8.273-8.75-14.858-16.856-15.54V59.747a2.677,2.677,0,0,0-2.679-2.677H16.484a2.683,2.683,0,0,0-2.677,2.685V84.637a2.125,2.125,0,0,0,2.124,2.124h5.137a4.86,4.86,0,0,0,9.433,0H48.19a4.86,4.86,0,0,0,9.433,0h2.5a4.089,4.089,0,0,0,4.084-4.089L64.179,77.7a.774.774,0,0,0,.032-.134Zm-1.567-.757H52.121a4.773,4.773,0,0,1-4.767-4.768V63.558C55.818,64.271,62.139,70.842,62.643,76.812ZM25.791,88.919a3.341,3.341,0,1,1,3.339-3.34,3.341,3.341,0,0,1-3.339,3.34Zm27.121,0a3.341,3.341,0,1,1,3.341-3.341,3.341,3.341,0,0,1-3.341,3.341Zm7.215-3.686H57.756a4.862,4.862,0,0,0-9.7,0H30.639a4.862,4.862,0,0,0-9.7,0H15.932a.592.592,0,0,1-.592-.592v-.474H19a.764.764,0,1,0,0-1.527H15.336V59.755a1.152,1.152,0,0,1,1.15-1.15H44.677a1.154,1.154,0,0,1,1.152,1.15V72.044a6.3,6.3,0,0,0,6.294,6.294H62.657l.024,4.346a2.568,2.568,0,0,1-2.554,2.548Z" transform="translate(-11.378 -45.796)" fill="#1C3879"/>
    <path id="Trazado_1354" data-name="Trazado 1354" d="M240.067,171.735h-.626a.719.719,0,0,1-.717-.717v-.1a.764.764,0,1,0-1.527,0v.1a2.248,2.248,0,0,0,2.244,2.24h.626a.764.764,0,1,0,0-1.527Z" transform="translate(-190.633 -136.513)" fill="#1C3879"/>
    <path id="Trazado_1355" data-name="Trazado 1355" d="M119.264,186.46H105.725a.764.764,0,1,0,0,1.527h13.539a.764.764,0,1,0,0-1.527Z" transform="translate(-84.522 -149.623)" fill="#1C3879"/>
    <path id="Trazado_1356" data-name="Trazado 1356" d="M195.866,106.591a14.213,14.213,0,0,1,6.091,4.034.764.764,0,0,0,1.154-1,15.787,15.787,0,0,0-6.751-4.475.764.764,0,0,0-.494,1.446Z" transform="translate(-157.071 -84.35)" fill="#1C3879"/>
    <path id="Trazado_1357" data-name="Trazado 1357" d="M54.489,105.49H51.853l1.231-.96c1.336-1.037,1.987-1.663,1.987-2.927v-.022a2.332,2.332,0,0,0-2.6-2.333A2.985,2.985,0,0,0,50,100.362a.836.836,0,0,0-.2.519.764.764,0,0,0,1.318.517,1.6,1.6,0,0,1,1.234-.659.93.93,0,0,1,1.018.988c0,.642-.367,1.049-1.308,1.816L49.92,105.3a1.043,1.043,0,0,0-.433.832.8.8,0,0,0,.9.79h4.109a.715.715,0,0,0,.723-.713.723.723,0,0,0-.723-.723Z" transform="translate(-40.005 -79.638)" fill="#1C3879"/>
    <path id="Trazado_1358" data-name="Trazado 1358" d="M87.829,106.2v-.907h.4a.669.669,0,0,0,.68-.669.678.678,0,0,0-.68-.68h-.4V100.03a.79.79,0,0,0-.79-.79A1.227,1.227,0,0,0,86,99.8l-3.286,3.813a1.349,1.349,0,0,0-.4.909.79.79,0,0,0,.81.764h3.112v.907a.793.793,0,1,0,1.586,0Zm-1.581-2.256H84.233l2.009-2.355Z" transform="translate(-66.356 -79.634)" fill="#1C3879"/>
    <path id="Trazado_1359" data-name="Trazado 1359" d="M122.6,105.706a.822.822,0,0,0,.822-.822v-2.474c0-.778.4-1.186,1.025-1.186s.988.4.988,1.186v2.474a.822.822,0,1,0,1.642,0v-2.991a1.9,1.9,0,0,0-1.973-2.15,2.046,2.046,0,0,0-1.7.928V98.5a.822.822,0,1,0-1.642,0v6.381a.82.82,0,0,0,.836.822Z" transform="translate(-98.008 -78.352)" fill="#1C3879"/>
    <rect id="Rectángulo_76" data-name="Rectángulo 76" width="56" height="56" transform="translate(0.211)" fill="none"/>
  </g>
</svg>
