<svg id="Grupo_266" data-name="Grupo 266" xmlns="http://www.w3.org/2000/svg" xmlns:xlink="http://www.w3.org/1999/xlink" width="27.125" height="32" viewBox="0 0 27.125 32">
  <defs>
    <clipPath id="clip-path">
      <path id="Trazado_169" data-name="Trazado 169" d="M5.027,0A3.075,3.075,0,0,0,3.4.476,6.538,6.538,0,0,0,.489,3.425c-1.466,4.162.469,11.083,4.481,17.4h0c4.136,6.233,9.671,10.816,14.07,11.169.087.007.174.01.261.011h.009a7.018,7.018,0,0,0,3.607-1.467h0a2.728,2.728,0,0,0,1.258-2.758c-.292-1.093-.559-1.34-2.066-3.181-1.076-1.314-1.646-1.917-2.36-2.719a2.037,2.037,0,0,0-2.633-.275L15.192,22.85a2.041,2.041,0,0,1-2.589-.227,32.815,32.815,0,0,1-3.54-4.46,32.815,32.815,0,0,1-2.634-5.048,2.041,2.041,0,0,1,.845-2.458L9.2,9.409a2.037,2.037,0,0,0,.82-2.517c-.443-.978-.761-1.744-1.524-3.261C7.424,1.5,7.306,1.16,6.427.449A2.2,2.2,0,0,0,5.035,0Z" transform="translate(0 -0.001)" fill="#ff1983"/>
    </clipPath>
    <clipPath id="clip-path-2">
      <rect id="Rect치ngulo_190" data-name="Rect치ngulo 190" width="27.125" height="32" fill="#ff1983"/>
    </clipPath>
  </defs>
  <g id="Grupo_263" data-name="Grupo 263" transform="translate(0 0)">
    <g id="Grupo_262" data-name="Grupo 262" clip-path="url(#clip-path)">
      <rect id="Rect치ngulo_189" data-name="Rect치ngulo 189" width="27.062" height="33.286" transform="matrix(0.999, -0.052, 0.052, 0.999, -2.649, 0.088)" fill="#ff1983"/>
    </g>
  </g>
  <g id="Grupo_265" data-name="Grupo 265">
    <g id="Grupo_264" data-name="Grupo 264" clip-path="url(#clip-path-2)">
      <path id="Trazado_170" data-name="Trazado 170" d="M1847.955,1091.347a5.445,5.445,0,0,0-3.594-2.325,5.977,5.977,0,0,0-1.955-.032.549.549,0,0,0-.463.653l.342,1.444a.494.494,0,0,0,.538.373,3.08,3.08,0,0,1,3.025,4.658.5.5,0,0,0,.122.644l1.18.9a.55.55,0,0,0,.787-.161,5.976,5.976,0,0,0,.8-1.943,5.468,5.468,0,0,0-.78-4.21" transform="translate(-1827.744 -1080.539)" fill="#ff1983"/>
      <path id="Trazado_171" data-name="Trazado 171" d="M1530.124,307.675a12.3,12.3,0,0,0,.213-4.821,11.686,11.686,0,0,0-1.755-4.591l0,0,0,0a11.685,11.685,0,0,0-3.481-3.47,12.3,12.3,0,0,0-4.491-1.766,13.114,13.114,0,0,0-4.931.046l-.008,0a.785.785,0,0,0-.624.93l.235.992a.717.717,0,0,0,.85.525,10.509,10.509,0,0,1,3.877-.02,9.5,9.5,0,0,1,7.613,11.723,10.51,10.51,0,0,1-1.591,3.528.724.724,0,0,0,.135,1l.805.614a.785.785,0,0,0,1.1-.192l0-.007a13.115,13.115,0,0,0,2.047-4.486" transform="translate(-1503.357 -290.554)" fill="#ff1983"/>
    </g>
  </g>
</svg>
