<?xml version="1.0" encoding="utf-8"?>
<!-- Generator: Adobe Illustrator 26.5.0, SVG Export Plug-In . SVG Version: 6.00 Build 0)  -->
<svg version="1.1" id="Layer_1" xmlns="http://www.w3.org/2000/svg" xmlns:xlink="http://www.w3.org/1999/xlink" x="0px" y="0px"
	 viewBox="0 0 384 347" style="enable-background:new 0 0 384 347;" xml:space="preserve">
<style type="text/css">
	.st0{fill:#FFFFFF;}
	.st1{fill-rule:evenodd;clip-rule:evenodd;fill:#FFFFFF;}
</style>
<g>
	<path class="st0" d="M55.5,316l20.1-74.8c-11.4-20.5-17.3-43.4-17.3-66.7c0-76.2,62-138.1,138.1-138.1c76.2,0,138.1,62,138.1,138.1
		c0,76.2-62,138.1-138.1,138.1c-22.9,0-45.4-5.8-65.7-16.7L55.5,316z M134.5,267.9l4.7,2.8c17.4,10.4,37.2,15.8,57.2,15.8
		c61.8,0,112-50.2,112-112c0-61.8-50.3-112-112-112c-61.8,0-112,50.2-112,112c0,20.4,5.7,40.5,16.4,58.1l2.9,4.8l-11.2,41.8
		L134.5,267.9z"/>
	<path class="st1" d="M247.8,193.7c-5.7-3.4-13.1-7.2-19.8-4.5c-5.1,2.1-8.4,10.1-11.7,14.3c-1.7,2.1-3.7,2.4-6.4,1.4
		c-19.3-7.7-34.1-20.6-44.7-38.3c-1.8-2.8-1.5-4.9,0.7-7.5c3.2-3.8,7.3-8.1,8.1-13.2c0.9-5.1-1.5-11.1-3.6-15.6
		c-2.7-5.8-5.7-14.1-11.5-17.4c-5.3-3-12.4-1.3-17.1,2.5c-8.2,6.7-12.2,17.2-12.1,27.6c0,3,0.4,5.9,1.1,8.8
		c1.7,6.9,4.8,13.3,8.4,19.3c2.7,4.6,5.6,9,8.8,13.3c10.3,14,23.2,26.2,38,35.3c7.4,4.5,15.4,8.5,23.7,11.3
		c9.3,3.1,17.6,6.3,27.6,4.4c10.5-2,20.9-8.5,25-18.6c1.2-3,1.9-6.3,1.2-9.5C261.9,200.8,253,196.9,247.8,193.7z"/>
</g>
</svg>
