<svg id="Capa_1" data-name="Capa 1" xmlns="http://www.w3.org/2000/svg" viewBox="0 0 54.31 83.71"><defs><style>.cls-1{fill:#bf8a0d;}</style></defs><path class="cls-1" d="M22.63,8.79c-.37-.26-.75-.49-1.13-.71a6.56,6.56,0,0,1-1.58-1.15,2.88,2.88,0,0,1-.53-2.8,6.84,6.84,0,0,1,.46-.95A3.88,3.88,0,0,0,20.51.52a.65.65,0,0,0-.79-.5.66.66,0,0,0-.5.79,2.81,2.81,0,0,1-.54,1.74,8.4,8.4,0,0,0-.54,1.13,4.18,4.18,0,0,0,.79,4.12,7.31,7.31,0,0,0,1.9,1.42,10.92,10.92,0,0,1,1,.64c1.92,1.42,2.72,3.94,3.44,6.61a33.85,33.85,0,0,1,1,4.44c-1.7-3.31-4.59-8.3-7.42-10.26a4.2,4.2,0,0,0-5.13,0,3.84,3.84,0,0,0-1.18,4.48c1.66,4.09,8.26,7.32,11.93,8.84H22.56v5.81a27.15,27.15,0,1,0,9,0V24H29c3.79-2.2,12.94-8.06,14.33-14A4.64,4.64,0,0,0,41,4.79a5.16,5.16,0,0,0-6.2,1c-3.09,3-5.68,9.63-7.15,14.07V5.48H26.35v9.89C25.61,12.75,24.7,10.32,22.63,8.79Zm-8.89,5.85a2.49,2.49,0,0,1,.78-3,2.69,2.69,0,0,1,1.69-.59,3.21,3.21,0,0,1,1.86.64h0c3.06,2.12,6.39,8.49,7.79,11.38C22.66,21.86,15.34,18.6,13.74,14.64ZM1.35,56.55A25.77,25.77,0,0,1,12.51,35.32l2.66,4.09-4.52-.77a.73.73,0,1,0-.25,1.44l5.85,1,2.25,3.48-6.62-1.12a.73.73,0,1,0-.25,1.44l7.95,1.34,5.48,8.45-3.63-1.85L20.3,48.73a.74.74,0,0,0-.91-.51.73.73,0,0,0-.5.9l.77,2.78-1.19-.61-.83-3a.73.73,0,0,0-.9-.51.74.74,0,0,0-.51.91l.47,1.66L15,49.53a.73.73,0,0,0-1,.32.72.72,0,0,0,.31,1l1.7.86-1.63.61a.73.73,0,1,0,.51,1.36L17.8,52.6l1.2.61-2.71,1a.74.74,0,0,0-.43.94.73.73,0,0,0,.94.43l4-1.47L24.4,56l-10.06.52L8.59,50.83a.73.73,0,0,0-1,1l4.8,4.71-4.14.22L4,52.65a.73.73,0,1,0-1,1L6.24,56.9l-4.88.25C1.36,57,1.35,56.75,1.35,56.55Zm.09,2.06,4.88-.25L3.4,61.89a.73.73,0,1,0,1.12.94L8.3,58.26,12.44,58,8.15,63.22a.73.73,0,0,0,1.13.94l5.14-6.22,10.06-.52-3.43,2.22L17,58.58a.73.73,0,0,0-.89.53.73.73,0,0,0,.53.89l2.8.72-1.13.73-3-.77a.73.73,0,0,0-.36,1.42l1.67.43-1.59,1a.73.73,0,0,0,.8,1.23l1.59-1-.29,1.71a.73.73,0,0,0,1.44.25l.52-3,1.12-.73-.48,2.85a.73.73,0,1,0,1.44.25l.71-4.18,3.42-2.22-4.58,9-7.77,2.16a.73.73,0,0,0-.51.9.74.74,0,0,0,.91.51l6.47-1.8-1.88,3.69-5.72,1.59a.73.73,0,0,0,.4,1.41L17,74.84l-2.22,4.35A25.85,25.85,0,0,1,1.44,58.61ZM27.16,82.36a25.72,25.72,0,0,1-11.08-2.5l2.23-4.36,1.59,4.3a.74.74,0,0,0,.94.43.73.73,0,0,0,.43-.94l-2.06-5.55L21.09,70l2.34,6.3a.74.74,0,0,0,.94.43.73.73,0,0,0,.43-.94L22,68.28l4.58-9,.21,4.07-3,3a.73.73,0,0,0,0,1,.74.74,0,0,0,1,0l2-2.07L27,66.71,24.8,68.9a.73.73,0,1,0,1,1l1.22-1.24.09,1.9a.73.73,0,0,0,1.46-.07l-.1-1.9,1.33,1.1a.73.73,0,1,0,.94-1.12l-2.37-2-.07-1.34,2.23,1.84A.73.73,0,0,0,31.5,66l-3.26-2.7L28,59.24l5.47,8.44-2,7.81a.73.73,0,0,0,1.42.36l1.67-6.5,2.26,3.47-1.48,5.74a.73.73,0,0,0,1.41.37l1.15-4.44,2.66,4.1A25.69,25.69,0,0,1,27.16,82.36ZM53,56.55A25.78,25.78,0,0,1,41.8,77.78l-2.65-4.09,4.51.77a.74.74,0,0,0,.85-.6.74.74,0,0,0-.6-.85l-5.84-1-2.26-3.48,6.63,1.12a.73.73,0,1,0,.24-1.44l-8-1.34-5.47-8.45,3.62,1.85L34,64.37a.73.73,0,0,0,.9.51.74.74,0,0,0,.51-.9l-.78-2.79,1.2.61.82,3a.73.73,0,1,0,1.41-.4l-.46-1.66,1.69.86a.73.73,0,1,0,.66-1.3l-1.69-.86,1.62-.61a.73.73,0,1,0-.51-1.37L36.51,60.5l-1.2-.61,2.72-1a.73.73,0,1,0-.52-1.36l-4,1.47-3.63-1.85,10-.52,5.75,5.64a.73.73,0,1,0,1-1L42,56.51l4.14-.21,4.23,4.15a.73.73,0,1,0,1-1L48.07,56.2,53,55.94C53,56.15,53,56.35,53,56.55Zm-.09-2.06L48,54.74l2.92-3.53a.73.73,0,0,0-1.13-.94L46,54.84l-4.13.22,4.28-5.18A.73.73,0,1,0,45,48.94l-5.15,6.22-10,.52,3.42-2.22,4.1,1.06a.73.73,0,0,0,.37-1.42l-2.8-.72,1.12-.73,3,.77A.73.73,0,0,0,39.4,51l-1.68-.43,1.59-1a.73.73,0,1,0-.79-1.23l-1.6,1,.29-1.7a.74.74,0,0,0-.59-.85.75.75,0,0,0-.85.6l-.51,3-1.13.74.48-2.85a.73.73,0,1,0-1.44-.25l-.7,4.18-3.42,2.21,4.57-9,7.77-2.16A.73.73,0,1,0,41,41.92l-6.47,1.8L36.41,40l5.71-1.59A.73.73,0,1,0,41.73,37l-4.42,1.23,2.22-4.35A25.81,25.81,0,0,1,52.87,54.49ZM38.23,33.24,36,37.6l-1.6-4.3a.73.73,0,1,0-1.37.51l2.07,5.55-1.89,3.7-2.34-6.31a.73.73,0,0,0-1.37.52l2.81,7.55-4.58,9-.21-4.07,3-3a.73.73,0,0,0-1-1l-2,2.07-.07-1.35,2.15-2.19a.73.73,0,0,0,0-1,.74.74,0,0,0-1,0l-1.21,1.23-.1-1.89a.73.73,0,1,0-1.46.07l.1,1.9-1.33-1.11a.74.74,0,0,0-1,.1.73.73,0,0,0,.09,1l2.37,2L26,47.81,23.75,46a.73.73,0,1,0-.94,1.12l3.27,2.71.21,4.06-5.48-8.44,2-7.81a.73.73,0,1,0-1.41-.36l-1.68,6.5-2.25-3.48L19,34.54a.73.73,0,0,0-1.42-.37l-1.15,4.44-2.65-4.1a25.77,25.77,0,0,1,24.49-1.27ZM35.73,6.72a4.12,4.12,0,0,1,2.86-1.24,3.58,3.58,0,0,1,1.77.46A3.34,3.34,0,0,1,42,9.66C40.71,15.16,31.61,20.9,28.09,23,29.18,19.29,32.18,10.13,35.73,6.72ZM30.21,25.31v4.26a27.91,27.91,0,0,0-3.05-.18,27.38,27.38,0,0,0-3.28.21V25.31Z"/></svg>