<svg xmlns="http://www.w3.org/2000/svg" xmlns:xlink="http://www.w3.org/1999/xlink" width="418" height="399" viewBox="0 0 418 399">
  <defs>
    <filter id="Sustracción_1" x="0" y="0" width="389" height="389" filterUnits="userSpaceOnUse">
      <feOffset input="SourceAlpha"/>
      <feGaussianBlur stdDeviation="8" result="blur"/>
      <feFlood flood-color="#ffbf30"/>
      <feComposite operator="in" in2="blur"/>
      <feComposite in="SourceGraphic"/>
    </filter>
    <filter id="Trazado_634" x="251" y="232" width="167" height="167" filterUnits="userSpaceOnUse">
      <feOffset input="SourceAlpha"/>
      <feGaussianBlur stdDeviation="6" result="blur-2"/>
      <feFlood flood-color="#ffbf30"/>
      <feComposite operator="in" in2="blur-2"/>
      <feComposite in="SourceGraphic"/>
    </filter>
  </defs>
  <g id="img-datos-gold" transform="translate(-792 -78)">
    <g id="Grupo_327" data-name="Grupo 327">
      <g transform="matrix(1, 0, 0, 1, 792, 78)" filter="url(#Sustracción_1)">
        <g id="Sustracción_1-2" data-name="Sustracción 1" transform="translate(904 24)" fill="#fff" stroke-linecap="round" stroke-linejoin="round">
          <path d="M -709.4996948242188 339.0001220703125 C -720.9338989257812 339.0001220703125 -732.3599853515625 337.8483581542969 -743.4606323242188 335.5768737792969 C -754.2785034179688 333.3631896972656 -764.919189453125 330.0600891113281 -775.0870971679688 325.7593688964844 C -785.0709228515625 321.5366821289062 -794.7006225585938 316.3099060058594 -803.708740234375 310.2242431640625 C -812.631591796875 304.1959533691406 -821.0223388671875 297.2730102539062 -828.6476440429688 289.6475830078125 C -836.273193359375 282.0220336914062 -843.1961059570312 273.6313781738281 -849.2242431640625 264.7086486816406 C -855.3097534179688 255.7009582519531 -860.5365600585938 246.0712738037109 -864.7594604492188 236.0871429443359 C -869.06005859375 225.9195404052734 -872.3630981445312 215.2788238525391 -874.576904296875 204.4605865478516 C -876.848388671875 193.3597259521484 -878.0001831054688 181.93359375 -878.0001831054688 170.4996337890625 C -878.0001831054688 159.0657806396484 -876.848388671875 147.6397247314453 -874.576904296875 136.5389556884766 C -872.3630981445312 125.7209091186523 -869.06005859375 115.0802764892578 -864.7594604492188 104.9125900268555 C -860.5365600585938 94.92868041992188 -855.3097534179688 85.29909515380859 -849.2242431640625 76.29136657714844 C -843.1961059570312 67.36849975585938 -836.2731323242188 58.97781753540039 -828.6476440429688 51.35245513916016 C -821.0223999023438 43.72713851928711 -812.6317138671875 36.80418395996094 -803.7086791992188 30.77590942382812 C -794.70068359375 24.69027328491211 -785.0709838867188 19.46345520019531 -775.087158203125 15.2407283782959 C -764.9195556640625 10.94013690948486 -754.2788696289062 7.637091636657715 -743.4606323242188 5.423364162445068 C -732.35986328125 3.151818752288818 -720.9337158203125 2.000046014785767 -709.4996948242188 2.000046014785767 C -698.0657348632812 2.000046014785767 -686.6396484375 3.151818752288818 -675.5390014648438 5.423364162445068 C -664.7212524414062 7.637000560760498 -654.08056640625 10.9400463104248 -643.91259765625 15.2407283782959 C -633.9288330078125 19.4635009765625 -624.29931640625 24.6903190612793 -615.2913208007812 30.77590942382812 C -606.3687744140625 36.803955078125 -597.9780883789062 43.72690963745117 -590.3524169921875 51.35245513916016 C -582.7268676757812 58.97800064086914 -575.8040161132812 67.36863708496094 -569.7760009765625 76.29132080078125 C -563.690185546875 85.29949951171875 -558.4634399414062 94.92909240722656 -554.2407836914062 104.9125900268555 C -549.9400634765625 115.0807266235352 -546.6370239257812 125.7213668823242 -544.4234619140625 136.5389556884766 C -542.15185546875 147.6397705078125 -541.0000610351562 159.0657806396484 -541.0000610351562 170.4996337890625 C -541.0000610351562 188.4036254882812 -543.7890014648438 206.0073394775391 -549.2916259765625 222.8547515869141 C -555.8334350585938 220.9600067138672 -562.6222534179688 220.0003204345703 -569.500244140625 220.0003204345703 C -609.4766845703125 220.0003204345703 -641.9999389648438 252.5235443115234 -641.9999389648438 292.5000610351562 C -641.9999389648438 302.804931640625 -639.8916625976562 312.7312927246094 -635.7301635742188 322.0364074707031 C -646.6905517578125 327.3807067871094 -658.2369995117188 331.52490234375 -670.081787109375 334.3639526367188 C -682.9169921875 337.4403076171875 -696.1790771484375 339.0001220703125 -709.4996948242188 339.0001220703125 Z" stroke="none"/>
          <path d="M -709.4996948242188 337.0001220703125 C -696.3358764648438 337.0001220703125 -683.2306518554688 335.4588317871094 -670.5479125976562 332.4190368652344 C -659.4630126953125 329.7621154785156 -648.642333984375 325.9481811523438 -638.32763671875 321.0655517578125 C -642.0938720703125 312.0221252441406 -643.9999389648438 302.4322509765625 -643.9999389648438 292.5000610351562 C -643.9999389648438 251.4207763671875 -610.5795288085938 218.0003204345703 -569.500244140625 218.0003204345703 C -563.0881958007812 218.0003204345703 -556.7520751953125 218.8120269775391 -550.6109619140625 220.4170532226562 C -545.55908203125 204.3231048583984 -543.0000610351562 187.5497589111328 -543.0000610351562 170.4996337890625 C -543.0000610351562 159.2001800537109 -544.13818359375 147.9090423583984 -546.3828735351562 136.9399108886719 C -548.5699462890625 126.2516403198242 -551.83349609375 115.7382278442383 -556.0828247070312 105.6916809082031 C -560.255126953125 95.82714080810547 -565.4197387695312 86.3121337890625 -571.4332885742188 77.41095733642578 C -577.3900146484375 68.59372711181641 -584.2311401367188 60.30218124389648 -591.7666015625 52.76668167114258 C -599.30224609375 45.23113632202148 -607.5938110351562 38.38995361328125 -616.4110107421875 32.43318176269531 C -625.3118896484375 26.41986465454102 -634.826904296875 21.25522804260254 -644.6917724609375 17.08272743225098 C -654.7380981445312 12.83350086212158 -665.2515258789062 9.569954872131348 -675.9400024414062 7.382728099822998 C -686.9089965820312 5.138136863708496 -698.2001342773438 4.000046253204346 -709.4996948242188 4.000046253204346 C -720.7993774414062 4.000046253204346 -732.0905151367188 5.138136863708496 -743.0596923828125 7.382728099822998 C -753.74853515625 9.570046424865723 -764.2620239257812 12.83359146118164 -774.30810546875 17.08277320861816 C -784.1729736328125 21.25518226623535 -793.6880493164062 26.41981887817383 -802.5890502929688 32.43318176269531 C -811.4066162109375 38.39018249511719 -819.6981811523438 45.23136520385742 -827.2334594726562 52.76668167114258 C -834.7689208984375 60.30204772949219 -841.6100463867188 68.59358978271484 -847.5669555664062 77.41095733642578 C -853.5802612304688 86.31172943115234 -858.744873046875 95.82672882080078 -862.91748046875 105.6917266845703 C -867.1666870117188 115.7378158569336 -870.4302368164062 126.2512283325195 -872.6174926757812 136.9399108886719 C -874.862060546875 147.9089965820312 -876.0001831054688 159.2001342773438 -876.0001831054688 170.4996337890625 C -876.0001831054688 181.7992248535156 -874.862060546875 193.0904541015625 -872.6175537109375 204.0596313476562 C -870.43017578125 214.7485504150391 -867.1666259765625 225.2619934082031 -862.91748046875 235.3080444335938 C -858.744873046875 245.1732330322266 -853.5802001953125 254.6883239746094 -847.5669555664062 263.5890502929688 C -841.6101684570312 272.4062805175781 -834.7689208984375 280.6978759765625 -827.2334594726562 288.2333984375 C -819.6981201171875 295.7687683105469 -811.4065551757812 302.6100158691406 -802.5890502929688 308.5669555664062 C -793.6880493164062 314.5803527832031 -784.1729125976562 319.7449645996094 -774.3080444335938 323.9173583984375 C -764.2616577148438 328.1666870117188 -753.7482299804688 331.4302673339844 -743.0596923828125 333.6174621582031 C -732.0906982421875 335.862060546875 -720.7994995117188 337.0001220703125 -709.4996948242188 337.0001220703125 M -709.4996948242188 341.0001220703125 C -721.0680541992188 341.0001220703125 -732.6290283203125 339.8347778320312 -743.861572265625 337.5362854003906 C -754.8087768554688 335.296142578125 -765.5767211914062 331.9535522460938 -775.8662719726562 327.6013793945312 C -785.9689331054688 323.3283996582031 -795.7131958007812 318.0394592285156 -804.8283081054688 311.8814697265625 C -813.856689453125 305.7820129394531 -822.3464965820312 298.7772827148438 -830.0618896484375 291.0618286132812 C -837.77734375 283.3463134765625 -844.7821044921875 274.8565368652344 -850.8814697265625 265.8282775878906 C -857.0394287109375 256.7133178710938 -862.328369140625 246.9690856933594 -866.6015014648438 236.8662261962891 C -870.95361328125 226.5767211914062 -874.296142578125 215.8087310791016 -876.5363159179688 204.8615417480469 C -878.8347778320312 193.6289978027344 -880.0001831054688 182.0679626464844 -880.0001831054688 170.4996337890625 C -880.0001831054688 158.9313659667969 -878.8347778320312 147.3704528808594 -876.5363159179688 136.1380004882812 C -874.296142578125 125.1908645629883 -870.95361328125 114.4230041503906 -866.6015014648438 104.1334991455078 C -862.3283081054688 94.03068542480469 -857.0393676757812 84.28654479980469 -850.8814697265625 75.17173004150391 C -844.7820434570312 66.14336395263672 -837.77734375 57.65363693237305 -830.0618896484375 49.93822860717773 C -822.3464965820312 42.22282028198242 -813.856689453125 35.21813583374023 -804.8283081054688 29.11868286132812 C -795.7131958007812 22.9606819152832 -785.9689331054688 17.67172813415527 -775.8662719726562 13.3987283706665 C -765.5768432617188 9.046636581420898 -754.8088989257812 5.704136848449707 -743.861572265625 3.463955163955688 C -732.6290283203125 1.165455222129822 -721.0680541992188 4.609819006873295e-05 -709.4996948242188 4.609819006873295e-05 C -697.9314575195312 4.609819006873295e-05 -686.3704833984375 1.165455222129822 -675.1380615234375 3.463955163955688 C -664.19091796875 5.704091548919678 -653.4230346679688 9.046636581420898 -643.133544921875 13.3987283706665 C -633.0308227539062 17.67181968688965 -623.2866821289062 22.96077346801758 -614.1717529296875 29.11868286132812 C -605.1435546875 35.21804428100586 -596.65380859375 42.22272872924805 -588.938232421875 49.93822860717773 C -581.2227172851562 57.65377426147461 -574.218017578125 66.14354705810547 -568.1187744140625 75.17173004150391 C -561.9608154296875 84.28672790527344 -556.6718139648438 94.03086090087891 -552.3988037109375 104.1334991455078 C -548.046630859375 114.423225402832 -544.7041015625 125.1911392211914 -542.4640502929688 136.1380004882812 C -540.16552734375 147.3704071044922 -539.0000610351562 158.9313201904297 -539.0000610351562 170.4996337890625 C -539.0000610351562 189.2752227783203 -542.0314331054688 207.7246856689453 -548.0098876953125 225.3356781005859 C -554.9329223632812 223.1226806640625 -562.162841796875 222.0003204345703 -569.500244140625 222.0003204345703 C -608.3739013671875 222.0003204345703 -639.9999389648438 253.6263580322266 -639.9999389648438 292.5000610351562 C -639.9999389648438 303.1678771972656 -637.6770629882812 313.4175415039062 -633.0958862304688 322.96435546875 C -644.7091064453125 328.7948303222656 -656.9959716796875 333.2840881347656 -669.6156005859375 336.3088684082031 C -682.6033325195312 339.4217834472656 -696.0222778320312 341.0001220703125 -709.4996948242188 341.0001220703125 Z" stroke="none" fill="#ffbf30"/>
        </g>
      </g>
      <g id="sky-image-desktop" transform="translate(115.358 15.995)">
        <g id="Grupo_288" data-name="Grupo 288" transform="translate(807.722 330.637)">
          <g id="logo-laliga" transform="translate(65.349 0)">
            <rect id="Rectángulo_42" data-name="Rectángulo 42" width="54" height="54" transform="translate(-0.429 0.368)" fill="none"/>
            <g id="logo-bundesliga" transform="translate(3.973 6.513)">
              <rect id="Rectángulo_44" data-name="Rectángulo 44" width="44.922" height="34.475" transform="translate(0.015 0)" fill="#eb2728"/>
              <path id="Trazado_193" data-name="Trazado 193" d="M66.594,55.045c0,.074-.08.148-.233.221l-.08.077v.074c0,.074,0,.074-.077.148l-.153.077h-.156v-.077l-.156.077v.074c0,.074,0,.074-.077.148l-.156.077h-.153v-.077c-.543.3-1.242.522-1.862.82v.074c0,.077,0,.077-.08.15l-.153.074H63.1l-.077-.074-.233.074.077.074c0,.077,0,.077-.077.15l-.156.074h-.153L62.4,57.2a.572.572,0,0,1-.856-.3c-.077-.224-.077-.67-.153-.885a.3.3,0,0,0-.233-.15c-2.95-.519-3.879.077-5.821-.372-.62-.148-.929-.67-1.628-.67-1.552-.074-2.018,0-3.8-.074a1.153,1.153,0,0,0-.077.3H43.783l.929.434.3,2.531a1.717,1.717,0,0,1-.3.077c.08.519.08,1.18.156,1.785,0,.522.077,1.118.077,1.475a1.321,1.321,0,0,1-.153.67.9.9,0,0,1-.466.448,5.058,5.058,0,0,1-.543.389l-.776.372c0,.074.077.15.077.224-3.646,1.711-8.225,2.233-9.7,4.989-.156.3-.776.148-.776-.224V67.7h-.08c-.077,0-.077-.077-.077-.15v-.147a.257.257,0,0,1,.077-.15h.08c0-.148.077-.3.077-.445h-.077c-.08,0-.08-.077,0-.15l.077-.148c0-.074.077-.15.153-.074h.08c.233-.59.776-.82,1.009-1.416h0c-.08,0-.08-.074,0-.148l-.08-.15c0-.074.08-.15.156-.074h.077c0-.077.08-.15.156-.224h-.077c-.08,0-.08-.074,0-.148l.077-.15c.077-.074.077-.074.156-.074h0l.077-.074a.723.723,0,0,1,.776,0,1.693,1.693,0,0,0,2.018-.15c1.4-1.266,3.1-2.9,4.343-2.977A16.332,16.332,0,0,1,40.6,58.1l-.386-.077a17.234,17.234,0,0,1-.932-4.169,11.166,11.166,0,0,1,0-2.307,1.18,1.18,0,0,0-.31.148c-.233-.522.543-5.139,1.242-6.49l1.162-.445c-.153,0-.929-.077-3.1-.224-1.239,1.041-2.558,2.16-3.334,2.755-.156.074-.313.743-.313.743a4.13,4.13,0,0,1-.7.522c-.466.3-1.475.522-1.708.148-.077-.074-.077-.148,0-.148.156-.148.776-.443,1.015-.808a1.677,1.677,0,0,1-1.009.3c-.156,0-.233-.3,0-.372a2.5,2.5,0,0,0,1.086-.59,1.127,1.127,0,0,1,1.009-.59s2.018-2.531,3.18-3.723a1.351,1.351,0,0,1,.932-.221l.077-.375s4.036-.445,5.974.15a2.183,2.183,0,0,1,2.251-2.531A2.889,2.889,0,0,1,49.22,41.5c.077.3-.156.522-.233.885-.156.59.077,1.18,0,1.339s-.233.15-.389.375-.386.67-.386.67l-.224.519-1.242-.074a17.384,17.384,0,0,0-1.708,4.841h0c1.009.074,5.511.67,5.511.67l.077.372a14.3,14.3,0,0,1,3.413.885,5.549,5.549,0,0,1,1.785.224l.156-.15c2.015.59,3.723,1.637,5.664,2.086l1.239.3c.7.148,1.165.148,1.552.224a10.49,10.49,0,0,0,1.4.074c.233-.074.7-.15.776.3m2.95-5.883a2.384,2.384,0,1,0,2.484,2.384,2.452,2.452,0,0,0-2.5-2.369Z" transform="translate(-29.57 -36.875)" fill="#fffffc"/>
              <path id="Trazado_194" data-name="Trazado 194" d="M27.547,156.51c0,.817-.4,1.26-1.475,1.26h-2.5v-4.626h2.4c1.121,0,1.5.419,1.5,1.207,0,.59-.236.87-.885,1.024l-.127.03.106.021C27.314,155.59,27.547,155.855,27.547,156.51Zm-2.826-1.434h1.015c.4,0,.575-.162.575-.564s-.171-.59-.575-.59H24.721Zm1.664,1.322c0-.419-.18-.6-.59-.6H24.721v1.2H25.8C26.225,156.982,26.384,156.805,26.384,156.4Zm1.953-.133v-3.121h1.2v3.08c0,.51.245.705.885.705s.885-.195.885-.705v-3.08h1.236v3.109c0,1.086-.664,1.587-2.092,1.587s-2.118-.493-2.118-1.561Zm9.815-3.121v4.626H36.677l-2.03-3.348v3.348H33.53v-4.626H35l2.047,3.345v-3.345Zm.991,0h2.145c1.685,0,2.133.664,2.133,2.3s-.478,2.31-2.13,2.31H39.147Zm2.112,3.744c.705,0,.929-.348.929-1.431s-.224-1.425-.929-1.425h-.915v2.856Zm3.039-3.744h3.369v.885H45.5V155H47.3v.867H45.5v1h2.216v.885H44.3Zm4.13,4.425v-.885a5.213,5.213,0,0,0,1.611.257c.555,0,.8-.145.8-.5,0-.295-.106-.41-.546-.493l-.8-.162c-.832-.165-1.109-.493-1.109-1.28,0-1.012.62-1.454,1.879-1.454a4.482,4.482,0,0,1,1.534.257v.909a4.511,4.511,0,0,0-1.46-.245c-.59,0-.791.153-.791.513,0,.3.139.386.522.46l.773.156c.909.186,1.154.481,1.154,1.31,0,.994-.64,1.443-1.932,1.443a5.016,5.016,0,0,1-1.634-.268Zm4.393-4.425h1.2v3.726h2.065v.885H52.829Zm4.021,0h1.2v4.626h-1.2Zm6.2,1.953v2.519a5.743,5.743,0,0,1-1.664.233c-1.673,0-2.463-.705-2.463-2.393s.791-2.4,2.463-2.4a4.57,4.57,0,0,1,1.59.257v.885a4.914,4.914,0,0,0-1.493-.245c-1.015,0-1.325.389-1.325,1.475s.33,1.516,1.28,1.516a4.383,4.383,0,0,0,.628-.041V155.9h-.885v-.8Zm3.924,1.7H65.07l-.339.974H63.524l1.717-4.626h1.528l1.717,4.626h-1.2Zm-.938-2.927-.693,2.089h1.387Z" transform="translate(-23.57 -116.722)" fill="#20232d"/>
            </g>
          </g>
          <g id="logo-laliga-2" data-name="logo-laliga" transform="translate(0 0)">
            <rect id="Rectángulo_42-2" data-name="Rectángulo 42" width="53" height="54" transform="translate(-0.08 0.368)" fill="none"/>
            <g id="logo-laliga-santander" transform="translate(1.215 5.438)">
              <path id="Trazado_161" data-name="Trazado 161" d="M506.644,317a4.214,4.214,0,1,0,4.214,4.214A4.214,4.214,0,0,0,506.644,317" transform="translate(-481.596 -308.244)" fill="#fff"/>
              <path id="Trazado_162" data-name="Trazado 162" d="M398.959,130.205a.144.144,0,0,0,.061.2l4.462,2.6.01.006a.145.145,0,0,0,.152-.01.146.146,0,0,0,.048-.059,5.853,5.853,0,0,1,4.085-2.886l.017,0a.151.151,0,0,0,.051-.022.144.144,0,0,0,.059-.142v-.01l-.947-5.076v-.009a.131.131,0,0,0-.026-.057.146.146,0,0,0-.133-.058h-.012a11.346,11.346,0,0,0-7.828,5.533" transform="translate(-382.82 -124.67)" fill="#921d80"/>
              <path id="Trazado_163" data-name="Trazado 163" d="M326.777,259.375a.146.146,0,0,0,.121.087.141.141,0,0,0,.071-.012l4.819-1.857.01,0a.143.143,0,0,0,.088-.124.136.136,0,0,0-.006-.051.1.1,0,0,0-.01-.023,5.853,5.853,0,0,1,.307-4.991l.008-.015a.147.147,0,0,0,.015-.054.145.145,0,0,0-.073-.137l-.009-.005-4.549-2.441-.008,0a.14.14,0,0,0-.061-.016.145.145,0,0,0-.128.068s0,.007-.006.011h0a11.342,11.342,0,0,0-.587,9.568" transform="translate(-313.187 -244.034)" fill="#04509b"/>
              <path id="Trazado_164" data-name="Trazado 164" d="M327.94,457.05a.146.146,0,0,0,.143-.041.143.143,0,0,0,.035-.063l1.536-4.93,0-.011a.143.143,0,0,0-.043-.146.128.128,0,0,0-.046-.027l-.024-.007a5.848,5.848,0,0,1-3.721-3.339.1.1,0,0,0-.007-.016.151.151,0,0,0-.033-.046.144.144,0,0,0-.151-.026l-.01,0-4.738,2.049-.008,0a.142.142,0,0,0-.051.038.146.146,0,0,0-.026.143.028.028,0,0,0,.005.011h0a11.342,11.342,0,0,0,7.135,6.4" transform="translate(-308.227 -433.65)" fill="#1c8ccc"/>
              <path id="Trazado_165" data-name="Trazado 165" d="M498.38,548.324a.146.146,0,0,0,.031-.2l-2.878-4.287-.007-.009a.143.143,0,0,0-.141-.058.146.146,0,0,0-.048.017l-.02.014a5.855,5.855,0,0,1-4.935.807l-.017-.005a.149.149,0,0,0-.056,0,.145.145,0,0,0-.115.1l0,.01-1.375,4.977,0,.009a.139.139,0,0,0,0,.063.146.146,0,0,0,.095.11l.012,0h0a11.343,11.343,0,0,0,9.459-1.548" transform="translate(-468.597 -524.684)" fill="#009540"/>
              <path id="Trazado_166" data-name="Trazado 166" d="M676.359,463.448a.145.145,0,0,0-.072-.13.147.147,0,0,0-.069-.02l-5.148-.4h-.011a.144.144,0,0,0-.133.075.135.135,0,0,0-.016.049.11.11,0,0,0,0,.025,5.85,5.85,0,0,1-2.428,4.371l-.014.01a.156.156,0,0,0-.036.042.144.144,0,0,0,.008.153l.006.008,3.05,4.164.005.007a.14.14,0,0,0,.048.041.146.146,0,0,0,.145-.006l.01-.007h0a11.343,11.343,0,0,0,4.654-8.38" transform="translate(-640.022 -447.498)" fill="#fdea1f"/>
              <path id="Trazado_167" data-name="Trazado 167" d="M720.513,256.065a.146.146,0,0,0-.146-.026.148.148,0,0,0-.059.041l-3.551,3.747-.008.009a.145.145,0,0,0-.026.15.15.15,0,0,0,.028.043.121.121,0,0,0,.018.016,5.849,5.849,0,0,1,1.867,4.638.086.086,0,0,0,0,.018.155.155,0,0,0,.01.055.146.146,0,0,0,.124.091h.01l5.157.25h.009a.137.137,0,0,0,.062-.012.146.146,0,0,0,.087-.116s0-.009,0-.013h0a11.347,11.347,0,0,0-3.579-8.891" transform="translate(-686.123 -250.049)" fill="#ef8507"/>
              <path id="Trazado_168" data-name="Trazado 168" d="M599.454,152.562a.144.144,0,0,0-.114.17l.756,5.109v.011a.145.145,0,0,0,.153.118l.025,0a5.848,5.848,0,0,1,4.8,1.394l.013.012a.156.156,0,0,0,.05.025.145.145,0,0,0,.147-.042l.006-.008,3.38-3.9.005-.007a.135.135,0,0,0,.029-.056.146.146,0,0,0-.038-.14l-.01-.008h0a11.341,11.341,0,0,0-9.2-2.672" transform="translate(-574.092 -151.163)" fill="#e10d19"/>
              <path id="Trazado_169" data-name="Trazado 169" d="M505.442,315.76a4.272,4.272,0,1,0,4.272,4.272,4.272,4.272,0,0,0-4.272-4.272m3.1,6.679a2.488,2.488,0,0,0,.107-.533,2.682,2.682,0,0,1-.278.233,2.438,2.438,0,0,1-.918.416l-.826-.9-.011.008.6,1.06a2.426,2.426,0,0,1-.686.753,2.592,2.592,0,0,1-.306.192,2.468,2.468,0,0,0,.537.063,3.932,3.932,0,0,1-2.645,0,2.481,2.481,0,0,0,.539-.063,2.584,2.584,0,0,1-.306-.192,2.437,2.437,0,0,1-.686-.753l.6-1.06-.011-.008-.827.9a2.426,2.426,0,0,1-.916-.417,2.628,2.628,0,0,1-.277-.233,2.46,2.46,0,0,0,.107.536,3.913,3.913,0,0,1-.827-2.41c0-.043,0-.086,0-.128a2.315,2.315,0,0,0,.232.511,2.508,2.508,0,0,1,.088-.351,2.427,2.427,0,0,1,.507-.889l1.184.24,0-.014-1.107-.5a2.447,2.447,0,0,1,.114-1,2.511,2.511,0,0,1,.137-.336,2.251,2.251,0,0,0-.5.287,3.934,3.934,0,0,1,2.207-1.6,2.211,2.211,0,0,0-.437.392,2.664,2.664,0,0,1,.361-.025,2.431,2.431,0,0,1,.995.2l.137,1.195h.014l.137-1.2a2.429,2.429,0,0,1,.992-.2,2.671,2.671,0,0,1,.361.025,2.2,2.2,0,0,0-.436-.391,3.931,3.931,0,0,1,2.2,1.6,2.288,2.288,0,0,0-.5-.285,2.792,2.792,0,0,1,.137.336,2.428,2.428,0,0,1,.113,1l-1.1.5,0,.013,1.181-.239a2.426,2.426,0,0,1,.507.888,2.58,2.58,0,0,1,.088.351,2.438,2.438,0,0,0,.231-.508c0,.041,0,.083,0,.125a3.91,3.91,0,0,1-.825,2.407" transform="translate(-480.394 -307.06)" fill="#1d1f1c"/>
              <path id="Trazado_170" data-name="Trazado 170" d="M557.06,370.925l.66,2.03h2.134l.66-2.03-1.727-1.255Z" transform="translate(-533.739 -358.516)" fill="#1d1f1c"/>
              <path id="Trazado_171" data-name="Trazado 171" d="M322.68,749.99v5.73h3.29v-1.3h-1.8V749.99Z" transform="translate(-310.03 -721.521)" fill="#171a24"/>
              <path id="Trazado_172" data-name="Trazado 172" d="M402.824,774.248a1.056,1.056,0,0,0-1.087,1.1,1.067,1.067,0,0,0,1.043,1.16,1.1,1.1,0,0,0,1.131-1.122,1.084,1.084,0,0,0-1.087-1.138m-2.494,1.122a2.321,2.321,0,0,1,2.218-2.409,1.784,1.784,0,0,1,1.318.563v-.47h1.37v4.592h-1.393V777.2a1.927,1.927,0,0,1-1.369.561,2.134,2.134,0,0,1-2.144-2.387" transform="translate(-384.145 -743.445)" fill="#171a24"/>
              <path id="Trazado_173" data-name="Trazado 173" d="M529.34,755.72h-3.29v-5.73h1.489v4.429h1.8Z" transform="translate(-504.141 -721.521)" fill="#171a24"/>
              <path id="Trazado_174" data-name="Trazado 174" d="M610.435,737.384h-1.384v-4.592h1.384Zm-1.518-5.76a.837.837,0,0,1,1.675-.016.851.851,0,0,1-.856.853.819.819,0,0,1-.819-.837" transform="translate(-583.234 -703.185)" fill="#171a24"/>
              <path id="Trazado_175" data-name="Trazado 175" d="M657.656,774.179a.991.991,0,0,0-.965,1.1.977.977,0,0,0,.961,1.078,1.045,1.045,0,0,0,1.063-1.069,1.007,1.007,0,0,0-1.057-1.108m-2.315,1.108a2.111,2.111,0,0,1,1.995-2.3,1.716,1.716,0,0,1,1.369.606v-.515h1.325v4.047a2.131,2.131,0,0,1-2.345,2.161,2.071,2.071,0,0,1-2.254-1.6h1.553a.707.707,0,0,0,.728.374c.484,0,.93-.224.93-.725a2.634,2.634,0,0,0-.007-.344,2.093,2.093,0,0,1-1.31.531,2.06,2.06,0,0,1-1.987-2.236" transform="translate(-627.545 -743.474)" fill="#171a24"/>
              <path id="Trazado_176" data-name="Trazado 176" d="M773.923,774.248a1.056,1.056,0,0,0-1.086,1.1,1.067,1.067,0,0,0,1.042,1.16,1.1,1.1,0,0,0,1.131-1.122,1.083,1.083,0,0,0-1.087-1.138m-2.494,1.122a2.32,2.32,0,0,1,2.218-2.409,1.77,1.77,0,0,1,1.318.561v-.469h1.369v4.592h-1.392V777.2a1.929,1.929,0,0,1-1.369.561,2.135,2.135,0,0,1-2.144-2.387" transform="translate(-738.349 -743.445)" fill="#171a24"/>
              <path id="Trazado_177" data-name="Trazado 177" d="M51.492,884.847a2.014,2.014,0,0,0-.269-.922L49.767,881.4a2.01,2.01,0,0,1-.23-.61l-.061.106a2.02,2.02,0,0,0,0,2.02l1.166,2.02a2.021,2.021,0,0,1,0,2.02l-.061.105a2.008,2.008,0,0,0-.23-.61L49.282,884.6,48.6,883.42a2.01,2.01,0,0,1-.23-.61l-.061.106a2.02,2.02,0,0,0,0,2.013h0l1.17,2.026a2.02,2.02,0,0,1,0,2.019l-.061.106a2.022,2.022,0,0,0-.23-.611l-1.457-2.524a2.02,2.02,0,0,1-.268-1.1c-1.56.41-2.637,1.275-2.637,2.276,0,1.394,2.084,2.524,4.655,2.524s4.655-1.13,4.655-2.524c0-1-1.077-1.867-2.637-2.276m4.395,4.31a2.934,2.934,0,0,1,.166-.883,4.08,4.08,0,0,0,1.6.341c.813,0,1.267-.262,1.267-.778s-.332-.744-1.154-1.1l-.446-.192c-.822-.359-1.381-.819-1.381-1.749,0-1,.691-1.635,2.107-1.635a4.8,4.8,0,0,1,1.6.254,3.347,3.347,0,0,1-.175.874,4.437,4.437,0,0,0-1.434-.255c-.761,0-1.11.3-1.11.761s.341.717.953.979l.472.2c1.11.472,1.574.971,1.574,1.819,0,1.005-.761,1.7-2.247,1.7a4.208,4.208,0,0,1-1.792-.332m8.734-4.179v4.371h-.883l-.052-.525a1.342,1.342,0,0,1-1.233.629c-1.154,0-1.924-.839-1.924-2.308a2.177,2.177,0,0,1,2.439-2.413,4.9,4.9,0,0,1,1.653.245m-.962,3.375v-2.745a3.966,3.966,0,0,0-.691-.052c-1,0-1.46.612-1.46,1.591,0,.891.359,1.521,1.215,1.521a1.508,1.508,0,0,0,.936-.315m5.884-1.941v2.937h-.962v-2.772c0-.691-.228-1.023-1.189-1.023a4.811,4.811,0,0,0-.761.072v3.725h-.962v-4.371a8.2,8.2,0,0,1,1.748-.245c1.609,0,2.125.621,2.125,1.679m2.667,2.22a2.177,2.177,0,0,0,.752-.131c-.026.262-.061.56-.114.813a2.176,2.176,0,0,1-.813.14,1.342,1.342,0,0,1-1.53-1.495V883.37a3.312,3.312,0,0,1,.962-.14v1.653h1.522a7.476,7.476,0,0,1-.087.822H71.467v2.14c0,.568.28.787.743.787m5.158-3.654v4.371h-.883l-.053-.524a1.34,1.34,0,0,1-1.232.629c-1.154,0-1.924-.839-1.924-2.308a2.176,2.176,0,0,1,2.439-2.413,4.9,4.9,0,0,1,1.652.245m-.962,3.375V885.6a3.96,3.96,0,0,0-.691-.052c-1,0-1.46.612-1.46,1.591,0,.891.358,1.521,1.215,1.521a1.508,1.508,0,0,0,.936-.315m5.884-1.941v2.938H81.33v-2.772c0-.691-.228-1.023-1.189-1.023a4.826,4.826,0,0,0-.761.073v3.725h-.962v-4.371a8.2,8.2,0,0,1,1.749-.245c1.608,0,2.124.621,2.124,1.679m4.877-3.184v6.12h-.883l-.052-.56a1.328,1.328,0,0,1-1.25.664c-1.154,0-1.924-.839-1.924-2.308a2.177,2.177,0,0,1,2.439-2.413,3.761,3.761,0,0,1,.717.07v-1.443a2.924,2.924,0,0,1,.953-.131m-.952,5.106v-2.693a3.816,3.816,0,0,0-.769-.087c-.953,0-1.407.592-1.407,1.591,0,.891.358,1.521,1.215,1.521a1.54,1.54,0,0,0,.962-.332m5.788-.857H88.936a1.258,1.258,0,0,0,1.434,1.154,3.747,3.747,0,0,0,1.538-.332c-.035.253-.087.586-.148.874a3.305,3.305,0,0,1-1.416.28,2.141,2.141,0,0,1-2.387-2.387c0-1.3.6-2.335,2.133-2.335a1.826,1.826,0,0,1,1.967,2,5.112,5.112,0,0,1-.052.743m-3.086-.807h2.168a1,1,0,0,0-1.047-1.138c-.683,0-1.04.393-1.119,1.138m6.453-1.906a3.591,3.591,0,0,1-.087.822,6.279,6.279,0,0,0-.726-.035,4.82,4.82,0,0,0-.709.052v3.742H92.89v-4.371a5.849,5.849,0,0,1,1.644-.245,7.884,7.884,0,0,1,.84.035" transform="translate(-44.82 -846.366)" fill="#171a24"/>
            </g>
          </g>
        </g>
        <g id="Grupo_290" data-name="Grupo 290" transform="translate(745.394 141.044)">
          <text id="CON_LA_PROMO_DE_" data-name="CON LA PROMO DE " transform="translate(124.248 6.961)" fill="#ffbf30" font-size="12" font-family="Inter-Bold, Inter" font-weight="700"><tspan x="-57" y="0">CON LA PROMO DE </tspan></text>
          <text id="SIN_COSTO_ADICIONAL" data-name="SIN COSTO ADICIONAL" transform="translate(129.248 129.961)" fill="#ffbf30" font-size="10" font-family="Inter-Bold, Inter" font-weight="700"><tspan x="-56" y="0">SIN COSTO ADICIONAL</tspan></text>
          <g id="sky-gold-logo" transform="translate(46.306 21.716)">
            <g id="Grupo_32" data-name="Grupo 32" transform="translate(-29.026 -9.193)">
              <path id="Trazado_37" data-name="Trazado 37" d="M-210.8,535.922a1.489,1.489,0,0,0-1.492,1.489A1.488,1.488,0,0,0-210.8,538.9a1.488,1.488,0,0,0,1.483-1.487A1.486,1.486,0,0,0-210.8,535.922Zm0,2.681a1.18,1.18,0,0,1-1.176-1.192,1.179,1.179,0,0,1,1.176-1.193,1.181,1.181,0,0,1,1.176,1.193A1.181,1.181,0,0,1-210.805,538.6Z" transform="translate(310.228 -528.849)" fill="#ffbf30"/>
              <path id="Trazado_38" data-name="Trazado 38" d="M-210.581,537.347v-.006a.392.392,0,0,0,.316-.413c0-.464-.5-.464-.6-.464h-.716v1.7h.292v-.682h.347c.292.024.347.1.359.366.007.214.019.265.05.316h.292c-.038-.07-.038-.1-.054-.394C-210.305,537.556-210.347,537.414-210.581,537.347Zm-.359-.134h-.35v-.472h.39c.144,0,.323.02.342.2C-210.558,537.213-210.819,537.213-210.94,537.213Z" transform="translate(310.371 -528.741)" fill="#ffbf30"/>
              <path id="Trazado_39" data-name="Trazado 39" d="M-248.266,539.125l-3.542,8.36-6.956-11.319a9.938,9.938,0,0,0-2.342-.33,6.431,6.431,0,0,0-5.256,2.447l-6.758,7.387,5.435,8.559a4.813,4.813,0,0,0,4.477,2.359,7.979,7.979,0,0,0,3.122-.586l-6.547-9.867,4.642-4.925,7.615,11.953-4.641,9.777a6.541,6.541,0,0,0,2.6.556,3.766,3.766,0,0,0,3.979-2.57L-241.5,536.51a5.955,5.955,0,0,0-2.266-.526C-245.175,535.954-247.066,536.239-248.266,539.125Z" transform="translate(298.065 -528.867)" fill="#ffbf30"/>
              <path id="Trazado_40" data-name="Trazado 40" d="M-277.907,533.737v23.875a8.13,8.13,0,0,0,1.26.094c3.516,0,4.223-1.039,4.223-2.839v-24.7a6.523,6.523,0,0,0-1.325-.135C-277.293,530.028-277.907,531.922-277.907,533.737Z" transform="translate(297.108 -530.028)" fill="#ffbf30"/>
              <path id="Trazado_41" data-name="Trazado 41" d="M-282.406,544.072l-4.038-.753c-1.295-.224-2.106-.524-2.106-1.262,0-.688.854-1.258,2.915-1.258,2.032,0,3.8.208,4.941.208,1.486,0,3.032-.629,3.032-3.559a5.486,5.486,0,0,0-.12-1.125,45.7,45.7,0,0,0-9.536-.316c-4.37.481-6.59,3.111-6.59,6.247,0,2.585,1.876,5.016,5.389,5.693l4.235.81c1.547.3,2.342.644,2.342,1.488,0,.643-.6,1.321-2.6,1.321-1.8,0-4.236-.271-5.783-.271-1.487,0-3.064.674-3.064,3.6a6.055,6.055,0,0,0,.137,1.17,53.785,53.785,0,0,0,10.121.316c4.459-.479,6.654-2.928,6.654-6.29C-276.474,547.195-278.264,544.839-282.406,544.072Z" transform="translate(293.908 -528.86)" fill="#ffbf30"/>
              <path id="Trazado_42" data-name="Trazado 42" d="M-231.735,538.225v5.567h-8.076v-7.715c-5.05-.916-5.05,2.148-5.05,2.148v18.1c5.05,1.043,5.05-1.926,5.05-1.926V548.84h8.076v7.481c5.048,1.043,5.048-1.926,5.048-1.926V536.078C-231.735,535.162-231.735,538.225-231.735,538.225Z" transform="translate(303.716 -528.853)" fill="#ffbf30"/>
              <path id="Trazado_43" data-name="Trazado 43" d="M-219.061,535.908h-4.148c-4,0-3.98,2.781-3.98,2.781v15.178c0,2.966,3.98,2.661,3.98,2.661h4.148s11.6.144,11.6-10.406S-219.061,535.908-219.061,535.908Zm0,16.065h-3.19V540.344h3.19s6.425-.384,6.425,5.814S-219.061,551.974-219.061,551.974Z" transform="translate(307.249 -528.852)" fill="#ffbf30"/>
            </g>
            <g id="Grupo_33" data-name="Grupo 33" transform="translate(84.51 -6.944)">
              <path id="Trazado_44" data-name="Trazado 44" d="M-184.663,555.841a26.471,26.471,0,0,1-3.909.264c-3.3,0-4.129-1.889-4.129-4.173V541.872c0-2.285.834-4,4.129-4a68.582,68.582,0,0,1,8.565.7l.791-5.755a51.927,51.927,0,0,0-9.356-.922c-7.117,0-10.719,3.558-10.719,8.96v12.212c0,5.315,3.6,8.961,10.719,8.961a37.134,37.134,0,0,0,10.1-1.406V546.88h-6.193Z" transform="translate(199.292 -531.902)" fill="#ffbf30"/>
              <path id="Trazado_45" data-name="Trazado 45" d="M-162.918,531.9c-8.259,0-11.334,4.524-11.334,8.96v12.212c0,4.436,3.074,8.961,11.334,8.961s11.332-4.525,11.332-8.961V540.862C-151.586,536.426-154.66,531.9-162.918,531.9Zm4.743,20.6c0,2.284-1.45,3.69-4.743,3.69s-4.745-1.406-4.745-3.69v-11.07c0-2.285,1.45-3.69,4.745-3.69s4.743,1.405,4.743,3.69Z" transform="translate(204.299 -531.902)" fill="#ffbf30"/>
              <path id="Trazado_46" data-name="Trazado 46" d="M-140.9,532.268h-6.589v29.255h18.185V555.68h-11.6Z" transform="translate(209.65 -531.829)" fill="#ffbf30"/>
              <path id="Trazado_47" data-name="Trazado 47" d="M-114.231,532.268h-11.334v29.254h11.334c7.2,0,9.883-3.689,9.883-7.6V539.866C-104.348,535.914-107.028,532.268-114.231,532.268Zm3.294,19.853c0,2.285-.791,3.559-4.085,3.559h-3.954V538.109h3.954c3.294,0,4.085,1.273,4.085,3.558Z" transform="translate(214.035 -531.829)" fill="#ffbf30"/>
            </g>
          </g>
          <g id="Grupo_287" data-name="Grupo 287" transform="translate(36.93 82.995)">
            <text id="PLATINIUM_1_" data-name="PLATINIUM(1)" transform="translate(134.635 19.966)" fill="#304250" font-size="14" font-family="Inter-Bold, Inter" font-weight="700"><tspan x="-43" y="0">PLATINIUM</tspan><tspan y="0" font-size="8.166" baseline-shift="4.666199684143066">(1)</tspan></text>
            <g id="Grupo_285" data-name="Grupo 285" transform="translate(0 0)">
              <path id="Trazado_63" data-name="Trazado 63" d="M-210.7,480.32v-.008a.347.347,0,0,0,.28-.366c0-.411-.44-.411-.532-.411h-.635v1.509h.259v-.6h.308c.26.02.308.086.318.324.007.19.017.235.045.28h.26c-.035-.062-.035-.093-.049-.349C-210.451,480.5-210.488,480.379-210.7,480.32Zm-.317-.121h-.312v-.418h.346c.128,0,.287.018.3.177C-210.675,480.2-210.905,480.2-211.013,480.2Z" transform="translate(299.198 -472.736)" fill="#b5b9bd"/>
              <path id="Trazado_64" data-name="Trazado 64" d="M-210.971,478.994a1.32,1.32,0,0,0-1.323,1.32,1.32,1.32,0,0,0,1.323,1.319,1.32,1.32,0,0,0,1.316-1.319A1.318,1.318,0,0,0-210.971,478.994Zm0,2.376a1.047,1.047,0,0,1-1.043-1.057,1.045,1.045,0,0,1,1.043-1.057,1.048,1.048,0,0,1,1.044,1.057A1.049,1.049,0,0,1-210.974,481.37Z" transform="translate(299.152 -472.771)" fill="#b5b9bd"/>
              <path id="Trazado_65" data-name="Trazado 65" d="M-277.908,476.437v21.174a7.087,7.087,0,0,0,1.119.083c3.117,0,3.744-.922,3.744-2.518V473.267a5.781,5.781,0,0,0-1.174-.12C-277.363,473.147-277.908,474.826-277.908,476.437Z" transform="translate(294.936 -473.147)" fill="#b5b9bd"/>
              <path id="Trazado_66" data-name="Trazado 66" d="M-251.078,481.872l-3.141,7.416-6.17-10.04a8.9,8.9,0,0,0-2.078-.293,5.705,5.705,0,0,0-4.661,2.169l-5.994,6.554,4.821,7.59a4.265,4.265,0,0,0,3.97,2.091,7.089,7.089,0,0,0,2.77-.518l-5.808-8.751,4.117-4.368,6.754,10.6-4.117,8.669a5.746,5.746,0,0,0,2.3.494,3.339,3.339,0,0,0,3.528-2.279l9.709-21.654a5.286,5.286,0,0,0-2.01-.467C-248.337,479.059-250.014,479.313-251.078,481.872Z" transform="translate(295.244 -472.774)" fill="#b5b9bd"/>
              <path id="Trazado_67" data-name="Trazado 67" d="M-283.708,486.263l-3.581-.666c-1.148-.2-1.868-.466-1.868-1.12,0-.611.758-1.116,2.585-1.116,1.8,0,3.371.185,4.383.185,1.318,0,2.689-.559,2.689-3.157a4.881,4.881,0,0,0-.106-1,40.531,40.531,0,0,0-8.458-.28c-3.875.427-5.844,2.76-5.844,5.539,0,2.293,1.662,4.45,4.779,5.05l3.756.718c1.372.267,2.077.573,2.077,1.32,0,.571-.532,1.172-2.3,1.172-1.6,0-3.757-.24-5.129-.24-1.319,0-2.717.6-2.717,3.2a5.4,5.4,0,0,0,.121,1.039,47.9,47.9,0,0,0,8.977.28c3.954-.426,5.9-2.6,5.9-5.58C-278.447,489.033-280.034,486.943-283.708,486.263Z" transform="translate(293.908 -472.772)" fill="#b5b9bd"/>
              <path id="Trazado_68" data-name="Trazado 68" d="M-233.219,481.081v4.937h-7.163v-6.842c-4.477-.812-4.477,1.905-4.477,1.905v16.05c4.477.924,4.477-1.709,4.477-1.709V490.5h7.163v6.636c4.477.924,4.477-1.709,4.477-1.709V479.176C-233.219,478.364-233.219,481.081-233.219,481.081Z" transform="translate(297.06 -472.769)" fill="#b5b9bd"/>
              <path id="Trazado_69" data-name="Trazado 69" d="M-219.982,479.027h-3.679c-3.551,0-3.53,2.467-3.53,2.467v13.462c0,2.63,3.53,2.359,3.53,2.359h3.679s10.293.129,10.293-9.229S-219.982,479.027-219.982,479.027Zm0,14.248h-2.829V482.962h2.829s5.7-.341,5.7,5.156S-219.982,493.275-219.982,493.275Z" transform="translate(298.195 -472.769)" fill="#b5b9bd"/>
            </g>
          </g>
          <g id="Grupo_286" data-name="Grupo 286" transform="translate(45.351 56.006)">
            <path id="Rectángulo_202" data-name="Rectángulo 202" d="M6,0H60a6,6,0,0,1,6,6V21a0,0,0,0,1,0,0H6a6,6,0,0,1-6-6V6A6,6,0,0,1,6,0Z" transform="translate(70.897 -0.045)" fill="#b5b9bd"/>
            <text id="RECIBE_3_MESES_DE_" data-name="RECIBE 3 MESES DE " transform="translate(80.897 16.955)" fill="#304250" font-size="15" font-family="Inter-Bold, Inter" font-weight="700"><tspan x="-81" y="0">RECIBE </tspan><tspan y="0" font-size="18">3 MESES</tspan><tspan y="0" xml:space="preserve"> DE </tspan></text>
          </g>
          <path id="Trazado_625" data-name="Trazado 625" d="M761.456,353.459h242.1" transform="translate(-761.456 -212.967)" fill="none" stroke="#ffbf30" stroke-linecap="round" stroke-width="3"/>
        </g>
        <text id="Disfruta_de_las_mejores_ligas_del_mundo_completas_y_en_exclusiva" data-name="Disfruta de las mejores ligas del mundo
completas y en exclusiva" transform="translate(871.642 304.005)" fill="#304250" font-size="10" font-family="Inter-Bold, Inter" font-weight="700"><tspan x="-95" y="0">Disfruta de las mejores ligas del mundo</tspan><tspan x="-61" y="15">completas y en exclusiva</tspan></text>
      </g>
      <text id="PROMOCIÓN_POR_TIEMPO_LIMITADO" data-name="PROMOCIÓN POR TIEMPO LIMITADO" transform="translate(875 466)" fill="#fff" font-size="12" font-family="Inter-Bold, Inter" font-weight="700"><tspan x="0" y="0">PROMOCIÓN POR TIEMPO LIMITADO</tspan></text>
    </g>
    <g id="Grupo_329" data-name="Grupo 329">
      <g transform="matrix(1, 0, 0, 1, 792, 78)" filter="url(#Trazado_634)">
        <g id="Trazado_634-2" data-name="Trazado 634" transform="translate(269 250)" fill="#fff">
          <path d="M 65.5 129 C 56.92667388916016 129 48.61085510253906 127.3213424682617 40.78354644775391 124.0106735229492 C 37.02134704589844 122.4194030761719 33.39254379272461 120.4497299194336 29.99794578552246 118.156379699707 C 26.63507270812988 115.8844757080078 23.47272682189941 113.2752914428711 20.59870910644531 110.4012908935547 C 17.72470855712891 107.5272750854492 15.11552715301514 104.3649291992188 12.84361839294434 101.0020523071289 C 10.55027294158936 97.60745239257812 8.580599784851074 93.97865295410156 6.989327430725098 90.21645355224609 C 3.678654432296753 82.38914489746094 2 74.07332611083984 2 65.5 C 2 56.92667388916016 3.678654432296753 48.61085510253906 6.989327430725098 40.78354644775391 C 8.580599784851074 37.02134704589844 10.55027294158936 33.39254379272461 12.84361839294434 29.99794578552246 C 15.11552715301514 26.63507270812988 17.72470855712891 23.47272682189941 20.59870910644531 20.59870910644531 C 23.47272682189941 17.72470855712891 26.63507270812988 15.11552715301514 29.99794578552246 12.84361839294434 C 33.39254379272461 10.55027294158936 37.02134704589844 8.580599784851074 40.78354644775391 6.989327430725098 C 48.61085510253906 3.678654432296753 56.92667388916016 2 65.5 2 C 74.07332611083984 2 82.38914489746094 3.678654432296753 90.21645355224609 6.989327430725098 C 93.97865295410156 8.580599784851074 97.60745239257812 10.55027294158936 101.0020523071289 12.84361839294434 C 104.3649291992188 15.11552715301514 107.5272750854492 17.72470855712891 110.4012908935547 20.59870910644531 C 113.2752914428711 23.47272682189941 115.8844757080078 26.63507270812988 118.156379699707 29.99794578552246 C 120.4497299194336 33.39254379272461 122.4194030761719 37.02134704589844 124.0106735229492 40.78354644775391 C 127.3213424682617 48.61085510253906 129 56.92667388916016 129 65.5 C 129 74.07332611083984 127.3213424682617 82.38914489746094 124.0106735229492 90.21645355224609 C 122.4194030761719 93.97865295410156 120.4497299194336 97.60745239257812 118.156379699707 101.0020523071289 C 115.8844757080078 104.3649291992188 113.2752914428711 107.5272750854492 110.4012908935547 110.4012908935547 C 107.5272750854492 113.2752914428711 104.3649291992188 115.8844757080078 101.0020523071289 118.156379699707 C 97.60745239257812 120.4497299194336 93.97865295410156 122.4194030761719 90.21645355224609 124.0106735229492 C 82.38914489746094 127.3213424682617 74.07332611083984 129 65.5 129 Z" stroke="none"/>
          <path d="M 65.5 4 C 57.19577789306641 4 49.14209747314453 5.625503540039062 41.56263732910156 8.831336975097656 C 37.91938018798828 10.37229919433594 34.40514373779297 12.27980041503906 31.11756134033203 14.50086212158203 C 27.86016082763672 16.70152282714844 24.79692077636719 19.22894287109375 22.01291656494141 22.01291656494141 C 19.22894287109375 24.79692077636719 16.70152282714844 27.86016082763672 14.50086212158203 31.11756134033203 C 12.27980041503906 34.40514373779297 10.37229919433594 37.91938018798828 8.831336975097656 41.56263732910156 C 5.625503540039062 49.14209747314453 4 57.19577789306641 4 65.5 C 4 73.80421447753906 5.625503540039062 81.85789489746094 8.831336975097656 89.43736267089844 C 10.37229919433594 93.08061981201172 12.27980041503906 96.59486389160156 14.50086212158203 99.88243865966797 C 16.70152282714844 103.1398391723633 19.22894287109375 106.2030792236328 22.01291656494141 108.9870758056641 C 24.79692077636719 111.7710571289062 27.86016082763672 114.2984771728516 31.11756134033203 116.499137878418 C 34.40514373779297 118.7201995849609 37.91938018798828 120.6277008056641 41.56263732910156 122.1686630249023 C 49.14209747314453 125.3744964599609 57.19577789306641 127 65.5 127 C 73.80421447753906 127 81.85789489746094 125.3744964599609 89.43736267089844 122.1686630249023 C 93.08061981201172 120.6277008056641 96.59486389160156 118.7201995849609 99.88243865966797 116.499137878418 C 103.1398391723633 114.2984771728516 106.2030792236328 111.7710571289062 108.9870758056641 108.9870758056641 C 111.7710571289062 106.2030792236328 114.2984771728516 103.1398391723633 116.499137878418 99.88243865966797 C 118.7201995849609 96.59486389160156 120.6277008056641 93.08061981201172 122.1686630249023 89.43736267089844 C 125.3744964599609 81.85789489746094 127 73.80421447753906 127 65.5 C 127 57.19577789306641 125.3744964599609 49.14209747314453 122.1686630249023 41.56263732910156 C 120.6277008056641 37.91938018798828 118.7201995849609 34.40514373779297 116.499137878418 31.11756134033203 C 114.2984771728516 27.86016082763672 111.7710571289062 24.79692077636719 108.9870758056641 22.01291656494141 C 106.2030792236328 19.22894287109375 103.1398391723633 16.70152282714844 99.88243865966797 14.50086212158203 C 96.59486389160156 12.27980041503906 93.08061981201172 10.37229919433594 89.43736267089844 8.831336975097656 C 81.85789489746094 5.625503540039062 73.80421447753906 4 65.5 4 M 65.5 0 C 101.6746597290039 0 131 29.32534027099609 131 65.5 C 131 101.6746597290039 101.6746597290039 131 65.5 131 C 29.32534027099609 131 0 101.6746597290039 0 65.5 C 0 29.32534027099609 29.32534027099609 0 65.5 0 Z" stroke="none" fill="#ffbf30"/>
        </g>
      </g>
      <text id="Precio_regular:_569_3_" data-name="Precio regular: 
$569(3)" transform="translate(1126.5 360.076)" fill="#304250" font-size="11" font-family="Inter" font-weight="600"><tspan x="-40" y="0">Precio regular: </tspan><tspan text-decoration="line-through"><tspan x="-18" y="18">$569</tspan><tspan y="18" font-size="6.416" baseline-shift="3.666299819946289">(3)</tspan></tspan></text>
      <g id="Grupo_328" data-name="Grupo 328" transform="translate(0 -1)">
        <text id="POR_SÓLO" data-name="POR SÓLO" transform="translate(1126.5 400.5)" fill="#304250" font-size="12" font-family="Inter" font-weight="700"><tspan x="-30" y="0">POR SÓLO</tspan></text>
        <text id="_349_2_" data-name="$349(2)" transform="translate(1128.5 424.5)" fill="#ffbf30" font-size="22" font-family="Inter" font-weight="700"><tspan x="-38" y="0">$349</tspan><tspan y="0" font-size="12.833" baseline-shift="7.332599639892578">(2)</tspan></text>
        <text id="AL_MES" data-name="AL MES" transform="translate(1126.5 441.5)" fill="#304250" font-size="12" font-family="Inter" font-weight="700"><tspan x="-22" y="0">AL MES</tspan></text>
      </g>
      <path id="Trazado_635" data-name="Trazado 635" d="M1976.01,384.156h47.575" transform="translate(-873.298)" fill="none" stroke="#ffbf30" stroke-linecap="round" stroke-width="1"/>
    </g>
  </g>
</svg>
