<svg xmlns="http://www.w3.org/2000/svg" xmlns:xlink="http://www.w3.org/1999/xlink" width="131" height="88" viewBox="0 0 131 88">
  <defs>
    <filter id="AdobeStock_159480761" x="0" y="0" width="131" height="88" filterUnits="userSpaceOnUse">
      <feOffset dx="4" dy="4" input="SourceAlpha"/>
      <feGaussianBlur stdDeviation="4" result="blur"/>
      <feFlood flood-color="#3b4559" flood-opacity="0.161"/>
      <feComposite operator="in" in2="blur"/>
      <feComposite in="SourceGraphic"/>
    </filter>
  </defs>
  <g id="bti-balloon" transform="translate(8.464 7.603)">
    <g id="Grupo_255" data-name="Grupo 255" transform="translate(-0.464 0.397)">
      <g transform="matrix(1, 0, 0, 1, -8, -8)" filter="url(#AdobeStock_159480761)">
        <path id="AdobeStock_159480761-2" data-name="AdobeStock_159480761" d="M32,0H75a32,32,0,0,1,32,32v0A32,32,0,0,1,75,64H4.655A4.655,4.655,0,0,1,0,59.345V32A32,32,0,0,1,32,0Z" transform="translate(8 8)" fill="#52dee4"/>
      </g>
    </g>
    <g id="bluetelecom-inalambrico-logo" transform="translate(15.758 22.721)">
      <path id="Trazado_119" data-name="Trazado 119" d="M92.792,535.12l-8.976,0a1.46,1.46,0,0,1-1.457-1.458l0-8.976a1.463,1.463,0,0,1,1.458-1.457l8.976,0a1.46,1.46,0,0,1,1.457,1.458l0,8.976a1.46,1.46,0,0,1-1.458,1.458m0-.236a1.223,1.223,0,0,0,1.222-1.221l0-8.976a1.223,1.223,0,0,0-1.221-1.222l-8.976,0a1.225,1.225,0,0,0-1.222,1.221l0,8.976a1.223,1.223,0,0,0,1.221,1.222Z" transform="translate(-82.291 -523.226)" fill="#fff"/>
      <path id="Trazado_120" data-name="Trazado 120" d="M92.792,535.12l-8.976,0a1.46,1.46,0,0,1-1.457-1.458l0-8.976a1.463,1.463,0,0,1,1.458-1.457l8.976,0a1.46,1.46,0,0,1,1.457,1.458l0,8.976a1.46,1.46,0,0,1-1.458,1.458m0-.236a1.223,1.223,0,0,0,1.222-1.221l0-8.976a1.223,1.223,0,0,0-1.221-1.222l-8.976,0a1.225,1.225,0,0,0-1.222,1.221l0,8.976a1.223,1.223,0,0,0,1.221,1.222Z" transform="translate(-82.291 -523.226)" fill="#fff"/>
      <path id="Trazado_121" data-name="Trazado 121" d="M93.041,523.593l-8.976,0a1.344,1.344,0,0,0-1.34,1.339l0,8.976a1.344,1.344,0,0,0,1.339,1.34l8.976,0a1.344,1.344,0,0,0,1.34-1.34l0-8.976a1.344,1.344,0,0,0-1.339-1.341" transform="translate(-82.538 -523.473)" fill="#53a7df"/>
      <path id="Trazado_122" data-name="Trazado 122" d="M95.375,525.575v-.641a1.369,1.369,0,0,0-.009-.152l-3.173-1.189-7.133,0a1.334,1.334,0,0,0-.865.32l4.835,1.82" transform="translate(-83.532 -523.473)" fill="#fca01f"/>
      <path id="Trazado_123" data-name="Trazado 123" d="M99.113,529.869l6.345,2.37v-2.526" transform="translate(-93.616 -527.611)" fill="#d8006b"/>
      <path id="Trazado_124" data-name="Trazado 124" d="M88.038,530.194l-5.31.162v.291l4.9,2.819,6.754-.344v-.559" transform="translate(-82.541 -527.936)" fill="#00418b"/>
      <path id="Trazado_125" data-name="Trazado 125" d="M82.727,531.61v2.547l4.9.266" transform="translate(-82.54 -528.893)" fill="#fff"/>
      <path id="Trazado_126" data-name="Trazado 126" d="M94.044,545.525a1.337,1.337,0,0,0,.193-.286l-6.61-5.5-4.9-.266v.056l3.727,3.164" transform="translate(-82.54 -534.205)" fill="#e13604"/>
      <path id="Trazado_127" data-name="Trazado 127" d="M101.817,552.239,94.226,549.4l3.842,3.292h2.745a1.338,1.338,0,0,0,1-.457" transform="translate(-90.313 -540.919)" fill="#cdce28"/>
      <path id="Trazado_128" data-name="Trazado 128" d="M82.724,545v3.333l3.664,1.385h3.906l-3.842-3.292" transform="translate(-82.538 -537.943)" fill="#3f1b60"/>
      <g id="Grupo_41" data-name="Grupo 41" transform="translate(0 0.109)">
        <path id="Trazado_129" data-name="Trazado 129" d="M130.022,530.85a4.9,4.9,0,0,0-.331-1.859,4.244,4.244,0,0,0-.869-1.363,3.7,3.7,0,0,0-2.639-1.13,3.491,3.491,0,0,0-1.744.407l-.092.054v-3.123l-.429-.107a3.407,3.407,0,0,0-.435-.069,4.867,4.867,0,0,0-.534-.03,1.362,1.362,0,0,0-1.092.4,1.32,1.32,0,0,0-.315.881v6.841c0,.347-.005.781-.015,1.3s-.03,1.02-.059,1.5l-.029.465.45.117c.1.025.215.049.364.073a3.418,3.418,0,0,0,.544.038,1.464,1.464,0,0,0,.962-.284,1.35,1.35,0,0,0,.289-.322,3.2,3.2,0,0,0,.371.243,3.486,3.486,0,0,0,1.725.438,3.6,3.6,0,0,0,1.589-.354,3.667,3.667,0,0,0,1.234-.978,4.571,4.571,0,0,0,.778-1.411A5.252,5.252,0,0,0,130.022,530.85Zm-3.25,1.437a1.451,1.451,0,0,1-1.083.448,1.388,1.388,0,0,1-.536-.1,1.279,1.279,0,0,1-.8-1.2v-1.7a1.442,1.442,0,0,1,.472-.443,1.589,1.589,0,0,1,.839-.209,1.439,1.439,0,0,1,1.117.458,1.885,1.885,0,0,1,.442,1.345A1.946,1.946,0,0,1,126.771,532.287Z" transform="translate(-108.706 -523.574)" fill="#fff"/>
        <path id="Trazado_130" data-name="Trazado 130" d="M151.68,523.591a4.925,4.925,0,0,0-.534-.03,1.361,1.361,0,0,0-1.091.4,1.32,1.32,0,0,0-.315.882v10.2l.429.107a3.112,3.112,0,0,0,.44.067c.175.017.351.025.522.025a1.38,1.38,0,0,0,1.1-.39,1.306,1.306,0,0,0,.319-.882v-10.2l-.429-.107A3.446,3.446,0,0,0,151.68,523.591Z" transform="translate(-127.835 -523.561)" fill="#fff"/>
        <path id="Trazado_131" data-name="Trazado 131" d="M169.093,539.947c-.029-.2-.053-.407-.072-.611s-.032-.423-.039-.652-.011-.5-.011-.805v-4.948l-.429-.107a3.112,3.112,0,0,0-.436-.068c-.174-.016-.353-.025-.534-.025a1.4,1.4,0,0,0-1.077.385,1.3,1.3,0,0,0-.33.89v4.268a1.651,1.651,0,0,1-.519.494,1.353,1.353,0,0,1-.7.2,1.019,1.019,0,0,1-.767-.284,1.521,1.521,0,0,1-.284-1.021v-4.74l-.437-.1a3.359,3.359,0,0,0-.428-.065c-.17-.017-.348-.026-.53-.026a1.409,1.409,0,0,0-1.07.378,1.28,1.28,0,0,0-.34.894v3.783a4.655,4.655,0,0,0,.252,1.6,3.343,3.343,0,0,0,.707,1.168,2.861,2.861,0,0,0,1.067.7,3.531,3.531,0,0,0,1.244.22,3.3,3.3,0,0,0,1.769-.453,3.854,3.854,0,0,0,.374-.264,1.328,1.328,0,0,0,.385.428,1.5,1.5,0,0,0,.9.244h0a2.52,2.52,0,0,0,1.094-.212l.409-.187-.09-.44C169.16,540.362,169.121,540.143,169.093,539.947Z" transform="translate(-135.508 -529.759)" fill="#fff"/>
        <path id="Trazado_132" data-name="Trazado 132" d="M194.455,533.834a3.8,3.8,0,0,0-1.285-.987,4.152,4.152,0,0,0-4.754.9,4.348,4.348,0,0,0-.876,1.393,4.7,4.7,0,0,0-.318,1.742,4.912,4.912,0,0,0,.307,1.746,4.163,4.163,0,0,0,.9,1.43,4.059,4.059,0,0,0,1.445.952,5.1,5.1,0,0,0,1.886.332,6.948,6.948,0,0,0,1.7-.194,8.122,8.122,0,0,0,1.241-.409l.286-.126.045-.309c.012-.081.021-.159.027-.238s.009-.151.009-.216a1.723,1.723,0,0,0-.279-1.009,1.1,1.1,0,0,0-.917-.491,1.958,1.958,0,0,0-.558.083c-.144.042-.3.095-.475.155a3.114,3.114,0,0,1-1.084.174,1.909,1.909,0,0,1-1.21-.347,1.162,1.162,0,0,1-.3-.353h5.036l.1-.447a4.259,4.259,0,0,0,.1-.889,4.734,4.734,0,0,0-.256-1.532A4.252,4.252,0,0,0,194.455,533.834Zm-4.271,1.9a1.471,1.471,0,0,1,.289-.463,1.2,1.2,0,0,1,.932-.357,1.177,1.177,0,0,1,.947.367,1.656,1.656,0,0,1,.281.453Z" transform="translate(-153.17 -529.587)" fill="#fff"/>
        <path id="Trazado_133" data-name="Trazado 133" d="M221.476,545.482h-3.011a.253.253,0,0,0-.252.253v.372a.253.253,0,0,0,.252.252h1.018v3.275a.252.252,0,0,0,.252.252h.469a.252.252,0,0,0,.252-.252V546.36h1.018a.253.253,0,0,0,.252-.252v-.372A.253.253,0,0,0,221.476,545.482Z" transform="translate(-174.117 -538.378)" fill="#fff"/>
        <path id="Trazado_134" data-name="Trazado 134" d="M232.25,545.483h-2.727a.253.253,0,0,0-.252.253v3.9a.253.253,0,0,0,.252.253h2.727a.253.253,0,0,0,.253-.253v-.372a.253.253,0,0,0-.253-.253h-2v-.9h1.672a.253.253,0,0,0,.253-.253v-.372a.253.253,0,0,0-.253-.253h-1.672v-.87h2a.253.253,0,0,0,.253-.253v-.372A.253.253,0,0,0,232.25,545.483Z" transform="translate(-181.591 -538.378)" fill="#fff"/>
        <path id="Trazado_135" data-name="Trazado 135" d="M240.181,549.888H242.9a.252.252,0,0,0,.252-.252v-.373a.252.252,0,0,0-.252-.253H240.9v-3.275a.253.253,0,0,0-.253-.253h-.469a.253.253,0,0,0-.252.253v3.9A.253.253,0,0,0,240.181,549.888Z" transform="translate(-188.795 -538.378)" fill="#fff"/>
        <path id="Trazado_136" data-name="Trazado 136" d="M253.433,545.483h-2.726a.253.253,0,0,0-.253.253v3.9a.253.253,0,0,0,.253.253h2.726a.253.253,0,0,0,.253-.253v-.372a.253.253,0,0,0-.253-.253h-2v-.9H253.1a.253.253,0,0,0,.253-.253v-.372a.253.253,0,0,0-.253-.253h-1.672v-.87h2a.253.253,0,0,0,.253-.253v-.372A.253.253,0,0,0,253.433,545.483Z" transform="translate(-195.909 -538.378)" fill="#fff"/>
        <path id="Trazado_137" data-name="Trazado 137" d="M261.8,546.467a.835.835,0,0,1,.589-.208.99.99,0,0,1,.41.079,1.676,1.676,0,0,1,.345.242.253.253,0,0,0,.333,0l.315-.279a.253.253,0,0,0,0-.38,2.1,2.1,0,0,0-1.4-.538,1.881,1.881,0,0,0-1.29.469,1.385,1.385,0,0,0-.444.753,9.421,9.421,0,0,0,0,2.032,1.384,1.384,0,0,0,.443.748,1.881,1.881,0,0,0,1.29.469,2.1,2.1,0,0,0,1.4-.538.253.253,0,0,0,0-.381l-.315-.279a.252.252,0,0,0-.333,0,1.683,1.683,0,0,1-.341.24.985.985,0,0,1-.413.081.834.834,0,0,1-.588-.208.594.594,0,0,1-.182-.319,4.736,4.736,0,0,1-.044-.831,4.831,4.831,0,0,1,.043-.826A.6.6,0,0,1,261.8,546.467Z" transform="translate(-202.765 -538.309)" fill="#fff"/>
        <path id="Trazado_138" data-name="Trazado 138" d="M274.532,548.63a9.432,9.432,0,0,0,0-2.032,1.385,1.385,0,0,0-.443-.748,2.009,2.009,0,0,0-2.581,0,1.387,1.387,0,0,0-.444.753,6.113,6.113,0,0,0-.054,1.013,6.046,6.046,0,0,0,.055,1.019,1.382,1.382,0,0,0,.443.748,2.009,2.009,0,0,0,2.581,0A1.388,1.388,0,0,0,274.532,548.63Zm-2.549-1.014a4.726,4.726,0,0,1,.043-.821.6.6,0,0,1,.182-.323.918.918,0,0,1,1.177,0,.6.6,0,0,1,.182.32,4.664,4.664,0,0,1,.044.824,4.735,4.735,0,0,1-.043.821.6.6,0,0,1-.182.323.919.919,0,0,1-1.177,0,.6.6,0,0,1-.182-.32A4.672,4.672,0,0,1,271.983,547.617Z" transform="translate(-209.802 -538.309)" fill="#fff"/>
        <path id="Trazado_139" data-name="Trazado 139" d="M287.15,545.482h-.469a.252.252,0,0,0-.226.139l-1.172,2.325-1.2-2.327a.254.254,0,0,0-.224-.137h-.469a.253.253,0,0,0-.253.253v3.9a.252.252,0,0,0,.253.252h.469a.252.252,0,0,0,.253-.252v-1.93l.745,1.432a.252.252,0,0,0,.224.136h.4a.253.253,0,0,0,.225-.137l.725-1.417v1.915a.252.252,0,0,0,.253.252h.469a.252.252,0,0,0,.253-.252v-3.9A.253.253,0,0,0,287.15,545.482Z" transform="translate(-217.997 -538.378)" fill="#fff"/>
        <path id="Trazado_140" data-name="Trazado 140" d="M299.847,549.274h.4a.253.253,0,0,0,.225-.137l.725-1.417v1.915a.253.253,0,0,0,.253.252h.469a.253.253,0,0,0,.253-.252v-3.9a.253.253,0,0,0-.253-.253h-.469a.253.253,0,0,0-.226.139l-1.172,2.325-1.2-2.327a.253.253,0,0,0-.224-.137h-.469a.253.253,0,0,0-.253.253v3.9a.253.253,0,0,0,.253.252h.469a.253.253,0,0,0,.253-.252v-1.93l.744,1.432A.253.253,0,0,0,299.847,549.274Z" transform="translate(-227.98 -538.378)" fill="#fff"/>
        <rect id="Rect치ngulo_93" data-name="Rect치ngulo 93" width="0.922" height="4.723" transform="translate(0 14.493)" fill="#fff"/>
        <path id="Trazado_141" data-name="Trazado 141" d="M100.915,571.173l-1.871-2.892h-.823V573h.922v-2.9l1.871,2.9h.823v-4.723h-.922Z" transform="translate(-93.014 -553.788)" fill="#fff"/>
        <path id="Trazado_142" data-name="Trazado 142" d="M122.727,568.281,121.009,573h.962l.285-.835h1.678l.278.835h.962l-1.725-4.723Zm-.212,3.111.6-1.718.577,1.718Z" transform="translate(-108.416 -553.788)" fill="#fff"/>
        <path id="Trazado_143" data-name="Trazado 143" d="M146.415,568.281h-.922V573h3.065v-.822h-2.143Z" transform="translate(-124.965 -553.788)" fill="#fff"/>
        <path id="Trazado_144" data-name="Trazado 144" d="M172.087,563.39h-.909l-.425,1.127h.577Z" transform="translate(-142.039 -550.482)" fill="#fff"/>
        <path id="Trazado_145" data-name="Trazado 145" d="M167.212,568.281,165.494,573h.962l.285-.835h1.678l.279.835h.962l-1.725-4.723ZM167,571.392l.6-1.718.577,1.718Z" transform="translate(-138.484 -553.788)" fill="#fff"/>
        <path id="Trazado_146" data-name="Trazado 146" d="M192.121,570.835l-1.234-2.554h-.909V573h.922v-2.752l.909,1.791h.624l.9-1.791V573h.922v-4.723h-.909Z" transform="translate(-155.033 -553.788)" fill="#fff"/>
        <path id="Trazado_147" data-name="Trazado 147" d="M219.182,570.582a1.091,1.091,0,0,0,.584-.975,1.29,1.29,0,0,0-1.459-1.327h-1.9V573h1.977a1.305,1.305,0,0,0,1.446-1.36A1.1,1.1,0,0,0,219.182,570.582Zm-1.851-1.479h.9a.547.547,0,1,1,0,1.088h-.9Zm.962,3.078h-.962v-1.161h.962a.581.581,0,1,1,0,1.161Z" transform="translate(-172.897 -553.788)" fill="#fff"/>
        <path id="Trazado_148" data-name="Trazado 148" d="M243.089,569.727a1.428,1.428,0,0,0-1.532-1.446h-1.851V573h.922V571.12h.664l.922,1.884h1.068l-1.055-2.036A1.272,1.272,0,0,0,243.089,569.727Zm-1.592.624h-.869V569.1h.869a.625.625,0,1,1,0,1.247Z" transform="translate(-188.644 -553.788)" fill="#fff"/>
        <rect id="Rect치ngulo_94" data-name="Rect치ngulo 94" width="0.922" height="4.723" transform="translate(58.586 14.493)" fill="#fff"/>
        <path id="Trazado_149" data-name="Trazado 149" d="M280.246,568.982a.782.782,0,0,1,.8.67h.935a1.665,1.665,0,0,0-1.738-1.492,1.74,1.74,0,0,0-1.274.517c-.477.478-.464,1.068-.464,1.884s-.013,1.407.464,1.884a1.74,1.74,0,0,0,1.274.517,1.669,1.669,0,0,0,1.738-1.492h-.935a.781.781,0,0,1-.8.67.763.763,0,0,1-.591-.245c-.179-.2-.232-.424-.232-1.333s.053-1.134.232-1.333A.762.762,0,0,1,280.246,568.982Z" transform="translate(-214.866 -553.705)" fill="#fff"/>
        <path id="Trazado_150" data-name="Trazado 150" d="M304.038,568.676a1.834,1.834,0,0,0-2.554,0c-.478.478-.464,1.068-.464,1.884s-.013,1.407.464,1.884a1.835,1.835,0,0,0,2.554,0c.478-.477.471-1.068.471-1.884S304.516,569.154,304.038,568.676Zm-.683,3.211a.768.768,0,0,1-.59.252.784.784,0,0,1-.6-.252c-.179-.2-.226-.418-.226-1.327s.047-1.128.226-1.327a.781.781,0,0,1,.6-.252.766.766,0,0,1,.59.252c.179.2.232.418.232,1.327S303.534,571.688,303.355,571.887Z" transform="translate(-230.087 -553.705)" fill="#fff"/>
      </g>
    </g>
  </g>
</svg>
