<svg id="logo-vetv-plushd" xmlns="http://www.w3.org/2000/svg" width="150.639" height="40" viewBox="0 0 150.639 40">
  <rect id="Rectángulo_117" data-name="Rectángulo 117" width="110.566" height="37.095" transform="translate(1.433 1.433)" fill="none"/>
  <path id="Trazado_158" data-name="Trazado 158" d="M180.283,373.677V407.9H72.583V373.677H126.45m56.7-2.867H69.716v39.961H183.149V370.81Z" transform="translate(-69.716 -370.81)" fill="none"/>
  <rect id="Rectángulo_118" data-name="Rectángulo 118" width="126.765" height="39.869" transform="translate(0.001 0.046)" fill="#fff"/>
  <rect id="Rectángulo_119" data-name="Rectángulo 119" width="53.867" height="34.228" transform="translate(56.699 2.866)" fill="#0090df"/>
  <rect id="Rectángulo_120" data-name="Rectángulo 120" width="53.867" height="34.228" transform="translate(2.867 2.866)" fill="#f27c00"/>
  <path id="Trazado_159" data-name="Trazado 159" d="M190.235,387.814h-5.859v-6.559h19.263v6.559H197.82v22.68h-7.586" transform="translate(-124.566 -375.807)" fill="#fff"/>
  <path id="Trazado_160" data-name="Trazado 160" d="M231.013,381.255l5.979,20.507h.08l6.02-20.507h7.826l-9.953,29.239H233.14l-9.913-29.239" transform="translate(-143.151 -375.807)" fill="#fff"/>
  <path id="Trazado_161" data-name="Trazado 161" d="M86.791,381.255l5.98,20.507h.08l6.02-20.507H106.7l-9.953,29.239H88.918l-9.913-29.239" transform="translate(-74.16 -375.807)" fill="#fff"/>
  <path id="Trazado_162" data-name="Trazado 162" d="M150.548,409.634a12.913,12.913,0,0,1-4.536,5.61,10.94,10.94,0,0,1-6.341,1.976A11.7,11.7,0,1,1,151.309,405.8a8.839,8.839,0,0,1-.16,1.738h-16.7a4.977,4.977,0,0,0,5.217,4.149,4.76,4.76,0,0,0,4.053-2.054m.923-6.52a5.283,5.283,0,0,0-10.113,0Z" transform="translate(-97.536 -381.822)" fill="#fff"/>
  <path id="Trazado_163" data-name="Trazado 163" d="M286.83,434.334v-3.6c0-2.035.317-2.793.815-3.387a3.824,3.824,0,0,1,2.958-1.293,4.062,4.062,0,0,1,2.927,1.159,4.246,4.246,0,0,1,.966,3.208v1.218H298v2.689m-6.005-2.689V430.5c0-.535,0-1.753-1.343-1.753-1.313,0-1.313,1.248-1.313,1.857v1.04Z" transform="translate(-173.577 -397.24)" fill="#f27c00"/>
  <path id="Trazado_164" data-name="Trazado 164" d="M286.831,418.109V415.3h8.661v-3.253H298v6.061" transform="translate(-173.578 -390.537)" fill="#f27c00"/>
  <path id="Trazado_165" data-name="Trazado 165" d="M286.831,399.451h6.745c.754,0,2.128-.044,2.128-1.426s-1.237-1.4-2.128-1.4h-6.745v-2.807h6.745c1.871,0,2.7.4,3.425,1.1A4.077,4.077,0,0,1,298.208,398a4.384,4.384,0,0,1-1.192,3.164,4.3,4.3,0,0,1-3.44,1.1h-6.745" transform="translate(-173.578 -381.818)" fill="#f27c00"/>
  <path id="Trazado_166" data-name="Trazado 166" d="M289.9,379.172c-.378.059-1.087.149-1.087,1.01a.921.921,0,0,0,.875.966c.664,0,.8-.3,1.7-2.273.936-2.05,1.9-2.57,3.2-2.57,1.63,0,3.426.921,3.426,3.833,0,3.179-2.113,3.966-3.546,3.966h-.363v-2.793c1.3,0,1.524-.788,1.524-1.144a1.069,1.069,0,0,0-1.071-1.07c-.739,0-.92.461-1.645,2.154-.317.773-1.1,2.688-3.2,2.688s-3.289-2.005-3.289-3.847a3.889,3.889,0,0,1,1.267-2.971,3.408,3.408,0,0,1,2.2-.728" transform="translate(-173.384 -373.439)" fill="#f27c00"/>
  <path id="Trazado_167" data-name="Trazado 167" d="M317,431.115v-5.444h8.134V418.7H317v-5.444h21.65V418.7h-8.66v6.971h8.66v5.444" transform="translate(-188.008 -391.115)" fill="#fff"/>
  <path id="Trazado_168" data-name="Trazado 168" d="M317,389.5v-7.057c0-2.391,0-6.654,4.037-9.419a11.192,11.192,0,0,1,6.729-1.959c5.91,0,10.884,2.88,10.884,10.975v7.46m-4.857-5.444v-2.333c0-4.061-2.867-5.213-5.939-5.213a7.717,7.717,0,0,0-4.008,1.037,4.46,4.46,0,0,0-1.989,4.147v2.362Z" transform="translate(-188.008 -370.934)" fill="#fff"/>
</svg>
