<svg id="logo-vetv" xmlns="http://www.w3.org/2000/svg" width="112.04" height="40" viewBox="0 0 112.04 40">
  <rect id="Rectángulo_11" data-name="Rectángulo 11" width="112.04" height="40" fill="#fff"/>
  <rect id="Rectángulo_12" data-name="Rectángulo 12" width="53.208" height="34.339" transform="translate(56.002 2.831)" fill="#0090df"/>
  <rect id="Rectángulo_13" data-name="Rectángulo 13" width="53.208" height="34.339" transform="translate(2.83 2.831)" fill="#f27c00"/>
  <path id="Trazado_47" data-name="Trazado 47" d="M633.981,289.681h-5.787V283.1h19.027v6.58h-5.748v22.754h-7.492" transform="translate(-569.118 -277.68)" fill="#fff"/>
  <path id="Trazado_48" data-name="Trazado 48" d="M663,283.1l5.906,20.573h.08l5.946-20.573h7.73l-9.831,29.334H665.1L655.305,283.1" transform="translate(-576.212 -277.68)" fill="#fff"/>
  <path id="Trazado_49" data-name="Trazado 49" d="M562.355,283.1l5.907,20.574h.079l5.946-20.574h7.73l-9.83,29.335h-7.731L554.664,283.1" transform="translate(-549.879 -277.68)" fill="#fff"/>
  <path id="Trazado_50" data-name="Trazado 50" d="M611.161,307.87a12.9,12.9,0,0,1-4.479,5.628,10.691,10.691,0,0,1-6.263,1.982,11.735,11.735,0,0,1-.12-23.468c6.7,0,11.615,5.312,11.615,12.012a9.032,9.032,0,0,1-.158,1.744H595.265a4.934,4.934,0,0,0,5.154,4.163,4.682,4.682,0,0,0,4-2.061m.912-6.541a5.2,5.2,0,0,0-9.99,0Z" transform="translate(-558.801 -280.012)" fill="#fff"/>
</svg>
