<?xml version="1.0" encoding="UTF-8"?><svg id="Layer_8" xmlns="http://www.w3.org/2000/svg" viewBox="0 0 935.15 283.59"><defs><style>.cls-1{fill:#fff;}</style></defs><path class="cls-1" d="M70.27,92.41c-20.13,2.2-30.38,14.31-30.38,28.79,0,11.92,8.66,23.2,24.86,26.26l19.52,3.83c7.16,1.41,10.8,3,10.8,6.9,0,2.97-2.75,6.07-11.98,6.07-8.31,0-19.52-1.25-26.65-1.25s-14.12,2.97-14.12,16.49c.03,1.82,.26,3.61,.61,5.4,10.26,1.18,31.79,3.07,46.68,1.44,20.7-2.3,30.67-13.48,30.67-29.01,0-13.35-8.24-24.25-27.35-27.76l-18.53-3.45c-5.94-1.02-9.71-2.43-9.71-5.81s3.9-5.78,13.35-5.78,17.51,.96,22.78,.96c6.9,0,13.99-2.91,13.99-16.39,0-1.76-.19-3.55-.54-5.27-10.13-1.31-20.32-2.01-30.54-2.11-4.47-.03-8.98,.19-13.42,.67m115.78,10.42l-31.21,34.12,25.08,39.49c4.6,7.19,10.7,10.86,20.7,10.86,4.92,.06,9.84-.83,14.41-2.68l-30.26-45.5,21.41-22.68,35.11,55.18-21.34,45.02c3.77,1.66,7.86,2.56,11.98,2.59h.8c8.91,0,13.8-3.64,17.54-11.85l50.58-112.69c-3.29-1.47-6.84-2.3-10.45-2.43-6.52-.13-15.24,1.18-20.7,14.47l-16.52,38.63-32.2-52.24c-3.48-.93-7.06-1.47-10.67-1.6-11.37,0-17.67,4.19-24.25,11.31m-57.64-26.26v110.1c1.92,.29,3.87,.42,5.81,.42,16.1,0,19.46-4.79,19.46-13.1V60.04c-2.01-.42-4.06-.64-6.1-.61-16.36-.03-19.17,8.72-19.17,17.09"/><rect class="cls-1" x="337.99" y="47.93" width="6.86" height="181.54" rx="3.43" ry="3.43"/><g><path class="cls-1" d="M382.18,206.27V102.44c1.58-.51,3.07-.76,4.45-.76,3.99,0,5.96,2.29,5.9,6.86v5.33h.15c3.02-4.17,6.58-7.45,10.7-9.84,4.11-2.39,9.19-3.58,15.22-3.58,4.66,0,9.1,.93,13.3,2.79,4.21,1.86,7.89,4.53,11.06,8,3.17,3.47,5.66,7.6,7.49,12.4,1.82,4.8,2.74,10.13,2.74,16,0,6.71-1.04,12.5-3.12,17.36-2.08,4.87-4.78,8.87-8.1,12.02-3.32,3.15-7.03,5.48-11.14,6.99-4.11,1.51-8.23,2.27-12.39,2.27-5.98,0-11.16-1.21-15.53-3.63-4.37-2.42-7.78-5.15-10.24-8.18v36.19c0,1.28-.38,2.3-1.15,3.07-.77,.77-2.2,1.15-4.29,1.15-.92,0-1.87-.05-2.84-.15-.97-.1-1.71-.26-2.22-.46Zm10.51-51.15c1.99,3.99,5.06,7.35,9.2,10.08,4.14,2.74,9.05,4.1,14.72,4.1,3.78,0,7.26-.69,10.43-2.07,3.17-1.38,5.9-3.32,8.2-5.83,2.3-2.5,4.11-5.58,5.44-9.24,1.33-3.65,1.99-7.83,1.99-12.54,0-3.88-.52-7.63-1.57-11.23-1.05-3.6-2.67-6.82-4.87-9.66-2.2-2.84-4.92-5.1-8.17-6.79-3.25-1.69-7.07-2.53-11.46-2.53-4.7,0-9.25,1.29-13.65,3.87-4.4,2.58-7.82,6.28-10.28,11.08v30.75Z"/><path class="cls-1" d="M469.14,177.06V102.37c1.58-.46,3.07-.7,4.45-.7,3.99,0,5.96,2.24,5.91,6.73v7.03h.31c2.5-5.54,5.83-9.4,9.97-11.57,4.14-2.17,8.74-3.26,13.8-3.26,3.02,0,5.88,.39,8.59,1.18,.15,.88,.23,1.72,.23,2.51,0,1.82-.43,3.22-1.3,4.2-1.12,1.28-2.56,1.93-4.29,1.93h-.77c-1.23-.15-2.45-.23-3.68-.23-1.99,0-3.94,.21-5.83,.62-3.12,.67-5.94,1.98-8.47,3.93-2.53,1.95-4.56,4.64-6.1,8.06-1.53,3.42-2.3,7.65-2.3,12.69v37.94c0,1.29-.38,2.31-1.15,3.09-.77,.77-2.2,1.16-4.29,1.16-.92,0-1.87-.05-2.84-.15-.97-.1-1.71-.26-2.22-.46Z"/><path class="cls-1" d="M514.39,154.69c-1.74-4.71-2.61-9.81-2.61-15.29s.91-10.61,2.72-15.38c1.81-4.77,4.35-8.9,7.59-12.4,3.25-3.49,7.04-6.22,11.39-8.2,4.34-1.98,9.05-2.96,14.11-2.96,5.78,0,10.8,1.13,15.07,3.38,4.27,2.25,7.8,5.11,10.58,8.57,2.79,3.46,4.86,7.29,6.21,11.49,1.35,4.2,2.03,8.25,2.03,12.14,0,3.34-.15,5.62-.46,6.83h-58.74c.2,4.24,1.06,7.97,2.57,11.18,1.51,3.21,3.53,5.92,6.06,8.15,2.53,2.22,5.44,3.9,8.74,5.04,3.3,1.14,6.81,1.7,10.54,1.7,3.12,0,5.87-.27,8.24-.81s4.49-1.11,6.33-1.73c1.84-.61,3.44-1.19,4.79-1.73,1.35-.54,2.59-.81,3.72-.81,1.48,0,2.68,.72,3.6,2.15,.66,.98,1,2.15,1,3.54,0,.63-.05,1.34-.15,2.13-2.81,1.53-6.61,3.06-11.39,4.56-4.78,1.51-10.06,2.26-15.84,2.26-6.08,0-11.53-1-16.33-3-4.81-2-8.87-4.79-12.19-8.38-3.32-3.59-5.85-7.74-7.59-12.45Zm8.05-19.65h49.31c-.2-3.54-.91-6.84-2.11-9.93-1.2-3.08-2.83-5.78-4.87-8.11-2.05-2.32-4.51-4.17-7.4-5.53-2.89-1.36-6.11-2.05-9.66-2.05s-6.82,.66-9.82,1.97-5.59,3.13-7.78,5.46c-2.2,2.32-3.95,5.03-5.25,8.11s-2.11,6.44-2.42,10.08Z"/><path class="cls-1" d="M596.97,206.27V102.44c1.58-.51,3.07-.76,4.45-.76,3.99,0,5.95,2.29,5.9,6.86v5.33h.15c3.02-4.17,6.58-7.45,10.7-9.84,4.11-2.39,9.19-3.58,15.22-3.58,4.66,0,9.09,.93,13.3,2.79s7.89,4.53,11.06,8c3.17,3.47,5.66,7.6,7.49,12.4,1.82,4.8,2.74,10.13,2.74,16,0,6.71-1.04,12.5-3.12,17.36-2.08,4.87-4.78,8.87-8.1,12.02s-7.03,5.48-11.14,6.99c-4.11,1.51-8.23,2.27-12.39,2.27-5.98,0-11.16-1.21-15.53-3.63-4.37-2.42-7.78-5.15-10.24-8.18v36.19c0,1.28-.38,2.3-1.15,3.07-.77,.77-2.2,1.15-4.29,1.15-.92,0-1.87-.05-2.84-.15-.97-.1-1.71-.26-2.22-.46Zm10.51-51.15c1.99,3.99,5.06,7.35,9.2,10.08,4.14,2.74,9.05,4.1,14.72,4.1,3.78,0,7.26-.69,10.43-2.07s5.9-3.32,8.21-5.83c2.3-2.5,4.11-5.58,5.44-9.24,1.33-3.65,1.99-7.83,1.99-12.54,0-3.88-.53-7.63-1.57-11.23-1.05-3.6-2.67-6.82-4.87-9.66-2.2-2.84-4.92-5.1-8.17-6.79-3.25-1.69-7.07-2.53-11.46-2.53-4.7,0-9.25,1.29-13.65,3.87-4.4,2.58-7.82,6.28-10.27,11.08v30.75Z"/><path class="cls-1" d="M679.25,155.23c0-7.26,2.54-13.11,7.62-17.54,5.08-4.43,13.31-6.64,24.7-6.64,6.38,0,13.78,.83,22.2,2.47v-6.37c0-6.31-1.46-10.85-4.38-13.6-2.92-2.75-7.97-4.13-15.14-4.13-3.79,0-7,.2-9.61,.61-2.61,.41-4.83,.9-6.65,1.47-1.82,.57-3.38,1.06-4.66,1.46-1.28,.4-2.41,.6-3.38,.6-1.44,0-2.52-.69-3.26-2.07-.51-.89-.76-2.07-.76-3.55,0-.67-.08-1.41-.23-2.21,2.55-.72,6.33-1.78,11.34-3.18s10.75-2.11,17.21-2.11c5.94,0,10.84,.67,14.7,2.01s6.92,3.28,9.18,5.81,3.85,5.65,4.77,9.34c.92,3.7,1.38,7.87,1.38,12.53v16.56c0,3.48,.05,6.52,.15,9.13,.1,2.61,.33,5.01,.69,7.21,.36,2.2,.86,4.35,1.5,6.44,.64,2.1,1.42,4.35,2.34,6.75-.72,.42-1.47,.77-2.26,1.03-.79,.26-1.78,.4-2.97,.4-1.54,0-2.79-.31-3.74-.93-.96-.62-1.65-1.42-2.07-2.41-.53-1.04-1.05-2.54-1.55-4.5-.5-1.97-.92-4.32-1.23-7.06h-.32c-2.71,4.35-6.45,7.99-11.23,10.94s-10.77,4.42-17.98,4.42c-4.42,0-8.28-.6-11.6-1.81s-6.07-2.87-8.28-4.97c-2.21-2.11-3.84-4.56-4.89-7.36-1.05-2.8-1.58-5.72-1.58-8.75Zm10.51-.46c0,4.26,1.57,7.73,4.71,10.39,3.14,2.66,7.41,4,12.82,4,6.07,0,11.3-1.41,15.69-4.22,4.39-2.82,7.99-6.86,10.79-12.14v-11.72c-7.96-1.47-14.65-2.21-20.06-2.21-8.17,0-14.2,1.41-18.1,4.22-3.9,2.82-5.86,6.71-5.86,11.68Z"/><path class="cls-1" d="M758.01,185.52c0-3.76,1.08-7.28,3.25-10.55,2.17-3.28,5.32-5.96,9.44-8.04-.83-.81-1.62-1.82-2.37-3.01-.75-1.19-1.12-2.68-1.12-4.46,0-1.97,.57-3.85,1.71-5.67,1.14-1.81,2.76-3.02,4.84-3.63-1.45-.62-2.97-1.55-4.55-2.79-1.58-1.24-3.06-2.77-4.44-4.6-1.38-1.83-2.53-4.02-3.46-6.58-.93-2.55-1.39-5.51-1.39-8.86,0-3.87,.7-7.47,2.09-10.81,1.39-3.33,3.42-6.17,6.08-8.52,2.66-2.34,5.85-4.19,9.57-5.54,3.72-1.35,7.91-2.02,12.57-2.02,5.98,0,11.26,.99,15.84,2.97l11.02-1.98c3.86-.68,7.5-1.29,10.95-1.83,.51,.49,.97,1.13,1.38,1.94,.41,.81,.61,1.67,.61,2.6,0,1.41-.45,2.5-1.34,3.28-.89,.78-2.21,1.21-3.95,1.31-1.17,.06-2.4,.11-3.68,.17-.61,0-1.23-.03-1.84-.09-1.98-.05-3.85-.08-5.61-.08l-.16,.15c2.51,2.35,4.55,5.07,6.1,8.17s2.33,6.68,2.33,10.75c0,7.7-2.77,13.91-8.31,18.63-5.54,4.72-13.32,7.08-23.35,7.08-2.03,0-3.86-.15-5.5-.45-1.64-.3-2.9-.4-3.78-.32-1.51,.2-2.73,.69-3.67,1.45-.94,.76-1.4,1.88-1.4,3.35,0,1.79,.99,3.16,2.98,4.11,1.99,.95,4.68,1.63,8.06,2.04l20.94,2.81c7.81,1.01,13.3,3.13,16.47,6.35s4.76,7.33,4.76,12.35c0,3.51-.77,6.75-2.3,9.74-1.53,2.99-3.88,5.57-7.02,7.73-3.15,2.16-7.07,3.88-11.78,5.14-4.71,1.26-10.18,1.89-16.43,1.89-5.17,0-9.83-.63-13.96-1.89-4.13-1.26-7.65-3.01-10.54-5.22-2.89-2.22-5.12-4.81-6.7-7.77-1.57-2.97-2.36-6.07-2.36-9.32Zm10.51-1.3c.2,4.67,2.38,8.6,6.55,11.77,4.17,3.17,10.14,4.76,17.9,4.76,4.3,0,8.06-.41,11.28-1.21,3.22-.81,5.91-1.92,8.06-3.34,2.15-1.42,3.73-3.02,4.76-4.82,1.02-1.8,1.53-3.63,1.53-5.5,0-2.78-.92-4.95-2.76-6.52-1.84-1.57-5.34-2.7-10.5-3.41l-19.18-2.65c-2.73-.32-4.93-.76-6.59-1.31-1.66-.56-3.03-1.1-4.1-1.63-2.21,1.47-3.97,3.4-5.26,5.79-1.13,2.08-1.69,4.42-1.69,7.01v1.07Zm7.28-70.99c-3.57,3.31-5.36,8.01-5.36,14.1s1.81,10.68,5.44,13.75c3.63,3.07,8.41,4.61,14.36,4.61,6.5,0,11.65-1.54,15.45-4.61,3.8-3.07,5.7-7.65,5.7-13.75s-1.93-10.79-5.77-14.1-8.97-4.96-15.37-4.96c-6.05,0-10.86,1.65-14.44,4.96Z"/><path class="cls-1" d="M836.38,139.41c0-5.21,.88-10.19,2.66-14.92,1.77-4.73,4.31-8.87,7.63-12.42,3.31-3.55,7.28-6.38,11.9-8.47,4.62-2.1,9.76-3.14,15.43-3.14s10.76,1.05,15.28,3.14c4.52,2.1,8.41,4.92,11.67,8.47,3.26,3.55,5.75,7.68,7.47,12.38,1.72,4.7,2.58,9.69,2.58,14.95s-.86,10.3-2.58,14.95c-1.72,4.65-4.19,8.77-7.4,12.35-3.21,3.58-7.1,6.38-11.67,8.4-4.57,2.02-9.69,3.03-15.35,3.03s-10.81-.98-15.43-2.95c-4.62-1.97-8.59-4.69-11.9-8.17-3.31-3.48-5.85-7.55-7.63-12.23-1.77-4.68-2.66-9.8-2.66-15.37Zm10.5,0c0,5,.78,9.34,2.34,13.04,1.56,3.7,3.62,6.81,6.2,9.33,2.58,2.52,5.49,4.39,8.73,5.58,3.24,1.2,6.52,1.8,9.84,1.8,3.11,0,6.24-.6,9.38-1.8,3.14-1.2,5.97-3.03,8.5-5.51,2.53-2.47,4.59-5.58,6.2-9.33,1.61-3.75,2.41-8.12,2.41-13.12,0-4.69-.73-8.9-2.18-12.62-1.45-3.72-3.38-6.86-5.78-9.41s-5.19-4.51-8.38-5.89c-3.19-1.38-6.57-2.07-10.15-2.07-3.37,0-6.66,.69-9.88,2.07-3.22,1.38-6.11,3.34-8.69,5.89s-4.65,5.69-6.2,9.41c-1.56,3.72-2.34,7.93-2.34,12.62Z"/></g></svg>