<svg id="Capa_1" data-name="Capa 1" xmlns="http://www.w3.org/2000/svg" viewBox="0 0 197.76 24.01"><defs><style>.cls-1{fill:#fff;}.cls-2{fill:#53a7df;}.cls-3{fill:#fca01f;}.cls-4{fill:#d8006b;}.cls-5{fill:#00418b;}.cls-6{fill:#e13604;}.cls-7{fill:#cdce28;}.cls-8{fill:#3f1b60;}</style></defs><g id="sky-bti-logo"><g id="bluetelecom-inalambrico-logo"><path id="Trazado_119" data-name="Trazado 119" class="cls-1" d="M119.54,14.55h-11a1.78,1.78,0,0,1-1.78-1.78v-11A1.78,1.78,0,0,1,108.55,0h11a1.8,1.8,0,0,1,1.79,1.78v11a1.8,1.8,0,0,1-1.79,1.78m0-.29a1.49,1.49,0,0,0,1.5-1.48h0v-11a1.52,1.52,0,0,0-1.49-1.5h-11a1.51,1.51,0,0,0-1.5,1.5v11a1.5,1.5,0,0,0,1.5,1.5Z"/><path id="Trazado_120" data-name="Trazado 120" class="cls-1" d="M119.54,14.55h-11a1.78,1.78,0,0,1-1.78-1.78v-11A1.78,1.78,0,0,1,108.55,0h11a1.8,1.8,0,0,1,1.79,1.78v11a1.8,1.8,0,0,1-1.79,1.78m0-.29a1.49,1.49,0,0,0,1.5-1.48h0v-11a1.52,1.52,0,0,0-1.49-1.5h-11a1.51,1.51,0,0,0-1.5,1.5v11a1.5,1.5,0,0,0,1.5,1.5Z"/><path id="Trazado_121" data-name="Trazado 121" class="cls-2" d="M119.54.15h-11a1.65,1.65,0,0,0-1.64,1.63v11a1.66,1.66,0,0,0,1.64,1.64h11a1.63,1.63,0,0,0,1.64-1.64v-11A1.63,1.63,0,0,0,119.55.15h0"/><path id="Trazado_122" data-name="Trazado 122" class="cls-3" d="M121.18,2.57V1.79a.61.61,0,0,0,0-.19L117.29.15h-8.73a1.63,1.63,0,0,0-1.06.39l5.92,2.22"/><path id="Trazado_123" data-name="Trazado 123" class="cls-4" d="M113.42,2.76l7.76,2.9V2.57"/><path id="Trazado_124" data-name="Trazado 124" class="cls-5" d="M113.42,2.76l-6.5.2v.36l6,3.45,8.26-.42V5.66"/><path id="Trazado_125" data-name="Trazado 125" class="cls-1" d="M106.92,3.32V6.44l6,.33"/><path id="Trazado_126" data-name="Trazado 126" class="cls-6" d="M120.77,13.85a2.71,2.71,0,0,0,.24-.35l-8.09-6.73-6-.33v.07l4.56,3.87"/><path id="Trazado_127" data-name="Trazado 127" class="cls-7" d="M120.77,13.85l-9.29-3.47,4.7,4h3.36a1.65,1.65,0,0,0,1.23-.56"/><path id="Trazado_128" data-name="Trazado 128" class="cls-8" d="M106.92,8.63v4.08l4.48,1.7h4.78l-4.7-4"/><g id="Grupo_41" data-name="Grupo 41"><path id="Trazado_129" data-name="Trazado 129" class="cls-2" d="M132.78,9a6.12,6.12,0,0,0-.4-2.28,5.24,5.24,0,0,0-1.07-1.67,4.49,4.49,0,0,0-3.23-1.38,4.26,4.26,0,0,0-2.13.5l-.12.06V.45l-.52-.13a4.51,4.51,0,0,0-.53-.09h-.66a1.65,1.65,0,0,0-1.33.48,1.58,1.58,0,0,0-.39,1.08v10a16.17,16.17,0,0,1-.07,1.84v.57l.55.14.44.09a5,5,0,0,0,.67,0,1.82,1.82,0,0,0,1.17-.35,1.72,1.72,0,0,0,.36-.4,3.52,3.52,0,0,0,.45.3,4.2,4.2,0,0,0,2.11.54A4.4,4.4,0,0,0,130,14.1a4.64,4.64,0,0,0,1.51-1.2,5.73,5.73,0,0,0,1-1.73A6.39,6.39,0,0,0,132.78,9Zm-4,1.75a1.8,1.8,0,0,1-1.33.55,1.82,1.82,0,0,1-.65-.12,1.58,1.58,0,0,1-1-1.48v-2a1.81,1.81,0,0,1,1.61-.79,1.72,1.72,0,0,1,1.36.56,2.27,2.27,0,0,1,.54,1.64,2.34,2.34,0,0,1-.54,1.72Z"/><path id="Trazado_130" data-name="Trazado 130" class="cls-2" d="M135.87.17h-.65a1.7,1.7,0,0,0-1.34.49,1.64,1.64,0,0,0-.38,1.08V14.18l.52.13a3.35,3.35,0,0,0,.54.08h.64a1.67,1.67,0,0,0,1.34-.47,1.58,1.58,0,0,0,.39-1.08V.38l-.52-.13A5,5,0,0,0,135.87.17Z"/><path id="Trazado_131" data-name="Trazado 131" class="cls-2" d="M147.79,12.6l-.09-.75V4l-.52-.13a3.35,3.35,0,0,0-.54-.08H146a1.69,1.69,0,0,0-1.32.47,1.57,1.57,0,0,0-.4,1.09v5.22a2,2,0,0,1-.63.6,1.64,1.64,0,0,1-.86.24,1.25,1.25,0,0,1-.94-.34,1.92,1.92,0,0,1-.35-1.25V4L141,3.87a4.67,4.67,0,0,0-.52-.08h-.65a1.71,1.71,0,0,0-1.31.46,1.55,1.55,0,0,0-.42,1.1V10a5.66,5.66,0,0,0,.31,2,4.17,4.17,0,0,0,.86,1.43,3.69,3.69,0,0,0,1.31.86,4.39,4.39,0,0,0,1.52.27,4,4,0,0,0,2.17-.56,2.83,2.83,0,0,0,.45-.32,1.5,1.5,0,0,0,.48.52,1.72,1.72,0,0,0,1.1.3h0a3,3,0,0,0,1.34-.26l.5-.22-.11-.54A5.45,5.45,0,0,1,147.79,12.6Z"/><path id="Trazado_132" data-name="Trazado 132" class="cls-2" d="M157.21,5.33a4.76,4.76,0,0,0-1.57-1.21,5.07,5.07,0,0,0-5.82,1.11,5.38,5.38,0,0,0-1.07,1.7,6.11,6.11,0,0,0,0,4.27,5.24,5.24,0,0,0,1.1,1.75,4.86,4.86,0,0,0,1.77,1.16,6.2,6.2,0,0,0,2.3.41,8.18,8.18,0,0,0,2.09-.24,10,10,0,0,0,1.52-.5l.35-.15v-.94a2,2,0,0,0-.34-1.23,1.35,1.35,0,0,0-1.13-.6,2.24,2.24,0,0,0-.68.1,2,2,0,0,0-.58.19,4,4,0,0,1-1.33.21,2.3,2.3,0,0,1-1.48-.43,1.26,1.26,0,0,1-.36-.43h6.16l.12-.54a6.61,6.61,0,0,0,.12-1.09A5.64,5.64,0,0,0,158.15,7,4.93,4.93,0,0,0,157.21,5.33ZM152,7.65a1.71,1.71,0,0,1,.35-.56,1.72,1.72,0,0,1,2.3,0,2,2,0,0,1,.34.55Z"/><path id="Trazado_133" data-name="Trazado 133" class="cls-2" d="M164.65,8.82H161a.31.31,0,0,0-.31.31h0v.46a.31.31,0,0,0,.31.31h1.25v4a.31.31,0,0,0,.31.31h.57a.31.31,0,0,0,.31-.31h0v-4h1.25a.31.31,0,0,0,.31-.31h0V9.13a.33.33,0,0,0-.31-.31Z"/><path id="Trazado_134" data-name="Trazado 134" class="cls-2" d="M168.69,8.82h-3.34a.31.31,0,0,0-.31.31h0v4.78a.31.31,0,0,0,.31.31h3.34a.29.29,0,0,0,.3-.3h0v-.46a.29.29,0,0,0-.29-.31h-2.47V12h2.05a.31.31,0,0,0,.31-.31h0v-.45a.31.31,0,0,0-.31-.31h-2.05v-1h2.46a.29.29,0,0,0,.3-.3h0V9.14a.31.31,0,0,0-.3-.32Z"/><path id="Trazado_135" data-name="Trazado 135" class="cls-2" d="M169.58,14.22h3.32a.31.31,0,0,0,.31-.31h0v-.46a.31.31,0,0,0-.31-.31h-2.44v-4a.31.31,0,0,0-.31-.31h-.57a.31.31,0,0,0-.31.31h0v4.78a.31.31,0,0,0,.31.31Z"/><path id="Trazado_136" data-name="Trazado 136" class="cls-2" d="M177.09,8.82h-3.34a.31.31,0,0,0-.31.31h0v4.78a.31.31,0,0,0,.31.31h3.34a.31.31,0,0,0,.31-.31v-.46a.31.31,0,0,0-.31-.31h-2.46V12h2.05a.31.31,0,0,0,.31-.31h0v-.45a.31.31,0,0,0-.31-.31h-2.05v-1h2.46a.31.31,0,0,0,.31-.31V9.14A.33.33,0,0,0,177.09,8.82Z"/><path id="Trazado_137" data-name="Trazado 137" class="cls-2" d="M178.93,10.11a1.06,1.06,0,0,1,.72-.25,1.24,1.24,0,0,1,.5.1,1.6,1.6,0,0,1,.42.3.32.32,0,0,0,.41,0l.39-.34a.31.31,0,0,0,0-.44h0a2.58,2.58,0,0,0-1.71-.66,2.29,2.29,0,0,0-1.58.58,1.69,1.69,0,0,0-.55.92,11.42,11.42,0,0,0,0,2.48,1.69,1.69,0,0,0,.55.92,2.26,2.26,0,0,0,1.57.57,2.59,2.59,0,0,0,1.72-.65.31.31,0,0,0,0-.44h0l-.37-.4a.32.32,0,0,0-.41,0,2,2,0,0,1-.41.29,1.11,1.11,0,0,1-.51.1,1.06,1.06,0,0,1-.72-.25.73.73,0,0,1-.22-.39,5.6,5.6,0,0,1-.06-1,5.6,5.6,0,0,1,.06-1A.81.81,0,0,1,178.93,10.11Z"/><path id="Trazado_138" data-name="Trazado 138" class="cls-2" d="M185.9,12.76a11.52,11.52,0,0,0,0-2.49,1.56,1.56,0,0,0-.54-.91,2.45,2.45,0,0,0-3.16,0,1.73,1.73,0,0,0-.54.92,7.37,7.37,0,0,0-.07,1.24,7.43,7.43,0,0,0,.07,1.25,1.74,1.74,0,0,0,.54.91,2.45,2.45,0,0,0,3.16,0A1.61,1.61,0,0,0,185.9,12.76Zm-3.12-1.24a5.6,5.6,0,0,1,.06-1,.79.79,0,0,1,.22-.4,1.12,1.12,0,0,1,1.44,0,.73.73,0,0,1,.22.39,5.6,5.6,0,0,1,.06,1,5.6,5.6,0,0,1-.06,1,.79.79,0,0,1-.22.4,1.12,1.12,0,0,1-1.44,0,.73.73,0,0,1-.22-.39A5.6,5.6,0,0,1,182.78,11.52Z"/><path id="Trazado_139" data-name="Trazado 139" class="cls-2" d="M191.32,8.82h-.58a.3.3,0,0,0-.27.17L189,11.84,187.56,9a.35.35,0,0,0-.28-.17h-.57a.31.31,0,0,0-.31.31h0v4.78a.31.31,0,0,0,.31.31h.57a.31.31,0,0,0,.31-.31h0V11.54l.91,1.76a.32.32,0,0,0,.28.16h.49a.28.28,0,0,0,.27-.17l.89-1.73V13.9a.31.31,0,0,0,.31.31h.57a.31.31,0,0,0,.31-.31h0V9.13A.31.31,0,0,0,191.32,8.82Z"/><path id="Trazado_140" data-name="Trazado 140" class="cls-2" d="M194.64,13.47h.49a.31.31,0,0,0,.27-.17l.89-1.74v2.35a.31.31,0,0,0,.31.31h.57a.31.31,0,0,0,.31-.31h0V9.13a.33.33,0,0,0-.31-.31h-.57a.33.33,0,0,0-.28.17l-1.43,2.85L193.42,9a.35.35,0,0,0-.28-.17h-.57a.31.31,0,0,0-.31.31h0v4.78a.31.31,0,0,0,.31.31h.57a.31.31,0,0,0,.31-.31h0V11.54l.91,1.76A.33.33,0,0,0,194.64,13.47Z"/><rect id="Rect치ngulo_93" data-name="Rect치ngulo 93" class="cls-2" x="106.69" y="17.87" width="1.13" height="5.78"/><path id="Trazado_141" data-name="Trazado 141" class="cls-2" d="M116.36,21.41l-2.29-3.54h-1v5.78h1.12V20.1l2.29,3.55h1V17.87h-1.13Z"/><path id="Trazado_142" data-name="Trazado 142" class="cls-2" d="M124.21,17.87l-2.1,5.78h1.17l.35-1h2.06l.34,1h1.17l-2.11-5.78Zm-.26,3.8.73-2.1.7,2.1Z"/><path id="Trazado_143" data-name="Trazado 143" class="cls-2" d="M132.94,17.87h-1.13v5.78h3.75v-1h-2.62Z"/><path id="Trazado_144" data-name="Trazado 144" class="cls-2" d="M143.46,15.93h-1.11l-.52,1.38h.71Z"/><path id="Trazado_145" data-name="Trazado 145" class="cls-2" d="M141.85,17.87l-2.1,5.78h1.18l.35-1h2.05l.34,1h1.18l-2.11-5.78Zm-.26,3.8.73-2.1.71,2.1Z"/><path id="Trazado_146" data-name="Trazado 146" class="cls-2" d="M152.08,21l-1.51-3.12h-1.11v5.78h1.12V20.28l1.12,2.19h.76l1.1-2.19v3.37h1.13V17.87h-1.11Z"/><path id="Trazado_147" data-name="Trazado 147" class="cls-2" d="M163.33,20.69a1.34,1.34,0,0,0,.71-1.2,1.56,1.56,0,0,0-1.49-1.63h-2.61v5.78h2.41a1.61,1.61,0,0,0,1.77-1.42,1,1,0,0,0,0-.25A1.33,1.33,0,0,0,163.33,20.69Zm-2.27-1.81h1.1a.67.67,0,0,1,.75.58h0a.68.68,0,0,1-.59.75h-1.26Zm1.18,3.76h-1.18V21.22h1.18a.73.73,0,0,1,.76.67.71.71,0,0,1-.67.75h-.09Z"/><path id="Trazado_148" data-name="Trazado 148" class="cls-2" d="M173.32,19.64a1.77,1.77,0,0,0-1.72-1.78h-2.42v5.78h1.13v-2.3h.81l1.13,2.3h1.3l-1.29-2.5A1.55,1.55,0,0,0,173.32,19.64Zm-1.95.76h-1.06V18.87h1.06a.77.77,0,0,1,.25,1.52h-.25Z"/><rect id="Rect치ngulo_94" data-name="Rect치ngulo 94" class="cls-2" x="178.38" y="17.87" width="1.13" height="5.78"/><path id="Trazado_149" data-name="Trazado 149" class="cls-2" d="M186.7,18.83a.93.93,0,0,1,1,.82h1.15a2,2,0,0,0-2.13-1.83,2.17,2.17,0,0,0-1.56.63c-.58.59-.57,1.31-.57,2.31a3,3,0,0,0,.57,2.3,2.12,2.12,0,0,0,1.56.64,2.07,2.07,0,0,0,2.13-1.83H187.7a1,1,0,0,1-1,.82.93.93,0,0,1-.72-.3c-.22-.25-.29-.52-.29-1.63s.07-1.39.29-1.64A.89.89,0,0,1,186.7,18.83Z"/><path id="Trazado_150" data-name="Trazado 150" class="cls-2" d="M197.19,18.45a2.26,2.26,0,0,0-3.13,0c-.58.59-.57,1.31-.57,2.31a3,3,0,0,0,.57,2.3,2.26,2.26,0,0,0,3.13,0c.58-.58.57-1.31.57-2.3S197.77,19,197.19,18.45Zm-.84,3.93a.94.94,0,0,1-.72.31,1,1,0,0,1-.73-.31c-.22-.24-.28-.51-.28-1.62s.06-1.38.28-1.63a1,1,0,0,1,1.45,0c.22.25.29.51.29,1.63S196.57,22.14,196.35,22.38Z"/></g></g><polygon class="cls-1" points="94.84 10.27 90.5 10.27 90.5 5.92 86.73 5.92 86.73 10.27 82.39 10.27 82.39 14.04 86.73 14.04 86.73 18.38 90.5 18.38 90.5 14.04 94.84 14.04 94.84 10.27"/><g id="skyhd-logo"><path id="Trazado_37" data-name="Trazado 37" class="cls-1" d="M67.73,5.22a1,1,0,0,0-1,1h0a1,1,0,0,0,1,1h0a1,1,0,0,0,0-2Zm0,1.83a.8.8,0,0,1-.8-.8h0a.8.8,0,0,1,.79-.81h0a.8.8,0,0,1,.8.8h0a.79.79,0,0,1-.77.81h0Z"/><path id="Trazado_38" data-name="Trazado 38" class="cls-1" d="M68,6.27h0A.29.29,0,0,0,68.2,6c0-.32-.34-.32-.41-.32H67.3V6.83h.2V6.37h.24c.2,0,.23.06.24.25a1,1,0,0,1,0,.21h.2V6.57C68.18,6.38,68.14,6.32,68,6.27Zm-.24-.09H67.5V5.86h.26c.1,0,.22,0,.24.13s-.18.19-.26.19Z"/><path id="Trazado_39" data-name="Trazado 39" class="cls-1" d="M33.93,7.4l-2.41,5.69L26.78,5.38a6.64,6.64,0,0,0-1.6-.22A4.36,4.36,0,0,0,21.6,6.82l-4.6,5,3.7,5.84a3.26,3.26,0,0,0,3.05,1.6,5.3,5.3,0,0,0,2.12-.4l-4.46-6.72,3.17-3.35L29.76,17,26.6,23.62a4.49,4.49,0,0,0,1.77.37,2.57,2.57,0,0,0,2.71-1.75L38.54,5.61A4.13,4.13,0,0,0,37,5.25,3,3,0,0,0,33.93,7.4Z"/><path id="Trazado_40" data-name="Trazado 40" class="cls-1" d="M13.08,2.93V19.2a6.11,6.11,0,0,0,.86.06c2.4,0,2.88-.71,2.88-1.93V.5a4.58,4.58,0,0,0-.9-.09C13.5.41,13.08,1.7,13.08,2.93Z"/><path id="Trazado_41" data-name="Trazado 41" class="cls-1" d="M7.84,10.77l-2.75-.51c-.88-.16-1.44-.36-1.44-.86s.59-.86,2-.86,2.59.14,3.37.14c1,0,2.06-.43,2.06-2.42A3.94,3.94,0,0,0,11,5.49a31.39,31.39,0,0,0-6.5-.22C1.51,5.6,0,7.39,0,9.53a4,4,0,0,0,3.67,3.88L6.56,14c1.05.21,1.6.44,1.6,1s-.41.9-1.77.9-2.89-.18-3.94-.18S.36,16.15.36,18.14a5.29,5.29,0,0,0,.09.8,36.18,36.18,0,0,0,6.9.22c3-.33,4.53-2,4.53-4.29C11.88,12.9,10.66,11.29,7.84,10.77Z"/><path id="Trazado_42" data-name="Trazado 42" class="cls-1" d="M49,6.79v3.79H43.5V5.33c-3.4-.63-3.4,1.46-3.4,1.46V19.12c3.44.71,3.44-1.31,3.44-1.31V14H49v5.1c3.44.71,3.44-1.31,3.44-1.31V5.33C49,4.71,49,6.79,49,6.79Z"/><path id="Trazado_43" data-name="Trazado 43" class="cls-1" d="M60.08,5.21H57.25c-2.73,0-2.71,1.9-2.71,1.9V17.45c0,2,2.71,1.81,2.71,1.81h2.83s7.9.1,7.9-7.09S60.08,5.21,60.08,5.21Zm0,11H57.91v-8h2.17s4.37-.26,4.37,4-4.37,4-4.37,4Z"/></g></g></svg>