<svg id="sky-bti-logo" xmlns="http://www.w3.org/2000/svg" viewBox="0 0 257.1 48"><g id="bluetelecom-inalambrico-logo"><path id="Trazado_119" data-name="Trazado 119" d="M151.56,28.46h-14.9a2.43,2.43,0,0,1-2.4-2.4V11.16a2.43,2.43,0,0,1,2.4-2.4h14.8a2.43,2.43,0,0,1,2.4,2.4V26a2.32,2.32,0,0,1-2.3,2.5m0-.4a2,2,0,0,0,2-2V11.16a2,2,0,0,0-2-2h-14.9a2,2,0,0,0-2,2V26a2,2,0,0,0,2,2Z" style="fill:#fff"/><path id="Trazado_120" data-name="Trazado 120" d="M151.56,28.46h-14.9a2.43,2.43,0,0,1-2.4-2.4V11.16a2.43,2.43,0,0,1,2.4-2.4h14.8a2.43,2.43,0,0,1,2.4,2.4V26a2.32,2.32,0,0,1-2.3,2.5m0-.4a2,2,0,0,0,2-2V11.16a2,2,0,0,0-2-2h-14.9a2,2,0,0,0-2,2V26a2,2,0,0,0,2,2Z" style="fill:#fff"/><path id="Trazado_121" data-name="Trazado 121" d="M151.56,9h-14.9a2.22,2.22,0,0,0-2.2,2.2V26a2.22,2.22,0,0,0,2.2,2.2h14.8a2.22,2.22,0,0,0,2.2-2.2V11.16a2.07,2.07,0,0,0-2.1-2.2" style="fill:#53a7df"/><path id="Trazado_122" data-name="Trazado 122" d="M153.76,12.26v-1.4l-5.2-2h-11.9a2.39,2.39,0,0,0-1.4.5l8,3" style="fill:#fca01f"/><path id="Trazado_123" data-name="Trazado 123" d="M143.26,12.46l10.5,3.9v-4.1" style="fill:#d8006b"/><path id="Trazado_124" data-name="Trazado 124" d="M143.26,12.46l-8.8.3v.5l8.1,4.7,11.2-.6v-1" style="fill:#00418b"/><path id="Trazado_125" data-name="Trazado 125" d="M134.46,13.26v4.2l8.1.4" style="fill:#fff"/><path id="Trazado_126" data-name="Trazado 126" d="M153.16,27.46a2.19,2.19,0,0,0,.3-.5l-10.9-9.1-8.1-.4v.1l6.2,5.2" style="fill:#e13604"/><path id="Trazado_127" data-name="Trazado 127" d="M153.16,27.46l-12.5-4.7,6.3,5.4h4.5a1.81,1.81,0,0,0,1.7-.7" style="fill:#cdce28"/><path id="Trazado_128" data-name="Trazado 128" d="M134.46,20.46V26l6.1,2.3h6.5l-6.4-5.5" style="fill:#3f1b60"/><g id="Grupo_41" data-name="Grupo 41"><path id="Trazado_129" data-name="Trazado 129" d="M169.36,20.93a10.59,10.59,0,0,0-.5-3.1,7.89,7.89,0,0,0-1.4-2.3,6.16,6.16,0,0,0-7.3-1.2l-.2.1V9.33l-.7-.2a1.7,1.7,0,0,0-.7-.1h-.9a2.09,2.09,0,0,0-1.8.7,2.46,2.46,0,0,0-.5,1.5v13.4c0,.9-.1,1.7-.1,2.5v.8l.7.2c.2,0,.4.1.6.1s.6.1.9.1a2.35,2.35,0,0,0,1.6-.5l.5-.5c.2.1.4.3.6.4a5.92,5.92,0,0,0,2.9.7,5.83,5.83,0,0,0,2.6-.6,5.26,5.26,0,0,0,2-1.6,7.55,7.55,0,0,0,1.3-2.3A10.79,10.79,0,0,0,169.36,20.93Zm-5.3,2.4a2.09,2.09,0,0,1-1.8.7,2.92,2.92,0,0,1-.9-.2,2.09,2.09,0,0,1-1.3-2V19a1.78,1.78,0,0,1,.8-.7,2.5,2.5,0,0,1,1.3-.3,2.06,2.06,0,0,1,1.8.8,2.93,2.93,0,0,1,.7,2.2,2.81,2.81,0,0,1-.6,2.3Z" style="fill:#fff"/><path id="Trazado_130" data-name="Trazado 130" d="M173.56,8.93h-.9a2.09,2.09,0,0,0-1.8.7,2.46,2.46,0,0,0-.5,1.5v16.8l.7.2a1.7,1.7,0,0,0,.7.1h.9a2.33,2.33,0,0,0,1.8-.6,2.46,2.46,0,0,0,.5-1.5V9.23l-.7-.2A1.7,1.7,0,0,1,173.56,8.93Z" style="fill:#fff"/><path id="Trazado_131" data-name="Trazado 131" d="M189.66,25.73c0-.3-.1-.7-.1-1s-.1-.7-.1-1.1v-9.5l-.7-.2h-1.6a2.33,2.33,0,0,0-1.8.6,1.87,1.87,0,0,0-.5,1.4V23a2.36,2.36,0,0,1-.9.8,2.13,2.13,0,0,1-1.2.3,1.66,1.66,0,0,1-1.3-.5,2.62,2.62,0,0,1-.5-1.7v-7.8l-.7-.2h-1.5a2.79,2.79,0,0,0-1.8.6,2,2,0,0,0-.6,1.5v6.3a7.46,7.46,0,0,0,.4,2.6,6.15,6.15,0,0,0,1.2,1.9,5.67,5.67,0,0,0,1.8,1.2,7.79,7.79,0,0,0,2.1.4,5.92,5.92,0,0,0,2.9-.7c.2-.1.4-.3.6-.4a4.35,4.35,0,0,0,.6.7,2.6,2.6,0,0,0,1.5.4h0a3.92,3.92,0,0,0,1.8-.4l.7-.3-.1-.7A8.32,8.32,0,0,1,189.66,25.73Z" style="fill:#fff"/><path id="Trazado_132" data-name="Trazado 132" d="M202.36,15.93a6.52,6.52,0,0,0-2.1-1.6,7.06,7.06,0,0,0-7.9,1.5,6.78,6.78,0,0,0-1.4,2.3,7.1,7.1,0,0,0-.5,2.9,9.29,9.29,0,0,0,.5,2.9,6.08,6.08,0,0,0,1.5,2.4,7.76,7.76,0,0,0,2.4,1.6,6.75,6.75,0,0,0,3.1.5,13.33,13.33,0,0,0,2.8-.3,17.23,17.23,0,0,0,2.1-.7l.5-.2.1-.5v-.8a2.62,2.62,0,0,0-.5-1.7,1.76,1.76,0,0,0-1.5-.8,2.77,2.77,0,0,0-.9.1,6.89,6.89,0,0,1-.8.3,5.66,5.66,0,0,1-1.8.3,3.61,3.61,0,0,1-2-.6,2.65,2.65,0,0,1-.5-.6h8.3l.2-.7a7.72,7.72,0,0,0,.2-1.5,6.9,6.9,0,0,0-.4-2.5A8.84,8.84,0,0,0,202.36,15.93Zm-7,3.2a3.51,3.51,0,0,1,.5-.8,2.2,2.2,0,0,1,1.5-.6,2.27,2.27,0,0,1,1.6.6,3,3,0,0,1,.5.7h-4.1Z" style="fill:#fff"/><path id="Trazado_133" data-name="Trazado 133" d="M212.46,20.63h-5a.43.43,0,0,0-.4.4v.6a.43.43,0,0,0,.4.4h1.7v5.4a.43.43,0,0,0,.4.4h.8a.43.43,0,0,0,.4-.4V22h1.7a.43.43,0,0,0,.4-.4V21A.43.43,0,0,0,212.46,20.63Z" style="fill:#fff"/><path id="Trazado_134" data-name="Trazado 134" d="M217.86,20.63h-4.5a.43.43,0,0,0-.4.4v6.4a.43.43,0,0,0,.4.4h4.5a.43.43,0,0,0,.4-.4h0v-.5a.43.43,0,0,0-.4-.4h-3.3V25h2.8a.43.43,0,0,0,.4-.4v-.7a.43.43,0,0,0-.4-.4h-2.8v-1.4h3.3a.43.43,0,0,0,.4-.4h0v-.6A.46.46,0,0,0,217.86,20.63Z" style="fill:#fff"/><path id="Trazado_135" data-name="Trazado 135" d="M219.06,27.93h4.5a.43.43,0,0,0,.4-.4v-.6a.43.43,0,0,0-.4-.4h-3.3v-5.4a.43.43,0,0,0-.4-.4h-.8a.43.43,0,0,0-.4.4v6.4a.43.43,0,0,0,.4.4Z" style="fill:#fff"/><path id="Trazado_136" data-name="Trazado 136" d="M229.26,20.63h-4.5a.43.43,0,0,0-.4.4h0v6.4a.43.43,0,0,0,.4.4h4.5a.43.43,0,0,0,.4-.4h0v-.5a.43.43,0,0,0-.4-.4H226V25h2.8a.43.43,0,0,0,.4-.4v-.7a.43.43,0,0,0-.4-.4H226v-1.4h3.3a.43.43,0,0,0,.4-.4h0v-.6A.46.46,0,0,0,229.26,20.63Z" style="fill:#fff"/><path id="Trazado_137" data-name="Trazado 137" d="M231.76,22.43a1.21,1.21,0,0,1,1-.3,1.7,1.7,0,0,1,.7.1,2.09,2.09,0,0,1,.6.4.45.45,0,0,0,.5,0l.5-.5a.38.38,0,0,0,0-.6h0a3.34,3.34,0,0,0-2.3-.9,3.23,3.23,0,0,0-2.1.8,2.13,2.13,0,0,0-.7,1.2,19.29,19.29,0,0,0,0,3.4,2.4,2.4,0,0,0,.7,1.2,3.23,3.23,0,0,0,2.1.8,3.17,3.17,0,0,0,2.3-.9.38.38,0,0,0,0-.6h0l-.5-.5a.45.45,0,0,0-.5,0,2.09,2.09,0,0,1-.6.4,1.48,1.48,0,0,1-.7.1,1.69,1.69,0,0,1-1-.3.55.55,0,0,1-.3-.5,6.6,6.6,0,0,1-.1-1.4,6.6,6.6,0,0,1,.1-1.4A.55.55,0,0,1,231.76,22.43Z" style="fill:#fff"/><path id="Trazado_138" data-name="Trazado 138" d="M241.16,26a19.29,19.29,0,0,0,0-3.4,2.4,2.4,0,0,0-.7-1.2,3.46,3.46,0,0,0-4.3,0,2.13,2.13,0,0,0-.7,1.2,9.7,9.7,0,0,0-.1,1.7,9.7,9.7,0,0,0,.1,1.7,2.4,2.4,0,0,0,.7,1.2,3.46,3.46,0,0,0,4.3,0A2.92,2.92,0,0,0,241.16,26Zm-4.2-1.7a6.6,6.6,0,0,1,.1-1.4.55.55,0,0,1,.3-.5,1.39,1.39,0,0,1,1.9,0,.55.55,0,0,1,.3.5,6.6,6.6,0,0,1,.1,1.4,6.6,6.6,0,0,1-.1,1.4.55.55,0,0,1-.3.5,1.39,1.39,0,0,1-1.9,0,.55.55,0,0,1-.3-.5A3.44,3.44,0,0,1,237,24.33Z" style="fill:#fff"/><path id="Trazado_139" data-name="Trazado 139" d="M248.46,20.63h-.8a.52.52,0,0,0-.4.2l-1.9,3.8-2-3.8a.52.52,0,0,0-.4-.2h-.8a.43.43,0,0,0-.4.4v6.4a.43.43,0,0,0,.4.4h.8a.43.43,0,0,0,.4-.4v-3.2l1.2,2.4a.52.52,0,0,0,.4.2h.7a.52.52,0,0,0,.4-.2l1.2-2.3v3.2a.43.43,0,0,0,.4.4h.8a.43.43,0,0,0,.4-.4v-6.4a.46.46,0,0,0-.4-.5Z" style="fill:#fff"/><path id="Trazado_140" data-name="Trazado 140" d="M253,26.93h.7a.52.52,0,0,0,.4-.2l1.2-2.3v3.2a.43.43,0,0,0,.4.4h.8a.43.43,0,0,0,.4-.4v-6.4a.43.43,0,0,0-.4-.4h-.8a.52.52,0,0,0-.4.2l-1.9,3.8-2-3.8a.52.52,0,0,0-.4-.2h-.8a.43.43,0,0,0-.4.4v6.4a.43.43,0,0,0,.4.4h.8a.43.43,0,0,0,.4-.4v-3.2l1.2,2.4C252.66,26.83,252.76,26.93,253,26.93Z" style="fill:#fff"/><rect id="Rect치ngulo_93" data-name="Rect치ngulo 93" x="134.16" y="32.93" width="1.5" height="7.8" style="fill:#fff"/><path id="Trazado_141" data-name="Trazado 141" d="M147.26,37.63l-3.1-4.7h-1.4v7.8h1.5v-4.8l3.1,4.8h1.4v-7.8h-1.5Z" style="fill:#fff"/><path id="Trazado_142" data-name="Trazado 142" d="M157.76,32.93l-2.8,7.8h1.6l.5-1.4h2.8l.5,1.4H162l-3-7.8Zm-.3,5.1,1-2.8,1,2.8Z" style="fill:#fff"/><path id="Trazado_143" data-name="Trazado 143" d="M169.56,32.93h-1.5v7.8h5.1v-1.4h-3.5Z" style="fill:#fff"/><path id="Trazado_144" data-name="Trazado 144" d="M183.86,30.23h-1.5l-.7,1.9h1Z" style="fill:#fff"/><path id="Trazado_145" data-name="Trazado 145" d="M181.66,32.93l-2.8,7.8h1.6l.5-1.4h2.8l.5,1.4h1.6l-3-7.8Zm-.4,5.1,1-2.8,1,2.8Z" style="fill:#fff"/><path id="Trazado_146" data-name="Trazado 146" d="M195.46,37.13l-2-4.2H192v7.8h1.5v-4.5l1.5,3h1l1.5-3v4.5H199v-7.8h-1.5Z" style="fill:#fff"/><path id="Trazado_147" data-name="Trazado 147" d="M210.66,36.73a1.78,1.78,0,0,0,1-1.6,2.14,2.14,0,0,0-2.1-2.2h-3.5v7.8h3.3a2.21,2.21,0,0,0,2.4-1.9v-.3A1.89,1.89,0,0,0,210.66,36.73Zm-3.1-2.5h1.5a.9.9,0,1,1,0,1.8h-1.5Zm1.6,5.1h-1.6v-1.9h1.6a1,1,0,1,1,.1,1.9Z" style="fill:#fff"/><path id="Trazado_148" data-name="Trazado 148" d="M224.16,35.23a2.35,2.35,0,0,0-2.3-2.4h-3.3v7.8h1.5v-3.1h1.1l1.5,3.1h1.8l-1.7-3.4A2,2,0,0,0,224.16,35.23Zm-2.7,1.1h-1.4v-2.1h1.4a1.05,1.05,0,1,1,.1,2.1Z" style="fill:#fff"/><rect id="Rect치ngulo_94" data-name="Rect치ngulo 94" x="230.96" y="32.93" width="1.5" height="7.8" style="fill:#fff"/><path id="Trazado_149" data-name="Trazado 149" d="M242.16,34.13a1.3,1.3,0,0,1,1.3,1.1H245a2.77,2.77,0,0,0-2.9-2.5,2.88,2.88,0,0,0-2.1.9c-.8.8-.8,1.8-.8,3.1s0,2.3.8,3.1a2.88,2.88,0,0,0,2.1.9,2.76,2.76,0,0,0,2.9-2.5h-1.5a1.38,1.38,0,0,1-1.3,1.1,1.28,1.28,0,0,1-1-.4c-.3-.3-.4-.7-.4-2.2s.1-1.9.4-2.2A2.11,2.11,0,0,1,242.16,34.13Z" style="fill:#fff"/><path id="Trazado_150" data-name="Trazado 150" d="M256.36,33.63a3.09,3.09,0,0,0-4.2,0c-.8.8-.8,1.8-.8,3.1s0,2.3.8,3.1a3.09,3.09,0,0,0,4.2,0c.8-.8.8-1.8.8-3.1S257.16,34.43,256.36,33.63Zm-1.1,5.3a1.16,1.16,0,0,1-1,.4,1.28,1.28,0,0,1-1-.4c-.3-.3-.4-.7-.4-2.2s.1-1.9.4-2.2a1.45,1.45,0,0,1,2,0c.3.3.4.7.4,2.2S255.56,38.63,255.26,38.93Z" style="fill:#fff"/></g></g><polygon points="112.3 22.25 112.3 16.35 107.2 16.35 107.2 22.25 101.3 22.25 101.3 27.35 107.2 27.35 107.2 33.15 112.3 33.15 112.3 27.35 118.2 27.35 118.2 22.25 112.3 22.25" style="fill:#fff"/><path d="M45.53,18.3l-3.24,7.64L35.93,15.59a9.46,9.46,0,0,0-2.14-.3A5.88,5.88,0,0,0,29,17.53l-6.17,6.75,5,7.83a4.38,4.38,0,0,0,4.09,2.15,7.32,7.32,0,0,0,2.85-.53l-6-9L33,20.2l7,10.93L35.7,40.07a5.89,5.89,0,0,0,2.37.51,3.44,3.44,0,0,0,3.64-2.35l10-22.32a5.4,5.4,0,0,0-2.07-.48C48.36,15.4,46.63,15.66,45.53,18.3Z" style="fill:#fff"/><path d="M10.52,22.83l-3.7-.69C5.64,21.93,4.9,21.66,4.9,21s.78-1.16,2.66-1.16,3.48.2,4.52.2c1.36,0,2.77-.58,2.77-3.26a5.07,5.07,0,0,0-.11-1A42.47,42.47,0,0,0,6,15.45c-4,.44-6,2.85-6,5.71,0,2.37,1.71,4.59,4.93,5.21l3.87.74c1.41.27,2.14.59,2.14,1.36,0,.59-.55,1.21-2.37,1.21-1.65,0-3.88-.25-5.29-.25s-2.8.62-2.8,3.3A5.57,5.57,0,0,0,.6,33.8a49.38,49.38,0,0,0,9.26.28c4.07-.43,6.08-2.67,6.08-5.75C15.94,25.68,14.3,23.53,10.52,22.83Z" style="fill:#fff"/><path d="M17.55,12.31V34.14a8.23,8.23,0,0,0,1.16.08c3.21,0,3.86-.95,3.86-2.59V9a6.06,6.06,0,0,0-1.21-.12C18.12,8.92,17.55,10.65,17.55,12.31Z" style="fill:#fff"/><path d="M65.81,17.49v5.09H58.43V15.52c-4.62-.83-4.62,2-4.62,2V34c4.62.95,4.62-1.76,4.62-1.76V27.19h7.38V34c4.62.95,4.62-1.76,4.62-1.76V15.52C65.81,14.69,65.81,17.49,65.81,17.49Z" style="fill:#fff"/><path d="M80.63,15.37H76.84c-3.66,0-3.64,2.54-3.64,2.54V31.79c0,2.71,3.64,2.43,3.64,2.43h3.79s10.61.13,10.61-9.51S80.63,15.37,80.63,15.37Zm0,14.69H77.71V19.42h2.92s5.88-.35,5.88,5.32S80.63,30.06,80.63,30.06Z" style="fill:#fff"/><path d="M90.77,15.29a1.36,1.36,0,1,0,1.36,1.36A1.36,1.36,0,0,0,90.77,15.29Zm0,2.45a1.09,1.09,0,1,1,1.07-1.09A1.08,1.08,0,0,1,90.77,17.74Z" style="fill:#fff"/><path d="M91.1,16.69h0a.36.36,0,0,0,.29-.38c0-.43-.45-.43-.55-.43h-.65v1.56h.26v-.62h.32c.27,0,.32.09.33.33s0,.24.05.29h.26c0-.06,0-.1,0-.36S91.32,16.75,91.1,16.69Zm-.33-.12h-.32v-.43h.36c.13,0,.3,0,.31.18S90.89,16.57,90.77,16.57Z" style="fill:#fff"/></svg>