<?xml version="1.0" encoding="utf-8"?>
<!-- Generator: Adobe Illustrator 26.0.0, SVG Export Plug-In . SVG Version: 6.00 Build 0)  -->
<svg version="1.1" id="sky-logo" xmlns="http://www.w3.org/2000/svg" xmlns:xlink="http://www.w3.org/1999/xlink" x="0px" y="0px"
	 viewBox="0 0 56.9 32" style="enable-background:new 0 0 56.9 32;" xml:space="preserve">
<style type="text/css">
	.st0{fill:#FFFFFF;}
</style>
<g>
	<path class="st0" d="M28.1,12.1l-1.9,4.6l-3.8-6.2c-0.2-0.1-0.8-0.2-1.3-0.2c-1.3,0-2.1,0.5-2.9,1.3l-3.7,4l3,4.7
		c0.6,0.9,1.3,1.3,2.5,1.3c0.8,0,1.4-0.2,1.7-0.3L18.1,16l2.5-2.7l4.2,6.5l-2.5,5.4c0.3,0.1,0.8,0.3,1.4,0.3c1.1,0,1.7-0.4,2.2-1.4
		l6-13.4c-0.2-0.1-0.8-0.3-1.2-0.3C29.8,10.4,28.8,10.6,28.1,12.1z"/>
	<path class="st0" d="M7.1,14.8l-2.2-0.4c-0.7-0.1-1.2-0.3-1.2-0.7c0-0.4,0.5-0.7,1.6-0.7c1.1,0,2.1,0.1,2.7,0.1
		c0.8,0,1.7-0.3,1.7-1.9c0-0.2,0-0.4-0.1-0.6c-1.2-0.1-3.4-0.4-5.2-0.2c-2.4,0.3-3.6,1.7-3.6,3.4c0,1.4,1,2.7,3,3.1l2.3,0.4
		c0.8,0.2,1.3,0.4,1.3,0.8C7.4,18.6,7.1,19,6,19c-1,0-2.3-0.1-3.2-0.1c-0.8,0-1.7,0.4-1.7,2c0,0.2,0,0.4,0.1,0.6
		c1.2,0.1,3.8,0.4,5.5,0.2c2.4-0.3,3.6-1.6,3.6-3.4C10.4,16.6,9.4,15.3,7.1,14.8z"/>
	<path class="st0" d="M11.4,8.5v13.1c0.2,0,0.4,0.1,0.7,0.1c1.9,0,2.3-0.6,2.3-1.6V6.6c-0.2,0-0.5-0.1-0.7-0.1
		C11.7,6.5,11.4,7.6,11.4,8.5z"/>
	<path class="st0" d="M40.3,11.6v3h-4.4v-4.2c-2.8-0.5-2.8,1.2-2.8,1.2v9.9c2.8,0.6,2.8-1.1,2.8-1.1v-3h4.4v4.1
		c2.8,0.6,2.8-1.1,2.8-1.1v-10C40.3,10,40.3,11.6,40.3,11.6z"/>
	<path class="st0" d="M49.2,10.4h-2.3c-2.2,0-2.2,1.5-2.2,1.5v8.3c0,1.6,2.2,1.5,2.2,1.5h2.3c0,0,6.4,0.1,6.4-5.7
		C55.5,10.2,49.2,10.4,49.2,10.4z M49.2,19.2h-1.7v-6.4h1.7c0,0,3.5-0.2,3.5,3.2C52.7,19.4,49.2,19.2,49.2,19.2z"/>
	<path class="st0" d="M55.2,10.3c-0.5,0-0.8,0.4-0.8,0.8c0,0.4,0.4,0.8,0.8,0.8c0.4,0,0.8-0.4,0.8-0.8C56,10.7,55.7,10.3,55.2,10.3z
		 M55.2,11.8c-0.4,0-0.6-0.3-0.6-0.7c0-0.4,0.3-0.7,0.6-0.7c0.4,0,0.6,0.3,0.6,0.7C55.9,11.5,55.6,11.8,55.2,11.8z"/>
	<path class="st0" d="M55.4,11.2L55.4,11.2c0.1,0,0.2-0.1,0.2-0.2c0-0.3-0.3-0.3-0.3-0.3h-0.4v0.9H55v-0.4h0.2
		c0.2,0,0.2,0.1,0.2,0.2c0,0.1,0,0.1,0,0.2h0.2c0,0,0-0.1,0-0.2C55.6,11.3,55.6,11.2,55.4,11.2z M55.2,11.1H55v-0.3h0.2
		c0.1,0,0.2,0,0.2,0.1C55.4,11.1,55.3,11.1,55.2,11.1z"/>
</g>
</svg>
