<svg xmlns="http://www.w3.org/2000/svg" xmlns:xlink="http://www.w3.org/1999/xlink" width="107.478" height="88" viewBox="0 0 107.478 88">
  <defs>
    <filter id="AdobeStock_159480761" x="0" y="0" width="107.478" height="88" filterUnits="userSpaceOnUse">
      <feOffset dx="4" dy="4" input="SourceAlpha"/>
      <feGaussianBlur stdDeviation="4" result="blur"/>
      <feFlood flood-color="#3b4559" flood-opacity="0.161"/>
      <feComposite operator="in" in2="blur"/>
      <feComposite in="SourceGraphic"/>
    </filter>
  </defs>
  <g id="sky-balloon" transform="translate(8 8.04)">
    <g transform="matrix(1, 0, 0, 1, -8, -8.04)" filter="url(#AdobeStock_159480761)">
      <path id="AdobeStock_159480761-2" data-name="AdobeStock_159480761" d="M32,0H51.478a32,32,0,0,1,32,32V59.345A4.655,4.655,0,0,1,78.824,64H32A32,32,0,0,1,0,32v0A32,32,0,0,1,32,0Z" transform="translate(8 8)" fill="#52dee4"/>
    </g>
    <g id="skyhd-logo" transform="translate(12.601 21.96)">
      <path id="Trazado_37" data-name="Trazado 37" d="M-211.432,535.922a.86.86,0,0,0-.861.86.859.859,0,0,0,.861.859.859.859,0,0,0,.857-.859A.858.858,0,0,0-211.432,535.922Zm0,1.548a.682.682,0,0,1-.679-.688.681.681,0,0,1,.679-.689.682.682,0,0,1,.679.689A.682.682,0,0,1-211.434,537.47Z" transform="translate(268.851 -531.837)" fill="#fff"/>
      <path id="Trazado_38" data-name="Trazado 38" d="M-211,536.974v0a.226.226,0,0,0,.182-.238c0-.268-.286-.268-.346-.268h-.414v.983h.168v-.394h.2c.168.014.2.056.207.211,0,.123.011.153.029.182h.168c-.022-.04-.022-.06-.031-.227C-210.845,537.095-210.869,537.013-211,536.974Zm-.207-.078h-.2v-.272h.225c.083,0,.186.012.2.114C-210.991,536.9-211.141,536.9-211.211,536.9Z" transform="translate(268.633 -532.004)" fill="#fff"/>
      <path id="Trazado_39" data-name="Trazado 39" d="M-258.767,537.735l-2.046,4.828-4.017-6.537a5.741,5.741,0,0,0-1.353-.191,3.714,3.714,0,0,0-3.035,1.413l-3.9,4.266,3.139,4.943a2.78,2.78,0,0,0,2.586,1.362,4.608,4.608,0,0,0,1.8-.338l-3.781-5.7,2.68-2.844,4.4,6.9-2.68,5.646a3.778,3.778,0,0,0,1.5.321,2.175,2.175,0,0,0,2.3-1.484l6.321-14.1a3.439,3.439,0,0,0-1.308-.3A2.5,2.5,0,0,0-258.767,537.735Z" transform="translate(287.526 -531.811)" fill="#fff"/>
      <path id="Trazado_40" data-name="Trazado 40" d="M-277.907,532.17v13.788a4.693,4.693,0,0,0,.728.054c2.03,0,2.439-.6,2.439-1.64V530.106a3.765,3.765,0,0,0-.765-.078C-277.552,530.028-277.907,531.122-277.907,532.17Z" transform="translate(288.995 -530.028)" fill="#fff"/>
      <path id="Trazado_41" data-name="Trazado 41" d="M-287.266,540.606l-2.332-.435c-.748-.13-1.216-.3-1.216-.729,0-.4.493-.726,1.683-.726,1.173,0,2.195.12,2.854.12.858,0,1.751-.363,1.751-2.055a3.171,3.171,0,0,0-.069-.65,26.4,26.4,0,0,0-5.507-.182c-2.524.278-3.806,1.8-3.806,3.608a3.458,3.458,0,0,0,3.112,3.288l2.446.468c.893.175,1.353.372,1.353.859,0,.371-.347.763-1.5.763-1.041,0-2.446-.157-3.34-.157-.859,0-1.769.389-1.769,2.082a3.5,3.5,0,0,0,.079.676,31.064,31.064,0,0,0,5.845.182c2.575-.276,3.843-1.691,3.843-3.633C-283.84,542.409-284.874,541.048-287.266,540.606Z" transform="translate(293.908 -531.821)" fill="#fff"/>
      <path id="Trazado_42" data-name="Trazado 42" d="M-237.28,537.246v3.215h-4.664v-4.455c-2.916-.529-2.916,1.24-2.916,1.24V547.7c2.916.6,2.916-1.112,2.916-1.112v-3.208h4.664v4.32c2.915.6,2.915-1.112,2.915-1.112V536.005C-237.28,535.477-237.28,537.246-237.28,537.246Z" transform="translate(278.85 -531.833)" fill="#fff"/>
      <path id="Trazado_43" data-name="Trazado 43" d="M-222.5,535.908h-2.4c-2.312,0-2.3,1.606-2.3,1.606v8.766c0,1.713,2.3,1.537,2.3,1.537h2.4s6.7.083,6.7-6.01S-222.5,535.908-222.5,535.908Zm0,9.278h-1.842V538.47h1.842s3.71-.222,3.71,3.357S-222.5,545.185-222.5,545.185Z" transform="translate(273.425 -531.833)" fill="#fff"/>
    </g>
  </g>
</svg>
