<svg xmlns="http://www.w3.org/2000/svg" width="232.356" height="24" viewBox="0 0 232.356 24">
  <g id="sky-platinum-logo" transform="translate(0 0)">
    <path id="Trazado_49" data-name="Trazado 49" d="M-211.571,605.589a1.032,1.032,0,0,0-1.034,1.031,1.032,1.032,0,0,0,1.034,1.031,1.031,1.031,0,0,0,1.028-1.031A1.03,1.03,0,0,0-211.571,605.589Zm0,1.858a.818.818,0,0,1-.815-.827.817.817,0,0,1,.815-.826.819.819,0,0,1,.815.826A.819.819,0,0,1-211.574,607.447Z" transform="translate(280.475 -600.688)" fill="#fff"/>
    <path id="Trazado_50" data-name="Trazado 50" d="M-211.2,606.744v0a.271.271,0,0,0,.219-.286c0-.322-.343-.322-.416-.322h-.5v1.18h.2v-.472h.24c.2.017.24.067.249.254,0,.148.013.184.035.219h.2c-.027-.048-.027-.072-.037-.273C-211.009,606.888-211.038,606.79-211.2,606.744Zm-.249-.094h-.243v-.327h.27c.1,0,.224.013.237.137C-211.185,606.65-211.365,606.65-211.449,606.65Z" transform="translate(280.355 -600.779)" fill="#fff"/>
    <path id="Trazado_51" data-name="Trazado 51" d="M-286.249,611.22l-2.8-.521c-.9-.156-1.459-.364-1.459-.875,0-.477.592-.872,2.02-.872,1.408,0,2.634.145,3.424.145,1.03,0,2.1-.437,2.1-2.466a3.819,3.819,0,0,0-.083-.781,31.666,31.666,0,0,0-6.609-.219c-3.029.333-4.567,2.156-4.567,4.329,0,1.791,1.3,3.476,3.735,3.945l2.935.561c1.072.21,1.623.447,1.623,1.031,0,.446-.417.916-1.8.916-1.249,0-2.935-.187-4.007-.187-1.03,0-2.123.466-2.123,2.5a4.209,4.209,0,0,0,.095.812,37.41,37.41,0,0,0,7.014.219c3.09-.333,4.611-2.03,4.611-4.36C-282.138,613.384-283.379,611.752-286.249,611.22Z" transform="translate(294.22 -600.678)" fill="#fff"/>
    <path id="Trazado_52" data-name="Trazado 52" d="M-256.208,607.782l-2.455,5.794-4.821-7.845a6.936,6.936,0,0,0-1.623-.229,4.456,4.456,0,0,0-3.642,1.7l-4.684,5.12,3.766,5.931a3.336,3.336,0,0,0,3.1,1.635,5.527,5.527,0,0,0,2.164-.406l-4.537-6.837,3.217-3.414,5.277,8.284-3.217,6.775a4.5,4.5,0,0,0,1.8.385,2.608,2.608,0,0,0,2.758-1.78l7.586-16.92a4.125,4.125,0,0,0-1.57-.365A3.006,3.006,0,0,0-256.208,607.782Z" transform="translate(290.719 -600.673)" fill="#fff"/>
    <path id="Trazado_53" data-name="Trazado 53" d="M-278.219,602.265v16.545a5.54,5.54,0,0,0,.873.065c2.437,0,2.926-.72,2.926-1.968V599.79a4.464,4.464,0,0,0-.918-.095C-277.793,599.7-278.219,601.007-278.219,602.265Z" transform="translate(291.525 -599.695)" fill="#fff"/>
    <path id="Trazado_54" data-name="Trazado 54" d="M-236.076,607.181v3.858h-5.6v-5.346c-3.5-.634-3.5,1.489-3.5,1.489v12.54c3.5.723,3.5-1.335,3.5-1.335v-3.849h5.6v5.184c3.5.723,3.5-1.335,3.5-1.335V605.692C-236.076,605.058-236.076,607.181-236.076,607.181Z" transform="translate(285.96 -600.685)" fill="#fff"/>
    <path id="Trazado_55" data-name="Trazado 55" d="M-221.869,605.575h-2.875c-2.775,0-2.758,1.928-2.758,1.928v10.519c0,2.055,2.758,1.844,2.758,1.844h2.875s8.042.1,8.042-7.212S-221.869,605.575-221.869,605.575Zm0,11.133h-2.21v-8.059h2.21s4.452-.266,4.452,4.029S-221.869,616.708-221.869,616.708Z" transform="translate(282.984 -600.685)" fill="#fff"/>
    <path id="Trazado_56" data-name="Trazado 56" d="M-191.017,601.76h-8.275v20.262h4.564v-6.145h3.469c4.929,0,7-1.917,7-5.72V607.51C-184.263,603.708-186.088,601.76-191.017,601.76Zm2.191,7.941c0,1.46-.427,2.221-2.434,2.221h-3.469v-6.115h3.469c1.917,0,2.434.67,2.434,2.13Z" transform="translate(278.233 -600.043)" fill="#fff"/>
    <path id="Trazado_57" data-name="Trazado 57" d="M-170.221,601.759h-4.564v20.262h12.6v-4.047h-8.031Z" transform="translate(274.106 -600.043)" fill="#fff"/>
    <path id="Trazado_58" data-name="Trazado 58" d="M-148.018,601.759l-6.176,20.262h4.747l1.1-3.955h6.785l1.094,3.955h4.746l-6.205-20.262Zm.7,12.5,2.343-8.488,2.313,8.488Z" transform="translate(270.638 -600.043)" fill="#fff"/>
    <path id="Trazado_59" data-name="Trazado 59" d="M-129.846,605.805h5.446v16.216h4.563V605.805h5.446v-4.047h-15.455Z" transform="translate(266.537 -600.043)" fill="#fff"/>
    <rect id="Rectángulo_83" data-name="Rectángulo 83" width="4.564" height="20.262" transform="translate(157.386 1.717)" fill="#fff"/>
    <path id="Trazado_60" data-name="Trazado 60" d="M-79.748,615.724l-6.663-13.964h-5.6v20.262h4.35V608.7l6.633,13.325H-75.4V601.76h-4.35Z" transform="translate(260.165 -600.043)" fill="#fff"/>
    <path id="Trazado_61" data-name="Trazado 61" d="M-53.988,615.694c0,1.642-.791,2.586-3.074,2.586s-3.072-.944-3.072-2.586V601.76H-64.7v14.36c0,3.073,1.916,6.206,7.636,6.206s7.637-3.133,7.637-6.206V601.76h-4.564Z" transform="translate(255.565 -600.043)" fill="#fff"/>
    <path id="Trazado_62" data-name="Trazado 62" d="M-19.825,601.76h-4.563l-4.868,12.9-4.867-12.9h-4.564l-.852,20.263h4.412l.3-11.257,3.529,8.64h4.076l3.53-8.64.3,11.257h4.412Z" transform="translate(251.328 -600.043)" fill="#fff"/>
  </g>
</svg>
