<svg id="sky-bti-logo" xmlns="http://www.w3.org/2000/svg" viewBox="0 0 257.14 48"><g id="bluetelecom-inalambrico-logo"><path id="Trazado_119" data-name="Trazado 119" d="M151.51,27.79H136.68a2.41,2.41,0,0,1-2.41-2.41V10.55a2.42,2.42,0,0,1,2.41-2.41h14.83a2.41,2.41,0,0,1,2.41,2.41V25.38a2.41,2.41,0,0,1-2.41,2.41m0-.39a2,2,0,0,0,2-2V10.55a2,2,0,0,0-2-2H136.68a2,2,0,0,0-2,2V25.38a2,2,0,0,0,2,2Z" style="fill:#fff"/><path id="Trazado_120" data-name="Trazado 120" d="M151.51,27.79H136.68a2.41,2.41,0,0,1-2.41-2.41V10.55a2.42,2.42,0,0,1,2.41-2.41h14.83a2.41,2.41,0,0,1,2.41,2.41V25.38a2.41,2.41,0,0,1-2.41,2.41m0-.39a2,2,0,0,0,2-2V10.55a2,2,0,0,0-2-2H136.68a2,2,0,0,0-2,2V25.38a2,2,0,0,0,2,2Z" style="fill:#fff"/><path id="Trazado_121" data-name="Trazado 121" d="M151.52,8.33H136.69a2.22,2.22,0,0,0-2.22,2.22V25.38a2.21,2.21,0,0,0,2.21,2.21h14.84a2.21,2.21,0,0,0,2.21-2.21V10.55a2.23,2.23,0,0,0-2.21-2.22" style="fill:#53a7df"/><path id="Trazado_122" data-name="Trazado 122" d="M153.73,11.61V10.55c0-.09,0-.17,0-.25l-5.25-2H136.68a2.22,2.22,0,0,0-1.43.53l8,3" style="fill:#fca01f"/><path id="Trazado_123" data-name="Trazado 123" d="M143.24,11.87l10.49,3.91V11.61" style="fill:#d8006b"/><path id="Trazado_124" data-name="Trazado 124" d="M143.24,11.87l-8.77.26v.48l8.1,4.66,11.16-.56v-.93" style="fill:#00418b"/><path id="Trazado_125" data-name="Trazado 125" d="M134.47,12.62v4.21l8.1.44" style="fill:#fff"/><path id="Trazado_126" data-name="Trazado 126" d="M153.17,26.84a2.17,2.17,0,0,0,.32-.47l-10.92-9.1-8.1-.44v.1l6.16,5.22" style="fill:#e13604"/><path id="Trazado_127" data-name="Trazado 127" d="M153.17,26.84l-12.54-4.69L147,27.59h4.54a2.2,2.2,0,0,0,1.66-.76" style="fill:#cdce28"/><path id="Trazado_128" data-name="Trazado 128" d="M134.47,19.8v5.5l6.05,2.29H147l-6.35-5.44" style="fill:#3f1b60"/><g id="Grupo_41" data-name="Grupo 41"><path id="Trazado_129" data-name="Trazado 129" d="M169.38,20.31a8.05,8.05,0,0,0-.54-3.07A6.93,6.93,0,0,0,167.4,15,6.09,6.09,0,0,0,163,13.12a5.76,5.76,0,0,0-2.88.67l-.16.09V8.72l-.71-.17a4.21,4.21,0,0,0-.71-.12,8.85,8.85,0,0,0-.89,0,2.26,2.26,0,0,0-1.8.66,2.2,2.2,0,0,0-.52,1.46V21.8c0,.57,0,1.29,0,2.14s0,1.69-.1,2.48l-.05.77.74.19.6.12a4.54,4.54,0,0,0,.9.06,2.37,2.37,0,0,0,1.59-.47,2.2,2.2,0,0,0,.48-.53,5,5,0,0,0,.62.4,5.68,5.68,0,0,0,2.85.73,5.81,5.81,0,0,0,2.62-.59,5.93,5.93,0,0,0,2-1.61,7.83,7.83,0,0,0,1.29-2.33A8.63,8.63,0,0,0,169.38,20.31ZM164,22.69a2.48,2.48,0,0,1-2.67.57,2.1,2.1,0,0,1-1.33-2V18.46a2.34,2.34,0,0,1,.77-.73,2.63,2.63,0,0,1,1.39-.34,2.35,2.35,0,0,1,1.85.75,3.16,3.16,0,0,1,.73,2.22,3.22,3.22,0,0,1-.74,2.33Z" style="fill:#53a7df"/><path id="Trazado_130" data-name="Trazado 130" d="M173.56,8.36a8.49,8.49,0,0,0-.88,0,2.24,2.24,0,0,0-1.8.66,2.2,2.2,0,0,0-.52,1.46V27.28l.71.18a5.84,5.84,0,0,0,.73.11,8.38,8.38,0,0,0,.86,0,2.29,2.29,0,0,0,1.81-.64,2.19,2.19,0,0,0,.53-1.46V8.65l-.71-.17A4.45,4.45,0,0,0,173.56,8.36Z" style="fill:#53a7df"/><path id="Trazado_131" data-name="Trazado 131" d="M189.66,25.15c0-.33-.09-.67-.12-1s0-.7-.06-1.08,0-.83,0-1.33V13.55l-.71-.17a4.48,4.48,0,0,0-.72-.11,8.49,8.49,0,0,0-.88,0,2.29,2.29,0,0,0-1.78.64,2.15,2.15,0,0,0-.55,1.47v7a2.66,2.66,0,0,1-.85.82,2.26,2.26,0,0,1-1.16.33,1.67,1.67,0,0,1-1.27-.47,2.52,2.52,0,0,1-.47-1.68V13.54l-.72-.17a5.52,5.52,0,0,0-.71-.1,8.14,8.14,0,0,0-.87,0,2.31,2.31,0,0,0-1.77.63,2.12,2.12,0,0,0-.56,1.48v6.25a7.73,7.73,0,0,0,.41,2.65A5.71,5.71,0,0,0,178,26.16a4.78,4.78,0,0,0,1.77,1.16,5.71,5.71,0,0,0,2.05.36,5.38,5.38,0,0,0,2.93-.74,6.76,6.76,0,0,0,.61-.44,2.29,2.29,0,0,0,.64.71,2.45,2.45,0,0,0,1.49.4h0a4.18,4.18,0,0,0,1.81-.35L190,27l-.15-.73C189.77,25.83,189.71,25.47,189.66,25.15Z" style="fill:#53a7df"/><path id="Trazado_132" data-name="Trazado 132" d="M202.38,15.33a6.15,6.15,0,0,0-2.12-1.63,6.86,6.86,0,0,0-7.86,1.49,7.26,7.26,0,0,0-1.44,2.3,7.7,7.7,0,0,0-.53,2.88,8.15,8.15,0,0,0,.51,2.89,6.93,6.93,0,0,0,1.48,2.36,6.83,6.83,0,0,0,2.39,1.58,8.51,8.51,0,0,0,3.12.54,11.07,11.07,0,0,0,2.81-.32,13.76,13.76,0,0,0,2.06-.67l.47-.21.07-.51c0-.14,0-.26,0-.39s0-.25,0-.36a2.89,2.89,0,0,0-.46-1.67,1.82,1.82,0,0,0-1.51-.81,3.22,3.22,0,0,0-.93.14c-.24.07-.5.15-.78.25a5.21,5.21,0,0,1-1.79.29,3.15,3.15,0,0,1-2-.57,1.9,1.9,0,0,1-.5-.59h8.33l.15-.73a6.69,6.69,0,0,0,.16-1.47,7.82,7.82,0,0,0-.42-2.54A7.07,7.07,0,0,0,202.38,15.33Zm-7,3.14a2.48,2.48,0,0,1,.47-.76,2,2,0,0,1,1.55-.59,1.91,1.91,0,0,1,1.56.6,2.91,2.91,0,0,1,.46.75Z" style="fill:#53a7df"/><path id="Trazado_133" data-name="Trazado 133" d="M212.42,20.05h-5a.42.42,0,0,0-.42.42v.62a.41.41,0,0,0,.42.41h1.68v5.42a.41.41,0,0,0,.42.41h.77a.41.41,0,0,0,.42-.41V21.5h1.68a.41.41,0,0,0,.41-.41v-.62A.41.41,0,0,0,212.42,20.05Z" style="fill:#53a7df"/><path id="Trazado_134" data-name="Trazado 134" d="M217.87,20.05h-4.5a.42.42,0,0,0-.42.42v6.45a.43.43,0,0,0,.42.42h4.5a.42.42,0,0,0,.42-.42h0V26.3a.41.41,0,0,0-.42-.41h-3.31v-1.5h2.76a.41.41,0,0,0,.42-.41v-.62a.42.42,0,0,0-.42-.42h-2.76V21.51h3.31a.42.42,0,0,0,.42-.42h0v-.62A.42.42,0,0,0,217.87,20.05Z" style="fill:#53a7df"/><path id="Trazado_135" data-name="Trazado 135" d="M219.07,27.33h4.49a.41.41,0,0,0,.42-.41V26.3a.42.42,0,0,0-.42-.42h-3.29V20.47a.42.42,0,0,0-.42-.42h-.78a.41.41,0,0,0-.41.42v6.45a.41.41,0,0,0,.41.41Z" style="fill:#53a7df"/><path id="Trazado_136" data-name="Trazado 136" d="M229.22,20.05h-4.51a.42.42,0,0,0-.42.42h0v6.45a.42.42,0,0,0,.42.42h4.51a.42.42,0,0,0,.42-.42h0V26.3a.41.41,0,0,0-.42-.41H225.9v-1.5h2.77a.41.41,0,0,0,.41-.41v-.62a.41.41,0,0,0-.41-.42H225.9V21.51h3.32a.42.42,0,0,0,.42-.42h0v-.62A.42.42,0,0,0,229.22,20.05Z" style="fill:#53a7df"/><path id="Trazado_137" data-name="Trazado 137" d="M231.71,21.79a1.39,1.39,0,0,1,1-.34,1.72,1.72,0,0,1,.68.13,2.54,2.54,0,0,1,.57.4.41.41,0,0,0,.55,0l.52-.46a.41.41,0,0,0,0-.59l0,0a3.44,3.44,0,0,0-2.31-.89,3.1,3.1,0,0,0-2.13.78,2.26,2.26,0,0,0-.73,1.24,15.72,15.72,0,0,0,0,3.36,2.29,2.29,0,0,0,.73,1.24,3.14,3.14,0,0,0,2.13.77A3.44,3.44,0,0,0,235,26.5a.41.41,0,0,0,0-.59.08.08,0,0,1,0,0l-.52-.46a.41.41,0,0,0-.55,0,2.54,2.54,0,0,1-.57.4,1.72,1.72,0,0,1-.68.14,1.4,1.4,0,0,1-1-.35,1,1,0,0,1-.3-.52,8,8,0,0,1-.07-1.38,7.75,7.75,0,0,1,.07-1.36A1.07,1.07,0,0,1,231.71,21.79Z" style="fill:#53a7df"/><path id="Trazado_138" data-name="Trazado 138" d="M241.13,25.37a15.72,15.72,0,0,0,0-3.36,2.37,2.37,0,0,0-.74-1.24,3.32,3.32,0,0,0-4.26,0,2.4,2.4,0,0,0-.74,1.25,10.33,10.33,0,0,0-.08,1.67,9.53,9.53,0,0,0,.09,1.69,2.23,2.23,0,0,0,.73,1.23,3.31,3.31,0,0,0,4.27,0A2.32,2.32,0,0,0,241.13,25.37Zm-4.22-1.68a7.65,7.65,0,0,1,.08-1.35,1,1,0,0,1,.29-.54,1.52,1.52,0,0,1,1.95,0,1,1,0,0,1,.3.53,7.82,7.82,0,0,1,.07,1.37,7.64,7.64,0,0,1-.07,1.35,1,1,0,0,1-.3.54,1.51,1.51,0,0,1-1.94,0,1,1,0,0,1-.3-.53A7.88,7.88,0,0,1,236.91,23.69Z" style="fill:#53a7df"/><path id="Trazado_139" data-name="Trazado 139" d="M248.43,20.05h-.77a.41.41,0,0,0-.37.23l-1.94,3.85-2-3.85a.41.41,0,0,0-.37-.23h-.78a.41.41,0,0,0-.41.42v6.45a.41.41,0,0,0,.41.41H243a.41.41,0,0,0,.42-.41V23.73l1.23,2.37a.42.42,0,0,0,.37.22h.66a.41.41,0,0,0,.37-.23l1.2-2.34v3.17a.41.41,0,0,0,.42.41h.77a.41.41,0,0,0,.42-.41V20.47a.42.42,0,0,0-.42-.42Z" style="fill:#53a7df"/><path id="Trazado_140" data-name="Trazado 140" d="M252.92,26.32h.66a.41.41,0,0,0,.37-.23l1.2-2.34v3.17a.41.41,0,0,0,.42.41h.77a.41.41,0,0,0,.42-.41V20.47a.42.42,0,0,0-.42-.42h-.77a.41.41,0,0,0-.37.23l-1.94,3.85-2-3.85a.41.41,0,0,0-.37-.23h-.77a.42.42,0,0,0-.42.42v6.45a.41.41,0,0,0,.42.41h.77a.41.41,0,0,0,.42-.41V23.73l1.23,2.37A.42.42,0,0,0,252.92,26.32Z" style="fill:#53a7df"/><rect id="Rect치ngulo_93" data-name="Rect치ngulo 93" x="134.16" y="32.26" width="1.52" height="7.8" style="fill:#53a7df"/><path id="Trazado_141" data-name="Trazado 141" d="M147.22,37l-3.1-4.78h-1.35v7.8h1.52V35.28l3.09,4.79h1.36v-7.8h-1.52Z" style="fill:#53a7df"/><path id="Trazado_142" data-name="Trazado 142" d="M157.81,32.26,155,40.06h1.59l.47-1.38h2.78l.46,1.38h1.59L159,32.26Zm-.35,5.14,1-2.84,1,2.84Z" style="fill:#53a7df"/><path id="Trazado_143" data-name="Trazado 143" d="M169.61,32.26h-1.53v7.8h5.07V38.7h-3.54Z" style="fill:#53a7df"/><path id="Trazado_144" data-name="Trazado 144" d="M183.81,29.64h-1.5l-.7,1.87h1Z" style="fill:#53a7df"/><path id="Trazado_145" data-name="Trazado 145" d="M181.63,32.26l-2.84,7.8h1.59l.47-1.38h2.78l.46,1.38h1.59l-2.85-7.8Zm-.35,5.14,1-2.84.95,2.84Z" style="fill:#53a7df"/><path id="Trazado_146" data-name="Trazado 146" d="M195.45,36.48l-2-4.22h-1.5v7.8h1.52V35.51l1.5,3h1l1.49-3v4.55H199v-7.8h-1.5Z" style="fill:#53a7df"/><path id="Trazado_147" data-name="Trazado 147" d="M210.64,36.07a1.83,1.83,0,0,0,1-1.61,2.13,2.13,0,0,0-2.05-2.21,2.17,2.17,0,0,0-.36,0h-3.14v7.8h3.27a2.16,2.16,0,0,0,2.38-1.91c0-.11,0-.22,0-.33A1.8,1.8,0,0,0,210.64,36.07Zm-3.06-2.45h1.5a.9.9,0,1,1,0,1.8h-1.5Zm1.59,5.09h-1.59V36.79h1.59a1,1,0,1,1,.13,1.92Z" style="fill:#53a7df"/><path id="Trazado_148" data-name="Trazado 148" d="M224.13,34.65a2.36,2.36,0,0,0-2.32-2.39h-3.27v7.8h1.53V37h1.1l1.52,3.11h1.76l-1.74-3.36A2.1,2.1,0,0,0,224.13,34.65Zm-2.63,1h-1.43V33.62h1.43a1,1,0,0,1,.15,2.06Z" style="fill:#53a7df"/><rect id="Rect치ngulo_94" data-name="Rect치ngulo 94" x="230.97" y="32.26" width="1.52" height="7.8" style="fill:#53a7df"/><path id="Trazado_149" data-name="Trazado 149" d="M242.2,33.56a1.28,1.28,0,0,1,1.31,1.1h1.55a2.75,2.75,0,0,0-2.87-2.46,2.84,2.84,0,0,0-2.1.85c-.79.79-.77,1.77-.77,3.12s0,2.32.77,3.11a2.84,2.84,0,0,0,2.1.85,2.75,2.75,0,0,0,2.87-2.46h-1.54a1.29,1.29,0,0,1-1.32,1.1,1.25,1.25,0,0,1-1-.4c-.3-.33-.38-.7-.38-2.2s.09-1.87.38-2.2A1.26,1.26,0,0,1,242.2,33.56Z" style="fill:#53a7df"/><path id="Trazado_150" data-name="Trazado 150" d="M256.36,33.05a3,3,0,0,0-4.22,0c-.79.79-.76,1.77-.76,3.12s0,2.32.76,3.11a3,3,0,0,0,4.22,0c.79-.79.78-1.77.78-3.11S257.16,33.84,256.36,33.05Zm-1.12,5.31a1.3,1.3,0,0,1-1,.42,1.34,1.34,0,0,1-1-.42c-.3-.33-.37-.69-.37-2.19s.08-1.87.37-2.2a1.33,1.33,0,0,1,1-.41,1.29,1.29,0,0,1,1,.41c.29.33.38.69.38,2.2S255.53,38,255.24,38.36Z" style="fill:#53a7df"/></g></g><polygon points="118.16 21.59 112.3 21.59 112.3 15.73 107.2 15.73 107.2 21.59 101.34 21.59 101.34 26.68 107.2 26.68 107.2 32.55 112.3 32.55 112.3 26.68 118.16 26.68 118.16 21.59" style="fill:#0075c9"/><path d="M45.53,17.69l-3.24,7.64L35.93,15a8.93,8.93,0,0,0-2.14-.3A5.88,5.88,0,0,0,29,16.92l-6.17,6.75,5,7.83a4.4,4.4,0,0,0,4.09,2.15,7.32,7.32,0,0,0,2.85-.53l-6-9L33,19.59l7,10.93L35.7,39.46a5.89,5.89,0,0,0,2.37.51,3.44,3.44,0,0,0,3.64-2.35l10-22.32a5.57,5.57,0,0,0-2.07-.49C48.36,14.79,46.63,15.05,45.53,17.69Z" style="fill:#0075c9"/><path d="M17.55,11.7V33.53a8.23,8.23,0,0,0,1.16.08c3.21,0,3.86-1,3.86-2.59V8.43a6.06,6.06,0,0,0-1.21-.12C18.12,8.31,17.55,10,17.55,11.7Z" style="fill:#0075c9"/><path d="M10.52,22.21l-3.7-.68c-1.18-.21-1.92-.48-1.92-1.16s.78-1.15,2.66-1.15,3.48.19,4.52.19c1.36,0,2.77-.57,2.77-3.25a5,5,0,0,0-.11-1A41.1,41.1,0,0,0,6,14.84c-4,.44-6,2.85-6,5.71,0,2.37,1.72,4.59,4.93,5.21l3.87.74c1.41.27,2.14.59,2.14,1.36,0,.59-.55,1.21-2.37,1.21-1.65,0-3.88-.25-5.29-.25s-2.8.62-2.8,3.29A5.76,5.76,0,0,0,.6,33.19a49.38,49.38,0,0,0,9.26.28c4.07-.44,6.08-2.68,6.08-5.75C15.94,25.07,14.3,22.92,10.52,22.21Z" style="fill:#0075c9"/><path d="M65.81,16.87V22H58.43v-7c-4.62-.84-4.62,2-4.62,2V33.42c4.62.95,4.62-1.76,4.62-1.76V26.58h7.38v6.84c4.62.95,4.62-1.76,4.62-1.76V14.91C65.81,14.07,65.81,16.87,65.81,16.87Z" style="fill:#0075c9"/><path d="M80.63,14.76H76.84c-3.66,0-3.64,2.54-3.64,2.54V31.18c0,2.71,3.64,2.43,3.64,2.43h3.79s10.61.13,10.61-9.51S80.63,14.76,80.63,14.76Zm0,14.68H77.71V18.81h2.92s5.88-.35,5.88,5.32S80.63,29.44,80.63,29.44Z" style="fill:#0075c9"/><path d="M90.77,14.68A1.36,1.36,0,1,0,92.13,16,1.36,1.36,0,0,0,90.77,14.68Zm0,2.45A1.09,1.09,0,1,1,91.84,16,1.08,1.08,0,0,1,90.77,17.13Z" style="fill:#0075c9"/><path d="M91.1,16.08h0a.35.35,0,0,0,.29-.37c0-.43-.45-.43-.55-.43h-.65v1.56h.27v-.62h.31c.27,0,.32.08.33.33s0,.24.05.29h.26c0-.06,0-.1,0-.36S91.32,16.14,91.1,16.08ZM90.77,16h-.31v-.43h.35c.13,0,.3,0,.31.18S90.89,16,90.77,16Z" style="fill:#0075c9"/></svg>