<svg xmlns="http://www.w3.org/2000/svg" width="154.696" height="24" viewBox="0 0 154.696 24">
  <g id="sky-gold-h" transform="translate(0)">
    <g id="Grupo_97" data-name="Grupo 97">
      <path id="Trazado_91" data-name="Trazado 91" d="M-211.259,535.922a1.032,1.032,0,0,0-1.034,1.032,1.031,1.031,0,0,0,1.034,1.03,1.031,1.031,0,0,0,1.028-1.03A1.03,1.03,0,0,0-211.259,535.922Zm0,1.858a.818.818,0,0,1-.815-.826.817.817,0,0,1,.815-.827.819.819,0,0,1,.815.827A.819.819,0,0,1-211.262,537.78Z" transform="translate(280.163 -531.021)" fill="#ffbf00"/>
      <path id="Trazado_92" data-name="Trazado 92" d="M-210.888,537.076v0a.271.271,0,0,0,.219-.286c0-.322-.343-.322-.416-.322h-.5v1.18h.2v-.472h.24c.2.017.24.067.249.254.005.148.013.184.035.219h.2c-.027-.048-.027-.072-.037-.273C-210.7,537.221-210.726,537.123-210.888,537.076Zm-.249-.093h-.243v-.327h.27c.1,0,.224.014.237.136C-210.873,536.983-211.053,536.983-211.137,536.983Z" transform="translate(280.044 -531.112)" fill="#ffbf00"/>
      <path id="Trazado_93" data-name="Trazado 93" d="M-255.9,538.115l-2.455,5.794-4.821-7.844a6.891,6.891,0,0,0-1.623-.229,4.456,4.456,0,0,0-3.642,1.7l-4.684,5.119,3.766,5.932a3.336,3.336,0,0,0,3.1,1.635,5.528,5.528,0,0,0,2.164-.406l-4.537-6.838,3.217-3.413,5.277,8.284-3.217,6.776a4.532,4.532,0,0,0,1.8.385,2.61,2.61,0,0,0,2.758-1.781l7.586-16.92a4.127,4.127,0,0,0-1.57-.364A3.006,3.006,0,0,0-255.9,538.115Z" transform="translate(290.407 -531.006)" fill="#ffbf00"/>
      <path id="Trazado_94" data-name="Trazado 94" d="M-277.907,532.6v16.545a5.636,5.636,0,0,0,.873.065c2.437,0,2.926-.72,2.926-1.968V530.122a4.519,4.519,0,0,0-.918-.094C-277.481,530.028-277.907,531.34-277.907,532.6Z" transform="translate(291.213 -530.028)" fill="#ffbf00"/>
      <path id="Trazado_95" data-name="Trazado 95" d="M-285.937,541.553l-2.8-.521c-.9-.156-1.459-.363-1.459-.875,0-.477.592-.872,2.02-.872,1.408,0,2.634.144,3.424.144,1.03,0,2.1-.436,2.1-2.467a3.8,3.8,0,0,0-.083-.78,31.675,31.675,0,0,0-6.609-.219c-3.029.333-4.567,2.156-4.567,4.329,0,1.791,1.3,3.476,3.735,3.945l2.935.561c1.072.21,1.623.447,1.623,1.031,0,.446-.417.916-1.8.916-1.249,0-2.936-.188-4.007-.188-1.03,0-2.123.467-2.123,2.5a4.2,4.2,0,0,0,.095.811,37.276,37.276,0,0,0,7.014.219c3.09-.332,4.611-2.029,4.611-4.359C-281.826,543.717-283.067,542.085-285.937,541.553Z" transform="translate(293.908 -531.011)" fill="#ffbf00"/>
      <path id="Trazado_96" data-name="Trazado 96" d="M-235.764,537.514v3.858h-5.6v-5.346c-3.5-.634-3.5,1.489-3.5,1.489v12.54c3.5.723,3.5-1.335,3.5-1.335V544.87h5.6v5.184c3.5.723,3.5-1.335,3.5-1.335V536.025C-235.764,535.391-235.764,537.514-235.764,537.514Z" transform="translate(285.648 -531.018)" fill="#ffbf00"/>
      <path id="Trazado_97" data-name="Trazado 97" d="M-221.557,535.908h-2.875c-2.775,0-2.758,1.928-2.758,1.928v10.519c0,2.056,2.758,1.844,2.758,1.844h2.875s8.042.1,8.042-7.212S-221.557,535.908-221.557,535.908Zm0,11.133h-2.21v-8.059h2.21s4.452-.266,4.452,4.029S-221.557,547.041-221.557,547.041Z" transform="translate(282.672 -531.018)" fill="#ffbf00"/>
    </g>
    <g id="Grupo_98" data-name="Grupo 98" transform="translate(78.682 1.558)">
      <path id="Trazado_98" data-name="Trazado 98" d="M-189.154,548.492a18.34,18.34,0,0,1-2.709.183c-2.284,0-2.862-1.309-2.862-2.892v-6.971c0-1.583.578-2.77,2.862-2.77a47.52,47.52,0,0,1,5.936.487l.548-3.988a35.989,35.989,0,0,0-6.484-.639c-4.932,0-7.429,2.466-7.429,6.21v8.463c0,3.683,2.5,6.21,7.429,6.21a25.739,25.739,0,0,0,7-.975v-9.528h-4.292Z" transform="translate(199.292 -531.902)" fill="#ffbf00"/>
      <path id="Trazado_99" data-name="Trazado 99" d="M-166.4,531.9c-5.724,0-7.854,3.135-7.854,6.21v8.463c0,3.074,2.131,6.21,7.854,6.21s7.854-3.136,7.854-6.21v-8.463C-158.544,535.037-160.675,531.9-166.4,531.9Zm3.287,14.277c0,1.583-1,2.557-3.287,2.557s-3.288-.975-3.288-2.557v-7.671c0-1.583,1-2.557,3.288-2.557s3.287.974,3.287,2.557Z" transform="translate(195.075 -531.902)" fill="#ffbf00"/>
      <path id="Trazado_100" data-name="Trazado 100" d="M-142.927,532.268h-4.566v20.274h12.6v-4.049h-8.036Z" transform="translate(190.569 -531.964)" fill="#ffbf00"/>
      <path id="Trazado_101" data-name="Trazado 101" d="M-117.711,532.268h-7.854v20.273h7.854c4.992,0,6.849-2.556,6.849-5.266v-9.741C-110.862,534.794-112.719,532.268-117.711,532.268Zm2.283,13.759c0,1.583-.548,2.466-2.831,2.466H-121V536.316h2.74c2.283,0,2.831.882,2.831,2.466Z" transform="translate(186.876 -531.964)" fill="#ffbf00"/>
    </g>
  </g>
</svg>
