<svg id="sky-black-logo" xmlns="http://www.w3.org/2000/svg" width="237.291" height="32" viewBox="0 0 237.291 32">
  <g id="Grupo_35" data-name="Grupo 35">
    <path id="Trazado_63" data-name="Trazado 63" d="M-210.658,480.353v-.008a.361.361,0,0,0,.292-.381c0-.428-.458-.428-.554-.428h-.662v1.572h.269v-.629h.32c.271.021.32.09.332.337.008.2.018.245.047.292h.271c-.037-.064-.037-.1-.051-.364C-210.4,480.544-210.442,480.414-210.658,480.353Zm-.33-.126h-.325v-.436h.36c.133,0,.3.019.316.184C-210.637,480.227-210.877,480.227-210.989,480.227Z" transform="translate(302.864 -472.452)" fill="#fff"/>
    <path id="Trazado_64" data-name="Trazado 64" d="M-210.916,478.994a1.375,1.375,0,0,0-1.378,1.375,1.375,1.375,0,0,0,1.378,1.374,1.375,1.375,0,0,0,1.372-1.374A1.373,1.373,0,0,0-210.916,478.994Zm0,2.476a1.091,1.091,0,0,1-1.087-1.1,1.089,1.089,0,0,1,1.087-1.1,1.092,1.092,0,0,1,1.088,1.1A1.092,1.092,0,0,1-210.919,481.47Z" transform="translate(302.786 -472.511)" fill="#fff"/>
    <path id="Trazado_65" data-name="Trazado 65" d="M-277.908,476.574v22.06a7.385,7.385,0,0,0,1.165.086c3.248,0,3.9-.96,3.9-2.623V473.272a6.023,6.023,0,0,0-1.223-.125C-277.34,473.147-277.908,474.9-277.908,476.574Z" transform="translate(295.649 -473.147)" fill="#fff"/>
    <path id="Trazado_66" data-name="Trazado 66" d="M-250.156,481.994l-3.272,7.726-6.428-10.46a9.268,9.268,0,0,0-2.165-.3,5.944,5.944,0,0,0-4.856,2.26l-6.245,6.828,5.023,7.908a4.444,4.444,0,0,0,4.136,2.179,7.386,7.386,0,0,0,2.886-.54l-6.051-9.118,4.289-4.55,7.036,11.046L-260.092,504a5.986,5.986,0,0,0,2.4.515,3.478,3.478,0,0,0,3.676-2.374l10.115-22.56a5.507,5.507,0,0,0-2.095-.487C-247.3,479.064-249.047,479.328-250.156,481.994Z" transform="translate(296.169 -472.515)" fill="#fff"/>
    <path id="Trazado_67" data-name="Trazado 67" d="M-283.281,486.568l-3.731-.694c-1.2-.208-1.946-.486-1.946-1.166,0-.636.789-1.163,2.693-1.163,1.877,0,3.512.193,4.566.193,1.373,0,2.8-.582,2.8-3.289a5.089,5.089,0,0,0-.111-1.041,42.224,42.224,0,0,0-8.811-.292c-4.037.445-6.088,2.875-6.088,5.771,0,2.389,1.732,4.636,4.978,5.261l3.913.748c1.429.278,2.164.6,2.164,1.375,0,.594-.554,1.221-2.4,1.221-1.665,0-3.914-.25-5.343-.25-1.374,0-2.831.622-2.831,3.33a5.627,5.627,0,0,0,.126,1.082,49.9,49.9,0,0,0,9.353.292c4.119-.444,6.147-2.708,6.147-5.813C-277.8,489.453-279.454,487.276-283.281,486.568Z" transform="translate(293.908 -472.512)" fill="#fff"/>
    <path id="Trazado_68" data-name="Trazado 68" d="M-232.732,481.167v5.144H-240.2v-7.128c-4.665-.846-4.665,1.985-4.665,1.985v16.722c4.665.962,4.665-1.781,4.665-1.781v-5.133h7.463v6.913c4.665.962,4.665-1.781,4.665-1.781V479.182C-232.732,478.337-232.732,481.167-232.732,481.167Z" transform="translate(299.244 -472.508)" fill="#fff"/>
    <path id="Trazado_69" data-name="Trazado 69" d="M-219.68,479.027h-3.833c-3.7,0-3.678,2.57-3.678,2.57v14.025c0,2.74,3.678,2.458,3.678,2.458h3.833s10.724.134,10.724-9.615S-219.68,479.027-219.68,479.027Zm0,14.844h-2.947V483.126h2.947s5.938-.355,5.938,5.372S-219.68,493.872-219.68,493.872Z" transform="translate(301.166 -472.507)" fill="#fff"/>
  </g>
  <g id="Grupo_36" data-name="Grupo 36" transform="translate(104.198 2.191)">
    <path id="Trazado_70" data-name="Trazado 70" d="M-184.681,488.324c2.13-.929,2.976-2.294,2.976-4.226v-2.735c0-3.625-2.051-5.877-7.646-5.877h-10.582v26.8H-188.5c5.354,0,7.765-2.615,7.765-6.4v-2.615A5.061,5.061,0,0,0-184.681,488.324Zm-9.217-7.968h3.742c1.691,0,2.416.722,2.416,1.888v2.334c0,1.088-.8,1.892-2.416,1.892H-193.9Zm7.122,14.726c0,1.93-1.487,2.333-3.38,2.333H-193.9V491.18h4.589c1.608,0,2.532.765,2.532,2.251Z" transform="translate(199.933 -475.083)" fill="#fff"/>
    <path id="Trazado_71" data-name="Trazado 71" d="M-168.091,475.486h-6.036v26.8h16.661v-5.353h-10.624Z" transform="translate(202.74 -475.084)" fill="#fff"/>
    <path id="Trazado_72" data-name="Trazado 72" d="M-144.793,475.486l-8.171,26.8h6.278l1.448-5.232h8.973l1.448,5.232h6.278l-8.209-26.8Zm.925,16.536,3.1-11.226,3.059,11.226Z" transform="translate(205.043 -475.083)" fill="#fff"/>
    <path id="Trazado_73" data-name="Trazado 73" d="M-113.927,480.594a44.232,44.232,0,0,1,6.918.644l.847-5.271a36.241,36.241,0,0,0-7.765-.844c-6.762,0-9.777,3.341-9.777,8.206v11.187c0,4.87,3.015,8.209,9.777,8.209a36.239,36.239,0,0,0,7.765-.843l-.847-5.271a44.348,44.348,0,0,1-6.918.643c-2.982,0-3.745-1.369-3.745-3.7V484.3C-117.672,481.963-116.908,480.594-113.927,480.594Z" transform="translate(208.226 -475.123)" fill="#fff"/>
    <path id="Trazado_74" data-name="Trazado 74" d="M-86.553,488.6l7.523-13.118h-6.8L-93.073,488.6l7.807,13.68h6.8Z" transform="translate(211.558 -475.084)" fill="#fff"/>
    <rect id="Rectángulo_84" data-name="Rectángulo 84" width="6.036" height="26.798" transform="translate(111.684 0.402)" fill="#fff"/>
  </g>
</svg>
