<?xml version="1.0" encoding="utf-8"?>
<!-- Generator: Adobe Illustrator 26.0.0, SVG Export Plug-In . SVG Version: 6.00 Build 0)  -->
<svg version="1.1" id="Capa_1" xmlns="http://www.w3.org/2000/svg" xmlns:xlink="http://www.w3.org/1999/xlink" x="0px" y="0px"
	 viewBox="0 0 257.1 48" style="enable-background:new 0 0 257.1 48;" xml:space="preserve">
<style type="text/css">
	.st0{fill:#FFFFFF;}
	.st1{fill:#53A7DF;}
	.st2{fill:#FCA01F;}
	.st3{fill:#D8006B;}
	.st4{fill:#00418B;}
	.st5{fill:#E13604;}
	.st6{fill:#CDCE28;}
	.st7{fill:#3F1B60;}
	.st8{fill:#0064B2;}
</style>
<g id="Grupo_260" transform="translate(-699 -2665)">
	<g id="bluetelecom-inalambrico-logo" transform="translate(833.16 2673)">
		<path id="Trazado_119" class="st0" d="M17.4,20.1H2.5c-1.3,0-2.4-1.1-2.4-2.4V2.9c0-1.3,1.1-2.4,2.4-2.4h14.8
			c1.3,0,2.4,1.1,2.4,2.4v14.8C19.8,19.1,18.7,20.1,17.4,20.1 M17.4,19.8c1.1,0,2-0.9,2-2V2.9c0-1.1-0.9-2-2-2H2.5c-1.1,0-2,0.9-2,2
			v14.8c0,1.1,0.9,2,2,2L17.4,19.8z"/>
		<path id="Trazado_120" class="st0" d="M17.4,20.1H2.5c-1.3,0-2.4-1.1-2.4-2.4V2.9c0-1.3,1.1-2.4,2.4-2.4h14.8
			c1.3,0,2.4,1.1,2.4,2.4v14.8C19.8,19.1,18.7,20.1,17.4,20.1 M17.4,19.8c1.1,0,2-0.9,2-2V2.9c0-1.1-0.9-2-2-2H2.5c-1.1,0-2,0.9-2,2
			v14.8c0,1.1,0.9,2,2,2L17.4,19.8z"/>
		<path id="Trazado_121" class="st1" d="M17.4,0.7H2.5c-1.2,0-2.2,1-2.2,2.2v14.8c0,1.2,1,2.2,2.2,2.2h14.8c1.2,0,2.2-1,2.2-2.2V2.9
			C19.6,1.7,18.6,0.7,17.4,0.7"/>
		<path id="Trazado_122" class="st2" d="M19.6,4V2.9c0-0.1,0-0.2,0-0.3l-5.2-2H2.5c-0.5,0-1,0.2-1.4,0.5l8,3"/>
		<path id="Trazado_123" class="st3" d="M9.1,4.2l10.5,3.9V4"/>
		<path id="Trazado_124" class="st4" d="M9.1,4.2L0.3,4.5V5l8.1,4.7l11.2-0.6V8.1"/>
		<path id="Trazado_125" class="st0" d="M0.3,5v4.2l8.1,0.4"/>
		<path id="Trazado_126" class="st5" d="M19,19.2c0.1-0.1,0.2-0.3,0.3-0.5L8.4,9.6L0.3,9.2v0.1l6.2,5.2"/>
		<path id="Trazado_127" class="st6" d="M19,19.2L6.5,14.5l6.3,5.4h4.5C18,19.9,18.6,19.7,19,19.2"/>
		<path id="Trazado_128" class="st7" d="M0.3,12.1v5.5l6.1,2.3h6.5l-6.3-5.4"/>
		<g id="Grupo_41" transform="translate(0 0.179)">
			<path id="Trazado_129" class="st1" d="M35.2,12.5c0-1.1-0.2-2.1-0.5-3.1c-0.3-0.8-0.8-1.6-1.4-2.3c-1.1-1.2-2.7-1.9-4.4-1.9
				c-1,0-2,0.2-2.9,0.7l-0.2,0.1V0.9l-0.7-0.2c-0.2-0.1-0.5-0.1-0.7-0.1c-0.3,0-0.6,0-0.9,0c-0.7-0.1-1.3,0.2-1.8,0.7
				c-0.3,0.4-0.5,0.9-0.5,1.5V14c0,0.6,0,1.3,0,2.1c0,0.9-0.1,1.7-0.1,2.5l0,0.8l0.7,0.2c0.2,0,0.4,0.1,0.6,0.1
				c0.3,0,0.6,0.1,0.9,0.1c0.6,0,1.1-0.1,1.6-0.5c0.2-0.2,0.3-0.3,0.5-0.5c0.2,0.1,0.4,0.3,0.6,0.4c0.9,0.5,1.9,0.7,2.9,0.7
				c0.9,0,1.8-0.2,2.6-0.6c0.8-0.4,1.5-0.9,2-1.6c0.6-0.7,1-1.5,1.3-2.3C35.1,14.4,35.2,13.5,35.2,12.5z M29.9,14.9
				c-0.5,0.5-1.1,0.8-1.8,0.7c-0.3,0-0.6-0.1-0.9-0.2c-0.8-0.3-1.3-1.1-1.3-2v-2.8c0.2-0.3,0.5-0.6,0.8-0.7C27,9.7,27.5,9.5,28,9.6
				c0.7,0,1.4,0.2,1.8,0.8c0.5,0.6,0.8,1.4,0.7,2.2C30.7,13.4,30.4,14.2,29.9,14.9L29.9,14.9z"/>
			<path id="Trazado_130" class="st1" d="M39.4,0.5c-0.3,0-0.6,0-0.9,0c-0.7-0.1-1.3,0.2-1.8,0.7c-0.3,0.4-0.5,0.9-0.5,1.5v16.9
				l0.7,0.2c0.2,0.1,0.5,0.1,0.7,0.1c0.3,0,0.6,0,0.9,0c0.7,0.1,1.3-0.2,1.8-0.6c0.3-0.4,0.5-0.9,0.5-1.5V0.8l-0.7-0.2
				C39.9,0.6,39.6,0.6,39.4,0.5z"/>
			<path id="Trazado_131" class="st1" d="M55.5,17.3c0-0.3-0.1-0.7-0.1-1c0-0.3-0.1-0.7-0.1-1.1s0-0.8,0-1.3V5.7l-0.7-0.2
				c-0.2-0.1-0.5-0.1-0.7-0.1c-0.3,0-0.6,0-0.9,0c-0.7-0.1-1.3,0.2-1.8,0.6c-0.4,0.4-0.6,0.9-0.5,1.5v7.1c-0.2,0.3-0.5,0.6-0.9,0.8
				c-0.3,0.2-0.7,0.3-1.2,0.3c-0.5,0-0.9-0.1-1.3-0.5c-0.4-0.5-0.5-1.1-0.5-1.7V5.7l-0.7-0.2c-0.2-0.1-0.5-0.1-0.7-0.1
				c-0.3,0-0.6,0-0.9,0c-0.7,0-1.3,0.2-1.8,0.6c-0.4,0.4-0.6,0.9-0.6,1.5v6.3c0,0.9,0.1,1.8,0.4,2.6c0.3,0.7,0.7,1.4,1.2,1.9
				c0.5,0.5,1.1,0.9,1.8,1.2c0.7,0.2,1.4,0.4,2.1,0.4c1,0,2-0.2,2.9-0.7c0.2-0.1,0.4-0.3,0.6-0.4c0.2,0.3,0.4,0.5,0.6,0.7
				c0.4,0.3,1,0.4,1.5,0.4l0,0c0.6,0,1.2-0.1,1.8-0.4l0.7-0.3l-0.1-0.7C55.6,18,55.5,17.6,55.5,17.3z"/>
			<path id="Trazado_132" class="st1" d="M68.2,7.5c-0.6-0.7-1.3-1.2-2.1-1.6c-2.7-1.2-5.8-0.6-7.9,1.5c-0.6,0.7-1.1,1.4-1.4,2.3
				c-0.4,0.9-0.5,1.9-0.5,2.9c0,1,0.2,2,0.5,2.9c0.3,0.9,0.8,1.7,1.5,2.4c0.7,0.7,1.5,1.2,2.4,1.6c1,0.4,2.1,0.6,3.1,0.5
				c0.9,0,1.9-0.1,2.8-0.3c0.7-0.2,1.4-0.4,2.1-0.7l0.5-0.2l0.1-0.5c0-0.1,0-0.3,0-0.4s0-0.2,0-0.4c0-0.6-0.1-1.2-0.5-1.7
				c-0.3-0.5-0.9-0.8-1.5-0.8c-0.3,0-0.6,0-0.9,0.1c-0.2,0.1-0.5,0.2-0.8,0.3c-0.6,0.2-1.2,0.3-1.8,0.3c-0.7,0-1.4-0.2-2-0.6
				c-0.2-0.2-0.4-0.4-0.5-0.6h8.3l0.2-0.7c0.1-0.5,0.2-1,0.2-1.5c0-0.9-0.1-1.7-0.4-2.5C69.2,8.9,68.8,8.2,68.2,7.5z M61.2,10.6
				c0.1-0.3,0.3-0.5,0.5-0.8c0.4-0.4,1-0.6,1.5-0.6c0.6,0,1.2,0.2,1.6,0.6c0.2,0.2,0.4,0.5,0.5,0.7H61.2z"/>
			<path id="Trazado_133" class="st1" d="M78.3,12.2h-5c-0.2,0-0.4,0.2-0.4,0.4v0.6c0,0.2,0.2,0.4,0.4,0.4H75v5.4
				c0,0.2,0.2,0.4,0.4,0.4h0.8c0.2,0,0.4-0.2,0.4-0.4v-5.4h1.7c0.2,0,0.4-0.2,0.4-0.4v-0.6C78.7,12.4,78.5,12.2,78.3,12.2z"/>
			<path id="Trazado_134" class="st1" d="M83.7,12.2h-4.5c-0.2,0-0.4,0.2-0.4,0.4v6.4c0,0.2,0.2,0.4,0.4,0.4c0,0,0,0,0,0h4.5
				c0.2,0,0.4-0.2,0.4-0.4l0,0v-0.6c0-0.2-0.2-0.4-0.4-0.4c0,0,0,0,0,0h-3.3v-1.5h2.8c0.2,0,0.4-0.2,0.4-0.4v-0.6
				c0-0.2-0.2-0.4-0.4-0.4c0,0,0,0,0,0h-2.8v-1.4h3.3c0.2,0,0.4-0.2,0.4-0.4l0,0v-0.6C84.1,12.4,83.9,12.2,83.7,12.2z"/>
			<path id="Trazado_135" class="st1" d="M84.9,19.5h4.5c0.2,0,0.4-0.2,0.4-0.4v-0.6c0-0.2-0.2-0.4-0.4-0.4h-3.3v-5.4
				c0-0.2-0.2-0.4-0.4-0.4c0,0,0,0,0,0h-0.8c-0.2,0-0.4,0.2-0.4,0.4v6.4C84.5,19.3,84.7,19.5,84.9,19.5
				C84.9,19.5,84.9,19.5,84.9,19.5z"/>
			<path id="Trazado_136" class="st1" d="M95.1,12.2h-4.5c-0.2,0-0.4,0.2-0.4,0.4l0,0v6.4c0,0.2,0.2,0.4,0.4,0.4c0,0,0,0,0,0h4.5
				c0.2,0,0.4-0.2,0.4-0.4l0,0v-0.6c0-0.2-0.2-0.4-0.4-0.4c0,0,0,0,0,0h-3.3v-1.5h2.8c0.2,0,0.4-0.2,0.4-0.4c0,0,0,0,0,0v-0.6
				c0-0.2-0.2-0.4-0.4-0.4c0,0,0,0,0,0h-2.8v-1.4h3.3c0.2,0,0.4-0.2,0.4-0.4l0,0v-0.6C95.5,12.4,95.3,12.2,95.1,12.2z"/>
			<path id="Trazado_137" class="st1" d="M97.6,14c0.3-0.2,0.6-0.4,1-0.3c0.2,0,0.5,0,0.7,0.1c0.2,0.1,0.4,0.2,0.6,0.4
				c0.2,0.1,0.4,0.1,0.5,0l0.5-0.5c0.2-0.2,0.2-0.4,0-0.6c0,0,0,0,0,0c-0.6-0.6-1.5-0.9-2.3-0.9c-0.8,0-1.5,0.3-2.1,0.8
				c-0.4,0.3-0.6,0.8-0.7,1.2c-0.1,1.1-0.1,2.2,0,3.4c0.1,0.5,0.4,0.9,0.7,1.2c0.6,0.5,1.3,0.8,2.1,0.8c0.9,0,1.7-0.3,2.3-0.9
				c0.2-0.2,0.2-0.4,0-0.6c0,0,0,0,0,0l-0.5-0.5c-0.2-0.1-0.4-0.1-0.5,0c-0.2,0.2-0.4,0.3-0.6,0.4c-0.2,0.1-0.4,0.1-0.7,0.1
				c-0.4,0-0.7-0.1-1-0.3c-0.2-0.1-0.3-0.3-0.3-0.5c-0.1-0.5-0.1-0.9-0.1-1.4c0-0.5,0-0.9,0.1-1.4C97.3,14.3,97.4,14.1,97.6,14z"/>
			<path id="Trazado_138" class="st1" d="M107,17.5c0.1-1.1,0.1-2.2,0-3.4c-0.1-0.5-0.4-0.9-0.7-1.2c-1.2-1-3-1-4.3,0
				c-0.4,0.3-0.6,0.8-0.7,1.2c-0.1,0.6-0.1,1.1-0.1,1.7c0,0.6,0,1.1,0.1,1.7c0.1,0.5,0.4,0.9,0.7,1.2c1.2,1,3,1,4.3,0
				C106.6,18.5,106.9,18,107,17.5z M102.8,15.9c0-0.5,0-0.9,0.1-1.4c0-0.2,0.1-0.4,0.3-0.5c0.6-0.5,1.4-0.5,1.9,0
				c0.2,0.1,0.3,0.3,0.3,0.5c0.1,0.5,0.1,0.9,0.1,1.4c0,0.5,0,0.9-0.1,1.4c0,0.2-0.1,0.4-0.3,0.5c-0.6,0.5-1.4,0.5-1.9,0
				c-0.2-0.1-0.3-0.3-0.3-0.5C102.8,16.8,102.7,16.3,102.8,15.9L102.8,15.9z"/>
			<path id="Trazado_139" class="st1" d="M114.3,12.2h-0.8c-0.2,0-0.3,0.1-0.4,0.2l-1.9,3.8l-2-3.8c-0.1-0.1-0.2-0.2-0.4-0.2h-0.8
				c-0.2,0-0.4,0.2-0.4,0.4v6.4c0,0.2,0.2,0.4,0.4,0.4h0.8c0.2,0,0.4-0.2,0.4-0.4v-3.2l1.2,2.4c0.1,0.1,0.2,0.2,0.4,0.2h0.7
				c0.2,0,0.3-0.1,0.4-0.2l1.2-2.3v3.2c0,0.2,0.2,0.4,0.4,0.4c0,0,0,0,0,0h0.8c0.2,0,0.4-0.2,0.4-0.4v-6.4
				C114.7,12.4,114.5,12.2,114.3,12.2C114.3,12.2,114.3,12.2,114.3,12.2z"/>
			<path id="Trazado_140" class="st1" d="M118.8,18.5h0.7c0.2,0,0.3-0.1,0.4-0.2l1.2-2.3v3.2c0,0.2,0.2,0.4,0.4,0.4c0,0,0,0,0,0h0.8
				c0.2,0,0.4-0.2,0.4-0.4v-6.4c0-0.2-0.2-0.4-0.4-0.4h0h-0.8c-0.2,0-0.3,0.1-0.4,0.2l-1.9,3.8l-2-3.8c-0.1-0.1-0.2-0.2-0.4-0.2H116
				c-0.2,0-0.4,0.2-0.4,0.4v6.4c0,0.2,0.2,0.4,0.4,0.4h0.8c0.2,0,0.4-0.2,0.4-0.4v-3.2l1.2,2.4C118.5,18.4,118.6,18.5,118.8,18.5z"
				/>
			<rect id="Rectángulo_93" x="0" y="24.4" class="st1" width="1.5" height="7.8"/>
			<path id="Trazado_141" class="st1" d="M13.1,29.2L10,24.4H8.6v7.8h1.5v-4.8l3.1,4.8h1.4v-7.8h-1.5L13.1,29.2z"/>
			<path id="Trazado_142" class="st1" d="M23.6,24.4l-2.8,7.8h1.6l0.5-1.4h2.8l0.5,1.4h1.6l-2.8-7.8H23.6z M23.3,29.6l1-2.8l1,2.8
				H23.3z"/>
			<path id="Trazado_143" class="st1" d="M35.4,24.4h-1.5v7.8H39v-1.4h-3.5L35.4,24.4z"/>
			<path id="Trazado_144" class="st1" d="M49.7,21.8h-1.5l-0.7,1.9h1L49.7,21.8z"/>
			<path id="Trazado_145" class="st1" d="M47.5,24.4l-2.8,7.8h1.6l0.5-1.4h2.8l0.5,1.4h1.6l-2.9-7.8H47.5z M47.1,29.6l1-2.8l1,2.8
				H47.1z"/>
			<path id="Trazado_146" class="st1" d="M61.3,28.7l-2-4.2h-1.5v7.8h1.5v-4.5l1.5,3h1l1.5-3v4.5h1.5v-7.8h-1.5L61.3,28.7z"/>
			<path id="Trazado_147" class="st1" d="M76.5,28.2c0.6-0.3,1-0.9,1-1.6c0-1.2-0.9-2.2-2.1-2.2c-0.1,0-0.2,0-0.4,0h-3.1v7.8h3.3
				c1.2,0.1,2.2-0.7,2.4-1.9c0-0.1,0-0.2,0-0.3C77.6,29.2,77.2,28.5,76.5,28.2z M73.4,25.8h1.5c0.5,0,0.9,0.4,0.9,0.9
				c0,0.5-0.4,0.9-0.9,0.9c0,0,0,0,0,0h-1.5V25.8z M75,30.9h-1.6V29H75c0.5,0,1,0.4,1,0.9s-0.4,1-0.9,1C75.1,30.9,75.1,30.9,75,30.9
				z"/>
			<path id="Trazado_148" class="st1" d="M90,26.8c0-1.3-1-2.4-2.3-2.4c-0.1,0-0.1,0-0.2,0h-3.1v7.8h1.5v-3.1H87l1.5,3.1h1.8
				l-1.7-3.4C89.4,28.6,90,27.7,90,26.8z M87.3,27.9h-1.4v-2.1h1.4c0.6,0,1.1,0.4,1.1,1c0,0.6-0.4,1.1-1,1.1
				C87.4,27.9,87.4,27.9,87.3,27.9L87.3,27.9z"/>
			<rect id="Rectángulo_94" x="96.8" y="24.4" class="st1" width="1.5" height="7.8"/>
			<path id="Trazado_149" class="st1" d="M108,25.7c0.7,0,1.2,0.5,1.3,1.1h1.5c-0.1-1.5-1.4-2.5-2.9-2.5c-0.8,0-1.5,0.3-2.1,0.9
				c-0.8,0.8-0.8,1.8-0.8,3.1s0,2.3,0.8,3.1c0.6,0.6,1.3,0.9,2.1,0.9c1.5,0.1,2.7-1,2.9-2.5h-1.5c-0.1,0.6-0.7,1.1-1.3,1.1
				c-0.4,0-0.7-0.1-1-0.4c-0.3-0.3-0.4-0.7-0.4-2.2s0.1-1.9,0.4-2.2C107.3,25.9,107.7,25.7,108,25.7z"/>
			<path id="Trazado_150" class="st1" d="M122.2,25.2c-1.2-1.1-3-1.1-4.2,0c-0.8,0.8-0.8,1.8-0.8,3.1s0,2.3,0.8,3.1
				c1.2,1.1,3,1.1,4.2,0c0.8-0.8,0.8-1.8,0.8-3.1S123,26,122.2,25.2z M121.1,30.5c-0.2,0.3-0.6,0.4-1,0.4c-0.4,0-0.7-0.1-1-0.4
				c-0.3-0.3-0.4-0.7-0.4-2.2s0.1-1.9,0.4-2.2c0.3-0.3,0.6-0.4,1-0.4c0.4,0,0.7,0.1,1,0.4c0.3,0.3,0.4,0.7,0.4,2.2
				S121.4,30.2,121.1,30.5z"/>
		</g>
	</g>
	<path id="plus" class="st8" d="M806.2,2697.9v-16.8h5.1v16.8H806.2z M800.3,2692v-5.1h16.8v5.1H800.3z"/>
	<g id="sky-logo" transform="translate(699 2665)">
		<path id="Trazado_4" class="st8" d="M34.1,39.3c0.7,0.3,1.5,0.5,2.3,0.5c1.8,0,2.8-0.7,3.5-2.3L49.5,16c-0.6-0.3-1.3-0.4-2-0.5
			c-1.2,0-2.9,0.2-3.9,2.8l-3.1,7.4l-6.1-10c-0.7-0.2-1.4-0.3-2-0.3c-2.2,0-3.3,0.8-4.6,2.2L21.8,24l4.8,7.5
			c0.8,1.4,2.3,2.2,3.9,2.1c0.9,0,1.9-0.2,2.7-0.5l-5.7-8.7l4.1-4.3l6.7,10.5 M21.6,31.1c0,1.6-0.6,2.5-3.7,2.5
			c-0.4,0-0.7,0-1.1-0.1v-21c0-1.6,0.5-3.3,3.6-3.3c0.4,0,0.8,0,1.2,0.1L21.6,31.1z M15.2,27.9c0,3-1.9,5.1-5.8,5.5
			c-3,0.2-5.9,0.1-8.9-0.3c-0.1-0.3-0.1-0.7-0.1-1c0-2.6,1.4-3.2,2.7-3.2c1.4,0,3.5,0.2,5.1,0.2c1.7,0,2.3-0.6,2.3-1.2
			c0-0.7-0.7-1-2-1.3L4.7,26C1.6,25.5,0,23.3,0,21c0-2.8,1.9-5.1,5.8-5.5c2.8-0.2,5.6-0.1,8.3,0.3c0.1,0.3,0.1,0.7,0.1,1
			c0,2.6-1.4,3.1-2.7,3.1c-1,0-2.5-0.2-4.3-0.2c-1.8,0-2.5,0.5-2.5,1.1c0,0.6,0.7,0.9,1.8,1.1l3.5,0.7
			C13.7,23.3,15.2,25.4,15.2,27.9"/>
		<path id="Trazado_5" class="st8" d="M54.3,16.7c0,0.8-0.6,1.4-1.4,1.4c-0.8,0-1.4-0.6-1.4-1.4c0-0.8,0.6-1.4,1.4-1.4c0,0,0,0,0,0
			C53.6,15.3,54.3,16,54.3,16.7 M51.7,16.7c0,0.6,0.5,1.1,1.1,1.1c0.6,0,1.1-0.5,1.1-1.1c0-0.6-0.5-1.1-1.1-1.1
			C52.2,15.6,51.7,16.1,51.7,16.7C51.7,16.7,51.7,16.7,51.7,16.7 M52.9,15.9c0.1,0,0.6,0,0.6,0.4c0,0.2-0.1,0.4-0.3,0.4v0
			c0.2,0.1,0.3,0.2,0.3,0.4c0,0.3,0,0.3,0.1,0.4h-0.3c0,0,0-0.1,0-0.3c0-0.3-0.1-0.3-0.3-0.4h-0.3v0.7h-0.3v-1.6L52.9,15.9z
			 M52.5,16.7h0.3c0.1,0,0.4,0,0.4-0.3c0-0.2-0.2-0.2-0.3-0.2h-0.4L52.5,16.7z"/>
	</g>
	<g>
		<path class="st8" d="M761,2689.2c-0.2-0.1-0.5-0.2-0.7-0.2v-0.1c0.2-0.1,0.4-0.1,0.6-0.3c0.2-0.1,0.3-0.3,0.4-0.5
			c0.1-0.2,0.2-0.4,0.2-0.7c0-0.3-0.1-0.6-0.2-0.9c-0.2-0.3-0.4-0.5-0.7-0.6c-0.3-0.1-0.7-0.2-1.2-0.2h-2.6v6.5h2.8
			c0.5,0,0.9-0.1,1.2-0.2c0.3-0.2,0.6-0.4,0.8-0.6c0.2-0.3,0.3-0.6,0.3-0.9c0-0.3-0.1-0.6-0.2-0.8
			C761.4,2689.5,761.2,2689.3,761,2689.2z M758.1,2686.9h1.1c0.3,0,0.5,0.1,0.7,0.2c0.2,0.1,0.3,0.3,0.3,0.6c0,0.2,0,0.3-0.1,0.4
			c-0.1,0.1-0.2,0.2-0.4,0.3c-0.1,0.1-0.3,0.1-0.5,0.1h-1V2686.9z M760,2691c-0.2,0.1-0.5,0.2-0.8,0.2h-1.1v-1.7h1.2
			c0.2,0,0.4,0,0.6,0.1c0.2,0.1,0.3,0.2,0.4,0.3c0.1,0.1,0.1,0.3,0.1,0.5C760.3,2690.7,760.2,2690.9,760,2691z"/>
		<polygon class="st8" points="766.9,2683.7 765.6,2683.7 764.9,2685.2 765.9,2685.2 		"/>
		<path class="st8" d="M764.5,2685.8l-2.3,6.5h1.5l0.5-1.5h2.4l0.5,1.5h1.5l-2.3-6.5H764.5z M764.6,2689.8l0.8-2.5h0.1l0.8,2.5
			H764.6z"/>
		<path class="st8" d="M773.6,2689.2c-0.2-0.2-0.4-0.3-0.6-0.4c-0.2-0.1-0.5-0.2-0.8-0.3l-0.6-0.1c-0.1,0-0.3-0.1-0.4-0.1
			c-0.1,0-0.2-0.1-0.3-0.2c-0.1-0.1-0.2-0.1-0.2-0.2c-0.1-0.1-0.1-0.2-0.1-0.3c0-0.1,0-0.3,0.1-0.4s0.2-0.2,0.4-0.3
			c0.2-0.1,0.3-0.1,0.6-0.1c0.3,0,0.6,0.1,0.8,0.2s0.3,0.3,0.3,0.6h1.3c0-0.4-0.1-0.7-0.3-1c-0.2-0.3-0.5-0.5-0.8-0.7
			c-0.4-0.2-0.8-0.2-1.3-0.2c-0.5,0-0.9,0.1-1.3,0.2s-0.7,0.4-0.9,0.7c-0.2,0.3-0.3,0.6-0.3,1c0,0.5,0.2,0.9,0.5,1.2
			c0.3,0.3,0.8,0.5,1.3,0.6l0.7,0.2c0.2,0.1,0.4,0.1,0.6,0.2s0.3,0.2,0.4,0.3c0.1,0.1,0.1,0.2,0.1,0.4c0,0.2,0,0.3-0.1,0.4
			c-0.1,0.1-0.2,0.2-0.4,0.3s-0.4,0.1-0.6,0.1c-0.2,0-0.5,0-0.6-0.1s-0.3-0.2-0.5-0.3c-0.1-0.1-0.2-0.3-0.2-0.5H769
			c0,0.5,0.1,0.9,0.3,1.2s0.5,0.6,0.9,0.7s0.9,0.2,1.4,0.2c0.5,0,1-0.1,1.4-0.2c0.4-0.2,0.7-0.4,0.9-0.7c0.2-0.3,0.3-0.6,0.3-1
			c0-0.3-0.1-0.5-0.1-0.7C773.9,2689.6,773.8,2689.4,773.6,2689.2z"/>
		<rect x="775.1" y="2685.8" class="st8" width="1.4" height="6.5"/>
		<path class="st8" d="M779.7,2687.2c0.3-0.2,0.5-0.3,0.9-0.3c0.2,0,0.4,0,0.5,0.1c0.2,0.1,0.3,0.1,0.4,0.2c0.1,0.1,0.2,0.2,0.3,0.4
			c0.1,0.1,0.1,0.3,0.2,0.5h1.4c0-0.4-0.1-0.7-0.3-1c-0.2-0.3-0.4-0.5-0.6-0.7c-0.3-0.2-0.5-0.4-0.9-0.5c-0.3-0.1-0.7-0.2-1.1-0.2
			c-0.6,0-1.1,0.1-1.6,0.4c-0.5,0.3-0.8,0.6-1.1,1.1c-0.3,0.5-0.4,1.1-0.4,1.8c0,0.7,0.1,1.3,0.4,1.8c0.3,0.5,0.6,0.9,1.1,1.1
			c0.5,0.3,1,0.4,1.6,0.4c0.4,0,0.8-0.1,1.1-0.2s0.6-0.3,0.9-0.5c0.2-0.2,0.4-0.5,0.6-0.7c0.1-0.3,0.2-0.6,0.3-0.9l-1.4,0
			c0,0.2-0.1,0.3-0.2,0.5c-0.1,0.1-0.2,0.3-0.3,0.3c-0.1,0.1-0.3,0.2-0.4,0.2s-0.3,0.1-0.5,0.1c-0.3,0-0.6-0.1-0.9-0.2
			s-0.4-0.4-0.6-0.7s-0.2-0.7-0.2-1.2c0-0.5,0.1-0.8,0.2-1.2C779.3,2687.6,779.5,2687.4,779.7,2687.2z"/>
		<path class="st8" d="M790,2687.3c-0.3-0.5-0.6-0.9-1.1-1.1c-0.5-0.3-1-0.4-1.6-0.4c-0.6,0-1.1,0.1-1.6,0.4
			c-0.5,0.3-0.8,0.6-1.1,1.1c-0.3,0.5-0.4,1.1-0.4,1.8c0,0.7,0.1,1.3,0.4,1.8c0.3,0.5,0.6,0.9,1.1,1.1c0.5,0.3,1,0.4,1.6,0.4
			c0.6,0,1.1-0.1,1.6-0.4c0.5-0.3,0.8-0.6,1.1-1.1s0.4-1.1,0.4-1.8S790.3,2687.8,790,2687.3z M788.8,2690.3
			c-0.1,0.3-0.3,0.6-0.6,0.7c-0.2,0.2-0.5,0.2-0.9,0.2c-0.3,0-0.6-0.1-0.9-0.2s-0.4-0.4-0.6-0.7c-0.1-0.3-0.2-0.7-0.2-1.2
			c0-0.5,0.1-0.9,0.2-1.2c0.1-0.3,0.3-0.6,0.6-0.7s0.5-0.2,0.9-0.2c0.3,0,0.6,0.1,0.9,0.2c0.2,0.2,0.4,0.4,0.6,0.7
			c0.1,0.3,0.2,0.7,0.2,1.2C789,2689.6,788.9,2689.9,788.8,2690.3z"/>
	</g>
</g>
</svg>
