<svg id="log-sky" xmlns="http://www.w3.org/2000/svg" width="49.732" height="28" viewBox="0 0 49.732 28">
  <path id="Path_45" data-name="Path 45" d="M190.151,292.167a5.239,5.239,0,0,0,2.1.449,3.043,3.043,0,0,0,3.217-2.076l8.851-19.741a4.808,4.808,0,0,0-1.833-.427,3.509,3.509,0,0,0-3.641,2.539l-2.863,6.761-5.624-9.152a8.053,8.053,0,0,0-1.895-.268,5.2,5.2,0,0,0-4.249,1.978l-5.464,5.974,4.395,6.92a3.889,3.889,0,0,0,3.619,1.907,6.456,6.456,0,0,0,2.525-.473l-5.294-7.977,3.753-3.982,6.156,9.665m-15.366.437c0,1.455-.571,2.3-3.412,2.3a6.439,6.439,0,0,1-1.02-.075v-19.3c0-1.468.5-3,3.363-3a5.239,5.239,0,0,1,1.07.11Zm-5.86-2.914c0,2.718-1.775,4.7-5.379,5.086a43.688,43.688,0,0,1-8.184-.255,4.934,4.934,0,0,1-.109-.947c0-2.369,1.274-2.913,2.476-2.913,1.251,0,3.219.218,4.676.218,1.614,0,2.1-.548,2.1-1.068,0-.681-.643-.959-1.894-1.2l-3.424-.655c-2.84-.546-4.357-2.513-4.357-4.6,0-2.535,1.8-4.661,5.328-5.05a36.908,36.908,0,0,1,7.71.255,4.5,4.5,0,0,1,.1.911c0,2.369-1.251,2.878-2.451,2.878-.922,0-2.353-.169-4-.169-1.665,0-2.357.461-2.357,1.018,0,.6.656.838,1.7,1.021l3.264.607c3.349.62,4.8,2.524,4.8,4.869" transform="translate(-158.582 -264.618)" fill="#0064b2"/>
  <path id="Path_46" data-name="Path 46" d="M290.218,277.922a1.2,1.2,0,1,1-1.2-1.2,1.2,1.2,0,0,1,1.2,1.2m-2.154,0a.951.951,0,1,0,.951-.964.955.955,0,0,0-.951.964m1.017-.677c.085,0,.485,0,.485.375a.316.316,0,0,1-.255.334v.006c.189.053.224.167.23.343.013.233.013.262.044.318h-.237c-.025-.041-.034-.082-.041-.255-.009-.218-.054-.277-.29-.3h-.281v.551H288.5v-1.376Zm-.344.6h.283c.1,0,.309,0,.309-.22-.016-.145-.161-.161-.277-.161h-.315Z" transform="translate(-240.486 -272.287)" fill="#0064b2"/>
</svg>
