<svg id="logo-vetv" xmlns="http://www.w3.org/2000/svg" width="67.224" height="24" viewBox="0 0 67.224 24">
  <rect id="Rectangle_11" data-name="Rectangle 11" width="67.224" height="24" fill="#fff"/>
  <rect id="Rectangle_12" data-name="Rectangle 12" width="31.925" height="20.603" transform="translate(33.601 1.698)" fill="#0090df"/>
  <rect id="Rectangle_13" data-name="Rectangle 13" width="31.925" height="20.603" transform="translate(1.698 1.698)" fill="#f27c00"/>
  <path id="Path_47" data-name="Path 47" d="M631.666,287.049h-3.472V283.1H639.61v3.948h-3.449V300.7h-4.5" transform="translate(-592.748 -279.849)" fill="#fff"/>
  <path id="Path_48" data-name="Path 48" d="M659.919,283.1l3.544,12.344h.048l3.567-12.344h4.638l-5.9,17.6H661.18l-5.875-17.6" transform="translate(-607.849 -279.849)" fill="#fff"/>
  <path id="Path_49" data-name="Path 49" d="M559.278,283.1l3.544,12.344h.047l3.568-12.344h4.638l-5.9,17.6h-4.638l-5.875-17.6" transform="translate(-551.793 -279.849)" fill="#fff"/>
  <path id="Path_50" data-name="Path 50" d="M602.2,301.527a7.74,7.74,0,0,1-2.688,3.377,6.415,6.415,0,0,1-3.758,1.189,7.041,7.041,0,1,1,6.9-6.874,5.432,5.432,0,0,1-.095,1.046h-9.895a2.961,2.961,0,0,0,3.092,2.5,2.809,2.809,0,0,0,2.4-1.237m.547-3.925a3.117,3.117,0,0,0-5.994,0Z" transform="translate(-570.786 -284.812)" fill="#fff"/>
</svg>
