<svg id="prelanding-illustration" xmlns="http://www.w3.org/2000/svg" xmlns:xlink="http://www.w3.org/1999/xlink" width="328.642" height="200" viewBox="0 0 328.642 200">
  <defs>
    <clipPath id="clip-path">
      <rect id="Rectangle_4413" data-name="Rectangle 4413" width="328.642" height="200" fill="none"/>
    </clipPath>
  </defs>
  <g id="Group_12702" data-name="Group 12702" clip-path="url(#clip-path)">
    <path id="Path_5306" data-name="Path 5306" d="M115.342,146.895c-17.322,36.549-1.244,115.735,95.163,126.1,154.757,16.636,171.4-70.475,164.6-99.92-10.986-47.52-42.233-58.6-65.563-61.037a195.483,195.483,0,0,1-40.273-8.548c-38.507-12.54-119.787-28.617-153.922,43.407" transform="translate(-90.754 -76.915)" fill="#ff1983"/>
    <path id="Path_5307" data-name="Path 5307" d="M777.226,694.494H662.534l5.725-83.476s27.684-17.86,57.934-14.534c18.818,2.069,35.53,12.253,35.53,12.253Z" transform="translate(-550.336 -495.129)"/>
    <path id="Path_5308" data-name="Path 5308" d="M1397.445,990.824a17.247,17.247,0,1,0,17.247-17.247,17.247,17.247,0,0,0-17.247,17.247" transform="translate(-1160.792 -808.705)"/>
    <path id="Path_5309" data-name="Path 5309" d="M1038.446,598.509s29.448.712,62.639,33.036,32.649,46.425,32.649,46.425l-34.493,1.3-48.92-48.9Z" transform="translate(-862.589 -497.154)"/>
    <path id="Path_5310" data-name="Path 5310" d="M1116.488,973.577l.868,34.493h-78.91V986.919s43.982-11.932,78.042-13.342" transform="translate(-862.589 -808.705)"/>
    <path id="Path_5311" data-name="Path 5311" d="M1037.8,988.809l-.332-1.225c.343-.093,34.7-9.35,65.858-12.468l.127,1.263c-31.056,3.107-65.31,12.338-65.652,12.431" transform="translate(-861.774 -809.983)" fill="#fff"/>
    <path id="Path_5312" data-name="Path 5312" d="M486.437,723.557l-41.5,34.573L416.75,733.771s13.236-33.442,49.1-55.662c15.077,31.362,20.588,45.448,20.588,45.448" transform="translate(-346.175 -563.274)"/>
    <path id="Path_5313" data-name="Path 5313" d="M439.122,968.369a18.939,18.939,0,1,1-20.947-16.691,18.939,18.939,0,0,1,20.947,16.691" transform="translate(-333.393 -790.413)"/>
    <path id="Path_5314" data-name="Path 5314" d="M203.182,468.672s-2.3.7-1.512,2.5c1.332,3.059,9.535,13.169,9.535,13.169l4.592-1.525Z" transform="translate(-167.382 -389.304)" fill="#fff"/>
    <path id="Path_5315" data-name="Path 5315" d="M207.88,481.524l-.277-.341c-.337-.415-8.273-10.213-9.624-13.316a2.175,2.175,0,0,1-.03-1.82,3.329,3.329,0,0,1,1.939-1.54l.388-.118L213.8,479.557ZM199.9,465.872a1.724,1.724,0,0,0-.8.71.923.923,0,0,0,.043.779c1.147,2.635,7.736,10.9,9.171,12.681l3.258-1.082Z" transform="translate(-164.273 -385.746)"/>
    <path id="Path_5316" data-name="Path 5316" d="M246.728,442.586l-.293,12.991a73.587,73.587,0,0,1-22.442-4.657c-9.058-3.677-9.386-4.555-9.386-4.555l-9.276-17.456s-.109-2.4,1.637-2.292L205.33,424s0-.008,0-.022a1.667,1.667,0,0,1,2.908-.727c3.856,4.562,14.659,17.12,14.659,17.12s3.274.873,4.365.218c-2.141-5.91-4.954-13.365-6.066-16.3a1.314,1.314,0,0,1,.808-1.71l.023-.008a1.317,1.317,0,0,1,1.535.538l11.012,17.262Z" transform="translate(-170.557 -350.949)" fill="#fff"/>
    <path id="Path_5317" data-name="Path 5317" d="M408.534,547.518a6.5,6.5,0,1,0,6.5-6.5,6.5,6.5,0,0,0-6.5,6.5" transform="translate(-339.35 -449.394)" fill="#fff"/>
    <path id="Path_5318" data-name="Path 5318" d="M241.163,453.073a75.463,75.463,0,0,1-21.756-4.661c-4.14-1.68-9.112-3.856-9.71-4.843h0l-9.609-17.5,0-.167a3.484,3.484,0,0,1,.893-2.308,1.964,1.964,0,0,1,.5-.338l-1.314-2.145.054-.249a2.465,2.465,0,0,1,1.833-1.824,2.272,2.272,0,0,1,2.314.693c3.577,4.232,13.292,15.529,14.532,16.971a11.188,11.188,0,0,0,3.19.374c-2.1-5.771-4.761-12.829-5.836-15.666a1.949,1.949,0,0,1,1.2-2.536,1.956,1.956,0,0,1,2.3.79l10.863,17.029,11.844,2.168a7.161,7.161,0,0,1,6.115,4.583l.766,2.112-1.194.433-.763-2.1a5.883,5.883,0,0,0-5.052-3.761l-.068-.009-12.421-2.274-11.161-17.5a.682.682,0,0,0-.8-.279.693.693,0,0,0-.422.364.671.671,0,0,0-.02.528c1.115,2.944,3.937,10.425,6.069,16.31l.178.492-.448.269c-1.259.755-4.265.008-4.855-.149l-.189-.05-.128-.149c-.108-.126-10.861-12.625-14.669-17.131a1,1,0,0,0-1.037-.281,1.238,1.238,0,0,0-.826.644l2.142,3.495-1.219-.076a.773.773,0,0,0-.611.191,2.107,2.107,0,0,0-.479,1.239l9.418,17.152c.164.154,1.483,1.229,9.092,4.317a74.1,74.1,0,0,0,21.357,4.573Z" transform="translate(-166.201 -347.849)"/>
    <path id="Path_5319" data-name="Path 5319" d="M225.027,463.968,213.8,446.7Z" transform="translate(-177.595 -371.052)" fill="#fff"/>
    <rect id="Rectangle_4402" data-name="Rectangle 4402" width="1.27" height="20.597" transform="matrix(0.838, -0.545, 0.545, 0.838, 35.674, 75.993)"/>
    <path id="Path_5320" data-name="Path 5320" d="M226.434,500.331l-7.655-12.089Z" transform="translate(-181.73 -405.56)" fill="#fff"/>
    <rect id="Rectangle_4403" data-name="Rectangle 4403" width="1.269" height="14.309" transform="translate(36.513 83.022) rotate(-32.342)"/>
    <path id="Path_5321" data-name="Path 5321" d="M417.038,571.345l-13.009,1.368-.919,78.529,35.446,1.3s1.895-52.96-21.519-81.2" transform="translate(-334.845 -474.59)" fill="#fff"/>
    <path id="Path_5322" data-name="Path 5322" d="M436.376,889.795c1.758,11.254,2.763,18.117,2.75,31.528l-37.764-1.4.87-30.125Z" transform="translate(-333.394 -739.111)"/>
    <path id="Path_5323" data-name="Path 5323" d="M414.372,614.7l-4.867-.437.157,5.2Z" transform="translate(-340.157 -510.237)"/>
    <path id="Path_5324" data-name="Path 5324" d="M439.122,968.369a18.939,18.939,0,1,1-20.947-16.691,18.939,18.939,0,0,1,20.947,16.691" transform="translate(-333.393 -790.413)"/>
    <path id="Path_5325" data-name="Path 5325" d="M502.717,644.032c-1.852-50.032-20.039-75.839-23.666-80.5a.953.953,0,0,1-.217-.356l.61-.176.523-.358c.014.019.043.056.086.112,3.669,4.719,22.066,30.816,23.933,81.237Z" transform="translate(-397.745 -467.356)"/>
    <path id="Path_5326" data-name="Path 5326" d="M404.02,691.46l-1.27-.019.522-77.236,1.27.019Z" transform="translate(-334.546 -510.191)"/>
    <path id="Path_5327" data-name="Path 5327" d="M423.622,691.757h24.644l-3.137-8.97H423.622Z" transform="translate(-351.883 -567.16)"/>
    <path id="Path_5328" data-name="Path 5328" d="M384.617,656.294c0,5.483,2.944,10.538,6.563,10.97,6.563.784,9.7-3.82,10-10.454.321-7.072-4.012-10.65-7.647-10.9-7.024-.481-8.913,4.9-8.913,10.383" transform="translate(-319.483 -536.503)"/>
    <path id="Path_5329" data-name="Path 5329" d="M387.132,660.56c0,5.483,2.954,9.928,6.6,9.928s6.6-4.445,6.6-9.928-2.954-9.928-6.6-9.928-6.6,4.445-6.6,9.928" transform="translate(-321.573 -540.45)" fill="#fff"/>
    <path id="Path_5330" data-name="Path 5330" d="M390.617,668.009c-3.988,0-7.233-4.739-7.233-10.563s3.245-10.563,7.233-10.563,7.233,4.739,7.233,10.563-3.245,10.563-7.233,10.563m0-19.857c-3.288,0-5.964,4.169-5.964,9.294s2.675,9.294,5.964,9.294,5.963-4.169,5.963-9.294-2.675-9.294-5.963-9.294" transform="translate(-318.459 -537.335)"/>
    <path id="Path_5331" data-name="Path 5331" d="M919.154,480.581l1.79,17.572,2.278.326s6.294,7.051-7.81,9.6c-10.692,1.932-15.782-4.393-17.572-7.973l2.278-.325.163-21.965Z" transform="translate(-745.794 -396.899)" fill="#fff"/>
    <path id="Path_5332" data-name="Path 5332" d="M897.489,497.3l-.18-1.257c.539-.077,1.267-.243,1.737-.357l.164-22.2,20.086,2.943,1.789,17.865,1.786.255-.179,1.257-2.77-.4-1.79-17.868-17.662-2.588-.161,21.722-.471.123c-.057.015-1.42.37-2.348.5" transform="translate(-745.353 -393.299)"/>
    <path id="Path_5333" data-name="Path 5333" d="M1019.5,363c-1.986-4.964-.958-10.043,2.3-11.345s7.5,1.667,9.488,6.631.958,10.044-2.3,11.345-7.5-1.667-9.488-6.631" transform="translate(-846.01 -291.853)"/>
    <path id="Path_5334" data-name="Path 5334" d="M855.769,302.106s8.135,16.759,23.755,13.179,3.417-30.426-1.627-36.121c-5.746-6.487-15.131-10.413-23.429-2.929-8.493,7.66-1.79,19.2,1.3,25.87" transform="translate(-706.326 -226.071)" fill="#fff"/>
    <path id="Path_5335" data-name="Path 5335" d="M872.031,313.3a18.164,18.164,0,0,1-5.788-.941l.4-1.2a17.438,17.438,0,0,0,9.552.392,8.382,8.382,0,0,0,6.558-5.853c2.825-8.81-4.619-24.826-8.519-29.228-3.6-4.062-8.125-6.529-12.421-6.77a13.658,13.658,0,0,0-10.108,3.892c-7.4,6.673-2.6,16.662.569,23.272.314.653.612,1.275.883,1.859a38.561,38.561,0,0,0,5.538,7.41l-.907.889a38.975,38.975,0,0,1-5.765-7.728c-.287-.616-.583-1.233-.894-1.881-3.337-6.951-8.379-17.455-.275-24.764a14.883,14.883,0,0,1,11.029-4.217c4.633.26,9.48,2.883,13.3,7.2,4.158,4.7,11.787,21.071,8.777,30.458a9.578,9.578,0,0,1-7.483,6.7,19.893,19.893,0,0,1-4.451.516" transform="translate(-703.143 -222.955)"/>
    <path id="Path_5336" data-name="Path 5336" d="M973.645,435.562c-1.429,0-3.4-1.007-4.66-3.833l-.271-.611.624-.24c2.072-.8,8.038-3.536,8.1-3.564l.86-.4.237,5.7-.823-.206a1.613,1.613,0,0,0-.318-.03c-.685,0-1.059.361-1.179,1.137a2.451,2.451,0,0,1-2.567,2.042m-3.209-3.755c.984,1.82,2.274,2.486,3.209,2.486a1.2,1.2,0,0,0,1.313-.965,2.373,2.373,0,0,1,2.242-2.208l-.094-2.258c-1.549.706-4.8,2.178-6.669,2.945" transform="translate(-804.666 -354.623)"/>
    <path id="Path_5337" data-name="Path 5337" d="M978.306,401.291l-.674-1.076a6.179,6.179,0,0,1,.808-.426,4.571,4.571,0,0,0-.85-1.58l-1.908-2.655,1.031-.741,1.908,2.656a4.506,4.506,0,0,1,1.12,2.774l-.021.429-.406.14a4.9,4.9,0,0,0-1.007.481" transform="translate(-810.454 -327.952)"/>
    <path id="Path_5338" data-name="Path 5338" d="M921.989,407.409l-1.128-.583c.113-.218.212-.449.317-.694a5.788,5.788,0,0,1,.919-1.622,3.361,3.361,0,0,1,4.312-.536l-.718,1.047a2.085,2.085,0,0,0-2.64.329,4.769,4.769,0,0,0-.705,1.283c-.109.255-.222.518-.356.777" transform="translate(-764.916 -335.105)"/>
    <path id="Path_5339" data-name="Path 5339" d="M1010.278,382.712l-1.215-.367a3.419,3.419,0,0,1,5.364-1.718l-.776,1a2.15,2.15,0,0,0-3.373,1.08" transform="translate(-838.182 -315.58)"/>
    <path id="Path_5340" data-name="Path 5340" d="M850.844,196.694s2.278-3.254,4.719-.976,3.579,11.389-.326,15.945-8.786,4.556-10.088,2.44-3.254-12.528,0-11.715,1.464,16.27-4.23,17.247-9.111-7.322-7.322-7.647-.976,9.6-4.393,9.6c-1.952.163-2.6-2.766-2.6-2.766s2.441,19.524-5.369,18.711c-11.58-11.648-10.2-20.089-8.894-24.319s8.732-8.222,12.637-8.059c.163-4.881,6.256-9.162,7.647-3.9,1.464,5.532-1.953,12.04-1.627,7.322s5.17-15.382,8.135-8.3c2.929,7-4.576,12.142,2.441-4.068,4.718-10.9,9.274.488,9.274.488" transform="translate(-674.067 -159.057)" fill="#fff"/>
    <path id="Path_5341" data-name="Path 5341" d="M815.242,235.079a5.053,5.053,0,0,1-.53-.028l-.223-.023-.159-.158c-12.707-12.656-11.493-20.035-9.016-25.05,2.522-5.1,8.447-8.3,12.62-8.418.427-3.459,3.384-6.31,5.75-6.31a3.03,3.03,0,0,1,2.894,2.251c.91-1.552,2.229-3.179,3.755-3.179,1.078,0,1.994.775,2.728,2.307.419-1.122.911-2.337,1.471-3.631,1.487-3.435,3.11-5.1,4.964-5.1,2.363,0,4.149,2.837,5.065,4.694.015-.016.029-.029.042-.041a4.051,4.051,0,0,1,2.675-1.228,3.28,3.28,0,0,1,2.262.98c2.816,2.629,3.757,12.116-.276,16.822-2.195,2.561-4.938,4.029-7.527,4.029a4.878,4.878,0,0,1-2.478-.608c-.9,2.1-2.383,4.368-4.688,4.763a6.144,6.144,0,0,1-1.034.089,7.509,7.509,0,0,1-6-3.595c-.865,2.392-2.538,5.443-4.76,5.467a2.372,2.372,0,0,1-1.743-.572c.262,4.217.3,11.847-2.511,15.027a4.228,4.228,0,0,1-3.279,1.515Zm-.182-1.274c.061,0,.122,0,.182,0h0a2.968,2.968,0,0,0,2.327-1.086c3.518-3.986,1.963-16.807,1.947-16.936l1.25-.216c.005.022.574,2.385,1.931,2.271l.053,0c1.468,0,3.156-2.908,3.934-5.684-.335-.722-.959-2.314-.478-3.276a1.135,1.135,0,0,1,.823-.629.967.967,0,0,1,.986.375c.528.685.319,2.175.019,3.392,1,1.868,2.988,3.95,5.5,3.95a4.861,4.861,0,0,0,.819-.071c1.5-.257,2.878-1.821,3.9-4.416q-.055-.077-.1-.158c-1.1-1.782-2.745-9.234-1.332-11.763a1.728,1.728,0,0,1,2.026-.9,2.161,2.161,0,0,1,1.362,1.192c1.142,2.164.909,7.259-.486,11.32a3.48,3.48,0,0,0,2.013.55c2.185,0,4.638-1.34,6.563-3.586,3.656-4.266,2.564-13.024.374-15.068a2.034,2.034,0,0,0-1.4-.638,2.766,2.766,0,0,0-1.742.824,5.091,5.091,0,0,0-.185.7c2.348,4.615,2.09,6.029,1.686,6.691a1.472,1.472,0,0,1-1.318.683,1.562,1.562,0,0,1-1.234-.6c-1.24-1.5-.635-5.578-.462-6.585-.145-.278-.267-.506-.353-.666-.074-.138-.123-.231-.141-.268-.469-.986-2.147-4.2-4.033-4.2-1.257,0-2.57,1.5-3.8,4.339-.8,1.85-1.459,3.533-1.96,5.005a7.287,7.287,0,0,1-.568,5.623,1.071,1.071,0,0,1-.85.5h0a.836.836,0,0,1-.68-.36c-.64-.889.05-3.6.773-5.8a8.824,8.824,0,0,0-.323-.907c-.376-.9-.987-1.972-1.755-1.972-.93,0-2.187,1.438-3.3,3.766.495,3.355-.482,7.009-1.4,8.091a1.044,1.044,0,0,1-.793.429h0a.811.811,0,0,1-.6-.264c-.311-.333-.411-.943-.336-2.04a20.516,20.516,0,0,1,1.808-6.4c-.046-.246-.1-.487-.161-.72-.34-1.286-.969-1.937-1.869-1.937-1.9,0-4.432,2.765-4.53,5.7l-.021.645-.644-.032q-.157-.008-.319-.008c-3.819,0-9.438,3.1-11.717,7.714-1.465,2.966-4.889,9.9,8.608,23.423m23.291-33.94c-.085,0-.244,0-.42.314-.922,1.651-.012,7.127.9,9.6,1.006-3.529,1.156-7.626.255-9.331a1.04,1.04,0,0,0-.547-.554.8.8,0,0,0-.19-.026M825.858,202.2a15.45,15.45,0,0,0-.681,3.242,12.808,12.808,0,0,0,.681-3.242m19.18-5.962c-.119,1.615-.014,3.146.426,3.68a.3.3,0,0,0,.256.136c.189,0,.22-.05.234-.074.05-.082.381-.8-.916-3.742" transform="translate(-667.612 -155.944)"/>
    <path id="Path_5342" data-name="Path 5342" d="M847.5,271.7s-5.369,10.25-3.417,25.545c-4.393.326-5.207-.163-5.207-.163s-2.115-15.131,5.532-24.731a3.685,3.685,0,0,1,3.091-.651" transform="translate(-696.594 -225.601)"/>
    <path id="Path_5343" data-name="Path 5343" d="M829.265,402.4c-1.986-4.964-.958-10.043,2.3-11.345s7.5,1.667,9.488,6.631.958,10.044-2.3,11.345-7.5-1.667-9.488-6.631" transform="translate(-687.991 -324.574)"/>
    <path id="Path_5344" data-name="Path 5344" d="M1038.306,414.486l-.071-1.268c9.9-.559,16.591-3.517,17.431-5.348a.521.521,0,0,0-.048-.609c-1.353-1.763-6.018-2.44-7.7-2.553l.084-1.267c.27.018,6.644.468,8.624,3.046a1.79,1.79,0,0,1,.195,1.912c-1.308,2.854-9.613,5.585-18.513,6.087" transform="translate(-862.413 -335.12)"/>
    <path id="Path_5345" data-name="Path 5345" d="M1012.651,448.619c0,1.652,1.767,2.99,3.946,2.99s3.946-1.339,3.946-2.99-1.767-2.991-3.946-2.991-3.946,1.339-3.946,2.991" transform="translate(-841.162 -370.162)"/>
    <path id="Path_5346" data-name="Path 5346" d="M977.314,529.092l-.417-3.809s-5.447,1.463-10.2-.091c3.868,4.02,10.615,3.9,10.615,3.9" transform="translate(-802.992 -436.253)"/>
    <path id="Path_5347" data-name="Path 5347" d="M1287.4,393.63h25.941a6.733,6.733,0,0,0,6.733-6.733v-3.584a6.733,6.733,0,0,0-6.733-6.733H1287.4a6.733,6.733,0,0,0-6.733,6.733V386.9a6.733,6.733,0,0,0,6.733,6.733" transform="translate(-1063.794 -312.807)" fill="#fff"/>
    <path id="Path_5348" data-name="Path 5348" d="M1310.231,391.15H1284.29a7.376,7.376,0,0,1-7.368-7.368V380.2a7.377,7.377,0,0,1,7.368-7.368h25.941a7.376,7.376,0,0,1,7.368,7.368v3.584a7.376,7.376,0,0,1-7.368,7.368M1284.29,374.1a6.105,6.105,0,0,0-6.1,6.1v3.584a6.105,6.105,0,0,0,6.1,6.1h25.941a6.105,6.105,0,0,0,6.1-6.1V380.2a6.105,6.105,0,0,0-6.1-6.1Z" transform="translate(-1060.68 -309.693)"/>
    <path id="Path_5349" data-name="Path 5349" d="M1497.954,579.495h63.731V562.2a7.366,7.366,0,0,0-7.366-7.366h-56.365a7.366,7.366,0,0,0-7.366,7.366v9.928a7.366,7.366,0,0,0,7.366,7.366" transform="translate(-1238.162 -460.876)" fill="#fff"/>
    <path id="Path_5350" data-name="Path 5350" d="M1559.207,577.016h-64.366a8.01,8.01,0,0,1-8-8v-9.928a8.01,8.01,0,0,1,8-8h56.365a8.01,8.01,0,0,1,8,8Zm-64.366-24.66a6.739,6.739,0,0,0-6.731,6.731v9.928a6.739,6.739,0,0,0,6.731,6.731h63.1V559.087a6.739,6.739,0,0,0-6.731-6.731Z" transform="translate(-1235.049 -457.761)"/>
    <rect id="Rectangle_4404" data-name="Rectangle 4404" width="53.448" height="1.27" transform="translate(260.361 101.384)"/>
    <rect id="Rectangle_4405" data-name="Rectangle 4405" width="53.448" height="1.27" transform="translate(260.361 105.654)"/>
    <rect id="Rectangle_4406" data-name="Rectangle 4406" width="32.56" height="1.27" transform="translate(281.249 110.2)"/>
    <path id="Path_5351" data-name="Path 5351" d="M1339.328,117.425h-58.657V89.778a12.44,12.44,0,0,1,12.44-12.44h46.217a12.44,12.44,0,0,1,12.44,12.44v15.207a12.44,12.44,0,0,1-12.44,12.44" transform="translate(-1063.794 -64.241)" fill="#fff"/>
    <path id="Path_5352" data-name="Path 5352" d="M1336.214,114.947h-59.292V86.665A13.09,13.09,0,0,1,1290,73.59h46.218a13.09,13.09,0,0,1,13.075,13.075v15.207a13.09,13.09,0,0,1-13.075,13.075m-58.023-1.27h58.023a11.819,11.819,0,0,0,11.805-11.805V86.665a11.819,11.819,0,0,0-11.805-11.805H1290a11.819,11.819,0,0,0-11.805,11.805Z" transform="translate(-1060.68 -61.128)"/>
    <rect id="Rectangle_4407" data-name="Rectangle 4407" width="53.448" height="1.27" transform="translate(225.702 21.406)"/>
    <rect id="Rectangle_4408" data-name="Rectangle 4408" width="53.448" height="1.27" transform="translate(225.702 25.676)"/>
    <rect id="Rectangle_4409" data-name="Rectangle 4409" width="18.951" height="1.27" transform="translate(260.199 35.085)"/>
    <rect id="Rectangle_4410" data-name="Rectangle 4410" width="53.448" height="1.27" transform="translate(225.702 39.355)"/>
    <rect id="Rectangle_4411" data-name="Rectangle 4411" width="53.448" height="1.27" transform="translate(225.702 44.077)"/>
    <path id="Path_5353" data-name="Path 5353" d="M64.956,388.172q-.3,0-.6-.006a.634.634,0,0,1-.623-.647.624.624,0,0,1,.647-.623q.812.015,1.66-.012a.635.635,0,1,1,.041,1.269q-.567.019-1.12.019m-2.7-.122-.06,0c-.59-.055-1.17-.13-1.723-.222a.635.635,0,0,1,.208-1.252c.524.087,1.073.158,1.634.21a.635.635,0,0,1-.058,1.267m5.915-.025a.635.635,0,0,1-.055-1.267c.538-.047,1.1-.107,1.659-.178a.635.635,0,1,1,.16,1.259c-.578.073-1.153.135-1.708.183l-.056,0m3.776-.491a.635.635,0,0,1-.106-1.261q.812-.138,1.645-.306a.635.635,0,0,1,.25,1.245q-.852.171-1.683.313a.64.64,0,0,1-.107.009m-13.435-.153a.64.64,0,0,1-.17-.023,17.246,17.246,0,0,1-1.667-.554.635.635,0,0,1,.463-1.182,15.906,15.906,0,0,0,1.544.513.635.635,0,0,1-.169,1.247m17.166-.61a.635.635,0,0,1-.146-1.253q.805-.191,1.627-.408a.635.635,0,0,1,.324,1.228q-.837.22-1.657.415a.636.636,0,0,1-.147.017M55,385.935a.63.63,0,0,1-.318-.086,12.707,12.707,0,0,1-1.475-1,.635.635,0,0,1,.785-1,11.421,11.421,0,0,0,1.326.9A.635.635,0,0,1,55,385.935m24.359-.142a.635.635,0,0,1-.179-1.244q.8-.234,1.606-.491a.635.635,0,0,1,.384,1.21q-.823.261-1.632.5a.639.639,0,0,1-.179.026M52.068,383.53a.633.633,0,0,1-.481-.22q-.2-.232-.388-.475a11.485,11.485,0,0,1-.671-.968.635.635,0,0,1,1.079-.669,10.3,10.3,0,0,0,.6.86c.111.143.226.285.345.422a.635.635,0,0,1-.48,1.05m-1.935-3.257a.635.635,0,0,1-.593-.408,13.169,13.169,0,0,1-.518-1.7.635.635,0,1,1,1.236-.288,11.866,11.866,0,0,0,.468,1.535.635.635,0,0,1-.593.862m-.818-3.707a.635.635,0,0,1-.632-.582c-.041-.484-.061-.987-.061-1.495l0-.257a.635.635,0,1,1,1.27.016l0,.241c0,.472.019.939.057,1.388a.634.634,0,0,1-.579.685.52.52,0,0,1-.054,0m.083-3.8a.592.592,0,0,1-.073,0,.635.635,0,0,1-.558-.7c.064-.559.151-1.136.258-1.716a.635.635,0,1,1,1.248.23c-.1.552-.184,1.1-.245,1.631a.635.635,0,0,1-.63.562m.71-3.738a.635.635,0,0,1-.615-.794c.141-.542.3-1.1.474-1.657a.635.635,0,0,1,1.212.378c-.168.537-.322,1.075-.457,1.6a.635.635,0,0,1-.614.476m1.149-3.629a.635.635,0,0,1-.6-.856c.2-.526.406-1.064.627-1.6a.635.635,0,0,1,1.173.486c-.215.519-.42,1.042-.61,1.553a.635.635,0,0,1-.6.414m1.541-3.478a.635.635,0,0,1-.564-.925l.774-1.506a.635.635,0,0,1,1.129.58l-.774,1.506a.635.635,0,0,1-.565.345m1.741-3.388a.635.635,0,0,1-.564-.925l.774-1.506a.635.635,0,1,1,1.129.58l-.774,1.505a.635.635,0,0,1-.565.345m1.741-3.387a.635.635,0,0,1-.564-.925l.774-1.505a.635.635,0,0,1,1.129.58l-.774,1.506a.634.634,0,0,1-.565.345" transform="translate(-40.387 -292.696)"/>
    <path id="Path_5354" data-name="Path 5354" d="M152.46,118.544A46.238,46.238,0,1,1,198.7,72.305a46.291,46.291,0,0,1-46.238,46.238m0-91.207a44.969,44.969,0,1,0,44.969,44.969A45.02,45.02,0,0,0,152.46,27.337" transform="translate(-88.233 -21.653)"/>
    <path id="Path_5355" data-name="Path 5355" d="M251.823,287.873a.635.635,0,0,1-.211-1.234q.728-.256,1.466-.53a.635.635,0,1,1,.441,1.19q-.747.277-1.485.537a.639.639,0,0,1-.211.036m3.452-1.29a.635.635,0,0,1-.233-1.225q.776-.306,1.56-.631a.635.635,0,1,1,.485,1.173q-.793.328-1.579.638a.632.632,0,0,1-.233.045m3.517-1.462a.635.635,0,0,1-.254-1.217q.766-.334,1.539-.684a.635.635,0,1,1,.524,1.156q-.781.354-1.555.692a.636.636,0,0,1-.253.053m3.466-1.578a.635.635,0,0,1-.272-1.209q.755-.358,1.517-.732a.635.635,0,1,1,.559,1.14q-.769.377-1.532.739a.635.635,0,0,1-.272.061m3.417-1.683a.635.635,0,0,1-.289-1.2q.746-.381,1.5-.775a.635.635,0,1,1,.591,1.123q-.757.4-1.51.783a.633.633,0,0,1-.288.07m3.368-1.779a.635.635,0,0,1-.3-1.192q.736-.4,1.475-.816a.635.635,0,1,1,.621,1.107q-.746.418-1.488.823a.633.633,0,0,1-.3.078m3.32-1.867a.635.635,0,0,1-.319-1.184q.726-.421,1.454-.853a.635.635,0,1,1,.648,1.091q-.734.436-1.466.86a.631.631,0,0,1-.318.086m3.271-1.951a.635.635,0,0,1-.332-1.176q.716-.438,1.433-.888a.635.635,0,0,1,.675,1.075q-.723.454-1.445.9a.634.634,0,0,1-.331.093m3.224-2.028a.635.635,0,0,1-.345-1.168q.706-.455,1.412-.922a.635.635,0,0,1,.7,1.059q-.712.47-1.423.929a.63.63,0,0,1-.344.1m3.176-2.1a.635.635,0,0,1-.357-1.16q.7-.472,1.391-.954a.635.635,0,1,1,.723,1.044q-.7.486-1.4.961a.632.632,0,0,1-.356.11m3.128-2.173a.635.635,0,0,1-.368-1.152q.685-.487,1.37-.984a.635.635,0,0,1,.745,1.027q-.69.5-1.38.991a.631.631,0,0,1-.367.117m3.08-2.241a.635.635,0,0,1-.38-1.144q.675-.5,1.349-1.014a.635.635,0,0,1,.767,1.011q-.678.515-1.358,1.021a.632.632,0,0,1-.378.126m3.031-2.307a.635.635,0,0,1-.39-1.136q.667-.519,1.325-1.041a.635.635,0,0,1,.789.995q-.663.526-1.334,1.048a.631.631,0,0,1-.389.134m2.98-2.369a.635.635,0,0,1-.4-1.127q.656-.534,1.3-1.071a.635.635,0,0,1,.81.977q-.652.54-1.313,1.078a.631.631,0,0,1-.4.142m2.929-2.435a.635.635,0,0,1-.411-1.119q.645-.548,1.28-1.1a.635.635,0,0,1,.832.959q-.64.554-1.289,1.107a.633.633,0,0,1-.411.151m2.875-2.5a.635.635,0,0,1-.422-1.109q.633-.562,1.254-1.127a.635.635,0,0,1,.854.94q-.627.569-1.265,1.135a.632.632,0,0,1-.422.16m2.818-2.563a.635.635,0,0,1-.433-1.1q.62-.578,1.228-1.155a.635.635,0,1,1,.875.92q-.613.583-1.238,1.165a.633.633,0,0,1-.432.17m2.757-2.628a.635.635,0,0,1-.443-1.089q.606-.592,1.2-1.184a.635.635,0,0,1,.9.9q-.6.6-1.21,1.194a.633.633,0,0,1-.444.181m2.691-2.695a.635.635,0,0,1-.455-1.078q.591-.607,1.17-1.214a.635.635,0,0,1,.919.875q-.583.612-1.179,1.225a.634.634,0,0,1-.455.192m2.622-2.762a.635.635,0,0,1-.466-1.066q.575-.622,1.136-1.244a.635.635,0,1,1,.943.85q-.566.628-1.147,1.256a.633.633,0,0,1-.466.2m2.547-2.832a.635.635,0,0,1-.478-1.053q.558-.638,1.1-1.275a.635.635,0,0,1,.967.823q-.548.643-1.112,1.288a.633.633,0,0,1-.478.217m2.464-2.9a.635.635,0,0,1-.49-1.038q.539-.655,1.06-1.308a.635.635,0,0,1,.992.792q-.527.66-1.072,1.322a.634.634,0,0,1-.491.232m2.372-2.98a.635.635,0,0,1-.5-1.022q.517-.672,1.016-1.342a.635.635,0,0,1,1.018.758q-.5.677-1.028,1.358a.634.634,0,0,1-.5.248" transform="translate(-208.651 -196.138)"/>
    <path id="Path_5356" data-name="Path 5356" d="M512.942,40.986a.635.635,0,0,1-.5-1.023q.519-.672,1.015-1.34a.635.635,0,0,1,1.019.757q-.5.678-1.029,1.359a.634.634,0,0,1-.5.247m2.261-3.064a.635.635,0,0,1-.519-1q.488-.695.951-1.384a.635.635,0,0,1,1.054.708q-.47.7-.967,1.406a.634.634,0,0,1-.52.27m2.114-3.168a.635.635,0,0,1-.536-.974q.453-.718.878-1.429a.635.635,0,1,1,1.09.651q-.432.724-.894,1.456a.634.634,0,0,1-.537.3m1.941-3.276a.635.635,0,0,1-.555-.942q.411-.743.791-1.477a.635.635,0,0,1,1.128.584q-.387.749-.808,1.508a.634.634,0,0,1-.556.328m1.736-3.39a.635.635,0,0,1-.574-.9c.239-.509.469-1.022.685-1.524a.635.635,0,0,1,1.167.5c-.221.516-.458,1.042-.7,1.563a.635.635,0,0,1-.575.365m1.483-3.507a.635.635,0,0,1-.594-.858c.2-.525.382-1.054.552-1.572a.635.635,0,1,1,1.206.4c-.175.535-.367,1.08-.57,1.622a.634.634,0,0,1-.594.412m1.163-3.625a.636.636,0,0,1-.614-.8c.143-.542.271-1.085.38-1.614a.635.635,0,1,1,1.243.257c-.114.551-.247,1.116-.4,1.681a.635.635,0,0,1-.613.473m.738-3.734a.681.681,0,0,1-.081,0,.635.635,0,0,1-.55-.71c.07-.556.12-1.107.148-1.639a.635.635,0,1,1,1.268.067c-.03.563-.082,1.145-.157,1.731a.635.635,0,0,1-.629.555m.151-3.8a.635.635,0,0,1-.633-.6,15.681,15.681,0,0,0-.173-1.617.635.635,0,1,1,1.253-.2,17,17,0,0,1,.187,1.748.635.635,0,0,1-.6.669h-.036m-.672-3.737a.635.635,0,0,1-.6-.438,11.091,11.091,0,0,0-.6-1.482A.635.635,0,1,1,523.79,7.2a12.412,12.412,0,0,1,.672,1.651.635.635,0,0,1-.6.832m-39.224-2.5a.635.635,0,0,1-.246-1.22q.791-.333,1.575-.648a.635.635,0,0,1,.474,1.178q-.774.311-1.556.641a.636.636,0,0,1-.246.05M522.1,6.329a.634.634,0,0,1-.5-.245,10.238,10.238,0,0,0-1.072-1.175.635.635,0,0,1,.868-.926A11.469,11.469,0,0,1,522.6,5.3a.635.635,0,0,1-.5,1.024M488.17,5.77a.635.635,0,0,1-.225-1.229q.8-.3,1.6-.589a.635.635,0,1,1,.429,1.2q-.784.281-1.578.581a.631.631,0,0,1-.225.041m3.588-1.276a.635.635,0,0,1-.2-1.237q.818-.272,1.624-.522a.635.635,0,0,1,.376,1.213q-.794.246-1.6.514a.635.635,0,0,1-.2.033m27.534-.709a.631.631,0,0,1-.342-.1,12.436,12.436,0,0,0-1.41-.775.635.635,0,0,1,.54-1.149,13.669,13.669,0,0,1,1.554.855.635.635,0,0,1-.343,1.169M495.4,3.377a.635.635,0,0,1-.171-1.246q.833-.233,1.65-.442a.635.635,0,1,1,.314,1.23q-.8.2-1.62.434a.636.636,0,0,1-.172.024m3.693-.929a.635.635,0,0,1-.136-1.255q.847-.187,1.675-.346a.635.635,0,0,1,.239,1.247q-.811.155-1.64.339a.638.638,0,0,1-.138.015m16.747-.239a.633.633,0,0,1-.189-.029c-.5-.157-1.036-.3-1.581-.412a.635.635,0,1,1,.265-1.241c.583.125,1.153.273,1.693.441a.635.635,0,0,1-.188,1.241m-13-.46a.635.635,0,0,1-.094-1.262c.576-.087,1.148-.163,1.7-.226a.635.635,0,0,1,.144,1.261c-.537.061-1.094.135-1.655.22a.63.63,0,0,1-.1.007m9.28-.306a.641.641,0,0,1-.074,0c-.529-.061-1.083-.107-1.646-.136A.635.635,0,0,1,510.46.035c.59.03,1.171.078,1.727.143a.635.635,0,0,1-.072,1.265m-5.494-.105A.635.635,0,0,1,506.581.07c.584-.037,1.164-.06,1.721-.07h.011a.635.635,0,0,1,.01,1.27c-.538.009-1.1.031-1.662.067h-.041" transform="translate(-402.035)"/>
    <path id="Path_5357" data-name="Path 5357" d="M559.94,445.842h-.029c-.55-.025-1.133-.074-1.733-.146a.635.635,0,0,1,.151-1.26c.569.068,1.121.115,1.639.138a.635.635,0,0,1-.028,1.269m2.113-.034a.635.635,0,0,1-.055-1.267,9.952,9.952,0,0,0,1.567-.256.635.635,0,1,1,.313,1.23,11.158,11.158,0,0,1-1.769.291l-.056,0m-5.889-.436a.625.625,0,0,1-.119-.011c-.543-.1-1.109-.225-1.682-.359a.635.635,0,1,1,.29-1.236c.555.13,1.1.247,1.629.348a.635.635,0,0,1-.118,1.259m9.5-.652a.635.635,0,0,1-.344-1.168,4.032,4.032,0,0,0,1.04-.952l.027-.036a.635.635,0,1,1,1.021.754l-.038.051a5.3,5.3,0,0,1-1.362,1.251.632.632,0,0,1-.343.1m-13.2-.231a.633.633,0,0,1-.172-.024q-.8-.226-1.64-.487a.635.635,0,1,1,.378-1.212q.819.256,1.605.477a.635.635,0,0,1-.172,1.246m-3.633-1.145a.632.632,0,0,1-.208-.035q-.791-.274-1.606-.575a.635.635,0,0,1,.441-1.191q.8.3,1.581.566a.635.635,0,0,1-.208,1.235m-3.569-1.329a.632.632,0,0,1-.234-.045q-.779-.308-1.578-.641a.635.635,0,0,1,.488-1.172q.788.328,1.558.633a.635.635,0,0,1-.234,1.225m22.476-.365a.651.651,0,0,1-.128-.013.635.635,0,0,1-.495-.749,6.222,6.222,0,0,0,.118-1.244c0-.1,0-.191-.005-.288a.635.635,0,0,1,.61-.658.641.641,0,0,1,.658.611c0,.113.006.225.006.336a7.5,7.5,0,0,1-.144,1.5.635.635,0,0,1-.621.508m-25.99-1.1a.634.634,0,0,1-.254-.053q-.769-.337-1.553-.694a.635.635,0,0,1,.525-1.156q.776.353,1.538.687a.635.635,0,0,1-.255,1.217m25.822-2.671a.635.635,0,0,1-.618-.493c-.114-.5-.264-1.024-.447-1.567a.635.635,0,0,1,1.2-.4c.2.583.358,1.151.48,1.688a.636.636,0,0,1-.619.777m-1.228-3.6a.635.635,0,0,1-.582-.381c-.212-.486-.45-.991-.706-1.5a.635.635,0,0,1,1.135-.569c.266.531.513,1.057.734,1.563a.635.635,0,0,1-.581.889m-1.718-3.4a.634.634,0,0,1-.553-.322q-.4-.707-.85-1.44a.635.635,0,0,1,1.083-.663q.46.751.871,1.476a.635.635,0,0,1-.551.948m-2-3.242a.634.634,0,0,1-.53-.284q-.453-.685-.943-1.388a.635.635,0,0,1,1.042-.725q.5.716.96,1.413a.635.635,0,0,1-.529.985m-2.184-3.121a.634.634,0,0,1-.512-.259q-.49-.665-1.009-1.345a.635.635,0,1,1,1.009-.77q.526.689,1.022,1.364a.635.635,0,0,1-.511,1.011m-2.317-3.023a.633.633,0,0,1-.5-.239q-.517-.649-1.059-1.309a.635.635,0,0,1,.982-.805q.547.667,1.07,1.323a.635.635,0,0,1-.5,1.03" transform="translate(-448.19 -347.968)"/>
    <path id="Path_5358" data-name="Path 5358" d="M190.717,286.66a.63.63,0,0,1-.275-.063l-.292-.141a.635.635,0,1,1,.555-1.142l.288.139a.635.635,0,0,1-.276,1.207m-2.188-1.078a.632.632,0,0,1-.285-.068q-.752-.377-1.514-.77a.635.635,0,1,1,.581-1.129q.757.39,1.5.764a.635.635,0,0,1-.285,1.2m-3.385-1.746a.63.63,0,0,1-.3-.074q-.744-.394-1.5-.8a.635.635,0,0,1,.6-1.117q.748.4,1.488.8a.635.635,0,0,1-.3,1.2m-3.349-1.815a.633.633,0,0,1-.307-.08q-.737-.409-1.482-.83a.635.635,0,0,1,.625-1.105q.74.418,1.472.825a.635.635,0,0,1-.309,1.19m-3.314-1.878a.633.633,0,0,1-.317-.086q-.73-.422-1.466-.856a.635.635,0,1,1,.644-1.094q.732.431,1.458.851a.635.635,0,0,1-.319,1.184m-3.281-1.935a.631.631,0,0,1-.326-.091q-.723-.435-1.451-.88a.635.635,0,1,1,.662-1.083q.725.443,1.444.876a.635.635,0,0,1-.328,1.179m-3.248-1.989a.632.632,0,0,1-.335-.1q-.716-.447-1.437-.9a.635.635,0,0,1,.679-1.073q.717.454,1.43.9a.635.635,0,0,1-.336,1.173m-3.217-2.04a.631.631,0,0,1-.343-.1q-.71-.458-1.424-.925a.635.635,0,1,1,.7-1.062q.71.464,1.416.92a.635.635,0,0,1-.344,1.168m-3.186-2.088a.633.633,0,0,1-.352-.107q-.7-.468-1.409-.945a.635.635,0,1,1,.71-1.052q.7.475,1.4.941a.635.635,0,0,1-.353,1.163m-3.155-2.135a.632.632,0,0,1-.359-.112q-.7-.479-1.4-.965a.635.635,0,1,1,.726-1.042q.7.484,1.389.961a.635.635,0,0,1-.36,1.158m-3.124-2.179a.632.632,0,0,1-.366-.117q-.69-.489-1.382-.985a.635.635,0,1,1,.74-1.031q.689.494,1.376.98a.635.635,0,0,1-.368,1.153m-3.093-2.222a.633.633,0,0,1-.373-.122q-.683-.5-1.368-1a.635.635,0,1,1,.754-1.021q.681.5,1.362,1a.635.635,0,0,1-.375,1.148m-3.062-2.265a.632.632,0,0,1-.381-.127q-.677-.508-1.354-1.023a.635.635,0,1,1,.768-1.011q.674.512,1.348,1.018a.635.635,0,0,1-.381,1.142m-3.031-2.307a.632.632,0,0,1-.387-.132q-.679-.522-1.341-1.036a.635.635,0,1,1,.778-1q.66.513,1.337,1.033a.635.635,0,0,1-.387,1.138m-3.007-2.336a.632.632,0,0,1-.392-.135q-.673-.529-1.331-1.049a.635.635,0,1,1,.788-1q.656.519,1.328,1.046a.635.635,0,0,1-.392,1.134m-2.984-2.365a.632.632,0,0,1-.4-.14q-.668-.536-1.32-1.064a.635.635,0,0,1,.8-.987q.65.526,1.315,1.06a.635.635,0,0,1-.4,1.13m-2.958-2.4a.633.633,0,0,1-.4-.144q-.662-.544-1.308-1.08a.635.635,0,0,1,.811-.977q.643.534,1.3,1.076a.635.635,0,0,1-.4,1.125m-2.927-2.436a.632.632,0,0,1-.409-.15q-.655-.552-1.293-1.1a.635.635,0,0,1,.825-.965q.636.543,1.287,1.093a.635.635,0,0,1-.41,1.12m-2.893-2.476a.633.633,0,0,1-.416-.155q-.646-.561-1.277-1.118a.635.635,0,0,1,.84-.952q.627.553,1.27,1.111a.635.635,0,0,1-.417,1.114m-2.853-2.521a.633.633,0,0,1-.424-.162q-.637-.572-1.258-1.139a.635.635,0,1,1,.855-.938q.619.564,1.252,1.132a.635.635,0,0,1-.424,1.107m-2.812-2.568a.633.633,0,0,1-.432-.17q-.626-.582-1.239-1.161a.635.635,0,1,1,.872-.923q.609.575,1.231,1.154a.635.635,0,0,1-.432,1.1m-2.765-2.618a.633.633,0,0,1-.441-.178q-.614-.592-1.217-1.183a.635.635,0,0,1,.889-.907q.6.588,1.209,1.176a.635.635,0,0,1-.44,1.092m-2.716-2.668a.632.632,0,0,1-.449-.186q-.6-.6-1.194-1.205a.635.635,0,0,1,.906-.89q.589.6,1.187,1.2a.635.635,0,0,1-.449,1.083" transform="translate(-101.625 -196.139)"/>
    <path id="Path_5359" data-name="Path 5359" d="M17.386,53.865a.633.633,0,0,1-.465-.2q-.585-.628-1.152-1.249a.635.635,0,1,1,.938-.856q.563.617,1.143,1.239a.635.635,0,0,1-.464,1.068m-2.564-2.817a.634.634,0,0,1-.475-.213q-.571-.642-1.122-1.278a.635.635,0,0,1,.959-.832q.546.63,1.112,1.267a.635.635,0,0,1-.475,1.056m-2.491-2.882a.633.633,0,0,1-.486-.226q-.555-.66-1.086-1.31a.635.635,0,0,1,.984-.8q.525.643,1.074,1.3a.635.635,0,0,1-.486,1.043m-2.4-2.955a.633.633,0,0,1-.5-.243q-.535-.681-1.042-1.348A.635.635,0,1,1,9.4,42.854q.5.659,1.028,1.331a.635.635,0,0,1-.5,1.027m-2.295-3.04a.634.634,0,0,1-.515-.263q-.51-.7-.985-1.394a.635.635,0,1,1,1.045-.721q.468.677.969,1.371a.635.635,0,0,1-.514,1.007M5.481,39.03a.633.633,0,0,1-.534-.29Q4.471,38,4.039,37.288a.635.635,0,0,1,1.087-.657q.422.7.888,1.419a.635.635,0,0,1-.533.979M3.527,35.761a.635.635,0,0,1-.558-.331c-.282-.517-.549-1.03-.792-1.527a.635.635,0,1,1,1.14-.559c.236.48.493.977.767,1.478a.635.635,0,0,1-.556.939M1.88,32.329a.635.635,0,0,1-.588-.4C1.064,31.372.863,30.822.7,30.3a.635.635,0,1,1,1.21-.386c.157.494.346,1.014.562,1.544a.635.635,0,0,1-.588.874m32.033-2.2a.632.632,0,0,1-.287-.069q-.76-.385-1.508-.755a.635.635,0,0,1,.563-1.138q.754.373,1.52.761a.635.635,0,0,1-.288,1.2M.788,28.688a.635.635,0,0,1-.625-.527A10.712,10.712,0,0,1,0,26.372a.635.635,0,0,1,.634-.636h0a.635.635,0,0,1,.635.634,9.424,9.424,0,0,0,.145,1.575.635.635,0,0,1-.518.733.622.622,0,0,1-.109.009m29.706-.245a.632.632,0,0,1-.273-.062q-.77-.367-1.526-.716a.635.635,0,1,1,.532-1.153q.762.352,1.539.722a.635.635,0,0,1-.273,1.208m-3.461-1.589a.627.627,0,0,1-.256-.054q-.781-.344-1.545-.669a.635.635,0,0,1,.5-1.169q.772.328,1.562.676a.635.635,0,0,1-.257,1.216m-3.51-1.479a.634.634,0,0,1-.236-.046q-.793-.318-1.566-.611a.635.635,0,1,1,.451-1.187q.783.3,1.587.619a.635.635,0,0,1-.236,1.224M.958,24.926a.636.636,0,0,1-.6-.845,5.262,5.262,0,0,1,.768-1.44q.087-.115.181-.225a.635.635,0,0,1,.965.825q-.07.082-.134.167A3.985,3.985,0,0,0,1.557,24.5a.635.635,0,0,1-.6.425m19-.892a.634.634,0,0,1-.21-.036q-.809-.283-1.589-.537a.635.635,0,1,1,.392-1.208q.8.258,1.618.547a.635.635,0,0,1-.21,1.234m-3.627-1.162a.636.636,0,0,1-.175-.025q-.825-.237-1.614-.436a.635.635,0,1,1,.31-1.231c.536.135,1.092.285,1.655.447a.635.635,0,0,1-.175,1.245M3.471,22.205A.635.635,0,0,1,3.2,21a8.085,8.085,0,0,1,1.74-.579.635.635,0,1,1,.27,1.241,6.813,6.813,0,0,0-1.466.486.634.634,0,0,1-.272.061m9.164-.242a.638.638,0,0,1-.124-.013c-.564-.112-1.114-.208-1.636-.284a.635.635,0,1,1,.184-1.256c.543.08,1.115.179,1.7.3a.635.635,0,0,1-.123,1.258m-3.771-.512H8.826c-.57-.034-1.117-.043-1.631-.025a.635.635,0,0,1-.045-1.269c.552-.019,1.141-.01,1.752.027a.635.635,0,0,1-.038,1.268" transform="translate(0 -16.734)"/>
    <path id="Path_5360" data-name="Path 5360" d="M703.768,1142.93h97.388v-3.083a2.758,2.758,0,0,0-2.758-2.758H706.526a2.758,2.758,0,0,0-2.758,2.758Z" transform="translate(-584.587 -944.527)" fill="#fff"/>
    <path id="Path_5361" data-name="Path 5361" d="M798.677,1140.451H700.019v-3.717a3.4,3.4,0,0,1,3.393-3.393h91.872a3.4,3.4,0,0,1,3.393,3.393Zm-97.388-1.27h96.119v-2.448a2.126,2.126,0,0,0-2.123-2.123H703.412a2.126,2.126,0,0,0-2.124,2.123Z" transform="translate(-581.473 -941.414)"/>
    <path id="Path_5362" data-name="Path 5362" d="M708.232,820.494h87.89a4.65,4.65,0,0,0,4.749-4.543V760.511a4.65,4.65,0,0,0-4.749-4.543h-87.89a4.65,4.65,0,0,0-4.749,4.543v55.439a4.65,4.65,0,0,0,4.749,4.543" transform="translate(-584.351 -627.947)" fill="#fff"/>
    <path id="Path_5363" data-name="Path 5363" d="M793.008,818.015h-87.89a5.29,5.29,0,0,1-5.384-5.178V757.4a5.29,5.29,0,0,1,5.384-5.178h87.89a5.29,5.29,0,0,1,5.384,5.178v55.439a5.29,5.29,0,0,1-5.384,5.178m-87.89-64.526A4.02,4.02,0,0,0,701,757.4v55.439a4.02,4.02,0,0,0,4.114,3.909h87.89a4.02,4.02,0,0,0,4.114-3.909V757.4a4.02,4.02,0,0,0-4.114-3.909Z" transform="translate(-581.236 -624.833)"/>
    <path id="Path_5364" data-name="Path 5364" d="M961.708,922.13a4.965,4.965,0,1,0,4.965-4.965,4.965,4.965,0,0,0-4.965,4.965" transform="translate(-798.846 -761.846)" fill="#fff"/>
    <path id="Path_5365" data-name="Path 5365" d="M963.558,924.616a5.6,5.6,0,1,1,5.6-5.6,5.606,5.606,0,0,1-5.6,5.6m0-9.93a4.33,4.33,0,1,0,4.33,4.33,4.335,4.335,0,0,0-4.33-4.33" transform="translate(-795.732 -758.733)"/>
    <path id="Path_5366" data-name="Path 5366" d="M440.184,1177.262h0Z" transform="translate(-111.543 -977.897)" fill="#fff"/>
    <rect id="Rectangle_4412" data-name="Rectangle 4412" width="305.901" height="1.27" transform="translate(22.74 198.73)"/>
  </g>
</svg>
