<svg xmlns="http://www.w3.org/2000/svg" width="91.252" height="31.317" viewBox="0 0 91.252 31.317">
  <g id="skyhd-logo" transform="translate(0 0)">
    <path id="Path_37" data-name="Path 37" d="M-210.944,535.922a1.346,1.346,0,0,0-1.349,1.346,1.346,1.346,0,0,0,1.349,1.345,1.345,1.345,0,0,0,1.341-1.345A1.344,1.344,0,0,0-210.944,535.922Zm0,2.424a1.067,1.067,0,0,1-1.063-1.078,1.066,1.066,0,0,1,1.063-1.078,1.068,1.068,0,0,1,1.063,1.078A1.068,1.068,0,0,1-210.947,538.346Z" transform="translate(300.855 -529.526)" fill="#fff"/>
    <path id="Path_38" data-name="Path 38" d="M-210.677,537.263v-.005a.354.354,0,0,0,.285-.373c0-.42-.448-.42-.543-.42h-.648V538h.264v-.616H-211c.264.022.314.088.324.331.007.193.017.24.046.285h.264c-.035-.063-.035-.094-.049-.356C-210.428,537.451-210.465,537.323-210.677,537.263Zm-.324-.121h-.317v-.427h.353c.13,0,.292.018.309.178C-210.656,537.141-210.892,537.141-211,537.141Z" transform="translate(300.916 -529.48)" fill="#fff"/>
    <path id="Path_39" data-name="Path 39" d="M-250.645,538.81l-3.2,7.56-6.29-10.236a9,9,0,0,0-2.118-.3,5.815,5.815,0,0,0-4.753,2.213l-6.111,6.68,4.914,7.74a4.353,4.353,0,0,0,4.049,2.133,7.217,7.217,0,0,0,2.823-.529l-5.92-8.923,4.2-4.453,6.886,10.809-4.2,8.842a5.915,5.915,0,0,0,2.348.5,3.405,3.405,0,0,0,3.6-2.324l9.9-22.079a5.385,5.385,0,0,0-2.049-.475C-247.85,535.942-249.56,536.2-250.645,538.81Z" transform="translate(295.678 -529.533)" fill="#fff"/>
    <path id="Path_40" data-name="Path 40" d="M-277.907,533.382v21.59a7.359,7.359,0,0,0,1.139.084c3.179,0,3.818-.94,3.818-2.567V530.151a5.893,5.893,0,0,0-1.2-.123C-277.352,530.028-277.907,531.74-277.907,533.382Z" transform="translate(295.27 -530.028)" fill="#fff"/>
    <path id="Path_41" data-name="Path 41" d="M-283.507,543.287l-3.651-.68c-1.171-.2-1.9-.474-1.9-1.141,0-.622.773-1.137,2.636-1.137,1.837,0,3.437.188,4.469.188,1.343,0,2.742-.568,2.742-3.218a4.96,4.96,0,0,0-.109-1.018,41.324,41.324,0,0,0-8.623-.285c-3.952.435-5.96,2.814-5.96,5.649,0,2.337,1.7,4.536,4.873,5.148l3.829.732c1.4.274,2.118.583,2.118,1.346,0,.581-.544,1.195-2.348,1.195-1.63,0-3.831-.245-5.229-.245-1.345,0-2.77.61-2.77,3.26a5.477,5.477,0,0,0,.124,1.058,48.653,48.653,0,0,0,9.152.285c4.032-.433,6.017-2.648,6.017-5.688C-278.142,546.11-279.761,543.98-283.507,543.287Z" transform="translate(293.908 -529.531)" fill="#fff"/>
    <path id="Path_42" data-name="Path 42" d="M-232.991,538v5.034h-7.3v-6.976c-4.566-.828-4.566,1.942-4.566,1.942v16.364c4.566.943,4.566-1.742,4.566-1.742V547.6h7.3v6.765c4.565.943,4.565-1.742,4.565-1.742V536.061C-232.991,535.233-232.991,538-232.991,538Z" transform="translate(298.083 -529.527)" fill="#fff"/>
    <path id="Path_43" data-name="Path 43" d="M-219.839,535.908h-3.751c-3.621,0-3.6,2.515-3.6,2.515v13.726c0,2.682,3.6,2.407,3.6,2.407h3.751s10.494.13,10.494-9.41S-219.839,535.908-219.839,535.908Zm0,14.528h-2.884V539.92h2.884s5.81-.347,5.81,5.257S-219.839,550.436-219.839,550.436Z" transform="translate(299.587 -529.528)" fill="#fff"/>
  </g>
</svg>
