<svg id="sky-gold-logo" xmlns="http://www.w3.org/2000/svg" width="206.261" height="32" viewBox="0 0 206.261 32">
  <g id="Grupo_32" data-name="Grupo 32">
    <path id="Trazado_37" data-name="Trazado 37" d="M-210.915,535.922a1.376,1.376,0,0,0-1.378,1.376,1.375,1.375,0,0,0,1.378,1.374,1.375,1.375,0,0,0,1.37-1.374A1.373,1.373,0,0,0-210.915,535.922Zm0,2.477A1.091,1.091,0,0,1-212,537.3a1.09,1.09,0,0,1,1.087-1.1,1.092,1.092,0,0,1,1.087,1.1A1.092,1.092,0,0,1-210.918,538.4Z" transform="translate(302.787 -529.387)" fill="#fff"/>
    <path id="Trazado_38" data-name="Trazado 38" d="M-210.657,537.28v-.006a.362.362,0,0,0,.292-.381c0-.429-.458-.429-.554-.429h-.662v1.573h.269v-.63h.32c.269.022.32.09.332.338.007.2.018.245.047.292h.269c-.035-.064-.035-.1-.05-.364C-210.4,537.473-210.441,537.342-210.657,537.28Zm-.331-.124h-.324v-.436h.36c.133,0,.3.019.316.182C-210.636,537.156-210.877,537.156-210.989,537.156Z" transform="translate(302.864 -529.328)" fill="#fff"/>
    <path id="Trazado_39" data-name="Trazado 39" d="M-250.155,538.875l-3.273,7.725-6.428-10.459a9.188,9.188,0,0,0-2.164-.3,5.942,5.942,0,0,0-4.857,2.261l-6.245,6.826,5.022,7.909a4.448,4.448,0,0,0,4.137,2.18,7.372,7.372,0,0,0,2.885-.541l-6.05-9.118,4.289-4.551,7.036,11.045-4.289,9.034a6.042,6.042,0,0,0,2.4.513,3.48,3.48,0,0,0,3.677-2.375l10.114-22.561a5.5,5.5,0,0,0-2.093-.486C-247.3,535.945-249.046,536.209-250.155,538.875Z" transform="translate(296.169 -529.396)" fill="#fff"/>
    <path id="Trazado_40" data-name="Trazado 40" d="M-277.907,533.455v22.06a7.515,7.515,0,0,0,1.164.086c3.249,0,3.9-.96,3.9-2.623V530.153a6.025,6.025,0,0,0-1.224-.125C-277.339,530.028-277.907,531.778-277.907,533.455Z" transform="translate(295.649 -530.028)" fill="#fff"/>
    <path id="Trazado_41" data-name="Trazado 41" d="M-283.28,543.449l-3.731-.7c-1.2-.207-1.946-.484-1.946-1.166,0-.635.789-1.162,2.693-1.162,1.877,0,3.512.192,4.566.192,1.373,0,2.8-.581,2.8-3.289a5.073,5.073,0,0,0-.111-1.04,42.233,42.233,0,0,0-8.812-.292c-4.038.445-6.089,2.875-6.089,5.772,0,2.388,1.733,4.635,4.98,5.26l3.913.748c1.429.279,2.164.6,2.164,1.375,0,.594-.556,1.221-2.4,1.221-1.665,0-3.914-.251-5.343-.251-1.374,0-2.831.623-2.831,3.331a5.6,5.6,0,0,0,.126,1.081,49.7,49.7,0,0,0,9.352.292c4.12-.442,6.148-2.706,6.148-5.812C-277.8,546.334-279.453,544.157-283.28,543.449Z" transform="translate(293.908 -529.393)" fill="#fff"/>
    <path id="Trazado_42" data-name="Trazado 42" d="M-232.732,538.049v5.144h-7.462v-7.128c-4.666-.846-4.666,1.985-4.666,1.985V554.77c4.666.964,4.666-1.78,4.666-1.78v-5.133h7.462v6.912c4.665.964,4.665-1.78,4.665-1.78V536.065C-232.732,535.219-232.732,538.049-232.732,538.049Z" transform="translate(299.244 -529.389)" fill="#fff"/>
    <path id="Trazado_43" data-name="Trazado 43" d="M-219.679,535.908h-3.833c-3.7,0-3.678,2.57-3.678,2.57V552.5c0,2.741,3.678,2.459,3.678,2.459h3.833s10.723.133,10.723-9.615S-219.679,535.908-219.679,535.908Zm0,14.844h-2.947V540.007h2.947s5.936-.355,5.936,5.372S-219.679,550.753-219.679,550.753Z" transform="translate(301.166 -529.388)" fill="#fff"/>
  </g>
  <g id="Grupo_33" data-name="Grupo 33" transform="translate(104.909 2.078)">
    <path id="Trazado_44" data-name="Trazado 44" d="M-185.775,554.022a24.456,24.456,0,0,1-3.612.244c-3.045,0-3.815-1.745-3.815-3.856v-9.3c0-2.111.771-3.693,3.815-3.693a63.36,63.36,0,0,1,7.914.65l.731-5.318a47.989,47.989,0,0,0-8.645-.852c-6.576,0-9.9,3.288-9.9,8.279v11.284c0,4.911,3.329,8.28,9.9,8.28a34.318,34.318,0,0,0,9.335-1.3v-12.7h-5.722Z" transform="translate(199.292 -531.902)" fill="#fff"/>
    <path id="Trazado_45" data-name="Trazado 45" d="M-163.78,531.9c-7.632,0-10.472,4.18-10.472,8.279v11.284c0,4.1,2.841,8.28,10.472,8.28s10.471-4.181,10.471-8.28V540.181C-153.308,536.082-156.149,531.9-163.78,531.9Zm4.383,19.036c0,2.11-1.339,3.409-4.383,3.409s-4.384-1.3-4.384-3.409V540.709c0-2.111,1.339-3.409,4.384-3.409s4.383,1.3,4.383,3.409Z" transform="translate(202.016 -531.902)" fill="#fff"/>
    <path id="Trazado_46" data-name="Trazado 46" d="M-141.4,532.268h-6.088V559.3h16.8v-5.4H-141.4Z" transform="translate(204.927 -531.862)" fill="#fff"/>
    <path id="Trazado_47" data-name="Trazado 47" d="M-115.093,532.268h-10.473V559.3h10.473c6.656,0,9.132-3.408,9.132-7.022V539.289C-105.961,535.637-108.436,532.268-115.093,532.268Zm3.044,18.345c0,2.111-.731,3.289-3.774,3.289h-3.653V537.666h3.653c3.044,0,3.774,1.176,3.774,3.288Z" transform="translate(207.313 -531.862)" fill="#fff"/>
  </g>
</svg>
