<svg xmlns="http://www.w3.org/2000/svg" xmlns:xlink="http://www.w3.org/1999/xlink" width="72" height="74.655" viewBox="0 0 72 74.655"><defs><style>.a{fill:none;}.b{clip-path:url(#a);}.c{fill:#fff;}.d{fill:#e4e5e6;}.e{clip-path:url(#b);}.f{fill:url(#c);}.g{clip-path:url(#d);}.h{fill:url(#e);}.i{clip-path:url(#f);}.j{fill:url(#g);}.k{clip-path:url(#h);}.l{fill:url(#i);}.m{clip-path:url(#j);}.n{fill:url(#k);}.o{clip-path:url(#l);}.p{fill:url(#m);}.q{clip-path:url(#n);}.r{fill:url(#o);}.s{clip-path:url(#p);}.t{fill:url(#q);}.u{fill:#231f20;}</style><clipPath id="a"><rect class="a" width="64" height="72.612" transform="translate(0)"/></clipPath><clipPath id="b"><path class="a" d="M61.033,90.277c0,7.836-3.844,9.4-3.844,17.631a20.953,20.953,0,0,0,1.175,7.021,4.627,4.627,0,0,1,1-1.344,19.59,19.59,0,0,1-.784-5.677c0-5.387,3.628-9.877,4.5-15.351.071-.713.114-1.469.114-2.292a26.176,26.176,0,0,0-2.985-11.542l-2.982-1.4,2,4.576a20.765,20.765,0,0,1,1.81,8.381" transform="translate(-57.189 -77.32)"/></clipPath><linearGradient id="c" x1="-9.251" y1="4.461" x2="-8.859" y2="4.461" gradientUnits="objectBoundingBox"><stop offset="0" stop-color="#fff"/><stop offset="0.11" stop-color="#fff"/><stop offset="0.22" stop-color="#e0e2e4"/><stop offset="0.44" stop-color="#a9afb4"/><stop offset="0.54" stop-color="#939ba1"/><stop offset="1" stop-color="#939ba1"/></linearGradient><clipPath id="d"><path class="a" d="M198.71,90.237c0,3.315,1.348,6.014,2.574,9.011l1.6-.051a21.273,21.273,0,0,1-2.022-8.929,20.7,20.7,0,0,1,1.791-8.4l2.018-4.592-2.978,1.4a26.24,26.24,0,0,0-2.986,11.542" transform="translate(-198.71 -77.28)"/></clipPath><linearGradient id="e" x1="-14.214" y1="6.19" x2="-13.819" y2="6.19" gradientUnits="objectBoundingBox"><stop offset="0" stop-color="#fff"/><stop offset="0.35" stop-color="#fff"/><stop offset="0.56" stop-color="#939ba1"/><stop offset="1" stop-color="#939ba1"/></linearGradient><clipPath id="f"><path class="a" d="M87.356,185.75c-2.441-.882-5.759-1.175-10.579-2.406-6.567-1.665-13.352-5.877-15.629-13.474a4.627,4.627,0,0,0-1,1.344,23.149,23.149,0,0,0,16.087,14.254c4.49,1.136,6.582,1.246,9.924,2.182.439.458,3.526,3.8,3.526,3.8v-3.2s-2.03-2.2-2.351-2.5" transform="translate(-60.15 -169.87)"/></clipPath><linearGradient id="g" x1="-1.533" y1="4.909" x2="-1.454" y2="4.909" gradientUnits="objectBoundingBox"><stop offset="0" stop-color="#fff"/><stop offset="0.15" stop-color="#fff"/><stop offset="0.21" stop-color="#fafafa"/><stop offset="0.29" stop-color="#ebeced"/><stop offset="0.37" stop-color="#d2d5d8"/><stop offset="0.45" stop-color="#afb5ba"/><stop offset="0.51" stop-color="#939ba1"/><stop offset="1" stop-color="#939ba1"/></linearGradient><clipPath id="h"><path class="a" d="M82.226,116.453c5.352,1.36,8.847,1.512,11.2,2.645,0,0,.854.784,1.175,1.144.329-.36,1.175-1.144,1.175-1.144,2.351-1.132,5.842-1.285,11.194-2.645,6.758-1.716,14.046-7.671,14.046-17.027,0-6.692-3.84-9.145-3.84-17.631a25.372,25.372,0,0,1,2.163-10.14s-4.984-1.019-7.334-7.346a12.705,12.705,0,0,1-7.887,3.1A14.247,14.247,0,0,1,94.58,63.38,14.217,14.217,0,0,1,85.051,67.4a12.709,12.709,0,0,1-7.891-3.1c-2.308,6.328-7.3,7.334-7.3,7.334a25.337,25.337,0,0,1,2.182,10.14c0,8.5-3.84,10.97-3.84,17.631,0,9.356,7.284,15.311,14.038,17.027m36.339-17.027c0,7.938-6.32,13.153-12.193,14.649-4.239,1.077-9.423,1.634-10.97,2.527a7,7,0,0,0-.784.717,7,7,0,0,0-.784-.717c-1.567-.893-6.751-1.45-10.99-2.527l-.478-.133,33.342-25.048c1.1,3.985,2.841,6.59,2.841,10.543ZM116.2,72.971a28.209,28.209,0,0,0-1.465,8.8,26.727,26.727,0,0,0,.294,4.051L79.26,112.7c-4.482-2.3-8.4-6.727-8.62-12.8l41.115-30.874a13.462,13.462,0,0,0,4.431,3.961ZM74.477,81.783a28.331,28.331,0,0,0-1.465-8.8,13.654,13.654,0,0,0,5.129-5.031,14.3,14.3,0,0,0,6.927,1.908A16.244,16.244,0,0,0,94.6,66.585a16.279,16.279,0,0,0,9.536,3.275,12.827,12.827,0,0,0,1.959-.157L71.064,96.017C72.087,92.056,74.477,88.776,74.477,81.783Z" transform="translate(-68.2 -63.38)"/></clipPath><linearGradient id="i" x1="-0.398" y1="1.948" x2="-0.367" y2="1.948" gradientUnits="objectBoundingBox"><stop offset="0" stop-color="#939ba1"/><stop offset="0.02" stop-color="#9da4aa"/><stop offset="0.12" stop-color="#c4c7ca"/><stop offset="0.2" stop-color="#dbdddf"/><stop offset="0.25" stop-color="#e4e5e6"/><stop offset="0.75" stop-color="#e4e5e6"/><stop offset="0.8" stop-color="#dcdedf"/><stop offset="0.87" stop-color="#c7cbce"/><stop offset="0.96" stop-color="#a5abb0"/><stop offset="1" stop-color="#939ba1"/></linearGradient><clipPath id="j"><path class="a" d="M95.978,55.379c5.748,0,9.529-4.89,9.529-4.89v-3.06L102.5,50.407a9.732,9.732,0,0,1-6.523,2.782,8.2,8.2,0,0,1-5.164-2.108L86.14,47.21l.976,3.632s4.4,4.537,8.862,4.537" transform="translate(-86.14 -47.21)"/></clipPath><linearGradient id="k" x1="-2.915" y1="19.955" x2="-2.793" y2="19.955" gradientUnits="objectBoundingBox"><stop offset="0" stop-color="#fff"/><stop offset="0.25" stop-color="#fff"/><stop offset="0.34" stop-color="#fafafa"/><stop offset="0.45" stop-color="#ebeced"/><stop offset="0.57" stop-color="#d2d5d8"/><stop offset="0.7" stop-color="#afb5ba"/><stop offset="0.79" stop-color="#939ba1"/><stop offset="1" stop-color="#939ba1"/></linearGradient><clipPath id="l"><path class="a" d="M164.836,141.908c0,10.159-7.252,16.847-16.377,19.151-4.807,1.215-8.122,1.524-10.579,2.406-.31.294-2.351,2.5-2.351,2.5v3.225s3.1-3.342,3.526-3.8c3.346-.936,5.438-1.046,9.924-2.182,9.078-2.351,17.278-10.253,17.278-21.275a21.13,21.13,0,0,0-1.818-8.7l-1.6.051a21.774,21.774,0,0,1,1.979,8.647" transform="translate(-135.53 -133.23)"/></clipPath><linearGradient id="m" x1="-2.369" y1="3.351" x2="-2.292" y2="3.351" gradientUnits="objectBoundingBox"><stop offset="0" stop-color="#fff"/><stop offset="0.2" stop-color="#fff"/><stop offset="0.33" stop-color="#fafbfb"/><stop offset="0.47" stop-color="#edeff0"/><stop offset="0.63" stop-color="#d7dadc"/><stop offset="0.78" stop-color="#b9bec2"/><stop offset="0.93" stop-color="#939ba1"/><stop offset="1" stop-color="#939ba1"/></linearGradient><clipPath id="n"><path class="a" d="M145.1,55.379c4.459,0,8.862-4.537,8.862-4.537l.968-3.632-4.674,3.871a8.187,8.187,0,0,1-5.16,2.108,9.732,9.732,0,0,1-6.523-2.782l-3.013-2.978v3.06s3.789,4.89,9.536,4.89" transform="translate(-135.56 -47.21)"/></clipPath><linearGradient id="o" x1="-3.814" y1="19.952" x2="-3.692" y2="19.952" xlink:href="#k"/><clipPath id="p"><path class="a" d="M69.526,50.842l-.976-3.632-2.1,5.744A6.881,6.881,0,0,1,61.976,57.6L57.22,59l2.982,1.4s7.334-.639,9.325-9.564" transform="translate(-57.22 -47.21)"/></clipPath><linearGradient id="q" x1="-4.042" y1="12.988" x2="-3.851" y2="12.988" gradientUnits="objectBoundingBox"><stop offset="0" stop-color="#fff"/><stop offset="0.39" stop-color="#fff"/><stop offset="0.47" stop-color="#fafafa"/><stop offset="0.57" stop-color="#ebeced"/><stop offset="0.67" stop-color="#d2d5d8"/><stop offset="0.79" stop-color="#afb5ba"/><stop offset="0.87" stop-color="#939ba1"/><stop offset="1" stop-color="#939ba1"/></linearGradient></defs><rect class="a" width="72" height="72"/><g class="b" transform="translate(4 2.043)"><path class="c" d="M61.45,131.551c0-6.594,3.091-9.1,3.726-15.351-.87,5.485-4.5,9.963-4.5,15.351a19.59,19.59,0,0,0,.784,5.677c2.276,7.585,9.062,11.809,15.629,13.474-10.116-2.562-15.672-11.057-15.672-19.151" transform="translate(-58.022 -87.587)"/><path class="c" d="M182.91,119.321c-1.226-2.982-2.574-5.681-2.574-9.011,0,8.028,3.836,10.3,3.836,17.631,0,8.095-5.54,16.589-15.672,19.151,9.125-2.312,16.377-8.992,16.377-19.151a21.774,21.774,0,0,0-1.979-8.647" transform="translate(-123.6 -84.005)"/><path class="d" d="M190.074,57.6a6.886,6.886,0,0,1-4.482-4.647l-2.1-5.744-.972,3.632c1.986,8.925,9.325,9.564,9.325,9.564l2.978-1.4" transform="translate(-132.127 -45.627)"/><path class="d" d="M100.826,139.549l-3.84-5.877-4.267,3.2a1.536,1.536,0,0,1,1.493,1.606v11.08l3.009-2.257v-7.836l3.444,5.25,3.181-2.386V128.52l-3.009,2.261" transform="translate(-77.51 -95.08)"/><path class="d" d="M132.165,112.561l-3.4,2.551v-5.093l-4.588,3.444a1.54,1.54,0,0,1,1.5,1.606v11.084l3.091-2.323v-5.058l3.4-2.551v5.05l2.942-2.214V105.25l-2.942,2.21" transform="translate(-96.645 -80.927)"/><path class="d" d="M159.4,104.675V94.39l-4.588,3.444a1.536,1.536,0,0,1,1.493,1.61v11.08l8.541-6.414a17.586,17.586,0,0,1,0-3.526" transform="translate(-115.274 -74.322)"/><g class="e" transform="translate(1.289 13.38)"><rect class="f" width="5.998" height="37.605" transform="translate(-0.019 -0.004)"/></g><g class="g" transform="translate(56.736 13.364)"><rect class="h" width="5.963" height="21.941" transform="translate(0 0.012)"/></g><g class="i" transform="translate(2.449 49.641)"><rect class="j" width="29.538" height="21.58" transform="translate(0.012)"/></g><g class="k" transform="translate(5.603 7.918)"><rect class="l" width="75.887" height="76.878" transform="translate(-26.731 18.694) rotate(-34.99)"/></g><g class="m" transform="translate(12.632 1.583)"><rect class="n" width="19.367" height="8.165"/></g><g class="o" transform="translate(31.982 35.285)"><rect class="p" width="30.733" height="35.959" transform="translate(0.016 -0.02)"/></g><g class="q" transform="translate(31.994 1.583)"><rect class="r" width="19.37" height="8.165" transform="translate(0.004)"/></g><g class="s" transform="translate(1.301 1.583)"><rect class="t" width="12.306" height="13.192"/></g><path class="u" d="M58.069,69.5c0,7.542-3.847,9.258-3.847,17.631,0,12.067,9.329,19.982,17.991,22.191,4.376,1.07,5.7,1.14,9.654,2.112L85.9,115.78l4.035-4.345c3.953-.972,5.278-1.042,9.654-2.112,8.667-2.229,17.991-10.124,17.991-22.191,0-8.369-3.844-10.085-3.844-17.631a19.735,19.735,0,0,1,1.716-7.989l2.457-5.579-5.787-1.708a6,6,0,0,1-3.859-4.063l-2.555-7-5.716,4.729a7.192,7.192,0,0,1-4.557,1.888,8.8,8.8,0,0,1-5.842-2.507l-3.679-3.636L82.243,47.27a8.811,8.811,0,0,1-5.877,2.508,7.184,7.184,0,0,1-4.557-1.888l-5.7-4.725L63.55,50.15a6.015,6.015,0,0,1-3.859,4.063L53.9,55.936l2.457,5.575A19.739,19.739,0,0,1,58.069,69.5m1.888-14.363a6.881,6.881,0,0,0,4.478-4.647l2.1-5.744,4.674,3.871a8.2,8.2,0,0,0,5.164,2.108,9.732,9.732,0,0,0,6.523-2.782L85.9,44.962l3.013,2.978a9.732,9.732,0,0,0,6.523,2.782,8.187,8.187,0,0,0,5.16-2.108l4.67-3.867,2.1,5.744a6.886,6.886,0,0,0,4.482,4.647l4.753,1.4-2.014,4.58a20.7,20.7,0,0,0-1.791,8.369,21.272,21.272,0,0,0,2.022,8.929,21.13,21.13,0,0,1,1.818,8.7c0,11.021-8.2,18.936-17.278,21.275-4.486,1.136-6.578,1.246-9.924,2.182-.435.458-3.526,3.8-3.526,3.8s-3.087-3.342-3.526-3.8c-3.342-.936-5.434-1.046-9.924-2.182A23.088,23.088,0,0,1,56.36,94.148a20.953,20.953,0,0,1-1.175-7.021c0-8.228,3.844-9.795,3.844-17.631a20.765,20.765,0,0,0-1.806-8.377L55.2,56.54Z" transform="translate(-53.9 -43.164)"/><path class="u" d="M104.31,153.548l.478.133c4.239,1.077,9.423,1.634,10.99,2.527a7,7,0,0,1,.784.717,7,7,0,0,1,.784-.717c1.567-.893,6.747-1.45,10.97-2.527,5.877-1.5,12.193-6.711,12.193-14.649,0-3.953-1.736-6.559-2.872-10.531" transform="translate(-84.56 -95.068)"/><path class="u" d="M75.54,100.992l35.027-26.313a12.828,12.828,0,0,1-1.959.157,16.279,16.279,0,0,1-9.536-3.275,16.244,16.244,0,0,1-9.528,3.275,14.3,14.3,0,0,1-6.927-1.908,13.654,13.654,0,0,1-5.14,5.031,28.33,28.33,0,0,1,1.465,8.8c0,6.994-2.39,10.273-3.4,14.234" transform="translate(-67.062 -60.437)"/><path class="u" d="M83.04,121.465l35.771-26.873a26.725,26.725,0,0,1-.294-4.051,28.21,28.21,0,0,1,1.465-8.8,13.462,13.462,0,0,1-4.431-3.961L74.44,108.665c.2,6.073,4.118,10.5,8.62,12.8m27.477-37.178V94.572l5.446-4.09a17.588,17.588,0,0,0,0,3.526l-8.541,6.414V89.342a1.536,1.536,0,0,0-1.493-1.61Zm-12,9.011v5.093l3.4-2.551V90.748l2.942-2.21v13.807l-2.942,2.214V99.513l-3.4,2.551v5.05l-3.111,2.323V98.353a1.54,1.54,0,0,0-1.5-1.606Zm-12.647,9.5,3.84,5.877V99.92l3.009-2.261v13.811l-3.189,2.386L86.116,108.6v7.836L83.107,118.7v-11.08a1.536,1.536,0,0,0-1.493-1.606Z" transform="translate(-66.393 -64.22)"/><path class="u" d="M66.376,79.349c-.635,6.269-3.726,8.757-3.726,15.351,0,8.095,5.544,16.589,15.672,19.151,4.807,1.215,8.126,1.524,10.579,2.406.313.294,2.351,2.5,2.351,2.5s2.037-2.2,2.351-2.5c2.445-.882,5.759-1.175,10.579-2.406,10.12-2.562,15.672-11.057,15.672-19.151,0-7.346-3.836-9.615-3.836-17.631A26.176,26.176,0,0,1,119,65.526s-7.338-.639-9.325-9.564c0,0-4.4,4.537-8.862,4.537-5.748,0-9.536-4.89-9.536-4.89S87.5,60.5,81.75,60.5c-4.463,0-8.862-4.537-8.862-4.537-1.99,8.925-9.325,9.564-9.325,9.564a26.24,26.24,0,0,1,2.985,11.542c0,.823-.043,1.567-.114,2.292m.106-12.432s4.937-1.019,7.26-7.346a12.709,12.709,0,0,0,7.891,3.1,14.217,14.217,0,0,0,9.529-4.024,14.247,14.247,0,0,0,9.536,4.024,12.705,12.705,0,0,0,7.887-3.1c2.335,6.328,7.319,7.334,7.319,7.334a25.373,25.373,0,0,0-2.163,10.14c0,8.5,3.84,10.97,3.84,17.631,0,9.356-7.287,15.311-14.042,17.027-5.352,1.36-8.851,1.512-11.194,2.645,0,0-.854.784-1.175,1.144-.321-.36-1.175-1.144-1.175-1.144-2.351-1.132-5.846-1.285-11.2-2.645C72.1,110,64.817,104.044,64.817,94.688c0-6.692,3.84-9.145,3.84-17.631a25.337,25.337,0,0,0-2.174-10.14Z" transform="translate(-59.222 -50.736)"/><path class="u" d="M194.64,206.662a2.472,2.472,0,1,0,2.472-2.472,2.472,2.472,0,0,0-2.472,2.472m4.416,0a1.959,1.959,0,1,1-1.959-1.939,1.959,1.959,0,0,1,1.959,1.939Z" transform="translate(-139.499 -141.103)"/><path class="u" d="M198.36,209.725h.529v-1.148h.392l.537,1.148h.584l-.556-1.2a.838.838,0,0,0-.282-1.626h-1.175m.529.529h.662a.31.31,0,0,1,.31.31.306.306,0,0,1-.31.306h-.662Z" transform="translate(-141.761 -142.751)"/></g></svg>