<svg id="Capa_1" data-name="Capa 1" xmlns="http://www.w3.org/2000/svg" viewBox="0 0 200 200"><rect x="23.62" y="29.91" width="152.27" height="116.86" style="fill:#eb2728"/><path d="M149.07,91.5c0,.25-.27.5-.79.75l-.27.26v.25c0,.25,0,.25-.26.5l-.52.26h-.53v-.26l-.53.26v.25c0,.25,0,.25-.26.5l-.53.26h-.52v-.26c-1.84,1-4.21,1.77-6.31,2.78v.25c0,.26,0,.26-.27.51l-.52.25h-.53l-.26-.25-.79.25.26.25c0,.26,0,.26-.26.51l-.53.25h-.52l-.26-.25a1.94,1.94,0,0,1-2.9-1c-.26-.76-.26-2.27-.52-3a1,1,0,0,0-.79-.51c-10-1.76-13.15.26-19.73-1.26-2.1-.5-3.15-2.27-5.52-2.27-5.26-.25-6.84,0-12.89-.25a3.91,3.91,0,0,0-.26,1H71.75L74.9,93l1,8.58a5.82,5.82,0,0,1-1,.26c.27,1.76.27,4,.53,6.05,0,1.77.26,3.79.26,5a4.48,4.48,0,0,1-.52,2.27,3.05,3.05,0,0,1-1.58,1.52A17.14,17.14,0,0,1,71.75,118l-2.63,1.26c0,.25.26.51.26.76-12.36,5.8-27.88,7.57-32.87,16.91-.53,1-2.63.5-2.63-.76v-1.76h-.27c-.26,0-.26-.26-.26-.51v-.5a.87.87,0,0,1,.26-.51h.27c0-.5.26-1,.26-1.51h-.26c-.27,0-.27-.26,0-.51l.26-.5c0-.25.26-.51.52-.25h.27c.79-2,2.63-2.78,3.42-4.8h0c-.27,0-.27-.25,0-.5l-.27-.51c0-.25.27-.51.53-.25h.26c0-.26.27-.51.53-.76h-.26c-.27,0-.27-.25,0-.5l.26-.51c.26-.25.26-.25.53-.25h0l.26-.25a2.45,2.45,0,0,1,2.63,0,5.74,5.74,0,0,0,6.84-.51c4.73-4.29,10.52-9.84,14.72-10.09-1-2.28-3.15-7.32-3.42-9.34l-1.31-.26C58.86,100.08,57,93,56.49,87.46c0,0-.52-5.81,0-7.82a4,4,0,0,0-1.05.5c-.79-1.77,1.84-17.42,4.21-22l3.94-1.51c-.52,0-3.15-.26-10.52-.76-4.2,3.53-8.67,7.32-11.3,9.34-.53.25-1.06,2.52-1.06,2.52a14,14,0,0,1-2.36,1.77c-1.58,1-5,1.77-5.79.5-.26-.25-.26-.5,0-.5C33.09,69,35.19,68,36,66.76c-1,.51-2.37,1.27-3.42,1-.53,0-.79-1,0-1.26a8.49,8.49,0,0,0,3.68-2,3.82,3.82,0,0,1,3.42-2s6.84-8.58,10.78-12.62c1.06-1,3.16-.75,3.16-.75l.26-1.27s13.68-1.51,20.25.51c-.26-3.79,1.58-8.58,7.63-8.58,3.16,0,7.63,2.77,8.42,5.8.26,1-.53,1.77-.79,3-.53,2,.26,4,0,4.54s-.79.51-1.32,1.27-1.31,2.27-1.31,2.27L86,58.43l-4.21-.25C80.16,61.46,77,68,76,74.59h0c3.42.25,18.68,2.27,18.68,2.27l.26,1.26a48.47,48.47,0,0,1,11.57,3c1.05.25,4.21-.25,6.05.76l.53-.51c6.83,2,12.62,5.55,19.2,7.07l4.2,1c2.37.5,3.95.5,5.26.76a35.56,35.56,0,0,0,4.74.25c.79-.25,2.36-.51,2.63,1m10-19.94a8.08,8.08,0,1,0,8.42,8.08A8.31,8.31,0,0,0,159.06,71.56Z" style="fill:#fffffc"/><path d="M37.05,164.78c0,2.77-1.37,4.27-5,4.27H23.57V153.37H31.7c3.8,0,5.1,1.42,5.1,4.09,0,2-.8,2.95-3,3.47l-.43.1.36.07C36.26,161.66,37.05,162.56,37.05,164.78Zm-9.58-4.86h3.44c1.37,0,1.95-.55,1.95-1.91s-.58-2-1.95-2H27.47Zm5.64,4.48c0-1.42-.61-2.05-2-2.05H27.47v4.06h3.65C32.57,166.38,33.11,165.78,33.11,164.4Zm6.62-.45V153.37h4.08v10.44c0,1.73.83,2.39,3,2.39s3-.66,3-2.39V153.37H54v10.54c0,3.68-2.25,5.38-7.09,5.38S39.73,167.62,39.73,164ZM73,153.37v15.68h-5L61.12,157.7v11.35H57.33V153.37h5l6.94,11.34V153.37Zm3.36,0h7.27c5.71,0,7.23,2.25,7.23,7.8S89.24,169,83.64,169H76.37Zm7.16,12.69c2.39,0,3.15-1.18,3.15-4.85s-.76-4.83-3.15-4.83H80.42v9.68Zm10.3-12.69h11.42v3H97.92v3.3H104v2.94h-6.1V166h7.51v3H93.83Zm14,15v-3a17.67,17.67,0,0,0,5.46.87c1.88,0,2.71-.49,2.71-1.7,0-1-.36-1.39-1.85-1.67l-2.71-.55c-2.82-.56-3.76-1.67-3.76-4.34,0-3.43,2.1-4.93,6.37-4.93a15.19,15.19,0,0,1,5.2.87V157a15.29,15.29,0,0,0-4.95-.83c-2,0-2.68.52-2.68,1.74,0,1,.47,1.31,1.77,1.56L116,160c3.08.63,3.91,1.63,3.91,4.44,0,3.37-2.17,4.89-6.55,4.89A17,17,0,0,1,107.82,168.42Zm14.89-15h4.08V166h7v3H122.75Zm13.63,0h4.08v15.68h-4.08Zm21,6.62v8.54a19.47,19.47,0,0,1-5.64.79c-5.67,0-8.35-2.39-8.35-8.11s2.68-8.12,8.35-8.12a15.49,15.49,0,0,1,5.39.87v3a16.66,16.66,0,0,0-5.06-.83c-3.44,0-4.49,1.32-4.49,5s1.12,5.14,4.34,5.14a14.85,14.85,0,0,0,2.13-.14V162.7h-3V160Zm13.3,5.76h-6.4l-1.15,3.3H159l5.82-15.68H170l5.82,15.68h-4.08Zm-3.18-9.92-2.35,7.08h4.7Z" style="fill:#fffffc"/></svg>