<svg id="Capa_1" data-name="Capa 1" xmlns="http://www.w3.org/2000/svg" viewBox="0 0 200 200"><path d="M46.33,150.17H48.5c7.14.05,11-3.09,11-9.27A8.61,8.61,0,0,0,56.09,134c-2-1.31-3.44-1.84-8-1.9H41.23v27h5.1Zm0-13.2h3.11c3.53.21,4.68,2.1,4.71,4.09,0,3.24-2.39,4.32-5.24,4.3H46.33Z" style="fill:#38003d;fill-rule:evenodd"/><path d="M66,149.64c.22-3,2.78-4.58,5.88-3.72v-4.55c-3-.58-4.63.34-5.91,2.7l-.55-2.69H61.23v17.68H66Z" style="fill:#38003d;fill-rule:evenodd"/><path d="M89.61,146.05a8.72,8.72,0,0,0-7.9-5.18,9.39,9.39,0,0,0-9.44,9.53c0,5.08,3.73,9.1,9.82,9.17a11,11,0,0,0,7.32-3.34l-2.82-2.95a6.25,6.25,0,0,1-4.9,2.14c-2.51,0-4.48-1.85-4.48-3.72h13.1A11,11,0,0,0,89.61,146.05ZM77.2,148.42A4.29,4.29,0,0,1,81.49,145a4.38,4.38,0,0,1,4.29,3.43Z" style="fill:#38003d;fill-rule:evenodd"/><path d="M103.08,147.85V159h4.64V148.67a3.23,3.23,0,0,1,3-3.31c1.26-.09,2.88.91,3,3.21V159h4.71V147.9c.1-3.61-2-6.86-6-7.06-2.77.11-4.06.8-5.53,2.87-1.15-1.48-2.37-2.89-5.18-2.87-2,0-3.24.9-4.43,2.74l-.47-2.26H92.46V159H97.2v-11a2.87,2.87,0,0,1,2.88-2.66A2.9,2.9,0,0,1,103.08,147.85Z" style="fill:#38003d;fill-rule:evenodd"/><rect x="120.97" y="141.37" width="4.88" height="17.67" style="fill:#38003d"/><polygon points="46.5 161.99 41.15 161.99 41.15 188.35 57.83 188.35 57.83 183.47 46.5 183.47 46.5 161.99" style="fill:#38003d;fill-rule:evenodd"/><path d="M93.22,172.85a6.2,6.2,0,0,0-5.28-2.52,9,9,0,0,0-5.88,2.16,9.41,9.41,0,0,0-3.15,6.73,9.57,9.57,0,0,0,2.1,6.26,8.39,8.39,0,0,0,6.15,3.34,7,7,0,0,0,6.11-2.67l.53,2.2h4.28V170.58H93.7Zm-4.31,11.43a5.11,5.11,0,0,1-3.33-1.11,4.85,4.85,0,0,1,3.16-8.41,4.77,4.77,0,0,1,.17,9.52Z" style="fill:#38003d;fill-rule:evenodd"/><path d="M133.86,179.29c0,1.36-.14,3.15-1.35,4.08a3.82,3.82,0,0,1-2.79.86,3.66,3.66,0,0,1-2.69-1.41c-.78-1-.67-2.47-.67-3.65v-8.56h-5v9.89a8.09,8.09,0,0,0,2.4,6,8.59,8.59,0,0,0,6,2.32,8.85,8.85,0,0,0,6.5-2.09,7.94,7.94,0,0,0,2.57-5.8V170.61h-4.92Z" style="fill:#38003d;fill-rule:evenodd"/><path d="M123.5,139a2.94,2.94,0,0,0,2.14-.88,3,3,0,0,0,.9-2.17,3.07,3.07,0,0,0-3-3,3,3,0,0,0-2.16.9,2.91,2.91,0,0,0-.88,2.14,3,3,0,0,0,3,3Z" style="fill:#38003d;fill-rule:evenodd"/><path d="M152.83,149.64c.21-3,2.78-4.58,5.88-3.72v-4.55c-3-.58-4.63.34-5.92,2.7l-.55-2.69H148.1v17.68h4.73Z" style="fill:#38003d;fill-rule:evenodd"/><path d="M145.87,151.7a11.13,11.13,0,0,0-.7-5.65,8.73,8.73,0,0,0-7.9-5.18,9.39,9.39,0,0,0-9.44,9.53c0,5.08,3.73,9.1,9.82,9.17a11,11,0,0,0,7.32-3.34l-2.83-2.95a6.21,6.21,0,0,1-4.89,2.14c-2.51,0-4.48-1.85-4.48-3.72Zm-13.11-3.28a4.29,4.29,0,0,1,4.29-3.43,4.36,4.36,0,0,1,4.28,3.43Z" style="fill:#38003d;fill-rule:evenodd"/><path d="M114.19,172.85a6.17,6.17,0,0,0-5.27-2.52,9,9,0,0,0-5.88,2.16,9.41,9.41,0,0,0-3.15,6.73,9.57,9.57,0,0,0,2.1,6.26c2,2.4,4.91,3.92,9.19,3.08a6.32,6.32,0,0,0,2.8-1.77c.79,4.93-2.94,6.23-6.39,5.67a8.53,8.53,0,0,1-4.2-2.31L100.67,194a12.85,12.85,0,0,0,8.16,3.21c4.64.05,10.41-2.36,10.22-10.2V170.58h-4.37Zm-4.31,11.43a5.08,5.08,0,0,1-3.32-1.11,4.85,4.85,0,0,1,3.15-8.41,4.77,4.77,0,0,1,.17,9.52Z" style="fill:#38003d;fill-rule:evenodd"/><path d="M157.94,175.33a8.71,8.71,0,0,0-7.91-5.18,9.39,9.39,0,0,0-9.44,9.52c.06,5.09,3.73,9.11,9.83,9.18a11,11,0,0,0,7.31-3.34l-2.82-3a6.22,6.22,0,0,1-4.9,2.15c-2.5,0-4.47-1.86-4.48-3.72h13.1A11.12,11.12,0,0,0,157.94,175.33Zm-12.42,2.36a4.3,4.3,0,0,1,4.3-3.42,4.37,4.37,0,0,1,4.28,3.42Z" style="fill:#38003d;fill-rule:evenodd"/><path d="M68.4,170.15A9.38,9.38,0,0,0,59,179.67c0,5.09,3.73,9.11,9.82,9.18a11,11,0,0,0,7.32-3.34l-2.82-3a6.22,6.22,0,0,1-4.9,2.15c-2.51,0-4.48-1.86-4.48-3.72H77a11.13,11.13,0,0,0-.7-5.65A8.7,8.7,0,0,0,68.4,170.15Zm-4.51,7.54a4.29,4.29,0,0,1,4.29-3.42,4.38,4.38,0,0,1,4.29,3.42Z" style="fill:#38003d;fill-rule:evenodd"/><path d="M77.8,26h0a53.46,53.46,0,0,1,40.84-5c.55-4.44.87-8.31,3.33-13.65-3.26,2.37-5.35,5.06-7.76,8L113.4,2.84,103,14.43,95.84,2.78l-4.39,13-12.76-9,2.15,12.53a39.33,39.33,0,0,0-9.48-6.22A41.63,41.63,0,0,1,77.8,26Z" style="fill:#38003d;fill-rule:evenodd"/><path d="M140.65,92.48l4.27,4.71c5.71-18.45,2.31-33.44-7.84-48l-.42,3.38c-1.18-1.48-3.11-3.27-4-4.41-.14-.17-.11-.27-.2-.42.48-.29,1.37-.71,1.6-1.34-.09-.88-1.11-3.15-1.87-3.57-1.88.17-3.39,1.82-3.4,2.42a11.55,11.55,0,0,0-4.75-3,21.51,21.51,0,0,1,3.41,5.05,67.5,67.5,0,0,1,7.35,6.41l-.45.45c-2.57-2-9.44-1.84-13.22.07a69.94,69.94,0,0,0-7-7.35c-.73-1.25-.8-3.46,1.52-5.38a7.49,7.49,0,0,0-4.83,2.35,22.72,22.72,0,0,0-7.92-3.83c-3,.61-6.55,2.51-7.94,4.18,3.47,1.85,4.53,2.42,6.64,2.56,3.09.22,5.77-.48,7.75.78,2.45,2.18,7,6.26,7.69,8.11-4-2.28-9.91-1.07-16.51-1.42-6.25-.75-9.69-5.37-9.75-9.09l-4.44-.7a16.25,16.25,0,0,1,8-5.77l-2.44-2a29.78,29.78,0,0,1,16.15-6.58,55.76,55.76,0,0,1,10.47,6.51A12.34,12.34,0,0,0,120,31.31a51.82,51.82,0,0,1,14.32,10.16A29.09,29.09,0,0,1,131,31.2h0c-3.63-3-7.29-5.66-15.31-7.63a13.9,13.9,0,0,1,1.32,5.7c-2.07-2.21-4.59-4.95-7.66-6.58C99.18,21.37,88.76,23.91,80.59,28A8.74,8.74,0,0,1,87.7,34.1c-9.78-6.82-15.4,3-9.74,12.81-6.08-2.9-6.37-10-4.51-14.63A55.49,55.49,0,0,0,57.54,51.51l5.59.78C56.38,60.24,53,71.67,52.32,78.4l9.09-3c-2.88,10.42-.58,26.65,3.1,32.57,5.67-4.46,10.22-10,14.93-17.13,3,9.42,2.44,19.23.12,29.23,13.26,7.5,29.76,4.46,40.57-3.69.46,1.93.77,2.84,1.67,7C134.93,114.38,139.38,103.26,140.65,92.48Zm-9.51-30.54A20.66,20.66,0,0,0,136,58.3h0c3.38,7.16,2.66,14,.28,17.55a21.76,21.76,0,0,0-5.25-6.95ZM106,65.81c4.16-3,8.09-6.07,14.84-7.79a21.4,21.4,0,0,0,6.5,3.68v7.1c-4.24,2.91-8.48,7.64-15.48,8.09C110,73.29,108.19,69.23,106,65.81Zm12,22.82A35.2,35.2,0,0,0,114.53,82c3.57-.74,8.1-3.37,11.49-6.38l5.13,0A11,11,0,0,1,134,81.31c-.4,3.07-2.78,8.7-7,10.85a28.36,28.36,0,0,0-.69-7.86C123.93,87,120.05,88.19,118.05,88.63Z" style="fill:#38003d;fill-rule:evenodd"/></svg>