<svg id="Capa_1" data-name="Capa 1" xmlns="http://www.w3.org/2000/svg" viewBox="0 0 979 1438"><path d="M174.74,1001.33c0,27,18.42,40.31,43.45,40.31s43.45-13.29,43.45-40.31V941.07a1.28,1.28,0,0,0-1.28-1.28H236.1a1.24,1.24,0,0,0-1.24,1.25v60c0,11.44-5.4,17.79-16.91,17.79a16.82,16.82,0,0,1-16.37-17V941.07a1.28,1.28,0,0,0-1.27-1.28H176.05a1.28,1.28,0,0,0-1.28,1.28v60.26M279.1,939.79a1.25,1.25,0,0,0-1.24,1.25v97.9a1.23,1.23,0,0,0,1.21,1.27h69.82a1.23,1.23,0,0,0,1.24-1.24v-20.11a1.23,1.23,0,0,0-1.21-1.27H304.61v-17.27h35a1.24,1.24,0,0,0,1.24-1.24V980.19a1.25,1.25,0,0,0-1.21-1.28h-35V962.39h42.17a1.27,1.27,0,0,0,1.28-1.27v-20a1.28,1.28,0,0,0-1.28-1.28H279.07m85.27,0a1.29,1.29,0,0,0-1.28,1.28v97.87a1.28,1.28,0,0,0,1.28,1.27H388.6a1.27,1.27,0,0,0,1.27-1.27v-33.48H425a1.24,1.24,0,0,0,1.24-1.25V984a1.24,1.24,0,0,0-1.24-1.24H389.87V962.39h41.79a1.28,1.28,0,0,0,1.16-.74l9.49-20a1.25,1.25,0,0,0-.55-1.67,1.3,1.3,0,0,0-.58-.14H364.34m127,88.26H456.45l-4.68,11.33a1.21,1.21,0,0,1-1.16.77H427.24a1.23,1.23,0,0,1-1.24-1.24,1.15,1.15,0,0,1,.12-.54L474,938c.45-1,1.34-1,1.78,0l47.72,100.35a1.25,1.25,0,0,1-.59,1.66,1.13,1.13,0,0,1-.57.12H497.47a1.21,1.21,0,0,1-1.16-.74Zm-26.69-19.48h18.12l-9.13-21.24Z" style="fill:#fff"/><path d="M457.9,1062.82a1.64,1.64,0,0,0-1.64,1.64v127.48a1.64,1.64,0,0,0,1.6,1.68h31.66a1.63,1.63,0,0,0,1.64-1.64V1064.46a1.63,1.63,0,0,0-1.64-1.64H457.9m50.33,65.38c0-39.43,32.42-66.94,70-66.94s70.14,27.51,70.14,66.94-32.42,67.13-70.06,67.13-70-27.7-70-67.13m104.39,0c0-20.57-12.46-36.54-34.29-36.54s-34.29,16-34.29,36.54,12.46,36.73,34.29,36.73,34.29-16.12,34.29-36.73m-242.43,63.74a1.64,1.64,0,0,0,1.6,1.68h31.66a1.63,1.63,0,0,0,1.64-1.64v-99.75h32.88a1.64,1.64,0,0,0,1.64-1.63v-26.14a1.64,1.64,0,0,0-1.64-1.64H323.75a1.64,1.64,0,0,0-1.49,2.33l12.39,26.17a1.71,1.71,0,0,0,1.48.91h34.29Zm426.72-19a1.72,1.72,0,0,0,0,2.29c9,9.87,25,20.27,50.87,20.27,34.52,0,49.53-17.3,49.53-41.34,0-18.48-8.8-31-34.9-39.63l-17.26-5.79c-6.37-2.09-9.22-4.61-9.22-9.6s4.23-9,12.65-9a29.46,29.46,0,0,1,22.17,9s15.24-15.24,19.36-19.4a1.71,1.71,0,0,0,0-2.28c-7.89-8.58-21.49-16.12-43.51-16.12-23.25,0-44.54,13.26-44.54,39,0,21.53,13.45,33.07,32.46,39.4l15.24,5.22c8.65,2.89,12.88,5.56,12.88,11.16,0,7.28-6.14,10.37-16.5,10.37a34,34,0,0,1-26.67-13.57,1.61,1.61,0,0,0-2.26-.14l-.14.14Zm-17.79,22.86c2.1,1.72,2.7,1.15,2.7-.42V1064.42a1.67,1.67,0,0,0-1.67-1.64H750.74a1.68,1.68,0,0,0-1.68,1.64v64.09l-81.91-67.75c-2.1-1.71-2.67-.76-2.67.38v130.8a1.63,1.63,0,0,0,1.64,1.64h29.53a1.63,1.63,0,0,0,1.63-1.64v-63.43Zm-573.52,0c2.13,1.72,2.7,1.15,2.7-.42V1064.5a1.68,1.68,0,0,0-1.64-1.68H177.22a1.68,1.68,0,0,0-1.64,1.68v64l-81.92-67.75c-2.09-1.71-2.7-.76-2.7.38v130.8a1.63,1.63,0,0,0,1.64,1.64h29.52a1.63,1.63,0,0,0,1.64-1.64v-63.43Zm101-18.09H261.19l-6.1,14.74a1.71,1.71,0,0,1-1.52,1H223.09a1.64,1.64,0,0,1-1.66-1.62,1.71,1.71,0,0,1,.17-.74L284,1060.31c.61-1.34,1.72-1.34,2.33,0l62.18,130.76a1.64,1.64,0,0,1-.75,2.19,1.71,1.71,0,0,1-.74.17H314.61a1.68,1.68,0,0,1-1.53-1Zm-34.75-25.42h23.59l-11.85-27.54Z" style="fill:#fff"/><path d="M92.67,1216.71a1.69,1.69,0,0,0-1.68,1.64v127.33a1.68,1.68,0,0,0,1.68,1.67h87.1a1.64,1.64,0,0,0,1.64-1.63v-26.14a1.64,1.64,0,0,0-1.64-1.64H125.93v-99.59a1.63,1.63,0,0,0-1.64-1.64H92.67m106.68,0a1.67,1.67,0,0,0-1.67,1.64v127.33a1.67,1.67,0,0,0,1.67,1.67h90.91a1.67,1.67,0,0,0,1.64-1.67v-26.1a1.64,1.64,0,0,0-1.64-1.64H232.38v-22.52h45.73a1.66,1.66,0,0,0,1.63-1.67v-24.27a1.63,1.63,0,0,0-1.63-1.64H232.38v-21.57h55a1.63,1.63,0,0,0,1.64-1.63V1218.5a1.63,1.63,0,0,0-1.64-1.64h-88.2m367.29,80c0,35.21,24,52.5,56.61,52.5s56.62-17.29,56.62-52.5v-78.52a1.67,1.67,0,0,0-1.67-1.64H646.38a1.64,1.64,0,0,0-1.64,1.64v78.18c0,14.93-7,23.39-22,23.28a21.91,21.91,0,0,1-21.33-22.14v-79.32a1.64,1.64,0,0,0-1.64-1.64H568.09a1.63,1.63,0,0,0-1.64,1.64v78.56m136.17-80a1.63,1.63,0,0,0-1.64,1.64v127.14a1.64,1.64,0,0,0,1.6,1.67h90.95a1.66,1.66,0,0,0,1.63-1.67v-26.1a1.63,1.63,0,0,0-1.63-1.64H736v-22.52h45.72a1.67,1.67,0,0,0,1.64-1.67v-24.27a1.63,1.63,0,0,0-1.64-1.64H736v-21.57H791a1.63,1.63,0,0,0,1.64-1.63V1218.5a1.63,1.63,0,0,0-1.64-1.64H702.62m-183.38,97.92a54,54,0,0,1-25.33,5.18c-22.86,0-34.9-17.11-34.9-37.72s11.69-36.54,33-36.54a34.27,34.27,0,0,1,27.62,12.35,1.64,1.64,0,0,0,2.31.16,1.29,1.29,0,0,0,.17-.16l20.42-20.65a1.72,1.72,0,0,0,0-2.29c-11.43-12.73-28.46-20.19-49.83-20.19-37.61,0-69.46,27.51-69.46,66.94S455.08,1349,493.45,1349c29,0,44.73-8.12,56.81-18.1v-54.67a1.64,1.64,0,0,0-1.64-1.64H495a1.64,1.64,0,0,0-1.64,1.64V1300a1.65,1.65,0,0,0,1.64,1.64h24.23ZM387,1331.88H341.58l-6.1,14.75a1.71,1.71,0,0,1-1.52,1H303.48a1.63,1.63,0,0,1-1.65-1.62,1.57,1.57,0,0,1,.16-.74l62.37-130.76c.58-1.34,1.76-1.34,2.29,0l62.22,130.76a1.64,1.64,0,0,1-.75,2.19,1.71,1.71,0,0,1-.74.17H395a1.68,1.68,0,0,1-1.53-1Zm-34.71-25.41H376L364,1278.77Z" style="fill:#fff"/><path d="M804.27,1220.94v-3.47a.42.42,0,0,1,.42-.42H822.6a.42.42,0,0,1,.42.42v3.47a.39.39,0,0,1-.34.42h-6.45v20a.42.42,0,0,1-.42.42h-4.15a.42.42,0,0,1-.42-.42v-20h-6.63a.39.39,0,0,1-.42-.34v-.08" style="fill:#fff"/><path d="M827.78,1216.71h.45l11.43,12.53a.57.57,0,0,0,.81.07l.07-.07L852,1216.71h.46v24.42a.61.61,0,0,1-.61.61H848a.61.61,0,0,1-.61-.61h0v-13.87l-7.09,8.16a.57.57,0,0,1-.8.11l-.11-.11-7-8.16v13.87a.61.61,0,0,1-.57.61H828a.61.61,0,0,1-.61-.61h0Z" style="fill:#fff"/><path d="M126.09,157.47a2.87,2.87,0,0,0-2.87-2.88,2.82,2.82,0,0,0-1.15.24,77.08,77.08,0,0,0-28.14,21.38,13.5,13.5,0,0,0-3,8.58v840.09a11.4,11.4,0,0,0,4.31,8.92l25.79,21.13a3.11,3.11,0,0,0,4.31-.93,3,3,0,0,0,.48-1.46Z" style="fill:#fff"/><path d="M228.34,305.58l-.63-2.39c13.09-20.66,25.5-41.8,37.58-62.32,12.85-21.81,25-42.47,37.39-61.74l4.13-3.06,4.17.62a664.49,664.49,0,0,1,82.83,64.71v2.49l-4.17,1.78c-38,1.67-84.94,24.73-130.39,47-9,4.36-18.16,8.82-27.13,13.09Z" style="fill:#d42e20"/><path d="M649.34,326.2c-29.52,0-61.83-7.77-98.69-23.59l-4.8-4.07.34-2.69a542.27,542.27,0,0,0,47.55-46.64l3.5-1.34,4.51,2a519.79,519.79,0,0,0,82.83,67.73l.52,2.54-3.74,2.68A151.07,151.07,0,0,1,649.34,326.2Z" style="fill:#d42e20"/><path d="M691.57,443.59a32.14,32.14,0,0,1-26.22-12.9,48.62,48.62,0,0,1-9.58-24.78l1.63-1.68,1.72-1.72h8.63a178.25,178.25,0,0,0,65.38-12.08l1.82,1.2,1.83,1.2a53.56,53.56,0,0,1-10.93,31.49A41.45,41.45,0,0,1,691.57,443.59Z" style="fill:#193e79"/><path d="M657.16,404.23l-1.63,1.68c-10.16-.57-18.31-1.15-28.76-2.68l-4.32-2.4v-2.64a431.63,431.63,0,0,0,58.72-75.35l3.79-2.68,4.41.76c26.79,17.64,54.21,33.85,83.5,49.42l1.53,2.83-5.89,5.61a256.62,256.62,0,0,1-32,14.38l-1.82-1.2-1.82-1.2a39.06,39.06,0,0,0-18.7-30.43,29.84,29.84,0,0,0-16.25-4.8,36.51,36.51,0,0,0-30,16.49,50.45,50.45,0,0,0-9,30.49Z" style="fill:#188ec6"/><path d="M650.93,488c-28.76,0-55.61-8-91.08-27l-4.79-4.79.52-2.59a536.27,536.27,0,0,0,63-51.77l3.69-1.2,4.31,2.4a719.27,719.27,0,0,0,71.9,73.53v2.73l-4.45,2.83a188,188,0,0,1-43.14,5.66Z" style="fill:#193e79"/><path d="M618.71,402A251.33,251.33,0,0,1,590,395.22l-2-2.49-2.16-2.54a70.61,70.61,0,0,0-11.31-26.8c-12-17.88-26.61-29-38.35-29A15.48,15.48,0,0,0,526,338.08c-5.32,4.46-7.19,13.76-5.23,25.6l-1.63,1.15-1.53,1.25c-9.59-4.8-18.6-9.59-26.7-14.38l-6-5.42.43-2.54c21.29-15.67,39.26-29.14,56.85-44.63l3.21-.48,4.8,4.08a1163.79,1163.79,0,0,0,71.9,95.58v2.64Z" style="fill:#f5c71f"/><path d="M570,423.07c-13.08,0-29.76-12.22-41.46-30.48A77.47,77.47,0,0,1,518,366.08l1.54-1.25,1.63-1.15A475.61,475.61,0,0,0,586,390.19l2.16,2.54,2,2.49a26.87,26.87,0,0,1-10.89,25.17,16.31,16.31,0,0,1-9.3,2.68" style="fill:#193e79"/><path d="M144.74,413.63c31.2-29.24,54.64-65.58,79-103.92l4.79-4h3.83c23.59,13.13,50.14,26.8,81.2,41.7l.68,2.3-5.66,5.66c-11.31,7.09-22.48,13.57-33.22,19.17l-1.73-1.1-1.77-1.05c0-12.37-4.79-21.57-13.71-26A22.93,22.93,0,0,0,247.89,344c-12.6,0-32.73,10.69-49.22,34.51a61.85,61.85,0,0,0-10.45,27.52l-2,2.34-1.92,2.35a296.2,296.2,0,0,1-37,7.67l-3.69-1.1Z" style="fill:#d42e20"/><path d="M233.37,484.72l-.48-2.35a972.08,972.08,0,0,0,57.52-94.63c6.33-11.4,12.32-22.38,18.26-32.4l5.47-5.61,3.69-.24c41.7,20.18,68.69,36.1,92,54.6v2.44l-5.32,2.64c-39.45,6.9-78,28.76-112.31,47.94a537.91,537.91,0,0,1-54.79,28.13Z" style="fill:#193e79"/><path d="M233.37,664l-.43-2.4C265.2,619.46,289.17,576.08,312,533.9l5.08-5.71,3.64-.38a533.41,533.41,0,0,1,89.74,50.33v2.49l-4.8,3c-27.51,7.29-54.31,22.91-82.63,39.36-27.14,15.67-55.18,31.82-85.42,41.41Z" style="fill:#159245"/><path d="M404.35,542.72a48,48,0,0,1-30.58-10.26,37.46,37.46,0,0,1-13.13-28.76l1.77-2.73,1.92-2.79A162.66,162.66,0,0,1,428.41,484a134.79,134.79,0,0,1,21.24,1.68l2.2,2.2L454,490a46.77,46.77,0,0,1-13.32,38.34,51.73,51.73,0,0,1-36.29,14.38" style="fill:#fff"/><path d="M316.25,525.89a461.06,461.06,0,0,1,88.2-116.72l5.37-2.64,4.36,1.3c28.42,23.44,52.73,52.73,78.42,93.14l-.38,2.73L489,504A142.21,142.21,0,0,0,454,490l-2.11-2.21-2.2-2.2a53.4,53.4,0,0,0-8.77-21.24,33.6,33.6,0,0,0-27.76-14.67,47.4,47.4,0,0,0-33.93,16.59A54.9,54.9,0,0,0,364.81,498l-1.92,2.78-1.77,2.73A286,286,0,0,0,321,527.81l-3.64.38Z" style="fill:#d42e20"/><path d="M574.28,584.23c-11.94,0-28.19-13.52-40.46-33.56a83.22,83.22,0,0,1-11-28.47l1.63-1.2,1.62-1.1a413.77,413.77,0,0,0,63.37,28.18l2,2.55,1.87,2.39c.28,13.14-3.84,24-11.08,28.76a14.29,14.29,0,0,1-8,2.35" style="fill:#188ec6"/><path d="M232.94,661.64a358.41,358.41,0,0,1-85.71-70.85l-3.54-1.63v86l1.43,2.06a113.44,113.44,0,0,0,16.16,1.06h0a257.76,257.76,0,0,0,67.63-11l4.8-3.16Z" style="fill:#159245"/><path d="M560.71,615c-28-16-65.33-36.86-111.59-36.86a171.23,171.23,0,0,0-34.17,3.5l-4.27-.91v-2.49A683.79,683.79,0,0,1,488.81,504l3.21-.28,4.8,4.46c24.44,39.11,45.58,72.76,67.11,104.25l-.44,2.54Z" style="fill:#159245"/><path d="M764.05,529.29l-3.79,4.08a768.29,768.29,0,0,1-53.83,97.5l.48,2.63,4,.77a299.77,299.77,0,0,0,58.48-23l.91-2.54a425.53,425.53,0,0,1-6.28-79.52" style="fill:#159245"/><path d="M657,641.46a188,188,0,0,1-87.52-21.67L564,615l.43-2.54A532.7,532.7,0,0,0,624,560.31l3.79-1.34,4.08,2.15a451.84,451.84,0,0,0,74.53,69.75l.48,2.63-3.78,2.59A213.73,213.73,0,0,1,657,641.41Z" style="fill:#159245"/><path d="M230.88,803.81A44.14,44.14,0,0,1,206,796,43.17,43.17,0,0,1,188,765.56l1.59-1.87,1.63-1.87a254.79,254.79,0,0,0,88.63-23.1l1.87,1,1.82,1.11a66.09,66.09,0,0,1-10.45,35.76c-10.55,17.54-25.5,27.17-42.09,27.17Z" style="fill:#fff"/><path d="M576.2,362.43c-15.49-23.43-37.34-37.19-51-25.74-6.56,5.56-7.76,16.54-5.7,28.14a464.91,464.91,0,0,0,68.64,27.9,70.09,70.09,0,0,0-12-30.34" style="fill:#fff"/><path d="M591.25,736c-11.75,0-29.63-9.29-41.08-27.08a96.6,96.6,0,0,1-13.42-31.54l1.63-1.29,1.58-1.3c11.65,4.8,21.81,9.59,31.68,14.38,11.41,5.42,22.29,10.6,33.56,14.62l2.2,2.69,2.06,2.59c.48,11-3.26,20.66-9.58,24.92A14.76,14.76,0,0,1,591.25,736Z" style="fill:#fff"/><path d="M696.42,597.31a34.35,34.35,0,0,1-21.86-7.81,36.45,36.45,0,0,1-13.62-26.89l1.78-1.87,1.77-1.82a204.75,204.75,0,0,0,68.79-16.35l1.91,1.1,1.87,1.2a61.56,61.56,0,0,1-8.91,33.56A36.87,36.87,0,0,1,696.42,597.31Z" style="fill:#fff"/><path d="M551.85,456.53c-4.17-2.35-8.54-4.79-13.09-7.53-32-18.55-71.9-41.7-113.7-41.7a74.47,74.47,0,0,0-10.88.53l-4.41-1.3v-2.44A802.11,802.11,0,0,1,482,346.57h3.3l6,5.42c15.87,22.67,31,47.5,46.93,73.72,5.66,9.3,11.51,18.88,17.45,28.47l-.53,2.59Z" style="fill:#193e79"/><path d="M492.22,503.7a142.21,142.21,0,0,0-40.37-15.87,44.79,44.79,0,0,1-12.51,39.45c-15,15.15-44.72,19.46-64.28,3.79a36.58,36.58,0,0,1-12.46-30.25,285.2,285.2,0,0,0-45.49,27.37,530.11,530.11,0,0,1,93.57,52.3,684.13,684.13,0,0,1,81.49-76.7" style="fill:#f5c71f"/><path d="M145,585.38c35.76-32.12,60.15-64.19,83.5-96.88l4.79-3.78,4,.28a778.93,778.93,0,0,0,78.95,40.89l.77,2.3-5.09,5.71a366.33,366.33,0,0,1-34.46,22l-1.82-1.05-1.78-1.11a26.25,26.25,0,0,0-12.75-23,30.15,30.15,0,0,0-15.72-4.36c-14,0-29.62,9.11-42.85,24.93A61,61,0,0,0,189,582.93l-2,2.21-1.87,2.06a309,309,0,0,1-37.92,3.55l-3.54-1.59Z" style="fill:#193e79"/><path d="M152,505.38h-7l-1.58-1.92V417.32l3.93,1.29a496.75,496.75,0,0,0,85.51,63.66l.48,2.35-4.79,3.79c-29.53,11.17-55.27,16.87-76.7,16.87" style="fill:#193e79"/><path d="M622,250.94c-6.66,0-13.56-.48-20.37-1.05l-4.51-2-.33-3.07a358.61,358.61,0,0,0,52.73-78.61l3.83-2.63,4.17.71a416.6,416.6,0,0,0,82.4,41.66l2.11,2.64-4.41,5.65A174.9,174.9,0,0,1,710,231.33l-2-1-2-1.06a38.36,38.36,0,0,0-22-27.18A30.8,30.8,0,0,0,670.82,199a36.8,36.8,0,0,0-32.07,22.29A44.57,44.57,0,0,0,634.63,247l-1.54,1.87-1.39,1.87h-9.58" style="fill:#d42e20"/><path d="M641.15,714.9a132.1,132.1,0,0,1-31.83-6l-2.06-2.58-2.21-2.69a60.22,60.22,0,0,0-12.6-27.18c-13.19-16.82-27.76-26.89-38.93-26.89a14.39,14.39,0,0,0-9.87,3.6c-4.17,3.59-5.51,11.45-3.69,21.66l-1.58,1.3-1.63,1.29c-10-4-18.75-7.19-28.76-10.16l-4.8-3.21V661.5A585.89,585.89,0,0,1,560.71,615h3.12l5.51,4.79a680.18,680.18,0,0,0,75.26,91.32v2.49Z" style="fill:#193e79"/><path d="M654.43,562.7a188.48,188.48,0,0,1-22.53-1.53l-4.08-2.2v-2.59a821.09,821.09,0,0,0,66.39-74.11l4.46-2.83,3.74.87A632.76,632.76,0,0,0,762.47,526l1.58,3.22-3.79,4.07c-7.81,4.27-15.67,8.15-23.39,11.51l-1.87-1.2-1.91-1.11a29.91,29.91,0,0,0-9.06-20,27.75,27.75,0,0,0-18.46-7,41.74,41.74,0,0,0-31.2,17.3A44.74,44.74,0,0,0,664.49,559l-1.77,1.82-1.78,1.87h-6.47Z" style="fill:#193e79"/><path d="M774.45,373.17l-5.89,5.61c-27.71,41.27-50,72.48-70,98v2.73l3.74.86a307.62,307.62,0,0,0,65.39-26.55l2.3-3.36a506.69,506.69,0,0,0,4.36-77.27" style="fill:#193e79"/><path d="M213.77,447.33a29.12,29.12,0,0,1-17.36-5.8c-8-5.9-12.36-17.21-11.88-30.59l1.91-2.34,2-2.35a476.12,476.12,0,0,0,83.64-33.56l1.78,1.06,1.72,1.1a80,80,0,0,1-12.36,35.52C249.14,433.52,230.88,447.33,213.77,447.33Z" style="fill:#193e79"/><path d="M404.3,373.75a53.72,53.72,0,0,1-35.9-13.52,41.18,41.18,0,0,1-13.8-30.15l1.82-2.59,2-2.64a136.57,136.57,0,0,1,84.6-.76l2.21,2.59,2.06,2.63A40.59,40.59,0,0,1,404.16,374Z" style="fill:#193e79"/><path d="M143.69,331.37V245.43l3.88,1.15a458.65,458.65,0,0,0,80.14,56.61l.63,2.39-4.8,4c-32,14.38-60.2,23-78.7,23.49Z" style="fill:#d42e20"/><path d="M627.82,559,624,560.21A213.85,213.85,0,0,1,593.36,553l-1.87-2.39-2-2.54A63.83,63.83,0,0,0,581,522.78c-13.42-23.06-28.52-31.21-37.39-31.21a17.32,17.32,0,0,0-12.22,5.32c-4.8,4.79-6.67,12.75-5.33,22.87l-1.62,1.1-1.63,1.2L509,514.63l-11.93-6.47-4.8-4.46.39-2.73c18.5-15,35.76-27.38,52.44-39.45l6.85-4.8h3.26l4.79,4.8a834.66,834.66,0,0,0,67.83,94.91Z" style="fill:#d42e20"/><path d="M325.5,713.41l-.77-2.4c21.09-42.13,42.09-82.68,81-127.5l4.8-3,4.26.91a514.3,514.3,0,0,1,88.39,80.1V664l-3.35.81a177.22,177.22,0,0,0-37.54-4.79l-2-1.87-2-1.82a40.46,40.46,0,0,0-12.66-24.3,33.93,33.93,0,0,0-23-9.59c-14.81,0-30.29,10.54-41.32,28.18a70.31,70.31,0,0,0-11.21,29.63l-2,3.07-1.68,3a391.74,391.74,0,0,0-37.58,26.37Z" style="fill:#d42e20"/><path d="M542.55,299c-10.45-4.8-21.19-10-31.59-15.15-36.58-18.12-74.44-37-112.65-38.35l-4.46-1.67v-2.5a454,454,0,0,1,71.91-56.61h3.49l6.72,6c19.17,26,36,52.2,50.95,75.59,6.81,10.74,13.28,20.9,19.17,29.63l-.33,2.68Z" style="fill:#d42e20"/><path d="M742,208.57l-4.41,5.65a905.78,905.78,0,0,1-53.11,103.4l.53,2.54,4.41.76c24-6.08,50.9-14.38,73.48-27.51l1.2-2.83h0c-7.77-34-17.45-61.11-22.1-82" style="fill:#d42e20"/><path d="M211.75,267.29A31.6,31.6,0,0,1,192.58,261a30.24,30.24,0,0,1-10.07-24.59l1.78-2.54,1.91-2.64a371.31,371.31,0,0,0,53.35-26.27c8.78-4.79,17.84-10.06,27.13-14.71l1.92,1.1,1.87,1.05a73.8,73.8,0,0,1-10.16,39.17c-12.46,22.05-31,35.76-48.41,35.76Z" style="fill:#fff"/><path d="M721.72,747.92a41.46,41.46,0,0,1-40.79-33.55l1.54-2,1.63-2a352.34,352.34,0,0,0,70-17.64l2.25,1.1,2.21,1.2a48.2,48.2,0,0,1-4.8,36.1,36.48,36.48,0,0,1-32,16.92" style="fill:#fff"/><path d="M314,349.73l-.67-2.3a594.84,594.84,0,0,1,76.31-101.76l4.17-1.78,4.46,1.68a672.71,672.71,0,0,1,87.39,98.07l-.44,2.55H482a184.51,184.51,0,0,0-34.66-17.31l-2.06-2.64L443,324.09a48.58,48.58,0,0,0-11.7-24,44.93,44.93,0,0,0-32.93-16.73,36.56,36.56,0,0,0-27.95,13.52,51.54,51.54,0,0,0-12.08,27.85l-2,2.64L354.5,330a188.56,188.56,0,0,0-36.81,19.18Z" style="fill:#188ec6"/><path d="M655.58,715.47h-6.33l-4.36-1.72v-2.5a595.14,595.14,0,0,0,58.38-75l3.79-2.58,4,.76a412.47,412.47,0,0,0,78.23,44.1l2.83,3.17-2.83,2.63c-6.52,2-12.84,4.36-20.61,7.14l-10,3.55-2.2-1.2-2.26-1.1a35.18,35.18,0,0,0-15.77-19.17A39.08,39.08,0,0,0,719,668.11a33.24,33.24,0,0,0-27.9,15.34,42.74,42.74,0,0,0-6.85,26.84l-1.63,2-1.53,2a219.25,219.25,0,0,1-25.36,1.2Z" style="fill:#188ec6"/><path d="M672.54,285.74a41,41,0,0,1-25.88-10.69,43.07,43.07,0,0,1-15-24.25l1.39-1.87,1.53-1.87A188.77,188.77,0,0,0,706,229.32l2,1.06,2,1a49.63,49.63,0,0,1-3.26,25.22C699.39,275.05,686.92,285.74,672.54,285.74Z" style="fill:#159245"/><path d="M725.22,521.24c-14.86-13-36.71-8.82-52.24,10.5a46.33,46.33,0,0,0-10.26,28.76,206.43,206.43,0,0,0,72.28-17,32.13,32.13,0,0,0-9.58-22.43" style="fill:#188ec6"/><path d="M581.28,580.39c-11.84,7.91-32.17-8.1-45.92-30.77a79.6,79.6,0,0,1-10.88-28.76c-11.08-5.85-21.77-11.75-32.26-17.21,25.74,41.08,48.65,77.89,71.9,111.25A545.12,545.12,0,0,0,627.82,559a224.89,224.89,0,0,1-36.33-8.39c.86,13.37-3,25-10.21,29.76" style="fill:#193e79"/><path d="M369,295.81a52.34,52.34,0,0,0-12.71,31.68,134.63,134.63,0,0,1,88.87-1.05A49.5,49.5,0,0,0,432.63,299c-19.17-21.52-45.92-24-63.65-3.21" style="fill:#f5c71f"/><path d="M407.32,721.94a42.42,42.42,0,0,1-18.16-4.12,36,36,0,0,1-22.72-31.06l1.67-3,2-3.07a186.12,186.12,0,0,1,88.1-24l2,1.83,2,1.86a54.58,54.58,0,0,1-11.7,36.43C437.91,712.88,422.57,721.94,407.32,721.94Z" style="fill:#f5c71f"/><path d="M739.22,672c-19.17-11-39.21-5.37-49.8,10.45a44.55,44.55,0,0,0-6.95,30,350.8,350.8,0,0,0,73.86-18.56A37.37,37.37,0,0,0,739.22,672" style="fill:#f5c71f"/><path d="M734.24,776.25a352,352,0,0,1-85-60.92l-4.36-1.73-3.74,1.3a338.35,338.35,0,0,1-63.23,53.87l-.62,2.69c43.91,24.3,94.57,27.32,157.22,7.14Z" style="fill:#f5c71f"/><path d="M428.18,755.5c-14.91-6.91-30.73-13.76-47.46-21.09S346.26,721.08,328.81,713l-3.31.43-4.79,5.94-4.08,8.34c-18.4,37.44-37.58,74.54-74.63,115l.29,2.35c86.8-17.69,115-55.27,186.7-87.29Z" style="fill:#f5c71f"/><path d="M172.45,764.8a227.93,227.93,0,0,1-24.64-1.54l-4.41-2.16,1.29-3.35c36.48-30.1,60-59.54,83.93-90.55l4.8-3.16,4.26.43A984,984,0,0,0,324.78,711l.77,2.4-4.8,5.94a267.58,267.58,0,0,1-37.19,21.77L281.74,740l-1.87-1a31.25,31.25,0,0,0-16.78-26.13,40.78,40.78,0,0,0-18.22-4.17,56.75,56.75,0,0,0-45.34,25.22,46.59,46.59,0,0,0-8.29,28.18l-1.63,1.87L188,765.8c-5.51.34-10.59-.76-15.53-.76" style="fill:#159245"/><path d="M314,349.73c-13.9,8.92-27.32,16.88-40.41,24a77,77,0,0,1-12,35.9c-18.93,31.54-46.06,43.91-64.37,30.49-8.44-6.23-12-18.36-11-31.49a299.64,299.64,0,0,1-42.56,8.72,488.74,488.74,0,0,0,89.68,67.4c36.77-51.82,58.91-99.47,80.67-135" style="fill:#159245"/><path d="M465.8,184.79a203.29,203.29,0,0,0-34.89-13.61l-2.26-2.54-2.49-2.74a60,60,0,0,0-12.32-23.2c-9.58-10.88-20.9-17.11-31.63-17.11a31.34,31.34,0,0,0-22.34,10.31,39.3,39.3,0,0,0-10.36,28l-1.72,2.16-1.63,2.2c-11.07,2-21.91,4.8-35.18,8.49l-4.32-.63-.53-2.44c25.7-39.31,49.19-65.91,71.91-81.2l4.5-.82L388.68,94c23.44,19.18,52.2,50.09,81,88.15l-.43,2.45Z" style="fill:#159245"/><path d="M724.17,423.41c-14.38,21.66-43.43,24.73-57.52,6.23a47.19,47.19,0,0,1-9.59-25.41,321.06,321.06,0,0,1-34.75-3.4,719,719,0,0,0,76.26,78.66c23.06-29.38,47.6-64.23,75.79-106.32a236,236,0,0,1-39.74,18.6,51.08,51.08,0,0,1-10.55,31.64" style="fill:#159245"/><path d="M508,667.25l-4.8-3.21-3.35.81a394.56,394.56,0,0,0-71.66,90.65l.67,2.44c64.23-28.76,121.94-1.1,148.59,13.52l.63-2.69A526.09,526.09,0,0,0,508,667.25" style="fill:#f5c71f"/><path d="M220.38,624.49a36.77,36.77,0,0,1-24-8.58,35.58,35.58,0,0,1-11.12-28.76l1.87-2.06,2-2.21A286.21,286.21,0,0,0,274,553.69l1.77,1.11,1.83,1.05a81.54,81.54,0,0,1-15,42.57c-11.07,16.58-26.51,26.07-42.42,26.07" style="fill:#f5c71f"/><path d="M377.8,465.11a56,56,0,0,0-15.2,35.71c32.21-14.38,61.88-17.93,89.25-13a56.34,56.34,0,0,0-9.58-24.54c-16.11-22.05-45-19.41-64.43,1.82" style="fill:#193e79"/><path d="M792,681.58l-2.83,2.64a295.26,295.26,0,0,1-54.93,92l.28,2.35C790.94,760.39,826,757.89,826,757.89s-16.54-36.14-34-76.31" style="fill:#f5c71f"/><path d="M241.85,842.88a569.22,569.22,0,0,1-94-79.62l-4.41-2.16v81.49a210.85,210.85,0,0,0,98.69,2.74Z" style="fill:#f5c71f"/><path d="M263.86,711c-22.87-11.36-51.68.67-65.82,21.62a47.88,47.88,0,0,0-8.43,31.06,258.94,258.94,0,0,0,92.13-24A32.89,32.89,0,0,0,263.86,711" style="fill:#193e79"/><path d="M281.74,739.77a63.46,63.46,0,0,1-10.31,36c-18.12,30.11-46,31.35-64.47,18.79a41.3,41.3,0,0,1-17.35-30.82,232.26,232.26,0,0,1-46.16-2.59,577.43,577.43,0,0,0,98.69,84.13c43.14-46.88,62.32-90.12,83.36-131.82a255.16,255.16,0,0,1-43.76,26.36" style="fill:#d42e20"/><path d="M752.16,730.09c-9.58,16.87-35.52,21.33-52.72,9a38.3,38.3,0,0,1-16.78-26.84,211.65,211.65,0,0,1-37.58,1.34,351.22,351.22,0,0,0,89.63,65,294.13,294.13,0,0,0,57.53-97c-10.36,3-21.57,7.29-35.67,12.13a46.3,46.3,0,0,1-4.17,36.38" style="fill:#d42e20"/><path d="M262.13,529.2c-18.31-11-41.75-1.63-60.92,20.95a62.24,62.24,0,0,0-14.38,35,288.48,288.48,0,0,0,88.72-30.39,28.47,28.47,0,0,0-13.61-25.6" style="fill:#d42e20"/><path d="M396.44,211.63a55.78,55.78,0,0,1-34.22-12.75,43.9,43.9,0,0,1-16.06-30.63l1.63-2.2,1.72-2.16A211,211,0,0,1,385,160.73a156.69,156.69,0,0,1,41.17,5.17l2.49,2.54,2.26,2.55A35.22,35.22,0,0,1,422,201.38a34.72,34.72,0,0,1-25.55,10.06Z" style="fill:#d42e20"/><path d="M446.77,630.87c-21.95-19.18-49.75-8.39-67.1,19.17A70.38,70.38,0,0,0,368,683.59c30.15-16.68,60.68-25.83,92.08-25.21a42.35,42.35,0,0,0-13.33-27.51" style="fill:#fff"/><path d="M582.57,521.91c-12.65-21.71-35.66-42.52-52.39-26.27-5.75,5.61-7.29,14.91-5.7,25.27a415,415,0,0,0,67.1,29.71,65.9,65.9,0,0,0-8.91-28.76" style="fill:#f5c71f"/><path d="M598.53,732.34C589,738.48,565.27,729,551.7,708a93.31,93.31,0,0,1-13.32-31.83A328.14,328.14,0,0,0,503.19,664a537.94,537.94,0,0,1,74.3,107.42,342.8,342.8,0,0,0,67.59-57.86,133.15,133.15,0,0,1-37.63-7.28c1.29,12.22-2.59,22-8.72,26" style="fill:#188ec6"/><path d="M228.34,305.58c30.68,17.21,62,32.74,85.7,44.15a584.46,584.46,0,0,1,79.81-105.84c-47.5,0-109.57,35.38-165.51,61.69" style="fill:#fff"/><path d="M555.15,456.39A848,848,0,0,0,627.82,559a814.75,814.75,0,0,0,70.85-79.53c-54.12,14.05-91.7,5.8-143.52-23.1" style="fill:#fff"/><path d="M764.1,290.53h0c-24.4,15-54.26,23.4-79.09,29.58a1018.07,1018.07,0,0,0,89.44,53A392.18,392.18,0,0,0,764.1,290.53Z" style="fill:#cfd2d3"/><path d="M792,681.58a327.57,327.57,0,0,1-21.67-72.76,292.73,292.73,0,0,1-63.42,24.73A414,414,0,0,0,792,681.49" style="fill:#cfd2d3"/><path d="M764.05,529.29a598,598,0,0,1,6-78.85,304.63,304.63,0,0,1-71.42,29.05,638.11,638.11,0,0,0,65.38,49.8" style="fill:#cfd2d3"/><path d="M545.76,298.54a1169,1169,0,0,0,76.69,102.29,434.49,434.49,0,0,0,62.6-80.67c-42.37,10.54-89.34.62-139.24-21.62" style="fill:#fff"/><path d="M485.26,346.19a189,189,0,0,0-40-19.75,42.22,42.22,0,0,1-10.64,34c-14.38,15.05-45.64,16.16-65-1.53a39.77,39.77,0,0,1-13.28-31.4A195.24,195.24,0,0,0,314,349.73c38.35,18.41,68.89,35.28,95.87,56.8a812.19,812.19,0,0,1,75.35-60.34" style="fill:#d42e20"/><path d="M233.37,664c33.84-44,58.14-88.49,83.74-135.85a407.63,407.63,0,0,1-41.37,26.61,79,79,0,0,1-14.38,42.61c-18.74,28.14-46.92,31.16-63.7,17.16a34.67,34.67,0,0,1-10.83-29.38,328,328,0,0,1-43.58,4A362.93,362.93,0,0,0,233.18,664" style="fill:#d42e20"/><path d="M144.88,241.5c21.81-21.91,51.34-67.11,72.77-105.46l4.79-4.79,3.55-.53a515.19,515.19,0,0,1,80.38,42.66l.53,2.45-4.12,3.06a227.25,227.25,0,0,0-32.36,13.19l-2.11-.77-1.91-1.1a22.62,22.62,0,0,0-9.93-18.36,26.57,26.57,0,0,0-13-3.21c-16,0-33.56,11.41-45.45,29.76a72,72,0,0,0-11.93,32.84l-1.92,2.59-1.77,2.54a203.91,203.91,0,0,1-35.19,10.21l-3.49-1.15Z" style="fill:#193e79"/><path d="M578.31,418.9c-11.89,7.91-33.89-4.79-48.32-27.27a77.35,77.35,0,0,1-10.45-26.8c-13.18-6.52-25-13-34.28-18.64,23.68,32.73,45.59,70.94,69.89,110.24a533.33,533.33,0,0,0,67.11-55.55,243.11,243.11,0,0,1-34.22-8.1c1.19,11.12-1.78,20.75-9.88,26.17" style="fill:#d42e20"/><path d="M593.64,249.21A135,135,0,0,1,569,241.83l-2.45-2.78-2.68-2.92a107.56,107.56,0,0,0-15.44-29.77c-10-13.9-24.59-28.76-35.76-28.76a10.17,10.17,0,0,0-7.47,3.12c-3.65,3.54-3.74,12.41,0,23.72l-1.49,1.2-1.53,1.2-26-16.2-6.72-6,.44-2.45c4-2.58,8.05-5.36,12-8.05a319.45,319.45,0,0,1,33.84-21.67H520l5.7,3.41a578.62,578.62,0,0,1,42.18,52A416.7,416.7,0,0,0,597,245l.34,3.06Z" style="fill:#d42e20"/><path d="M726.42,577.28c-13.08,21.61-36.76,22.33-50.76,10.78a35.08,35.08,0,0,1-12.94-27.37,186,186,0,0,1-34.9-1.72,459.25,459.25,0,0,0,79.09,74.53,770.65,770.65,0,0,0,57.14-104.25,290.28,290.28,0,0,1-29,14.38,58.85,58.85,0,0,1-8.58,33.55" style="fill:#d42e20"/><path d="M557.07,267.72c-12.22,0-29.58-17.36-41.27-34.56A110.41,110.41,0,0,1,502,206.84l1.54-1.2,1.48-1.2a359.25,359.25,0,0,0,58.87,31.69l2.68,2.92,2.45,2.78A27.09,27.09,0,0,1,566.18,263,10.85,10.85,0,0,1,557.07,267.72Z" style="fill:#d42e20"/><path d="M593.88,675.35c-19.65-25.12-40.26-33.55-51.43-23.58-5.08,4.41-6.18,13.56-4.07,24.35,27.13,11,47,22.72,68.88,30.2a60.92,60.92,0,0,0-13.38-31" style="fill:#d42e20"/><path d="M734.71,391.77a40.77,40.77,0,0,0-19.55-33.12c-13.66-8.87-36-6.09-48.8,12.37a52.71,52.71,0,0,0-9.2,33.21,182,182,0,0,0,77.55-12.46" style="fill:#d42e20"/><path d="M233.37,664c-35.18,10.5-67.54,14.76-89.68,11.07v86c40.21-32.73,65.43-65.19,89.92-97.06" style="fill:#cfd2d3"/><path d="M228.34,305.58C198,320,164.92,331.33,143.45,331.37v85.95c33.79-30.92,58.81-70.66,84.89-111.74" style="fill:#cfd2d3"/><path d="M233.37,484.72c-39.88,15.77-69.07,20.18-89.68,18.5v85.94c39.59-35,65.76-70.7,89.68-104.44" style="fill:#cfd2d3"/><path d="M233.37,664c29.34,17.45,60.92,34.85,92.13,49.37,20.47-40.84,42.33-84.51,85.18-132.92-57.52,12.94-112.5,64.28-177.36,83.55" style="fill:#fff"/><path d="M409.77,406.53c-64.76,8.92-125.49,58.05-176.4,78.19a788.62,788.62,0,0,0,83.74,43.47,462,462,0,0,1,92.66-121.66" style="fill:#fff"/><path d="M564,615a699.56,699.56,0,0,0,80.92,98.65,597.54,597.54,0,0,0,62-80.05A191.71,191.71,0,0,1,564,615" style="fill:#fff"/><path d="M409.77,406.53c29.86,24,55.22,53.6,82.45,97.17,22.43-18.27,43.14-32.93,62.93-47.31-37.82-21.14-90.07-57.52-145.38-49.86" style="fill:#cfd2d3"/><path d="M485.26,346.19c20.76-15.3,41-30.4,60.5-47.65-48.61-21.72-99.71-54.79-151.91-54.65a676.37,676.37,0,0,1,91.41,102.3" style="fill:#cfd2d3"/><path d="M410.68,580.49A514.54,514.54,0,0,1,503.19,664a597.52,597.52,0,0,1,61-49.09c-36.47-20.7-83.74-50-153.39-34.46" style="fill:#fff"/><path d="M503.19,664a174.49,174.49,0,0,0-43.14-5.66,52.32,52.32,0,0,1-11.12,37.2c-16.2,20.95-37.58,30.44-59.2,20.47a34,34,0,0,1-21.66-32.46,409.18,409.18,0,0,0-42.57,29.82c35.85,16.73,71.9,29.91,103.35,44.53A394.83,394.83,0,0,1,503.19,664" style="fill:#193e79"/><path d="M259,345c-20.61-10.12-47.55,12.22-61.79,32.69a63.43,63.43,0,0,0-10.93,30.92,391.34,391.34,0,0,0,87.38-35c.44-13.23-4.79-23.72-14.66-28.76" style="fill:#fff"/><path d="M684.77,200.47c-18.79-8.92-39,1.58-47.7,20.08a46.69,46.69,0,0,0-4,28.33A192.8,192.8,0,0,0,708,230.33a39.92,39.92,0,0,0-23.2-29.86" style="fill:#fff"/><path d="M428.65,168.64a61.48,61.48,0,0,0-13.42-26.7c-15-17.4-37.72-26-56.66-7.1a42.12,42.12,0,0,0-10.78,31.06,173.68,173.68,0,0,1,80.86,2.59" style="fill:#193e79"/><path d="M549.93,205.31c-13.76-19.18-34.13-37.49-46-25.89-4.79,4.56-4.07,14.77-.38,26.22a345.07,345.07,0,0,0,63,33.56,104.07,104.07,0,0,0-16.63-33.56" style="fill:#f5c71f"/><path d="M257.48,170.27c-17.06-9.59-43.76,1-60.88,27.18a72.58,72.58,0,0,0-12.31,36.38c32.83-12,56.46-28.76,84.17-42.52-.82-9.59-4.51-17.45-11-21" style="fill:#f5c71f"/><path d="M597.14,247.87a132.35,132.35,0,0,1-30.58-8.82c2.35,9.3,2.06,17.5-1.82,22.87-9.2,12.8-32.21-7.48-47.46-29.77a110.37,110.37,0,0,1-13.75-26.51c-13.14-8.24-21.76-14.38-34.23-21,31.4,41.32,57,85.18,76.46,113.94a540.1,540.1,0,0,0,51.38-50.67" style="fill:#193e79"/><path d="M469.3,184.6a206.68,206.68,0,0,0-40.65-16,34.07,34.07,0,0,1-7.9,31.68c-14.38,14.38-39.65,11.51-57.53-2.83a42.78,42.78,0,0,1-15.43-31.59,387.17,387.17,0,0,0-41.13,10.21,664.66,664.66,0,0,1,87.19,67.78A442.83,442.83,0,0,1,469.3,184.6" style="fill:#f5c71f"/><path d="M685,320.16a908.2,908.2,0,0,0,57-111.59,172.12,172.12,0,0,1-34,21.76A47.5,47.5,0,0,1,705,255.88c-11.21,28.33-33.89,36.86-57.52,17.73a41.62,41.62,0,0,1-14.71-24.73,231.55,231.55,0,0,1-35.91-1,526.15,526.15,0,0,0,87.87,72.29" style="fill:#f5c71f"/><path d="M306.66,176.11a229.8,229.8,0,0,0-38.35,15.2,71.26,71.26,0,0,1-9.58,39.35c-17.26,30.44-45.16,43.48-64.86,28.76-6.66-4.79-9.87-14.38-9.58-25.64a203.43,203.43,0,0,1-40.6,11.65,457.14,457.14,0,0,0,84.65,60.15c28.09-44.38,53.11-90.5,78.47-129.42" style="fill:#159245"/><path d="M222.35,131.54a505.39,505.39,0,0,1,84.31,44.57c24-36.38,49.09-67.73,75.88-84.46-50.38-7.23-100.61,1-160.19,39.89" style="fill:#cfd2d3"/><path d="M731.41,129.14s-40.94,24-78.09,34.42a407,407,0,0,0,88.68,45,465.24,465.24,0,0,1-10.59-79.43" style="fill:#cfd2d3"/><path d="M519.83,152.24c31.49,32.31,55.65,73.2,77.31,95.87a359.26,359.26,0,0,0,56.18-84.31c-37.1,10.4-81.49,7.95-133.49-11.32" style="fill:#cfd2d3"/><path d="M469.3,184.6C485.65,174,501,161.49,519.83,152.24c-52.54-19.46-86-53-137.29-60.59,26.8,20.33,58.82,56.18,86.76,92.95" style="fill:#cfd2d3"/><path d="M222.35,131.54a178.29,178.29,0,0,1-78.66,27.94v86c24.73-23.35,58.43-76.7,78.89-113.89" style="fill:#cfd2d3"/></svg>