<?xml version="1.0" encoding="utf-8"?>
<!-- Generator: Adobe Illustrator 25.3.1, SVG Export Plug-In . SVG Version: 6.00 Build 0)  -->
<svg version="1.1" id="Capa_1" xmlns="http://www.w3.org/2000/svg" xmlns:xlink="http://www.w3.org/1999/xlink" x="0px" y="0px"
	 viewBox="0 0 1200 1200" style="enable-background:new 0 0 1200 1200;" xml:space="preserve">
<style type="text/css">
	.st0{fill:#FFFFFF;}
	.st1{fill:#921D80;}
	.st2{fill:#04509B;}
	.st3{fill:#1C8CCC;}
	.st4{fill:#009540;}
	.st5{fill:#FDEA1F;}
	.st6{fill:#EF8507;}
	.st7{fill:#E10D19;}
	.st8{fill:#1D1F1C;}
</style>
<path class="st0" d="M595,317c-51.1,0-92.6,41.4-92.6,92.5s41.4,92.6,92.5,92.6c51.1,0,92.6-41.4,92.6-92.5c0,0,0,0,0,0
	C687.5,358.5,646.1,317.1,595,317"/>
<path class="st1" d="M399.3,246.2c-0.8,1.5-0.2,3.5,1.3,4.3c0,0,0,0,0,0l98,57l0.2,0.1c1.1,0.6,2.4,0.5,3.3-0.2
	c0.5-0.3,0.8-0.8,1-1.3c18.9-33.5,51.8-56.7,89.7-63.4c0.1,0,0.3,0,0.4-0.1c0.4-0.1,0.8-0.3,1.1-0.5c1-0.7,1.5-1.9,1.3-3.1v-0.2
	L575,127.4v-0.2c-0.1-0.5-0.3-0.9-0.6-1.3c-0.7-0.9-1.8-1.4-2.9-1.3h-0.3l0,0C498.8,137.8,435.9,182.3,399.3,246.2"/>
<path class="st2" d="M343.3,461.6c0.5,1.1,1.5,1.8,2.6,1.9c0.5,0,1.1,0,1.5-0.3l105.8-40.8l0.2-0.1c1.1-0.5,1.9-1.5,1.9-2.7
	c0-0.4,0-0.8-0.1-1.1c0-0.2-0.1-0.3-0.2-0.5c-14.3-35.7-11.8-75.9,6.7-109.6c0.1-0.1,0.1-0.2,0.2-0.3c0.2-0.4,0.3-0.8,0.3-1.2
	c0.1-1.2-0.5-2.4-1.6-3l-0.2-0.1l-99.9-53.6l-0.2-0.1c-0.4-0.2-0.9-0.3-1.3-0.4c-1.1,0-2.2,0.5-2.8,1.5c-0.1,0.1-0.1,0.2-0.1,0.2
	l0,0C321.1,316.2,316.3,393.1,343.3,461.6"/>
<path class="st3" d="M477.8,638.7c1.1,0.3,2.3-0.1,3.1-0.9c0.4-0.4,0.6-0.9,0.8-1.4l33.7-108.3l0.1-0.2c0.3-1.2,0-2.4-0.9-3.2
	c-0.3-0.3-0.6-0.5-1-0.6c-0.2-0.1-0.3-0.1-0.5-0.2c-36.8-11-66.8-37.9-81.7-73.3c0-0.1-0.1-0.2-0.1-0.4c-0.2-0.4-0.4-0.7-0.7-1
	c-0.9-0.8-2.2-1-3.3-0.6l-0.2,0.1l-104.1,45l-0.2,0.1c-0.4,0.2-0.8,0.5-1.1,0.8c-0.7,0.9-1,2.1-0.6,3.1c0,0.1,0.1,0.2,0.1,0.2l0,0
	C350,565.7,407.3,617.2,477.8,638.7"/>
<path class="st4" d="M699,643.9c1.4-1,1.7-3,0.7-4.5l-63.2-94.2l-0.2-0.2c-0.7-1-1.9-1.5-3.1-1.3c-0.4,0.1-0.7,0.2-1.1,0.4
	c-0.2,0.1-0.3,0.2-0.4,0.3c-31.7,21.8-71.4,28.3-108.4,17.7c-0.1-0.1-0.2-0.1-0.4-0.1c-0.4-0.1-0.8-0.1-1.2,0
	c-1.2,0.2-2.2,1.1-2.5,2.2l-0.1,0.2l-30.2,109.3l0,0.2c-0.1,0.5-0.1,0.9,0,1.4c0.2,1.1,1,2,2.1,2.4l0.3,0.1l0,0
	C562.1,697.8,638.2,685.4,699,643.9"/>
<path class="st5" d="M842.9,475c0-1.2-0.6-2.3-1.6-2.9c-0.5-0.3-1-0.4-1.5-0.4l-113.1-8.8h-0.2c-1.2-0.1-2.3,0.6-2.9,1.6
	c-0.2,0.3-0.3,0.7-0.4,1.1c0,0.2,0,0.4,0,0.5c-2.5,38.4-22.1,73.6-53.3,96c-0.1,0.1-0.2,0.1-0.3,0.2c-0.3,0.3-0.6,0.6-0.8,0.9
	c-0.6,1.1-0.5,2.4,0.2,3.4l0.1,0.2l67,91.5l0.1,0.2c0.3,0.4,0.6,0.7,1.1,0.9c1,0.5,2.2,0.5,3.2-0.1l0.2-0.2l0,0
	C800.3,615.8,837.7,548.4,842.9,475"/>
<path class="st6" d="M800.2,256.8c-0.9-0.8-2.1-1-3.2-0.6c-0.5,0.2-0.9,0.5-1.3,0.9l-78,82.3l-0.2,0.2c-0.8,0.9-1,2.2-0.6,3.3
	c0.1,0.3,0.4,0.7,0.6,1c0.1,0.1,0.3,0.3,0.4,0.4c28.2,26.1,43.3,63.5,41,101.9c0,0.1,0,0.3,0,0.4c0,0.4,0.1,0.8,0.2,1.2
	c0.5,1.1,1.5,1.9,2.7,2h0.2l113.3,5.5h0.2c0.5,0,0.9-0.1,1.4-0.3c1-0.5,1.8-1.4,1.9-2.5c0-0.1,0-0.2,0-0.3l0,0
	C882.8,378.6,854,307.1,800.2,256.8"/>
<path class="st7" d="M601.9,155.4c-1.7,0.3-2.8,2-2.5,3.7c0,0,0,0,0,0L616,271.3v0.2c0.3,1.6,1.7,2.7,3.4,2.6c0.2,0,0.4,0,0.5-0.1
	c38-6.1,76.7,5.1,105.5,30.6c0.1,0.1,0.2,0.2,0.3,0.3c0.3,0.3,0.7,0.4,1.1,0.6c1.2,0.3,2.4,0,3.2-0.9l0.1-0.2l74.2-85.7l0.1-0.2
	c0.3-0.4,0.5-0.8,0.6-1.2c0.3-1.1,0-2.3-0.8-3.1c-0.1-0.1-0.1-0.1-0.2-0.2l0,0C748.7,165.6,674.7,144.1,601.9,155.4"/>
<path class="st8" d="M595,315.8c-51.8,0-93.8,42-93.8,93.8s42,93.8,93.8,93.8s93.8-42,93.8-93.8C688.8,357.8,646.8,315.8,595,315.8
	 M663.2,462.5c1.4-3.8,1.9-8.3,2.3-11.7c-1.9,1.8-4,3.5-6.1,5.1c-6,4.4-12.9,7.5-20.2,9.1l-18.2-19.8l-0.2,0.2l13.2,23.3
	c-3.8,6.5-8.9,12.2-15.1,16.5c-2.1,1.6-4.4,3-6.7,4.2c3.4,0.6,7.8,1.6,11.8,1.4c-18.8,6.7-39.3,6.7-58.1,0c4.1,0.2,8.4-0.8,11.8-1.4
	c-2.3-1.2-4.6-2.7-6.7-4.2c-6.1-4.4-11.3-10-15.1-16.5l13.2-23.3l-0.2-0.2L550.7,465c-7.3-1.6-14.1-4.7-20.1-9.1
	c-2.1-1.6-4.2-3.3-6.1-5.1c0.5,3.5,0.9,7.9,2.4,11.8c-11.8-15.1-18.2-33.8-18.2-52.9c0-1,0-1.9,0.1-2.8c1,4,3.4,8.1,5.1,11.2
	c0.5-2.6,1.1-5.2,1.9-7.7c2.3-7.2,6.1-13.9,11.1-19.5l26,5.3l0.1-0.3l-24.3-11.1c-0.7-7.4,0.2-14.9,2.5-21.9c0.8-2.5,1.8-5,3-7.4
	c-3.3,1.6-7.8,3.5-11,6.3c11.4-17.1,28.6-29.6,48.5-35.2c-3.8,2.2-7,5.9-9.6,8.6c2.6-0.4,5.3-0.5,7.9-0.5c7.5-0.1,15,1.5,21.8,4.5
	l3,26.2h0.3l3-26.3c6.9-3,14.3-4.5,21.8-4.5c2.7,0,5.3,0.2,7.9,0.5c-2.6-2.7-5.8-6.4-9.6-8.6c19.8,5.6,37,18,48.4,35.1
	c-3.2-2.8-7.6-4.7-10.9-6.3c1.2,2.4,2.2,4.9,3,7.4c2.3,7.1,3.2,14.5,2.5,21.9L637,395.8l0.1,0.3l25.9-5.3
	c5.1,5.6,8.8,12.3,11.1,19.5c0.8,2.5,1.5,5.1,1.9,7.7c1.7-3.1,4-7.1,5.1-11.1c0,0.9,0.1,1.8,0.1,2.7
	C681.3,428.7,674.9,447.4,663.2,462.5"/>
<polygon class="st8" points="557.1,397.2 571.5,441.8 618.4,441.8 632.9,397.2 595,369.7 "/>
<polygon class="st0" points="322.7,750 322.7,875.9 394.9,875.9 394.9,847.3 355.4,847.3 355.4,750 "/>
<path class="st0" d="M455.1,801.3c-14.6,0-23.9,10.8-23.9,24.2c0,14,8.8,25.5,22.9,25.5c13.6,0,24.9-10,24.9-24.7
	S468.5,801.2,455.1,801.3 M400.3,825.9c0-28.1,20.8-52.9,48.7-52.9c12.2,0,19.9,4.1,28.9,12.4V775h30.1v100.9h-30.6V866
	c-8,7.9-18.8,12.4-30.1,12.3C419.4,878.3,400.3,858.3,400.3,825.9"/>
<polygon class="st0" points="598.3,875.9 526,875.9 526,750 558.8,750 558.8,847.3 598.3,847.3 "/>
<path class="st0" d="M642.3,875.9h-30.4V775h30.4V875.9z M608.9,749.3c-0.1-10.2,8.1-18.5,18.2-18.6s18.5,8.1,18.6,18.2
	c0,10.3-8.3,18.7-18.7,18.7c0,0-0.1,0-0.1,0c-9.9,0-18-8.1-18-18C608.9,749.6,608.9,749.5,608.9,749.3"/>
<path class="st0" d="M706.2,799.1c-14.2,0-21.2,11.7-21.2,24.2c0,13,7.7,23.7,21.1,23.7c15.2,0,23.4-12.2,23.4-23.5
	C729.5,810,721.9,799.1,706.2,799.1 M655.4,823.5c0-27.3,17.3-50.5,43.8-50.5c12.8,0,21.4,4.1,30.1,13.3V775h29.1v88.9
	c0,31.2-23.4,47.5-51.5,47.5c-24.7,0-46.3-12.5-49.5-35.2h34.1c4.2,6.9,8.5,8.2,16,8.2c10.6,0,20.4-4.9,20.4-15.9
	c0.1-2.5,0.1-5-0.2-7.6c-5.9,5.3-16.8,11.7-28.8,11.7C673,872.6,655.3,850.9,655.4,823.5"/>
<path class="st0" d="M826.2,801.3c-14.5,0-23.9,10.8-23.9,24.2c0,14,8.8,25.5,22.9,25.5c13.6,0,24.8-10,24.8-24.7
	S839.6,801.2,826.2,801.3 M771.4,825.9c0-28.1,20.8-52.9,48.7-52.9c12.3,0,20,4.1,28.9,12.3V775h30.1v100.9h-30.6V866
	c-8,7.9-18.8,12.4-30.1,12.3C790.6,878.3,771.4,858.3,771.4,825.9"/>
<path class="st0" d="M191.4,969.9c-0.3-7.1-2.3-14.1-5.9-20.2l-32-55.5c-2.4-4.2-4.1-8.7-5.1-13.4l-1.3,2.3
	c-7.9,13.7-7.9,30.6,0,44.4l25.6,44.4c7.9,13.7,7.9,30.6,0,44.4l-1.3,2.3c-0.9-4.7-2.7-9.2-5.1-13.4l-23.4-40.6l-15-25.9
	c-2.4-4.2-4.1-8.7-5.1-13.4l-1.3,2.3c-7.9,13.7-7.9,30.5-0.1,44.2l0,0l25.7,44.5c7.9,13.7,7.9,30.6,0,44.3l-1.3,2.3
	c-0.9-4.7-2.7-9.2-5.1-13.4l-32-55.4c-4.2-7.3-6.3-15.7-5.9-24.1c-34.3,9-57.9,28-57.9,50c0,30.6,45.8,55.5,102.2,55.5
	s102.2-24.8,102.2-55.5C249.3,997.9,225.6,978.9,191.4,969.9 M287.9,1064.6c0.2-6.6,1.4-13.2,3.6-19.4c10.8,5,24.6,7.5,35.1,7.5
	c17.9,0,27.8-5.8,27.8-17.1c0-11.1-7.3-16.3-25.4-24.2l-9.8-4.2c-18-7.9-30.3-18-30.3-38.4c0-21.9,15.2-35.9,46.3-35.9
	c11.9-0.1,23.8,1.7,35.1,5.6c-0.4,6.5-1.7,13-3.8,19.2c-10.1-3.6-20.8-5.5-31.5-5.6c-16.7,0-24.4,6.5-24.4,16.7
	c0,10,7.5,15.8,20.9,21.5l10.4,4.4c24.4,10.4,34.6,21.3,34.6,39.9c0,22.1-16.7,37.2-49.4,37.2
	C311.5,1071.8,298.7,1069.5,287.9,1064.6 M479.8,972.7v96h-19.4l-1.1-11.5c-5.4,8.4-13.6,13.8-27.1,13.8
	c-25.4,0-42.2-18.4-42.2-50.7c0-33.8,18-53,53.6-53C457.3,967.3,468.6,968.9,479.8,972.7 M458.6,1046.9v-60.3
	c-5-0.8-10.1-1.2-15.2-1.2c-21.9,0-32.1,13.4-32.1,35c0,19.6,7.9,33.4,26.7,33.4C445.5,1053.8,452.7,1051.4,458.6,1046.9
	 M587.9,1004.2v64.5h-21.1v-60.9c0-15.2-5-22.5-26.1-22.5c-5.6,0.1-11.2,0.6-16.7,1.6v81.8h-21.1v-96c13.4-3.3,28.2-5.4,38.4-5.4
	C576.5,967.4,587.9,981.1,587.9,1004.2 M646.5,1053.1c5.6,0,11.2-1,16.5-2.9c-0.6,5.8-1.3,12.3-2.5,17.9c-5.7,2.2-11.8,3.2-17.9,3.1
	c-20.5,0-33.6-9.4-33.6-32.8V937.5c6.9-2.1,14-3.1,21.1-3.1v36.3h33.4c-0.3,6-0.9,12.1-1.9,18h-31.5v47
	C630.1,1048.2,636.3,1053,646.5,1053.1 M759.8,972.7v96h-19.4l-1.2-11.5c-5.4,8.4-13.6,13.8-27.1,13.8c-25.3,0-42.2-18.4-42.2-50.7
	c0-33.8,18-53,53.6-53C737.3,967.3,748.6,968.9,759.8,972.7 M738.6,1046.8v-60.3c-5-0.8-10.1-1.2-15.2-1.2
	c-21.9,0-32.1,13.4-32.1,35c0,19.6,7.9,33.4,26.7,33.4C725.5,1053.8,732.7,1051.4,738.6,1046.8 M867.9,1004.2v64.5h-21.1v-60.9
	c0-15.2-5-22.5-26.1-22.5c-5.6,0.1-11.2,0.6-16.7,1.6v81.8h-21.1v-96c13.4-3.3,28.2-5.4,38.4-5.4
	C856.5,967.4,867.9,981.1,867.9,1004.2 M975,934.4v134.4h-19.4l-1.2-12.3c-5.4,9-13.6,14.6-27.5,14.6c-25.3,0-42.2-18.4-42.2-50.7
	c0-33.8,18-53,53.6-53c5.3,0,10.6,0.5,15.7,1.5v-31.7C960.6,935,968.1,934.4,975,934.4 M954.1,1046.5v-59.1
	c-5.6-1.2-11.2-1.9-16.9-1.9c-20.9,0-30.9,13-30.9,35c0,19.6,7.9,33.4,26.7,33.4C940.6,1053.8,948.1,1051.3,954.1,1046.5
	 M1081.2,1027.7h-67.4c2.7,17.1,12.7,25.3,31.5,25.3c11.7,0,23.2-2.5,33.8-7.3c-0.8,5.6-1.9,12.9-3.3,19.2
	c-9.6,4.4-19.8,6.1-31.1,6.1c-35.3,0-52.4-19.6-52.4-52.4c0-28.6,13.2-51.3,46.9-51.3c30.2,0,43.2,19.8,43.2,44
	C1082.4,1016.9,1082,1022.3,1081.2,1027.7 M1013.5,1010h47.6c0-15.8-8.4-25-23-25C1023.1,985,1015.2,993.6,1013.5,1010
	 M1155.2,968.1c0,6.3-0.8,14-1.9,18c-5.3-0.6-10.6-0.8-15.9-0.8c-5.2,0-10.4,0.4-15.6,1.2v82.2h-21.1v-96c9-3.1,24.2-5.4,36.1-5.4
	C1142.9,967.3,1149.1,967.6,1155.2,968.1"/>
</svg>
