<?xml version="1.0" encoding="UTF-8"?><svg id="Layer_1" xmlns="http://www.w3.org/2000/svg" xmlns:xlink="http://www.w3.org/1999/xlink" viewBox="0 0 97.79 43.97"><defs><style>.cls-1{fill:#003595;}.cls-2{fill:#009845;}.cls-3{fill:#fff;}.cls-4{fill:#ffcd00;}.cls-5{fill:#009ade;}.cls-6{fill:#cfd2d3;}.cls-7{fill:#e1251b;}.cls-8{fill:#415364;}</style><symbol id="UNL_Logo_landscape_7C_onLIGHT" viewBox="0 0 1362.16 612.49"><g><g><path class="cls-8" d="M602.21,163.38c0,32.62,22.28,48.67,52.59,48.67s52.59-16.04,52.59-48.67V90.58c0-.84-.69-1.53-1.53-1.53h-29.38c-.84,0-1.54,.69-1.54,1.53v72.45c0,13.83-6.51,21.69-20.45,21.57-11.06-.09-19.83-9.43-19.83-20.49V90.58c0-.84-.69-1.53-1.54-1.53h-29.38c-.84,0-1.53,.69-1.53,1.53v72.8m126.34-74.34c-.84,0-1.53,.69-1.53,1.53v118.15c0,.85,.69,1.54,1.53,1.54h84.46c.84,0,1.53-.69,1.53-1.54v-24.2c0-.85-.69-1.54-1.53-1.54h-53.55v-20.85h42.32c.84,0,1.53-.69,1.53-1.54v-22.78c0-.84-.69-1.53-1.53-1.53h-42.32v-19.97h51.06c.84,0,1.53-.69,1.53-1.53v-24.22c0-.84-.68-1.52-1.52-1.52h-81.97m103.22,0c-.84,0-1.53,.69-1.53,1.53v118.15c0,.85,.69,1.54,1.53,1.54h29.38c.84,0,1.53-.69,1.53-1.54v-40.53h42.51c.84,0,1.52-.68,1.52-1.52v-24.23c0-.84-.69-1.52-1.52-1.52h-42.51v-24.6h50.62c.59,0,1.12-.34,1.37-.87l11.51-24.23c.48-1.01-.25-2.18-1.37-2.18h-93.04m153.79,106.6h-42.25l-5.67,13.68c-.24,.56-.79,.94-1.4,.94h-28.3c-1.12,0-1.86-1.17-1.37-2.18l57.96-121.18c.54-1.25,1.61-1.25,2.14,0l57.79,121.18c.48,1.01-.26,2.18-1.38,2.18h-30.1c-.6,0-1.15-.36-1.4-.91l-6.02-13.71Zm-32.26-23.53h21.93l-11.05-25.67-10.87,25.67Z"/><path class="cls-8" d="M947.89,231.94c-.85,0-1.55,.69-1.55,1.55v119.87c0,.86,.7,1.55,1.55,1.55h29.82c.86,0,1.55-.69,1.55-1.55v-119.87c0-.86-.69-1.55-1.55-1.55h-29.82m47.46,61.48c0-37.07,30.56-62.93,66-62.93s66,25.86,66,62.93-30.56,63.11-66,63.11-66-26.04-66-63.11m98.37,0c0-19.35-11.75-34.36-32.37-34.36s-32.37,15.01-32.37,34.36,11.75,34.54,32.37,34.54,32.37-15.19,32.37-34.54m-228.39,59.94c0,.86,.69,1.55,1.55,1.55h29.82c.85,0,1.55-.69,1.55-1.55v-93.75h31c.86,0,1.55-.69,1.55-1.55v-24.57c0-.86-.69-1.55-1.55-1.55h-107.79c-1.13,0-1.88,1.18-1.4,2.21l11.69,24.58c.26,.53,.8,.88,1.4,.88h32.19v93.75Zm402.32-17.88c-.58,.58-.62,1.53-.07,2.14,8.44,9.26,23.56,19.08,47.92,19.08,32.55,0,46.65-16.28,46.65-38.88,0-17.35-8.32-29.11-32.91-37.25l-16.28-5.43c-5.97-1.99-8.68-4.34-8.68-9.04s3.98-8.5,11.94-8.5c9.48,0,15.9,3.41,20.9,8.41,.13,.13,14.27-14.21,18.23-18.22,.57-.58,.61-1.52,.06-2.12-7.4-8.06-20.22-15.19-40.99-15.19-21.88,0-41.95,12.48-41.95,36.71,0,20.25,12.66,31.11,30.56,37.07l14.47,4.88c8.14,2.71,12.12,5.25,12.12,10.49,0,6.87-5.79,9.76-15.55,9.76-11.56,0-19.31-5.9-25.15-12.77-.6-.7-1.65-.75-2.3-.11l-18.96,18.96Zm-16.78,21.58c1.99,1.62,2.53,1.08,2.53-.36v-123.22c0-.86-.7-1.55-1.55-1.55h-27.81c-.86,0-1.56,.7-1.56,1.55v60.11l-77.21-63.65c-1.99-1.63-2.53-.72-2.53,.36v123.04c0,.86,.7,1.56,1.55,1.56h27.82c.86,0,1.55-.7,1.55-1.56v-59.75l77.21,63.47Zm-540.52,0c1.99,1.62,2.53,1.08,2.53-.36v-123.16c0-.86-.7-1.55-1.55-1.55h-27.81c-.86,0-1.56,.7-1.56,1.55v60.05l-77.21-63.65c-1.99-1.63-2.53-.72-2.53,.36v123.04c0,.86,.7,1.56,1.55,1.56h27.82c.86,0,1.55-.7,1.55-1.56v-59.75l77.21,63.47Zm95.12-17h-42.85l-5.75,13.87c-.24,.58-.81,.96-1.44,.96h-28.69c-1.14,0-1.9-1.2-1.4-2.22l58.79-122.91c.55-1.27,1.63-1.27,2.17,0l58.61,122.91c.49,1.03-.26,2.22-1.4,2.22h-30.52c-.62,0-1.17-.37-1.42-.93l-6.1-13.9Zm-32.73-23.87h22.24l-11.21-26.04-11.03,26.04Z"/><g><path class="cls-8" d="M603.77,376.61c-.86,0-1.55,.7-1.55,1.55v119.85c0,.86,.7,1.56,1.55,1.56h82.06c.86,0,1.55-.7,1.55-1.56v-24.55c0-.86-.7-1.56-1.55-1.56h-50.71v-93.74c0-.86-.7-1.55-1.55-1.55h-29.8m100.36,0c-.86,0-1.55,.7-1.55,1.55v119.85c0,.86,.7,1.56,1.55,1.56h85.68c.86,0,1.55-.7,1.55-1.56v-24.55c0-.86-.7-1.56-1.55-1.56h-54.32v-21.15h42.93c.86,0,1.55-.7,1.55-1.56v-23.11c0-.86-.7-1.55-1.55-1.55h-42.93v-20.25h51.79c.86,0,1.55-.7,1.55-1.55v-24.56c0-.86-.7-1.55-1.55-1.55h-83.15m346.19,75.41c0,33.09,22.61,49.37,53.34,49.37s53.34-16.28,53.34-49.37v-73.85c0-.86-.7-1.55-1.55-1.55h-29.8c-.86,0-1.56,.7-1.56,1.55v73.49c0,14.03-6.6,22-20.75,21.88-11.22-.09-20.11-9.57-20.11-20.79v-74.58c0-.86-.7-1.55-1.56-1.55h-29.8c-.86,0-1.55,.7-1.55,1.55v73.85m128.32-75.41c-.86,0-1.55,.7-1.55,1.55v119.85c0,.86,.7,1.56,1.55,1.56h85.68c.86,0,1.55-.7,1.55-1.56v-24.55c0-.86-.7-1.56-1.55-1.56h-54.32v-21.15h42.93c.86,0,1.55-.7,1.55-1.56v-23.11c0-.86-.7-1.55-1.55-1.55h-42.93v-20.25h51.79c.86,0,1.55-.7,1.55-1.55v-24.56c0-.86-.7-1.55-1.55-1.55h-83.15m-172.81,92.04c-5.25,2.53-11.94,4.88-23.87,4.88-21.7,0-32.91-16.09-32.91-35.44s11.03-34.36,31.11-34.36c11.59,0,19.96,4.66,26.03,11.85,.6,.71,1.66,.77,2.31,.12l19.26-19.42c.57-.58,.61-1.52,.07-2.14-10.74-11.98-26.82-18.98-46.95-18.98-35.44,0-65.46,25.85-65.46,62.93s30.01,63.11,66.18,63.11c27.31,0,42.13-7.59,53.53-17v-51.61c0-.86-.7-1.55-1.56-1.55h-50.6c-.86,0-1.56,.7-1.56,1.55v22.21c0,.86,.7,1.55,1.56,1.55h22.86v12.3Zm-124.6,16.09h-42.85l-5.75,13.87c-.24,.58-.81,.96-1.44,.96h-28.69c-1.14,0-1.9-1.2-1.4-2.22l58.79-122.91c.55-1.27,1.63-1.27,2.17,0l58.61,122.91c.49,1.03-.26,2.22-1.4,2.22h-30.52c-.62,0-1.17-.37-1.42-.93l-6.1-13.9Zm-32.73-23.87h22.24l-11.21-26.04-11.03,26.04Z"/><g><path class="cls-8" d="M1274.45,380.6v-3.28c0-.22,.18-.4,.4-.4h16.88c.22,0,.4,.18,.4,.4v3.28c0,.22-.18,.4-.4,.4h-5.99v18.75c0,.22-.18,.4-.4,.4h-3.9c-.22,0-.4-.18-.4-.4v-18.75h-6.19c-.22,0-.4-.18-.4-.4"/><path class="cls-8" d="M1296.63,376.61h.42l10.88,11.79c.23,.24,.62,.24,.85,0l10.88-11.79h.42v22.97c0,.32-.26,.57-.57,.57h-3.46c-.31,0-.57-.26-.57-.57v-13.03l-6.68,7.67c-.23,.26-.64,.26-.86,0l-6.58-7.66v13.03c0,.32-.26,.57-.57,.57h-3.57c-.32,0-.57-.26-.57-.57v-22.97Z"/></g></g></g><g><path class="cls-8" d="M26.3,51c0-1.56-1.59-2.6-3.01-1.97-4.64,2.06-13.77,6.95-21.07,15.99C.77,66.82,0,69.09,0,71.41V589.51c0,2.59,1.19,5.05,3.23,6.65l19.3,15.83c1.53,1.2,3.77,.11,3.77-1.83V51Z"/><g><path class="cls-7" d="M102.91,161.67l-.45-1.77c9.8-15.46,19.1-31.25,28.13-46.54,9.62-16.3,18.75-31.72,28.02-46.13l3.07-2.31,3.14,.47c21.34,14,42.21,30.21,62.07,48.31l.02,1.85-3.11,1.35c-28.46,1.25-63.64,18.47-97.7,35.08-6.71,3.27-13.6,6.61-20.32,9.78l-2.87-.11Z"/><path class="cls-7" d="M418.32,177.06c-22.12,0-46.34-5.78-73.94-17.62l-3.67-3.04,.25-2c14.07-12.51,24.65-22.47,35.62-34.86l2.63-1.01,3.35,1.52c18.05,18.27,38.38,34.81,62.05,50.59l.4,1.91-2.81,2c-7.63,1.64-15.65,2.49-23.89,2.49h0Z"/><path class="cls-1" d="M449.94,264.79c-7.97,0-14.94-3.41-19.64-9.61-4.19-5.53-6.71-11.91-7.36-18.54l1.22-1.27,1.28-1.28c2.21,.09,4.35,.13,6.47,.13,17.15,0,33.18-2.94,48.98-9.03l1.38,.89,1.35,.89c.06,7.89-2.75,15.99-8.19,23.51-5.97,8.94-15.51,14.31-25.49,14.31h0Z"/><path class="cls-5" d="M424.16,235.38l-1.22,1.27c-7.61-.41-13.72-.84-21.59-2.02l-3.23-1.78,.07-1.96c15.83-15.98,30.24-34.41,44.01-56.32l2.81-2,3.31,.58c20.07,13.18,40.6,25.3,62.54,36.91l1.16,2.12-4.4,4.19c-6.97,3.97-15.38,7.18-24.01,10.61l-1.35-.89-1.38-.89c-.63-9.26-5.58-17.3-13.99-22.74-3.46-2.24-7.67-3.42-12.17-3.42-8.92,0-17.15,4.48-22.56,12.28-4.63,6.68-7,14.7-6.73,22.77l-1.28,1.28Z"/><path class="cls-1" d="M419.49,297.95c-21.63,0-41.65-5.98-68.08-20.18l-3.66-3.42,.4-1.94c15.99-11.63,31.53-23.25,47.2-38.66l2.77-.9,3.23,1.78c18.67,21.78,36.33,39.67,53.81,54.97l.07,2.02-3.32,2.1c-11.65,2.77-22.32,4.23-32.43,4.23h0Z"/><path class="cls-4" d="M395.35,233.75c-6.62-1.14-13.79-2.84-21.38-5.1l-1.48-1.85-1.61-1.9c-1.1-6.44-4.07-13.51-8.47-20.04-8.98-13.37-19.94-21.67-28.61-21.67-2.87,0-5.42,.93-7.6,2.76-3.97,3.34-5.39,10.27-3.92,19.11l-1.19,.89-1.18,.9c-7.1-3.52-13.93-7.18-20-10.78l-4.51-4.06,.32-1.9c15.94-11.72,29.39-21.78,42.58-33.35l2.42-.37,3.67,3.04c18.59,27.22,36.24,50.65,53.82,71.44l-.07,1.96-2.77,.9Z"/><path class="cls-1" d="M358.85,249.46c-9.82,0-22.31-9.14-31.08-22.75-3.69-5.72-6.53-12.91-7.87-19.84l1.18-.9,1.19-.89c11.95,5.88,29.73,13.9,48.6,19.83l1.61,1.9,1.48,1.85c.43,8.37-2.41,15.01-8.14,18.81-1.99,1.32-4.34,1.99-6.98,1.99h0Z"/><path class="cls-7" d="M40.31,242.41c23.36-21.83,40.91-48.97,59.17-77.71l3.43-3.03,2.87,.11c17.68,9.82,37.57,20.02,60.84,31.18l.51,1.69-4.1,4.21c-8.46,5.29-16.81,10.14-24.88,14.47l-1.3-.81-1.33-.79c.12-9.24-3.49-16.12-10.24-19.42-2.36-1.15-4.95-1.74-7.69-1.74-9.46,0-24.53,7.96-36.9,25.75-4.19,6.02-6.94,13.26-7.81,20.57l-1.5,1.77-1.44,1.74c-9.32,2.4-17.6,4.39-27.67,5.74l-2.96-.99,1-2.75Z"/><path class="cls-1" d="M106.68,295.54l-.36-1.77c18.03-25.5,31.3-49.49,43.04-70.68,4.74-8.55,9.23-16.72,13.66-24.22l4.1-4.21,2.77-.16c31.24,15.05,51.45,26.96,68.93,40.8l.03,1.83-4.01,1.97c-29.53,5.13-58.45,21.29-84.12,35.63-14.43,8.05-28.1,15.68-41.04,21.04l-2.99-.22Z"/><path class="cls-2" d="M106.68,429.52l-.33-1.78c24.18-31.53,42.15-63.95,59.24-95.45l3.83-4.3,2.72-.29c23.89,10.52,46.49,23.07,67.21,37.51l.16,1.88-3.71,2.24c-20.59,5.44-40.68,17.13-61.88,29.42-20.36,11.81-41.39,23.9-64.06,31.09l-3.18-.32Z"/><path class="cls-3" d="M234.77,338.88c-8.62,0-16.49-2.66-22.76-7.68-6.1-4.89-9.62-12.66-9.85-21.57l1.33-2.06,1.45-2.08c16.36-6.99,32.45-10.53,47.87-10.53,5.33,0,10.67,.43,15.9,1.26l1.65,1.63,1.57,1.67c1.2,10.71-2.37,21.11-9.98,28.75-6.62,6.64-16.78,10.61-27.18,10.61h0Z"/><path class="cls-7" d="M168.84,326.28c18.8-34.45,39.88-62.28,66-87.19l4.01-1.97,3.3,.96c21.29,17.53,39.56,39.2,58.75,69.61l-.29,2.01-2.42,.23c-7.99-4.11-16.86-8.46-26.25-10.41l-1.57-1.67-1.65-1.63c-1.25-6.23-3.48-11.57-6.64-15.89-5.16-7.06-12.55-10.95-20.8-10.95-8.92,0-18.18,4.52-25.41,12.39-6.31,6.87-10.15,15.21-10.92,23.72l-1.45,2.08-1.33,2.06c-9.21,4.26-19.37,10.77-30.01,18.09l-2.72,.29-.59-1.72Z"/><path class="cls-5" d="M362.09,369.88c-8.96,0-21.14-10.11-30.31-25.15-4.17-6.84-7.07-14.36-8.22-21.26l1.2-.89,1.22-.85c14.55,7.68,30.32,15.49,47.46,21.14l1.51,1.88,1.4,1.82c.22,9.79-2.87,17.94-8.28,21.54-1.75,1.17-3.77,1.76-5.99,1.76Z"/><g><path class="cls-2" d="M106.35,427.74c-24.54-14.66-45.04-31.54-64.21-52.96l-2.84-1.2v64.22l1.09,1.52c3.67,.53,7.73,.8,12.09,.8h0c14.21,0,31.66-2.85,50.7-8.22l3.5-2.38-.33-1.78Z"/><path class="cls-2" d="M352,392.89c-21.09-11.99-49.05-27.72-83.68-27.72-8.36,0-16.96,.85-25.62,2.59l-3.2-.66-.16-1.88c16.25-18.18,35.53-36.29,58.83-55.29l2.42-.23,3.62,3.35c18.32,29.23,34.15,54.38,50.45,77.9l-.32,1.9-2.35,.04Z"/><path class="cls-2" d="M504.24,328.82l-2.84,3.05c-11.46,24.91-25.36,49.98-40.33,72.91l.35,1.95,3.03,.58c13.45-3.53,29.18-9.66,43.8-17.18l.69-1.87c-3.8-21.12-4.87-41.37-4.7-59.45Z"/></g><path class="cls-2" d="M424.05,412.64c-23.02,0-45.09-5.53-65.58-16.16l-4.12-3.63,.32-1.9c16.44-11.95,30.61-25.23,44.7-38.97l2.82-.93,3.05,1.61c17.66,20.46,35.96,37.46,55.83,52.13l.35,1.94-2.83,1.94c-11.65,2.58-23.25,3.97-34.54,3.97h0Z"/><g><path class="cls-3" d="M104.8,533.97c-6.57,0-13.02-2.02-18.67-5.85-7.33-4.97-12.28-13.39-13.42-22.73l1.19-1.4,1.23-1.41c22.77-1.64,45.08-7.44,66.37-17.25l1.42,.79,1.37,.82c.28,8.41-2.45,17.62-7.95,26.72-7.9,13.1-19.11,20.31-31.54,20.31h0Z"/><path class="cls-3" d="M363.52,204.12c-11.73-17.45-28-27.76-38.19-19.18-4.92,4.14-5.82,12.36-4.25,21.03,15.51,7.67,33.64,15.41,51.4,20.84-.79-7.19-3.93-15.19-8.97-22.68Z"/><path class="cls-3" d="M374.8,483.3c-8.8,0-22.21-6.95-30.79-20.23-4.88-7.55-8.44-15.88-10.04-23.55l1.21-.97,1.2-.97c8.71,3.56,16.33,7.14,23.71,10.62,8.57,4.04,16.71,7.91,25.05,10.9l1.66,2.01,1.53,1.94c.34,8.24-2.45,15.43-7.33,18.64-1.63,1.07-3.72,1.62-6.2,1.62h0Z"/><path class="cls-3" d="M453.59,379.64c-6,0-11.82-2.08-16.4-5.85-6.23-5.14-9.75-12.05-10.19-20.09l1.32-1.37,1.33-1.39c17.1-.92,33.94-4.9,51.41-12.18l1.42,.83,1.4,.89c.33,8.27-2.09,17.31-6.69,24.91-5.48,9.06-14.09,14.26-23.6,14.26h0Z"/></g><g><path class="cls-1" d="M345.29,274.47c-3.13-1.77-6.42-3.63-9.82-5.61-23.94-13.89-53.73-31.18-85.19-31.18-2.73,0-5.44,.13-8.13,.4l-3.3-.96-.03-1.83c17.98-16.61,36.41-30.12,54.09-43.1l2.49-.18,4.51,4.06c11.9,16.91,23.26,35.49,35.19,55.06,4.23,6.95,8.62,14.1,13.06,21.27l-.4,1.94-2.46,.11Z"/><path class="cls-4" d="M300.6,309.69c-9.78-5.11-19.62-9.94-30.24-11.85,1.82,11.02-1.61,21.69-9.36,29.47-11.3,11.35-33.51,14.56-48.15,2.83-6.39-5.12-9.64-13.47-9.36-22.59-10.71,4.75-22.54,12.36-34.06,20.44,26.26,11.39,49.55,24.69,70.09,39.11,15.73-17.72,35.53-36.67,61.09-57.41Z"/><path class="cls-1" d="M40.49,370.74c26.82-24,45.09-47.95,62.55-72.39l3.64-2.82,2.99,.22c20.24,11.86,41.11,22.62,59.16,30.52l.59,1.72-3.83,4.3c-9.11,6.33-17.51,11.92-25.81,16.37l-1.35-.78-1.35-.79c-.32-7.84-3.53-13.61-9.53-17.18-3.59-2.15-7.56-3.23-11.79-3.23-10.5,0-22.2,6.78-32.11,18.61-5.63,6.73-9.3,15.27-10.22,23.67l-1.49,1.62-1.4,1.58c-9.44,1.51-17.86,2.15-28.41,2.63l-2.84-1.2,1.19-2.84Z"/><path class="cls-1" d="M45.73,310.96c-1.78,0-3.53-.05-5.23-.16l-1.2-1.43v-64.22l2.96,.99c16.84,16.07,39.96,33.28,64.05,47.62l.36,1.77-3.64,2.82c-22.11,8.35-41.38,12.6-57.31,12.6h0Z"/><path class="cls-7" d="M397.84,120.86c-4.98,0-10.17-.36-15.27-.79l-3.35-1.52-.27-2.27c12.21-14.09,26.26-32.11,39.47-58.74l2.89-1.99,3.12,.55c16.09,10.99,41.19,23.66,61.71,31.12l1.6,1.99-3.31,4.22c-6.51,4.87-13.45,9.19-20.72,12.78l-1.46-.77-1.5-.76c-1.85-9-7.68-16.19-16.48-20.34-3.2-1.51-6.53-2.27-9.92-2.27-9.8,0-19.23,6.54-24.02,16.65-2.96,6.26-4.02,12.86-3.09,19.21l-1.13,1.39-1.07,1.4c-2.39,.1-4.8,.14-7.21,.14Z"/><path class="cls-1" d="M412.18,467.52c-8.24-.64-15.49-1.81-23.84-4.47l-1.53-1.94-1.66-2.01c-.87-5.2-3.26-12.4-9.45-20.28-9.88-12.58-20.78-20.1-29.16-20.1-2.89,0-5.37,.89-7.39,2.65-3.11,2.71-4.11,8.59-2.75,16.21l-1.2,.97-1.21,.97c-7.5-3.02-14.04-5.37-21.42-7.58l-3.86-2.41,.03-1.9c14.95-13.86,29.59-24.86,43.29-34.73l2.35-.04,4.12,3.63c19.06,27.04,37.52,49.39,56.39,68.21l.11,1.84-2.79,.99Z"/><path class="cls-1" d="M422.13,353.8c-5.58,0-11.26-.47-16.9-1.13l-3.05-1.61,.1-1.94c16.97-16.68,33.2-34.77,49.63-55.39l3.32-2.1,2.81,.66c13.95,11.99,28.73,23.2,45.01,34.15l1.18,2.4-2.84,3.05c-5.86,3.19-11.74,6.12-17.51,8.59l-1.4-.89-1.42-.83c-.61-6.34-2.99-11.61-6.79-14.92-3.95-3.45-8.74-5.28-13.84-5.28-8.23,0-16.74,4.72-23.36,12.95-4.5,5.6-7.18,12.6-7.42,19.43l-1.33,1.39-1.32,1.37c-1.61,.06-3.26,.1-4.86,.1h0Z"/><path class="cls-1" d="M512.03,212.18l-4.4,4.19c-20.77,30.83-37.5,54.16-52.46,73.22l.07,2.02,2.81,.66c16.59-4.53,34.51-11.81,48.98-19.86l1.71-2.51c2.58-18.48,3.56-37.63,3.28-57.73Z"/><path class="cls-1" d="M92.01,267.59c-4.82,0-9.24-1.46-13.15-4.33-5.99-4.4-9.26-12.85-8.93-22.86l1.44-1.74,1.5-1.77c20.44-6.39,41.21-13.77,62.63-25.16l1.33,.79,1.3,.81c-.45,8.31-3.58,17.51-9.11,26.7-10.38,17.25-24.21,27.56-37.01,27.56h0Z"/><path class="cls-1" d="M234.73,212.62c-10.05,0-19.84-3.69-26.88-10.12-6.63-6.07-10.21-13.8-10.4-22.52l1.4-1.93,1.51-1.95c11.2-3.66,21.99-5.44,32.95-5.44,10.13,0,20.11,1.54,30.43,4.67l1.68,1.95,1.55,1.94c.53,9.27-2.51,18.04-8.5,24.37-5.44,5.75-14.08,9.04-23.72,9.04h0Z"/></g><g><path class="cls-7" d="M39.3,180.94V116.72l2.92,.87c16.38,14.71,37.14,29.3,60.23,42.32l.45,1.77-3.43,3.03c-23.96,10.87-45.12,17.19-58.96,17.56l-1.21-1.32Z"/><path class="cls-7" d="M402.19,351.05l-2.82,.93c-7.59-1.2-15.13-2.98-23.02-5.4l-1.4-1.82-1.51-1.88c-.72-6.53-2.88-13.01-6.31-18.87-10.06-17.2-21.38-23.31-28.01-23.31-3.35,0-6.43,1.34-9.14,3.97-3.6,3.49-5.02,9.52-4,17.07l-1.22,.85-1.2,.89c-3.51-1.86-6.96-3.72-10.39-5.57-3.08-1.66-6.01-3.3-8.95-4.86l-3.62-3.35,.29-2.01c13.85-11.18,26.77-20.46,39.26-29.49,1.73-1.25,3.41-2.48,5.12-3.72l2.46-.11,3.66,3.42c13.08,20.91,30.25,46.9,50.88,71.34l-.1,1.94Z"/><path class="cls-7" d="M175.72,466.43l-.6-1.79c15.82-31.51,31.55-61.82,60.68-95.29l3.71-2.24,3.2,.66c24.14,17.23,46.31,37.38,66,59.86l-.03,1.9-2.52,.61c-8.09-2.05-17.56-3.13-28.13-3.43l-1.47-1.39-1.51-1.35c-1.01-7.06-4.23-13.8-9.38-18.33-5.25-4.63-11.06-6.97-17.26-6.97-11.11,0-22.68,7.87-30.96,21.05-4.46,7.11-7.79,15.14-8.4,22.14l-1.45,2.3-1.29,2.28c-9.93,5.57-19.07,13.05-28.14,19.68l-2.46,.34Z"/><path class="cls-7" d="M338.29,156.77c-7.83-3.54-15.86-7.49-23.64-11.33-27.4-13.52-55.79-27.59-84.39-28.59l-3.34-1.28-.02-1.85c17.32-17.46,38.63-32.28,53.9-42.28l2.64-.15,5.03,4.49c14.42,19.43,26.96,39.02,38.15,56.5,5.12,8.01,9.96,15.6,14.34,22.12l-.25,2-2.42,.37Z"/><path class="cls-7" d="M487.74,89.2l-3.31,4.22c-13.72,30.73-26.79,56.03-39.81,77.24l.4,1.91,3.31,.58c18.01-4.56,38.12-10.63,55.06-20.58l.88-2.08h.02c-5.82-25.41-13.1-45.67-16.55-61.29Z"/><path class="cls-3" d="M90.5,133.07c-5.21,0-10.02-1.6-14.28-4.75-4.8-3.55-7.53-10.17-7.64-18.37l1.34-1.89,1.44-1.95c15.06-5.69,27.66-12.78,39.87-19.64,6.56-3.68,13.32-7.5,20.32-10.99l1.41,.81,1.39,.8c.53,9.2-2.2,19.81-7.58,29.28-9.36,16.48-23.26,26.71-36.28,26.71h0Z"/><path class="cls-3" d="M472.54,492.21c-6.45,0-12.56-1.89-17.65-5.48-7.05-4.96-11.49-11.77-12.91-19.66l1.14-1.51,1.22-1.53c19.55-2.52,37.4-7.98,52.42-13.15l1.7,.82,1.66,.86c2.4,8.97,1.08,18.95-3.6,26.99-4.54,7.81-13.73,12.65-23.98,12.65h0Z"/></g><g><path class="cls-5" d="M167.12,194.65l-.51-1.69c18.7-30.55,37.44-55.46,57.19-76.04l3.11-1.35,3.34,1.28c24.83,22.99,46.23,46.91,65.46,73.27l-.32,1.9-2.49,.18c-9.47-5.58-16.93-9.9-25.95-12.98l-1.55-1.94-1.68-1.95c-1.15-6.42-4.15-12.47-8.75-17.64-7.18-8.06-15.95-12.51-24.67-12.51-7.81,0-15.16,3.43-20.92,10.09-5.17,5.97-8.3,13.53-9.04,20.82l-1.51,1.95-1.4,1.93c-9.64,3.49-17.59,8.27-27.56,14.52l-2.77,.16Z"/><path class="cls-5" d="M422.97,467.95c-1.57,0-3.16-.05-4.73-.1l-3.28-1.33-.11-1.84c15.01-16.16,29.71-34.92,43.74-56.01l2.83-1.94,3.03,.58c18.13,13,37.81,24.05,58.59,32.95l2.13,2.35-2.11,1.98c-4.9,1.51-9.62,3.28-15.47,5.35-2.39,.85-4.93,1.74-7.48,2.62l-1.66-.86-1.7-.82c-2.22-6.23-6.29-11.16-11.81-14.28-4.79-2.71-9.69-4.09-14.57-4.09-8.39,0-16.01,4.18-20.91,11.48-3.85,5.73-5.72,13.12-5.13,20.04l-1.22,1.53-1.14,1.51c-6.67,.74-12.71,.88-19.01,.88h0Z"/><path class="cls-2" d="M435.7,146.81c-6.39,0-12.92-2.69-19.41-7.98-5.79-4.73-9.65-10.98-11.24-18.11l1.07-1.4,1.13-1.39c19.31-1.09,37.29-5.54,53.5-13.25l1.5,.76,1.46,.77c.86,6.12,.03,12.6-2.44,18.85-5.47,13.83-14.79,21.76-25.56,21.76h0Z"/><path class="cls-5" d="M475.15,322.82c-11.14-9.73-27.51-6.6-39.12,7.84-4.91,6.11-7.81,13.95-7.71,21.66,16.86-.74,34.84-4.58,54.16-12.74-.46-6.83-2.88-12.88-7.33-16.76Z"/></g><g><path class="cls-1" d="M367.33,367c-8.89,5.92-24.1-6.04-34.41-22.97-4.18-6.86-7.11-14.48-8.16-21.45-8.27-4.37-16.31-8.78-24.16-12.89,19.26,30.73,36.43,58.23,53.75,83.15,17.2-12.35,31.69-26,47.84-41.8-9.42-1.32-18.49-3.52-27.24-6.3,.65,10.03-2.23,18.66-7.62,22.25Z"/><path class="cls-4" d="M208.34,154.37c-5.74,6.65-9.18,15.21-9.49,23.67,23.25-8.01,44.85-7.78,66.56-.77-.81-7.06-3.82-14.25-9.39-20.5-14.31-16.07-34.38-17.8-47.69-2.41Z"/><path class="cls-4" d="M236.95,472.69c-4.57,0-9.15-1.04-13.6-3.08-10.09-4.63-16.49-12.83-17.03-23.2l1.29-2.28,1.45-2.3c22.38-12.03,44.4-17.78,66-17.88l1.51,1.35,1.47,1.39c.55,9.59-2.53,19.2-8.73,27.21-9.39,12.11-20.87,18.78-32.35,18.78h0Z"/><path class="cls-4" d="M485.62,435.41c-14.49-8.21-29.34-4.01-37.28,7.82-3.84,5.71-6.32,14.02-5.22,22.33,20.81-2.52,39.47-8.36,55.34-13.86-2.07-6.69-6.33-12.6-12.84-16.29Z"/><path class="cls-4" d="M481.89,513.38c-5.2-2.53-34.34-17.26-63.65-45.52l-3.28-1.33-2.79,.99c-16.01,16.85-31.02,29.82-47.37,40.25l-.48,2.03c32.91,18.15,70.85,20.39,117.77,5.3l-.21-1.73Z"/><path class="cls-4" d="M252.62,497.87c-11.15-5.18-23.02-10.29-35.55-15.77-12.71-5.56-25.83-9.96-38.89-16l-2.46,.34-3.7,4.43c-1.02,2.06-2.04,4.14-3.07,6.22-13.79,28-28.15,55.69-55.89,86.09l.22,1.76c65.02-13.24,86.16-41.34,139.86-65.26l-.51-1.8Z"/></g><g><path class="cls-2" d="M61.06,504.81c-6.12,0-12.22-.46-18.45-1.15l-3.31-1.62,.97-2.52c27.33-22.46,44.96-44.46,62.91-67.62l3.5-2.38,3.18,.32c18.01,10.53,38.24,22.21,65.25,34.79l.6,1.79-3.7,4.43c-8.27,5.7-17.86,11.43-27.72,16.08l-1.37-.82-1.42-.79c-.77-8.83-5.3-15.9-12.56-19.51-4.18-2.08-8.77-3.13-13.64-3.13-12.9,0-26.23,7.39-33.96,18.84-4.39,6.5-6.55,13.75-6.22,21.05l-1.23,1.41-1.19,1.4c-4.12,.25-7.93-.57-11.65-.57h0Z"/><path class="cls-2" d="M167.12,194.65c-10.4,6.68-20.46,12.62-30.28,17.87-.27,7.96-3.2,17.25-8.96,26.82-14.2,23.61-34.38,33.02-48.22,22.84-6.34-4.66-9.03-13.71-8.28-23.52-11.54,2.99-20.42,5.12-32.07,6.5,15.35,15.02,39.01,33.6,67.38,50.38,27.53-38.74,44.24-74.31,60.44-100.89Z"/><path class="cls-2" d="M280.79,71.43c-7.12-3.64-15.27-6.96-26.13-10.18l-1.7-1.91-1.85-1.91c-1.64-6.15-4.94-12.35-9.23-17.32-7.03-8.14-15.66-12.8-23.69-12.8-6.06,0-11.69,2.55-16.74,7.58-4.98,4.96-7.83,12.7-7.75,20.92l-1.3,1.62-1.24,1.62c-8.28,1.51-16.41,3.55-26.34,6.36l-3.14-.47-.39-1.83c19.24-29.35,36.85-49.24,53.75-60.66l3.38-.6,4.61,1.91c17.58,14.17,38.94,37.27,60.7,65.72l-.32,1.82-2.64,.15Z"/><path class="cls-2" d="M474.35,249.7c-10.82,16.21-32.5,18.5-42.98,4.67-4.22-5.57-6.77-12.22-7.21-19-9.49-.45-17.08-1.15-26.04-2.53,18.68,22,37.26,41.5,57.12,58.77,17.31-21.93,35.69-47.98,56.79-79.44-9.82,6.16-20.77,10.38-29.76,13.9,.28,7.59-2.24,15.76-7.92,23.62Z"/></g><g><path class="cls-4" d="M312.55,431.93l-3.86-2.41-2.52,.61c-21.44,20.3-38.96,42.42-53.54,67.73l.51,1.8c48.1-21.42,91.33-.81,111.19,10.14l.48-2.03c-13.82-27.27-32.22-52.28-52.26-75.84Z"/><path class="cls-4" d="M96.8,399.98c-6.69,0-12.87-2.22-17.89-6.41-5.56-4.65-8.55-12.38-8.35-21.41l1.4-1.58,1.49-1.62c22.22-3.93,43.06-11.08,63.64-21.87l1.35,.79,1.35,.78c-.06,9.71-4.12,21.25-11.19,31.82-8.28,12.39-19.88,19.49-31.8,19.49h0Z"/><path class="cls-1" d="M214.88,280.86c-7.44,8.1-11.11,17.77-11.39,26.7,24.13-10.7,46.35-13.39,66.87-9.71-.98-5.97-3-12.56-7.21-18.31-12.06-16.49-33.72-14.53-48.28,1.32Z"/><path class="cls-4" d="M525.18,442.61l-2.11,1.98c-8.63,23.95-25.24,51.73-41.17,68.79l.21,1.73c42.27-13.59,68.54-15.47,68.54-15.47,0,0-12.41-26.99-25.47-57.03Z"/><path class="cls-4" d="M113.06,563.16c-24.58-16.69-47.63-35.58-70.44-59.5l-3.31-1.62v60.81s32.34,10.56,73.97,2.08l-.22-1.76Z"/></g><path class="cls-1" d="M129.54,464.62c-17.13-8.5-38.74,.53-49.3,16.16-5.11,7.56-6.97,15.71-6.33,23.21,26.3-1.72,49.79-8.9,69.02-17.87-.58-9.83-5.49-17.58-13.39-21.5Z"/><g><path class="cls-7" d="M142.93,486.11c.47,7.91-1.87,17.16-7.73,26.85-13.58,22.5-34.44,23.45-48.32,14.04-7.33-4.97-12.17-13.48-12.98-23.02-11.35,.74-22.01-.31-34.6-1.94,21.15,22.45,44.98,43.32,73.97,62.88,32.29-35.06,46.82-67.34,62.45-98.5-8.73,6.5-20.28,13.85-32.79,19.69Z"/><path class="cls-7" d="M495.34,478.87c-7.33,12.59-26.6,15.94-39.67,6.75-7.9-5.56-11.59-12.81-12.55-20.06-9.32,1.13-18.22,1.48-28.16,.96,33.51,33.15,67.14,48.58,67.14,48.58,15.76-16.56,33.92-45.67,43.08-72.49-7.76,2.24-16.17,5.44-26.72,9.09,2.73,8.82,1.64,18.98-3.12,27.17Z"/><path class="cls-7" d="M128.25,328.76c-13.71-8.18-31.49-1.19-45.61,15.67-6.47,7.72-10.11,17.29-10.68,26.16,22.26-3.75,43.85-10.73,66.49-22.7-.13-7.96-3.12-14.91-10.19-19.13Z"/><path class="cls-7" d="M228.87,91.48c-8.81,0-18.17-3.47-25.67-9.51-6.92-5.58-11.15-13.68-12.03-22.92l1.24-1.62,1.3-1.62c9.54-1.6,18.24-2.37,26.56-2.37,10.7,0,20.82,1.32,30.85,4l1.85,1.91,1.7,1.91c1.28,8.97-1.03,16.98-6.64,22.71-4.81,4.92-11.43,7.51-19.16,7.51h0Z"/><path class="cls-3" d="M266.56,404.61c-16.46-14.49-37.29-6.24-50.23,14.37-5.32,8.47-8.55,17.58-8.72,25.14,22.58-12.48,45.44-19.32,68.96-18.83-.73-7.48-3.86-15.28-10.01-20.69Z"/><path class="cls-4" d="M368.29,323.32c-9.49-16.23-26.72-31.78-39.24-19.62-4.31,4.19-5.46,11.13-4.29,18.88,15.72,8.31,32.31,16.48,50.19,22.17-.45-6.88-2.56-14.41-6.66-21.43Z"/></g><path class="cls-5" d="M380.25,480.54c-7.02,4.62-24.91-2.46-35.1-18.21-5.05-7.81-8.53-16.33-9.97-23.78-8.15-3.3-16.36-6.17-26.49-9.02,24.98,28.73,43.83,56.7,55.65,80.28,18.35-11.52,34.45-25.99,50.64-43.28-10.69-.56-19.25-2.39-28.17-5.42,.95,9.12-1.98,16.43-6.55,19.44Z"/><g><path class="cls-3" d="M102.91,161.67c23,12.88,46.42,24.46,64.22,32.98,18.92-31.04,38.3-57.1,59.79-79.08-35.59,.08-82.08,26.46-124.01,46.1Z"/><path class="cls-3" d="M347.75,274.35c15.96,25.71,33.44,51.99,54.44,76.7,17-16.63,34.31-35.68,53.05-59.43-40.54,10.48-68.67,4.35-107.49-17.26Z"/><path class="cls-6" d="M504.29,150.47h-.02c-18.28,11.15-40.64,17.48-59.25,22.09,20.81,13.79,42.85,26.9,67.01,39.61-.32-23.51-3.72-44.14-7.74-61.69h0Z"/><path class="cls-6" d="M525.18,442.61c-7.92-18.23-13.04-36.59-16.23-54.34-13.72,7.16-31.25,14.54-47.52,18.46,18.68,13.66,39.71,25.84,63.76,35.88Z"/><path class="cls-6" d="M504.24,328.82c.23-24.68,2.6-45.28,4.51-58.92-17.01,9.83-37.49,17.57-53.51,21.71,15.57,13.53,31.72,25.7,49,37.21Z"/><path class="cls-3" d="M340.71,156.4c19.58,28.91,38.44,54.1,57.41,76.44,15.44-15.44,30.85-34.34,46.9-60.28-31.76,7.87-66.94,.49-104.31-16.16Z"/></g><g><path class="cls-7" d="M295.39,192.02c-10.51-6.33-19.42-11.33-29.98-14.74,1.1,9.59-1.85,18.94-7.97,25.39-10.65,11.25-34.21,12.07-48.67-1.16-7.3-6.68-10.24-15.08-9.93-23.47-10.88,3.75-20.28,9.25-31.72,16.61,28.74,13.76,51.61,26.39,71.73,42.47,18.83-17.52,37.96-31.45,56.54-45.1Z"/><path class="cls-7" d="M106.68,429.52c25.35-32.87,43.55-66.13,62.74-101.53-10.72,7.51-20.92,14.56-30.99,19.88,.16,10.15-4.32,21.94-10.95,31.86-14.05,21-35.17,23.29-47.72,12.8-5.87-4.9-8.38-13.08-7.81-21.96-11.17,1.88-20.83,2.51-32.65,3,18.6,21.16,39.91,39.67,67.38,55.94Z"/><path class="cls-1" d="M40.39,113.8c16.36-16.39,38.47-50.14,54.53-78.66l3.5-3.53,2.67-.35c19.84,8.2,40.07,18.91,60.21,31.85l.39,1.83-3.07,2.31c-7.97,2.51-15.78,5.69-24.26,9.84l-1.39-.8-1.41-.81c-.73-6.61-3.37-11.47-7.46-13.72-2.87-1.58-6.15-2.39-9.76-2.39-12.01,0-25.06,8.52-34.06,22.23-5.09,7.75-8.23,16.38-8.92,24.51l-1.44,1.95-1.34,1.89c-8.31,3.03-15.84,5.69-26.35,7.64l-2.92-.87,1.09-2.92Z"/><path class="cls-7" d="M365.09,246.35c-8.91,5.91-25.38-3.58-36.19-20.37-3.67-5.69-6.55-13-7.82-20.02-9.89-4.89-18.71-9.74-25.69-13.95,17.74,24.45,34.14,53,52.36,82.34,17.47-12.68,33.96-25.11,50.37-41.51-8.22-1.26-16.88-3.37-25.63-6.04,.91,8.31-1.31,15.51-7.4,19.55Z"/><path class="cls-7" d="M376.58,119.55c-6.14-.82-11.78-3.24-18.44-5.51l-1.84-2.08-2.02-2.19c-2.17-7.02-6.21-14.8-11.55-22.23-7.47-10.38-18.43-21.48-26.79-21.48-2.17,0-4.01,.76-5.61,2.32-2.73,2.66-2.78,9.27-.12,17.74l-1.14,.89-1.13,.9c-3.98-2.51-16.37-10.15-19.47-12.13l-5.03-4.49,.32-1.82c2.99-1.96,6.05-4.03,8.99-6.03,8.22-5.6,16.03-11.38,25.34-16.21l3.2-.12,4.27,2.55c11.63,12.49,22.5,26.45,31.6,38.9,7.65,10.47,14.91,20.35,21.79,27.72l.27,2.27-2.63,1.01Z"/><path class="cls-7" d="M476.05,364.68c-9.78,16.16-27.54,16.7-38.01,8.07-6.69-5.52-9.63-12.91-9.72-20.43-9.02,.4-17.71-.09-26.12-1.27,17,20,36.35,38.95,59.23,55.68,17.1-26.04,31.61-53.07,42.82-77.91-7.44,4.21-14.69,7.77-21.76,10.76,.54,8.04-1.63,17.17-6.44,25.1Z"/><path class="cls-7" d="M349.2,133.38c-9.19,0-22.15-12.97-30.93-25.81-4.9-7.18-8.37-13.78-10.33-19.66l1.13-.9,1.14-.89c14.68,9.17,29.1,17.86,44.08,23.64l2.02,2.19,1.84,2.08c1.28,6.68,.57,12.11-2.11,15.82-1.67,2.31-4.03,3.53-6.83,3.53h0Z"/><path class="cls-7" d="M376.75,437.97c-14.72-18.75-30.15-24.94-38.52-17.64-3.8,3.31-4.62,10.14-3.06,18.21,20.31,8.24,35.23,16.98,51.62,22.56-.73-7.01-3.74-15.1-10.05-23.13Z"/><path class="cls-7" d="M482.27,226.08c-.36-9.93-5.52-18.86-14.64-24.76-10.24-6.62-27-4.55-36.56,9.23-5.08,7.32-7.47,16.2-6.91,24.82,17.88,.84,36.94-.98,58.11-9.29Z"/></g><g><path class="cls-6" d="M106.68,429.52c-26.36,7.82-50.61,11.06-67.38,8.28v64.24c30.15-24.45,49.02-48.72,67.38-72.52Z"/><path class="cls-6" d="M102.91,161.67c-22.74,10.65-47.5,19.24-63.6,19.26v64.22c25.49-23.19,44.09-52.77,63.6-83.48Z"/><path class="cls-6" d="M106.68,295.54c-29.88,11.78-51.76,15.09-67.38,13.83v64.22c29.86-26.29,49.46-52.84,67.38-78.05Z"/><path class="cls-3" d="M106.68,429.52c21.98,13.02,45.63,26.03,69.04,36.9,15.3-30.52,31.68-63.16,63.79-99.32-43.18,9.63-84.29,48.02-132.83,62.42Z"/><path class="cls-3" d="M238.85,237.12c-48.5,6.67-94.02,43.38-132.17,58.42,21.26,12.58,43.53,24.12,62.74,32.46,21.99-40.56,45.5-68.62,69.42-90.88Z"/></g><g><path class="cls-3" d="M354.35,392.85c18.82,27.09,38.6,51.9,60.61,73.68,16.97-18.14,32.56-38.64,46.45-59.79-33.24,8-70.6,6.74-107.07-13.89Z"/><path class="cls-6" d="M238.85,237.12c22.37,17.88,41.36,40.03,61.76,72.58,16.81-13.64,32.32-24.58,47.15-35.34-28.35-15.78-67.47-42.93-108.9-37.24Z"/><path class="cls-6" d="M295.39,192.02c15.55-11.42,30.75-22.69,45.32-35.61-36.4-16.22-74.7-40.92-113.8-40.83,24.7,22.61,47.69,47.79,68.48,76.45Z"/><path class="cls-3" d="M239.51,367.1c27.76,19.49,50.54,40.98,69.17,62.42,15.79-14.75,31.45-26.47,45.67-36.68-27.33-15.46-62.75-37.36-114.84-25.74Z"/></g><path class="cls-1" d="M308.69,429.52c-10.7-3.01-22.13-4.01-32.12-4.22,.99,10.11-2.15,19.81-8.33,27.78-12.14,15.67-28.16,22.72-44.33,15.31-9.73-4.46-16.56-12.61-16.3-24.26-10.5,5.8-20.95,14.15-31.89,22.3,26.85,12.48,54.03,22.33,77.42,33.24,17-29.78,36.36-52.21,55.55-70.14Z"/><path class="cls-3" d="M125.86,191.11c-15.44-7.54-35.63,9.14-46.27,24.45-4.84,6.97-7.62,15.28-8.21,23.1,21.3-5.52,42.73-13.98,65.47-26.14,.34-9.9-3.43-17.72-10.98-21.41Z"/><path class="cls-3" d="M444.84,83.13c-14.08-6.64-29.18,1.2-35.72,15.02-3.32,7.01-4.27,14.37-3,21.17,19.53-.96,38.57-5.36,56.13-13.88-1.61-9.35-7.41-17.59-17.41-22.31Z"/><path class="cls-1" d="M252.97,59.34c-1.51-7.39-5.31-14.62-10.05-20.11-11.24-13.02-28.27-19.4-42.42-5.3-5.6,5.58-8.58,14.48-8.09,23.5,22.24-3.91,41.35-3.6,60.56,1.91Z"/><path class="cls-4" d="M343.83,86.75c-10.28-14.3-25.57-28.02-34.46-19.34-3.49,3.41-3.06,11.05-.31,19.6,15.19,9.5,30.85,19.01,47.24,24.95-1.98-7.89-6.48-16.88-12.47-25.22Z"/><path class="cls-4" d="M124.74,60.58c-12.77-7.05-32.77,.75-45.59,20.28-5.92,9.02-8.94,18.78-9.24,27.2,24.61-8.98,42.29-21.52,63.05-31.78-.59-7.23-3.35-13.02-8.22-15.7Z"/><path class="cls-1" d="M379.22,118.54c-7.96-.82-15.17-3.77-22.92-6.58,1.75,6.97,1.53,13.08-1.38,17.1-6.9,9.54-24.14-5.59-35.53-22.26-4.22-6.18-8.18-13.14-10.33-19.8-9.84-6.15-16.29-10.64-25.63-15.72,23.51,30.86,42.72,63.62,57.28,85.12,14.52-12.88,26.3-23.86,38.51-37.86Z"/><path class="cls-4" d="M283.43,71.29c-9.8-5.33-20.94-9.21-30.47-11.95,1.73,8.48,.44,17.18-5.91,23.67-10.57,10.81-29.69,8.62-43-2.11-7.55-6.08-11.19-14.84-11.65-23.48-9.89,1.74-19.5,4.25-30.72,7.51,21.92,14.18,43.99,31.19,65.23,50.64,16.39-16.76,36.57-31.31,56.52-44.28Z"/><path class="cls-4" d="M445.02,172.57c13.62-22.01,27.65-49.19,42.72-83.37-8.03,6.53-16.58,11.92-25.5,16.24,1.05,6.12,.31,12.72-2.22,19.12-8.37,21.16-25.37,27.53-42.88,13.23-5.97-4.87-9.7-11.37-11.02-18.48-8.89,.44-17.89,.16-26.9-.77,19.76,20.39,41.61,37.99,65.8,54.03Z"/><path class="cls-2" d="M161.69,64.93c-10.63,3.08-19.95,7.01-28.72,11.35,.72,8.7-1.7,19.47-7.35,29.41-12.92,22.74-33.83,32.47-48.6,21.55-4.96-3.67-7.39-10.76-7.09-19.18-9.78,3.57-18.02,6.58-30.62,8.66,16.24,14.92,38.19,30.73,63.6,44.95,21.06-33.14,39.79-67.6,58.78-96.74Z"/><path class="cls-6" d="M98.42,31.61c20.23,8.18,41.68,19.36,63.26,33.32,17.72-27.18,36.67-50.53,56.75-63.1-37.75-5.57-75.37,.73-120.01,29.77Z"/><path class="cls-6" d="M479.79,29.85s-30.69,17.9-58.49,25.68c15.91,11.34,43.5,25.6,66.44,33.66-7.32-33.15-7.95-59.35-7.95-59.35Z"/><path class="cls-6" d="M321.28,47.11c23.57,24.14,41.71,54.69,57.94,71.43,15.35-17.6,29.17-36.24,42.09-63.01-27.8,7.78-61.11,5.97-100.02-8.43Z"/><path class="cls-6" d="M283.43,71.29c12.24-7.96,23.73-17.26,37.85-24.18C281.94,32.55,256.87,7.51,218.43,1.84c20.09,15.17,44.05,41.96,65,69.45Z"/><path class="cls-6" d="M98.42,31.61c-29.57,19.24-59.12,20.9-59.12,20.9V116.72c18.54-17.43,43.8-57.37,59.12-85.11Z"/></g></g></g></symbol></defs><use width="1362.16" height="612.49" transform="scale(.07)" xlink:href="#UNL_Logo_landscape_7C_onLIGHT"/></svg>